<?xml version="1.0" encoding="UTF-8" standalone="no"?>
<!DOCTYPE svg PUBLIC "-//W3C//DTD SVG 1.1//EN"
 "http://www.w3.org/Graphics/SVG/1.1/DTD/svg11.dtd">
<!-- Generated by graphviz version 2.40.1 (0)
 -->
<!-- Title: G Pages: 1 -->
<svg width="678pt" height="125pt"
 viewBox="0.00 0.00 678.36 125.00" xmlns="http://www.w3.org/2000/svg" xmlns:xlink="http://www.w3.org/1999/xlink">
<g id="graph0" class="graph" transform="scale(1 1) rotate(0) translate(4 121)">
<title>G</title>
<polygon fill="#ffffff" stroke="transparent" points="-4,4 -4,-121 674.3576,-121 674.3576,4 -4,4"/>
<!-- Atomic -->
<g id="node1" class="node">
<title>Atomic</title>
<g id="a_node1"><a xlink:href="http://emmo.info/domains/emmo-material.owl#EMMO_5c4aff3c_c30c_4507_86d5_b4df41eb9f2f" xlink:title="Atomic" target="_top">
<ellipse fill="#ffffcc" stroke="#000000" stroke-width="3" cx="44.1961" cy="-37" rx="44.393" ry="18"/>
<text text-anchor="middle" x="44.1961" y="-33.3" font-family="Times,serif" font-size="14.00" fill="#000000">Atomic</text>
</a>
</g>
</g>
<!-- Atom -->
<g id="node2" class="node">
<title>Atom</title>
<g id="a_node2"><a xlink:href="http://emmo.info/domains/emmo-material.owl#EMMO_eb77076b_a104_42ac_a065_798b2d2809ad" xlink:title="Atom" target="_top">
<ellipse fill="#ffffcc" stroke="#000000" cx="188.139" cy="-37" rx="35.9954" ry="18"/>
<text text-anchor="middle" x="188.139" y="-33.3" font-family="Times,serif" font-size="14.00" fill="#000000">Atom</text>
</a>
</g>
</g>
<!-- Atom&#45;&gt;Atomic -->
<g id="edge1" class="edge">
<title>Atom&#45;&gt;Atomic</title>
<path fill="none" stroke="#000000" d="M152.1874,-37C135.9625,-37 116.4471,-37 98.4952,-37"/>
<polygon fill="none" stroke="#000000" points="98.4294,-33.5001 88.4294,-37 98.4293,-40.5001 98.4294,-33.5001"/>
<text text-anchor="middle" x="120.3922" y="-40.8" font-family="Times,serif" font-size="14.00" fill="#000000">is_a</text>
</g>
<!-- StandaloneAtom -->
<g id="node3" class="node">
<title>StandaloneAtom</title>
<g id="a_node3"><a xlink:href="http://emmo.info/domains/emmo-material.owl#EMMO_2fd3f574_5e93_47fe_afca_ed80b0a21ab4" xlink:title="StandaloneAtom" target="_top">
<ellipse fill="#ffffcc" stroke="#000000" cx="375.628" cy="-72" rx="87.9851" ry="18"/>
<text text-anchor="middle" x="375.628" y="-68.3" font-family="Times,serif" font-size="14.00" fill="#000000">StandaloneAtom</text>
</a>
</g>
</g>
<!-- StandaloneAtom&#45;&gt;Atom -->
<g id="edge2" class="edge">
<title>StandaloneAtom&#45;&gt;Atom</title>
<path fill="none" stroke="#000000" d="M310.5796,-59.8569C284.5067,-54.9897 255.1562,-49.5106 231.7286,-45.1372"/>
<polygon fill="none" stroke="#000000" points="232.2195,-41.6685 221.747,-43.2739 230.9349,-48.5496 232.2195,-41.6685"/>
<text text-anchor="middle" x="255.8858" y="-54.8" font-family="Times,serif" font-size="14.00" fill="#000000">is_a</text>
</g>
<!-- NeutralAtom -->
<g id="node4" class="node">
<title>NeutralAtom</title>
<g id="a_node4"><a xlink:href="http://emmo.info/domains/emmo-material.owl#EMMO_4588526f_8553_4f4d_aa73_a483e88d599b" xlink:title="NeutralAtom" target="_top">
<ellipse fill="#ffffcc" stroke="#000000" cx="598.8639" cy="-99" rx="71.4873" ry="18"/>
<text text-anchor="middle" x="598.8639" y="-95.3" font-family="Times,serif" font-size="14.00" fill="#000000">NeutralAtom</text>
</a>
</g>
</g>
<!-- NeutralAtom&#45;&gt;StandaloneAtom -->
<g id="edge3" class="edge">
<title>NeutralAtom&#45;&gt;StandaloneAtom</title>
<path fill="none" stroke="#000000" d="M534.2948,-91.1905C511.6475,-88.4513 485.837,-85.3296 461.7089,-82.4113"/>
<polygon fill="none" stroke="#000000" points="461.8333,-78.901 451.4854,-81.1748 460.9927,-85.8503 461.8333,-78.901"/>
<text text-anchor="middle" x="495.3702" y="-90.8" font-family="Times,serif" font-size="14.00" fill="#000000">is_a</text>
</g>
<!-- IonAtom -->
<g id="node5" class="node">
<title>IonAtom</title>
<g id="a_node5"><a xlink:href="http://emmo.info/domains/emmo-material.owl#EMMO_db03061b_db31_4132_a47a_6a634846578b" xlink:title="IonAtom" target="_top">
<ellipse fill="#ffffcc" stroke="#000000" cx="598.8639" cy="-45" rx="50.8918" ry="18"/>
<text text-anchor="middle" x="598.8639" y="-41.3" font-family="Times,serif" font-size="14.00" fill="#000000">IonAtom</text>
</a>
</g>
</g>
<!-- IonAtom&#45;&gt;StandaloneAtom -->
<g id="edge4" class="edge">
<title>IonAtom&#45;&gt;StandaloneAtom</title>
<path fill="none" stroke="#000000" d="M550.6999,-50.8254C524.6745,-53.9731 491.7572,-57.9544 461.5074,-61.613"/>
<polygon fill="none" stroke="#000000" points="460.8722,-58.1643 451.3649,-62.8398 461.7128,-65.1136 460.8722,-58.1643"/>
<text text-anchor="middle" x="495.3702" y="-61.8" font-family="Times,serif" font-size="14.00" fill="#000000">is_a</text>
</g>
<!-- BondedAtom -->
<g id="node6" class="node">
<title>BondedAtom</title>
<g id="a_node6"><a xlink:href="http://emmo.info/domains/emmo-material.owl#EMMO_8303a247_f9d9_4616_bdcd_f5cbd7b298e3" xlink:title="BondedAtom" target="_top">
<ellipse fill="#ffffcc" stroke="#000000" cx="375.628" cy="-18" rx="70.6878" ry="18"/>
<text text-anchor="middle" x="375.628" y="-14.3" font-family="Times,serif" font-size="14.00" fill="#000000">BondedAtom</text>
</a>
</g>
</g>
<!-- BondedAtom&#45;&gt;Atom -->
<g id="edge5" class="edge">
<title>BondedAtom&#45;&gt;Atom</title>
<path fill="none" stroke="#000000" d="M305.7197,-21.1587C285.1122,-22.5068 262.5499,-24.3914 241.8858,-27 238.4385,-27.4352 234.878,-27.9504 231.3072,-28.5139"/>
<polygon fill="none" stroke="#000000" points="230.5797,-25.0871 221.302,-30.2032 231.7452,-31.9894 230.5797,-25.0871"/>
<text text-anchor="middle" x="255.8858" y="-30.8" font-family="Times,serif" font-size="14.00" fill="#000000">is_a</text>
</g>
</g>
</svg>
