<?xml version="1.0" encoding="UTF-8" standalone="no"?>
<!DOCTYPE svg PUBLIC "-//W3C//DTD SVG 1.1//EN"
 "http://www.w3.org/Graphics/SVG/1.1/DTD/svg11.dtd">
<!-- Generated by graphviz version 2.40.1 (0)
 -->
<!-- Title: G Pages: 1 -->
<svg width="560pt" height="218pt"
 viewBox="0.00 0.00 559.76 218.00" xmlns="http://www.w3.org/2000/svg" xmlns:xlink="http://www.w3.org/1999/xlink">
<g id="graph0" class="graph" transform="scale(1 1) rotate(0) translate(4 214)">
<title>G</title>
<polygon fill="#ffffff" stroke="transparent" points="-4,4 -4,-214 555.7624,-214 555.7624,4 -4,4"/>
<!-- connected -->
<g id="node1" class="node">
<title>connected</title>
<g id="a_node1"><a xlink:href="http://emmo.info/base/emmo-mereotopology.owl#EMMO_6703954e_34c4_4a15_a9e7_f313760ae1a8" xlink:title="connected" target="_top">
<ellipse fill="#ffffcc" stroke="#000000" stroke-width="3" cx="59.1448" cy="-105" rx="59.2899" ry="18"/>
<text text-anchor="middle" x="59.1448" y="-101.3" font-family="Times,serif" font-size="14.00" fill="#000000">connected</text>
</a>
</g>
</g>
<!-- connected&#45;&gt;connected -->
<g id="edge7" class="edge">
<title>connected&#45;&gt;connected</title>
<path fill="none" stroke="#ffa500" d="M75.2123,-122.4099C78.2115,-132.0879 72.8557,-141 59.1448,-141 50.5754,-141 45.2698,-137.5187 43.2279,-132.5449"/>
<polygon fill="#ffa500" stroke="#ffa500" points="46.7256,-132.3567 43.0772,-122.4099 39.7263,-132.4608 46.7256,-132.3567"/>
<text text-anchor="middle" x="59.1448" y="-144.8" font-family="Times,serif" font-size="14.00" fill="#000000">connected</text>
</g>
<!-- encloses -->
<g id="node2" class="node">
<title>encloses</title>
<g id="a_node2"><a xlink:href="http://emmo.info/base/emmo-mereotopology.owl#EMMO_8c898653_1118_4682_9bbf_6cc334d16a99" xlink:title="encloses" target="_top">
<ellipse fill="#ffffcc" stroke="#000000" cx="268.7318" cy="-192" rx="50.8918" ry="18"/>
<text text-anchor="middle" x="268.7318" y="-188.3" font-family="Times,serif" font-size="14.00" fill="#000000">encloses</text>
</a>
</g>
</g>
<!-- encloses&#45;&gt;connected -->
<g id="edge1" class="edge">
<title>encloses&#45;&gt;connected</title>
<path fill="none" stroke="#000000" d="M228.7035,-180.8697C213.9442,-176.4083 197.1938,-170.9195 182.2895,-165 153.2161,-153.4529 121.5078,-137.9313 97.5482,-125.5681"/>
<polygon fill="none" stroke="#000000" points="98.9271,-122.3401 88.4407,-120.8284 95.6955,-128.5496 98.9271,-122.3401"/>
<text text-anchor="middle" x="150.2895" y="-159.8" font-family="Times,serif" font-size="14.00" fill="#000000">is_a</text>
</g>
<!-- hasPart -->
<g id="node3" class="node">
<title>hasPart</title>
<g id="a_node3"><a xlink:href="http://emmo.info/base/emmo-mereotopology.owl#EMMO_17e27c22_37e1_468c_9dd7_95e137f73e7f" xlink:title="hasPart" target="_top">
<ellipse fill="#ffffcc" stroke="#000000" stroke-width="3" cx="485.4683" cy="-192" rx="46.2923" ry="18"/>
<text text-anchor="middle" x="485.4683" y="-188.3" font-family="Times,serif" font-size="14.00" fill="#000000">hasPart</text>
</a>
</g>
</g>
<!-- hasPart&#45;&gt;encloses -->
<g id="edge2" class="edge">
<title>hasPart&#45;&gt;encloses</title>
<path fill="none" stroke="#000000" d="M439.2387,-192C407.2164,-192 364.2608,-192 329.4767,-192"/>
<polygon fill="none" stroke="#000000" points="329.4331,-188.5001 319.4331,-192 329.433,-195.5001 329.4331,-188.5001"/>
<text text-anchor="middle" x="387.1742" y="-195.8" font-family="Times,serif" font-size="14.00" fill="#000000">is_a</text>
</g>
<!-- hasOverlapWith -->
<g id="node4" class="node">
<title>hasOverlapWith</title>
<g id="a_node4"><a xlink:href="http://emmo.info/base/emmo-mereotopology.owl#EMMO_d893d373_b579_4867_841e_1c2b31a8d2c6" xlink:title="hasOverlapWith" target="_top">
<ellipse fill="#ffffcc" stroke="#000000" cx="268.7318" cy="-105" rx="86.3847" ry="18"/>
<text text-anchor="middle" x="268.7318" y="-101.3" font-family="Times,serif" font-size="14.00" fill="#000000">hasOverlapWith</text>
</a>
</g>
</g>
<!-- hasPart&#45;&gt;hasOverlapWith -->
<g id="edge4" class="edge">
<title>hasPart&#45;&gt;hasOverlapWith</title>
<path fill="none" stroke="#000000" d="M453.0206,-178.9752C417.3053,-164.6387 359.4799,-141.4271 318.1279,-124.828"/>
<polygon fill="none" stroke="#000000" points="319.3668,-121.5539 308.7827,-121.0768 316.7591,-128.0501 319.3668,-121.5539"/>
<text text-anchor="middle" x="387.1742" y="-159.8" font-family="Times,serif" font-size="14.00" fill="#000000">is_a</text>
</g>
<!-- hasOverlapWith&#45;&gt;connected -->
<g id="edge3" class="edge">
<title>hasOverlapWith&#45;&gt;connected</title>
<path fill="none" stroke="#000000" d="M182.2747,-105C164.5326,-105 146.0668,-105 128.9976,-105"/>
<polygon fill="none" stroke="#000000" points="128.5691,-101.5001 118.569,-105 128.569,-108.5001 128.5691,-101.5001"/>
<text text-anchor="middle" x="150.2895" y="-108.8" font-family="Times,serif" font-size="14.00" fill="#000000">is_a</text>
</g>
<!-- hasOverlapWith&#45;&gt;hasOverlapWith -->
<g id="edge8" class="edge">
<title>hasOverlapWith&#45;&gt;hasOverlapWith</title>
<path fill="none" stroke="#ffa500" d="M289.944,-122.7817C293.5486,-132.3149 286.4779,-141 268.7318,-141 257.9178,-141 251.068,-137.7749 248.1823,-133.0981"/>
<polygon fill="#ffa500" stroke="#ffa500" points="251.6535,-132.5368 247.5197,-122.7817 244.6679,-132.9855 251.6535,-132.5368"/>
<text text-anchor="middle" x="268.7318" y="-144.8" font-family="Times,serif" font-size="14.00" fill="#000000">hasOverlapWith</text>
</g>
<!-- overcrosses -->
<g id="node5" class="node">
<title>overcrosses</title>
<g id="a_node5"><a xlink:href="http://emmo.info/base/emmo-mereotopology.owl#EMMO_9cb984ca_48ad_4864_b09e_50d3fff19420" xlink:title="overcrosses" target="_top">
<ellipse fill="#ffffcc" stroke="#000000" cx="485.4683" cy="-105" rx="66.0889" ry="18"/>
<text text-anchor="middle" x="485.4683" y="-101.3" font-family="Times,serif" font-size="14.00" fill="#000000">overcrosses</text>
</a>
</g>
</g>
<!-- overcrosses&#45;&gt;hasOverlapWith -->
<g id="edge5" class="edge">
<title>overcrosses&#45;&gt;hasOverlapWith</title>
<path fill="none" stroke="#000000" d="M418.9673,-105C402.1418,-105 383.7252,-105 365.7314,-105"/>
<polygon fill="none" stroke="#000000" points="365.4974,-101.5001 355.4973,-105 365.4973,-108.5001 365.4974,-101.5001"/>
<text text-anchor="middle" x="387.1742" y="-108.8" font-family="Times,serif" font-size="14.00" fill="#000000">is_a</text>
</g>
<!-- overcrosses&#45;&gt;overcrosses -->
<g id="edge9" class="edge">
<title>overcrosses&#45;&gt;overcrosses</title>
<path fill="none" stroke="#ffa500" d="M502.964,-122.4099C506.2299,-132.0879 500.398,-141 485.4683,-141 476.1372,-141 470.36,-137.5187 468.1366,-132.5449"/>
<polygon fill="#ffa500" stroke="#ffa500" points="471.634,-132.3519 467.9726,-122.4099 464.6349,-132.4653 471.634,-132.3519"/>
<text text-anchor="middle" x="485.4683" y="-144.8" font-family="Times,serif" font-size="14.00" fill="#000000">overcrosses</text>
</g>
<!-- hasContactWith -->
<g id="node6" class="node">
<title>hasContactWith</title>
<g id="a_node6"><a xlink:href="http://emmo.info/base/emmo-mereotopology.owl#EMMO_4d6504f1_c470_4ce9_b941_bbbebc9ab05d" xlink:title="hasContactWith" target="_top">
<ellipse fill="#ffffcc" stroke="#000000" cx="268.7318" cy="-18" rx="86.3847" ry="18"/>
<text text-anchor="middle" x="268.7318" y="-14.3" font-family="Times,serif" font-size="14.00" fill="#000000">hasContactWith</text>
</a>
</g>
</g>
<!-- hasContactWith&#45;&gt;connected -->
<g id="edge6" class="edge">
<title>hasContactWith&#45;&gt;connected</title>
<path fill="none" stroke="#000000" d="M229.8013,-34.1601C194.1576,-48.9559 141.4178,-70.8483 104.0162,-86.3738"/>
<polygon fill="none" stroke="#000000" points="102.274,-83.3073 94.38,-90.3738 104.9578,-89.7724 102.274,-83.3073"/>
<text text-anchor="middle" x="150.2895" y="-74.8" font-family="Times,serif" font-size="14.00" fill="#000000">is_a</text>
</g>
<!-- hasContactWith&#45;&gt;hasContactWith -->
<g id="edge10" class="edge">
<title>hasContactWith&#45;&gt;hasContactWith</title>
<path fill="none" stroke="#ffa500" d="M289.944,-35.7817C293.5486,-45.3149 286.4779,-54 268.7318,-54 257.9178,-54 251.068,-50.7749 248.1823,-46.0981"/>
<polygon fill="#ffa500" stroke="#ffa500" points="251.6535,-45.5368 247.5197,-35.7817 244.6679,-45.9855 251.6535,-45.5368"/>
<text text-anchor="middle" x="268.7318" y="-57.8" font-family="Times,serif" font-size="14.00" fill="#000000">hasContactWith</text>
</g>
</g>
</svg>
