<?xml version="1.0" encoding="UTF-8" standalone="no"?>
<!DOCTYPE svg PUBLIC "-//W3C//DTD SVG 1.1//EN"
 "http://www.w3.org/Graphics/SVG/1.1/DTD/svg11.dtd">
<!-- Generated by graphviz version 2.40.1 (0)
 -->
<!-- Title: G Pages: 1 -->
<svg width="560pt" height="152pt"
 viewBox="0.00 0.00 559.76 152.00" xmlns="http://www.w3.org/2000/svg" xmlns:xlink="http://www.w3.org/1999/xlink">
<g id="graph0" class="graph" transform="scale(1 1) rotate(0) translate(4 148)">
<title>G</title>
<polygon fill="#ffffff" stroke="transparent" points="-4,4 -4,-148 555.7624,-148 555.7624,4 -4,4"/>
<!-- connected -->
<g id="node1" class="node">
<title>connected</title>
<g id="a_node1"><a xlink:href="http://emmo.info/base/emmo-mereotopology.owl#EMMO_6703954e_34c4_4a15_a9e7_f313760ae1a8" xlink:title="connected" target="_top">
<ellipse fill="#ffffcc" stroke="#000000" stroke-width="3" cx="59.1448" cy="-72" rx="59.2899" ry="18"/>
<text text-anchor="middle" x="59.1448" y="-68.3" font-family="Times,serif" font-size="14.00" fill="#000000">connected</text>
</a>
</g>
</g>
<!-- encloses -->
<g id="node2" class="node">
<title>encloses</title>
<g id="a_node2"><a xlink:href="http://emmo.info/base/emmo-mereotopology.owl#EMMO_8c898653_1118_4682_9bbf_6cc334d16a99" xlink:title="encloses" target="_top">
<ellipse fill="#ffffcc" stroke="#000000" cx="268.7318" cy="-126" rx="50.8918" ry="18"/>
<text text-anchor="middle" x="268.7318" y="-122.3" font-family="Times,serif" font-size="14.00" fill="#000000">encloses</text>
</a>
</g>
</g>
<!-- encloses&#45;&gt;connected -->
<g id="edge1" class="edge">
<title>encloses&#45;&gt;connected</title>
<path fill="none" stroke="#000000" d="M227.3242,-115.3313C194.9378,-106.987 149.6136,-95.3092 114.1766,-86.1789"/>
<polygon fill="none" stroke="#000000" points="115.0197,-82.7819 104.4627,-83.6761 113.2732,-89.5605 115.0197,-82.7819"/>
<text text-anchor="middle" x="150.2895" y="-102.8" font-family="Times,serif" font-size="14.00" fill="#000000">is_a</text>
</g>
<!-- hasPart -->
<g id="node3" class="node">
<title>hasPart</title>
<g id="a_node3"><a xlink:href="http://emmo.info/base/emmo-mereotopology.owl#EMMO_17e27c22_37e1_468c_9dd7_95e137f73e7f" xlink:title="hasPart" target="_top">
<ellipse fill="#ffffcc" stroke="#000000" stroke-width="3" cx="485.4683" cy="-115" rx="46.2923" ry="18"/>
<text text-anchor="middle" x="485.4683" y="-111.3" font-family="Times,serif" font-size="14.00" fill="#000000">hasPart</text>
</a>
</g>
</g>
<!-- hasPart&#45;&gt;encloses -->
<g id="edge2" class="edge">
<title>hasPart&#45;&gt;encloses</title>
<path fill="none" stroke="#000000" d="M439.5041,-117.3328C407.3848,-118.963 364.1708,-121.1562 329.2509,-122.9285"/>
<polygon fill="none" stroke="#000000" points="328.9806,-119.4376 319.1709,-123.4401 329.3355,-126.4286 328.9806,-119.4376"/>
<text text-anchor="middle" x="387.1742" y="-123.8" font-family="Times,serif" font-size="14.00" fill="#000000">is_a</text>
</g>
<!-- hasOverlapWith -->
<g id="node4" class="node">
<title>hasOverlapWith</title>
<g id="a_node4"><a xlink:href="http://emmo.info/base/emmo-mereotopology.owl#EMMO_d893d373_b579_4867_841e_1c2b31a8d2c6" xlink:title="hasOverlapWith" target="_top">
<ellipse fill="#ffffcc" stroke="#000000" cx="268.7318" cy="-72" rx="86.3847" ry="18"/>
<text text-anchor="middle" x="268.7318" y="-68.3" font-family="Times,serif" font-size="14.00" fill="#000000">hasOverlapWith</text>
</a>
</g>
</g>
<!-- hasPart&#45;&gt;hasOverlapWith -->
<g id="edge4" class="edge">
<title>hasPart&#45;&gt;hasOverlapWith</title>
<path fill="none" stroke="#000000" d="M444.1917,-106.8108C415.2391,-101.0667 375.753,-93.2328 341.5702,-86.451"/>
<polygon fill="none" stroke="#000000" points="342.1077,-82.9894 331.6177,-84.4764 340.7454,-89.8556 342.1077,-82.9894"/>
<text text-anchor="middle" x="387.1742" y="-100.8" font-family="Times,serif" font-size="14.00" fill="#000000">is_a</text>
</g>
<!-- hasOverlapWith&#45;&gt;connected -->
<g id="edge3" class="edge">
<title>hasOverlapWith&#45;&gt;connected</title>
<path fill="none" stroke="#000000" d="M182.2747,-72C164.5326,-72 146.0668,-72 128.9976,-72"/>
<polygon fill="none" stroke="#000000" points="128.5691,-68.5001 118.569,-72 128.569,-75.5001 128.5691,-68.5001"/>
<text text-anchor="middle" x="150.2895" y="-75.8" font-family="Times,serif" font-size="14.00" fill="#000000">is_a</text>
</g>
<!-- overcrosses -->
<g id="node5" class="node">
<title>overcrosses</title>
<g id="a_node5"><a xlink:href="http://emmo.info/base/emmo-mereotopology.owl#EMMO_9cb984ca_48ad_4864_b09e_50d3fff19420" xlink:title="overcrosses" target="_top">
<ellipse fill="#ffffcc" stroke="#000000" cx="485.4683" cy="-50" rx="66.0889" ry="18"/>
<text text-anchor="middle" x="485.4683" y="-46.3" font-family="Times,serif" font-size="14.00" fill="#000000">overcrosses</text>
</a>
</g>
</g>
<!-- overcrosses&#45;&gt;hasOverlapWith -->
<g id="edge5" class="edge">
<title>overcrosses&#45;&gt;hasOverlapWith</title>
<path fill="none" stroke="#000000" d="M419.144,-48.5092C404.005,-48.7464 388.0088,-49.4567 373.1742,-51 361.1018,-52.256 348.3556,-54.248 336.0742,-56.5162"/>
<polygon fill="none" stroke="#000000" points="335.0503,-53.149 325.8923,-58.4763 336.3737,-60.0227 335.0503,-53.149"/>
<text text-anchor="middle" x="387.1742" y="-54.8" font-family="Times,serif" font-size="14.00" fill="#000000">is_a</text>
</g>
<!-- hasContactWith -->
<g id="node6" class="node">
<title>hasContactWith</title>
<g id="a_node6"><a xlink:href="http://emmo.info/base/emmo-mereotopology.owl#EMMO_4d6504f1_c470_4ce9_b941_bbbebc9ab05d" xlink:title="hasContactWith" target="_top">
<ellipse fill="#ffffcc" stroke="#000000" cx="268.7318" cy="-18" rx="86.3847" ry="18"/>
<text text-anchor="middle" x="268.7318" y="-14.3" font-family="Times,serif" font-size="14.00" fill="#000000">hasContactWith</text>
</a>
</g>
</g>
<!-- hasContactWith&#45;&gt;connected -->
<g id="edge6" class="edge">
<title>hasContactWith&#45;&gt;connected</title>
<path fill="none" stroke="#000000" d="M214.2124,-32.0469C183.4587,-39.9706 145.1344,-49.8448 114.2803,-57.7943"/>
<polygon fill="none" stroke="#000000" points="113.3548,-54.4184 104.5444,-60.3028 115.1014,-61.197 113.3548,-54.4184"/>
<text text-anchor="middle" x="150.2895" y="-54.8" font-family="Times,serif" font-size="14.00" fill="#000000">is_a</text>
</g>
</g>
</svg>
