<?xml version="1.0" encoding="UTF-8" standalone="no"?>
<!DOCTYPE svg PUBLIC "-//W3C//DTD SVG 1.1//EN"
 "http://www.w3.org/Graphics/SVG/1.1/DTD/svg11.dtd">
<!-- Generated by graphviz version 2.40.1 (0)
 -->
<!-- Title: G Pages: 1 -->
<svg width="720pt" height="233pt"
 viewBox="0.00 0.00 719.95 233.00" xmlns="http://www.w3.org/2000/svg" xmlns:xlink="http://www.w3.org/1999/xlink">
<g id="graph0" class="graph" transform="scale(1 1) rotate(0) translate(4 229)">
<title>G</title>
<polygon fill="#ffffff" stroke="transparent" points="-4,4 -4,-229 715.9539,-229 715.9539,4 -4,4"/>
<!-- Conventional -->
<g id="node1" class="node">
<title>Conventional</title>
<g id="a_node1"><a xlink:href="http://emmo.info/perspectives/emmo-semiotics.owl#EMMO_35d2e130_6e01_41ed_94f7_00b333d46cf9" xlink:title="Conventional" target="_top">
<ellipse fill="#ffffcc" stroke="#000000" stroke-width="3" cx="72.1436" cy="-99" rx="72.2875" ry="18"/>
<text text-anchor="middle" x="72.1436" y="-95.3" font-family="Times,serif" font-size="14.00" fill="#000000">Conventional</text>
</a>
</g>
</g>
<!-- Variable -->
<g id="node2" class="node">
<title>Variable</title>
<g id="a_node2"><a xlink:href="http://emmo.info/domains/emmo-math.owl#EMMO_1eed0732_e3f1_4b2c_a9c4_b4e75eeb5895" xlink:title="Variable" target="_top">
<ellipse fill="#ffffcc" stroke="#000000" cx="260.2826" cy="-153" rx="48.9926" ry="18"/>
<text text-anchor="middle" x="260.2826" y="-149.3" font-family="Times,serif" font-size="14.00" fill="#000000">Variable</text>
</a>
</g>
</g>
<!-- Variable&#45;&gt;Conventional -->
<g id="edge1" class="edge">
<title>Variable&#45;&gt;Conventional</title>
<path fill="none" stroke="#000000" d="M221.7559,-141.942C195.1946,-134.3183 159.4289,-124.0528 129.5272,-115.4704"/>
<polygon fill="none" stroke="#000000" points="130.2108,-112.0253 119.6332,-112.6306 128.2796,-118.7536 130.2108,-112.0253"/>
<text text-anchor="middle" x="176.2872" y="-135.8" font-family="Times,serif" font-size="14.00" fill="#000000">is_a</text>
</g>
<!-- Constant -->
<g id="node3" class="node">
<title>Constant</title>
<g id="a_node3"><a xlink:href="http://emmo.info/domains/emmo-math.owl#EMMO_ae15fb4f_8e4d_41de_a0f9_3997f89ba6a2" xlink:title="Constant" target="_top">
<ellipse fill="#ffffcc" stroke="#000000" cx="442.5721" cy="-207" rx="53.0913" ry="18"/>
<text text-anchor="middle" x="442.5721" y="-203.3" font-family="Times,serif" font-size="14.00" fill="#000000">Constant</text>
</a>
</g>
</g>
<!-- Constant&#45;&gt;Variable -->
<g id="edge2" class="edge">
<title>Constant&#45;&gt;Variable</title>
<path fill="none" stroke="#000000" d="M402.1161,-195.0156C374.316,-186.7804 337.291,-175.8124 308.0413,-167.1477"/>
<polygon fill="none" stroke="#000000" points="309.0267,-163.7893 298.4444,-164.3048 307.0384,-170.501 309.0267,-163.7893"/>
<text text-anchor="middle" x="344.278" y="-184.8" font-family="Times,serif" font-size="14.00" fill="#000000">is_a</text>
</g>
<!-- Parameter -->
<g id="node4" class="node">
<title>Parameter</title>
<g id="a_node4"><a xlink:href="http://emmo.info/domains/emmo-math.owl#EMMO_d1d436e7_72fc_49cd_863b_7bfb4ba5276a" xlink:title="Parameter" target="_top">
<ellipse fill="#ffffcc" stroke="#000000" cx="442.5721" cy="-153" rx="59.5901" ry="18"/>
<text text-anchor="middle" x="442.5721" y="-149.3" font-family="Times,serif" font-size="14.00" fill="#000000">Parameter</text>
</a>
</g>
</g>
<!-- Parameter&#45;&gt;Variable -->
<g id="edge3" class="edge">
<title>Parameter&#45;&gt;Variable</title>
<path fill="none" stroke="#000000" d="M382.6312,-153C362.3024,-153 339.6183,-153 319.3574,-153"/>
<polygon fill="none" stroke="#000000" points="319.3188,-149.5001 309.3187,-153 319.3187,-156.5001 319.3188,-149.5001"/>
<text text-anchor="middle" x="344.278" y="-156.8" font-family="Times,serif" font-size="14.00" fill="#000000">is_a</text>
</g>
<!-- Unknown -->
<g id="node5" class="node">
<title>Unknown</title>
<g id="a_node5"><a xlink:href="http://emmo.info/domains/emmo-math.owl#EMMO_fe7e56ce_118b_4243_9aad_20eb9f4f31f6" xlink:title="Unknown" target="_top">
<ellipse fill="#ffffcc" stroke="#000000" cx="442.5721" cy="-99" rx="55.4913" ry="18"/>
<text text-anchor="middle" x="442.5721" y="-95.3" font-family="Times,serif" font-size="14.00" fill="#000000">Unknown</text>
</a>
</g>
</g>
<!-- Unknown&#45;&gt;Variable -->
<g id="edge4" class="edge">
<title>Unknown&#45;&gt;Variable</title>
<path fill="none" stroke="#000000" d="M401.6628,-111.1187C374.0563,-119.2966 337.5081,-130.1233 308.488,-138.72"/>
<polygon fill="none" stroke="#000000" points="307.1581,-135.4635 298.5641,-141.6598 309.1464,-142.1752 307.1581,-135.4635"/>
<text text-anchor="middle" x="344.278" y="-133.8" font-family="Times,serif" font-size="14.00" fill="#000000">is_a</text>
</g>
<!-- Property -->
<g id="node6" class="node">
<title>Property</title>
<g id="a_node6"><a xlink:href="http://emmo.info/domains/emmo-properties.owl#EMMO_b7bcff25_ffc3_474e_9ab5_01b1664bd4ba" xlink:title="Property" target="_top">
<ellipse fill="#ffffcc" stroke="#000000" stroke-width="3" cx="260.2826" cy="-99" rx="51.9908" ry="18"/>
<text text-anchor="middle" x="260.2826" y="-95.3" font-family="Times,serif" font-size="14.00" fill="#000000">Property</text>
</a>
</g>
</g>
<!-- Property&#45;&gt;Conventional -->
<g id="edge5" class="edge">
<title>Property&#45;&gt;Conventional</title>
<path fill="none" stroke="#000000" d="M207.8754,-99C191.2706,-99 172.4954,-99 154.3219,-99"/>
<polygon fill="none" stroke="#000000" points="154.3051,-95.5001 144.3051,-99 154.305,-102.5001 154.3051,-95.5001"/>
<text text-anchor="middle" x="176.2872" y="-102.8" font-family="Times,serif" font-size="14.00" fill="#000000">is_a</text>
</g>
<!-- Theory -->
<g id="node7" class="node">
<title>Theory</title>
<g id="a_node7"><a xlink:href="http://emmo.info/domains/emmo-models.owl#EMMO_8d2d9374_ef3a_47e6_8595_6bc208e07519" xlink:title="Theory" target="_top">
<ellipse fill="#ffffcc" stroke="#000000" cx="260.2826" cy="-45" rx="43.5923" ry="18"/>
<text text-anchor="middle" x="260.2826" y="-41.3" font-family="Times,serif" font-size="14.00" fill="#000000">Theory</text>
</a>
</g>
</g>
<!-- Theory&#45;&gt;Conventional -->
<g id="edge6" class="edge">
<title>Theory&#45;&gt;Conventional</title>
<path fill="none" stroke="#000000" d="M224.4522,-55.2841C197.6115,-62.988 160.3418,-73.6852 129.3886,-82.5694"/>
<polygon fill="none" stroke="#000000" points="128.2283,-79.2611 119.582,-85.3841 130.1595,-85.9894 128.2283,-79.2611"/>
<text text-anchor="middle" x="176.2872" y="-75.8" font-family="Times,serif" font-size="14.00" fill="#000000">is_a</text>
</g>
<!-- NaturalLaw -->
<g id="node8" class="node">
<title>NaturalLaw</title>
<g id="a_node8"><a xlink:href="http://emmo.info/domains/emmo-models.owl#EMMO_db9a009e_f097_43f5_9520_6cbc07e7610b" xlink:title="NaturalLaw" target="_top">
<ellipse fill="#ffffcc" stroke="#000000" cx="442.5721" cy="-45" rx="66.0889" ry="18"/>
<text text-anchor="middle" x="442.5721" y="-41.3" font-family="Times,serif" font-size="14.00" fill="#000000">NaturalLaw</text>
</a>
</g>
</g>
<!-- NaturalLaw&#45;&gt;Theory -->
<g id="edge7" class="edge">
<title>NaturalLaw&#45;&gt;Theory</title>
<path fill="none" stroke="#000000" d="M376.2457,-45C355.8812,-45 333.7273,-45 314.2911,-45"/>
<polygon fill="none" stroke="#000000" points="314.1013,-41.5001 304.1013,-45 314.1012,-48.5001 314.1013,-41.5001"/>
<text text-anchor="middle" x="344.278" y="-48.8" font-family="Times,serif" font-size="14.00" fill="#000000">is_a</text>
</g>
<!-- PhysicalLaw -->
<g id="node9" class="node">
<title>PhysicalLaw</title>
<g id="a_node9"><a xlink:href="http://emmo.info/domains/emmo-models.owl#EMMO_9c32fd69_f480_4130_83b3_fb25d9face14" xlink:title="PhysicalLaw" target="_top">
<ellipse fill="#ffffcc" stroke="#000000" cx="642.41" cy="-72" rx="69.5877" ry="18"/>
<text text-anchor="middle" x="642.41" y="-68.3" font-family="Times,serif" font-size="14.00" fill="#000000">PhysicalLaw</text>
</a>
</g>
</g>
<!-- PhysicalLaw&#45;&gt;NaturalLaw -->
<g id="edge8" class="edge">
<title>PhysicalLaw&#45;&gt;NaturalLaw</title>
<path fill="none" stroke="#000000" d="M580.5486,-63.6419C558.8783,-60.7141 534.4,-57.4068 512.1418,-54.3995"/>
<polygon fill="none" stroke="#000000" points="512.4679,-50.9119 502.0893,-53.0413 511.5306,-57.8488 512.4679,-50.9119"/>
<text text-anchor="middle" x="540.8662" y="-63.8" font-family="Times,serif" font-size="14.00" fill="#000000">is_a</text>
</g>
<!-- MaterialLaw -->
<g id="node10" class="node">
<title>MaterialLaw</title>
<g id="a_node10"><a xlink:href="http://emmo.info/domains/emmo-models.owl#EMMO_f19ff3b4_6bfe_4c41_a2b2_9affd39c140b" xlink:title="MaterialLaw" target="_top">
<ellipse fill="#ffffcc" stroke="#000000" cx="642.41" cy="-18" rx="69.5877" ry="18"/>
<text text-anchor="middle" x="642.41" y="-14.3" font-family="Times,serif" font-size="14.00" fill="#000000">MaterialLaw</text>
</a>
</g>
</g>
<!-- MaterialLaw&#45;&gt;NaturalLaw -->
<g id="edge9" class="edge">
<title>MaterialLaw&#45;&gt;NaturalLaw</title>
<path fill="none" stroke="#000000" d="M580.5486,-26.3581C558.8783,-29.2859 534.4,-32.5932 512.1418,-35.6005"/>
<polygon fill="none" stroke="#000000" points="511.5306,-32.1512 502.0893,-36.9587 512.4679,-39.0881 511.5306,-32.1512"/>
<text text-anchor="middle" x="540.8662" y="-36.8" font-family="Times,serif" font-size="14.00" fill="#000000">is_a</text>
</g>
</g>
</svg>
