<?xml version="1.0" encoding="UTF-8" standalone="no"?>
<!DOCTYPE svg PUBLIC "-//W3C//DTD SVG 1.1//EN"
 "http://www.w3.org/Graphics/SVG/1.1/DTD/svg11.dtd">
<!-- Generated by graphviz version 2.40.1 (0)
 -->
<!-- Title: G Pages: 1 -->
<svg width="441pt" height="108pt"
 viewBox="0.00 0.00 440.67 108.00" xmlns="http://www.w3.org/2000/svg" xmlns:xlink="http://www.w3.org/1999/xlink">
<g id="graph0" class="graph" transform="scale(1 1) rotate(0) translate(4 104)">
<title>G</title>
<polygon fill="#ffffff" stroke="transparent" points="-4,4 -4,-104 436.6709,-104 436.6709,4 -4,4"/>
<!-- EMMORelation -->
<g id="node1" class="node">
<title>EMMORelation</title>
<g id="a_node1"><a xlink:href="http://emmo.info/base/emmo-mereotopology.owl#EMMO_ec2472ae_cf4a_46a5_8555_1556f5a6c3c5" xlink:title="EMMORelation" target="_top">
<polygon fill="#ffffcc" stroke="#000000" points="182.5376,-37.5442 182.5376,-52.4558 130.2889,-63 56.3982,-63 4.1495,-52.4558 4.1495,-37.5442 56.3982,-27 130.2889,-27 182.5376,-37.5442"/>
<polygon fill="none" stroke="#000000" points="186.5309,-34.2697 186.5309,-55.7303 130.6872,-67 55.9999,-67 .1562,-55.7303 .1562,-34.2697 55.9999,-23 130.6872,-23 186.5309,-34.2697"/>
<text text-anchor="middle" x="93.3435" y="-41.3" font-family="Times,serif" font-size="14.00" fill="#000000">EMMORelation</text>
</a>
</g>
</g>
<!-- EMMORelation&#45;&gt;EMMORelation -->
<g id="edge3" class="edge">
<title>EMMORelation&#45;&gt;EMMORelation</title>
<path fill="none" stroke="#ffa500" d="M116.3154,-67.2124C118.1961,-76.7952 110.5389,-85 93.3435,-85 82.5965,-85 75.5752,-81.795 72.2797,-77.0517"/>
<polygon fill="#ffa500" stroke="#ffa500" points="75.7115,-76.3631 70.3717,-67.2124 68.8395,-77.6958 75.7115,-76.3631"/>
<text text-anchor="middle" x="93.3435" y="-88.8" font-family="Times,serif" font-size="14.00" fill="#000000">EMMORelation</text>
</g>
<!-- mereotopological -->
<g id="node2" class="node">
<title>mereotopological</title>
<g id="a_node2"><a xlink:href="http://emmo.info/base/emmo-mereotopology.owl#EMMO_03212fd7_abfd_4828_9c8e_62c293052d4b" xlink:title="mereotopological" target="_top">
<ellipse fill="#ffffcc" stroke="#000000" stroke-width="3" cx="341.679" cy="-72" rx="90.9839" ry="18"/>
<text text-anchor="middle" x="341.679" y="-68.3" font-family="Times,serif" font-size="14.00" fill="#000000">mereotopological</text>
</a>
</g>
</g>
<!-- mereotopological&#45;&gt;EMMORelation -->
<g id="edge1" class="edge">
<title>mereotopological&#45;&gt;EMMORelation</title>
<path fill="none" stroke="#000000" d="M261.7372,-63.3084C241.0508,-61.0593 218.4806,-58.6054 196.7799,-56.246"/>
<polygon fill="none" stroke="#000000" points="196.8657,-52.7348 186.5459,-55.1333 196.109,-59.6938 196.8657,-52.7348"/>
<text text-anchor="middle" x="218.6871" y="-63.8" font-family="Times,serif" font-size="14.00" fill="#000000">is_a</text>
</g>
<!-- semiotical -->
<g id="node3" class="node">
<title>semiotical</title>
<g id="a_node3"><a xlink:href="http://emmo.info/perspectives/emmo-semiotics.owl#EMMO_2337e25c_3c60_43fc_a8f9_b11a3f974291" xlink:title="semiotical" target="_top">
<ellipse fill="#ffffcc" stroke="#000000" stroke-width="3" cx="341.679" cy="-18" rx="58.4896" ry="18"/>
<text text-anchor="middle" x="341.679" y="-14.3" font-family="Times,serif" font-size="14.00" fill="#000000">semiotical</text>
</a>
</g>
</g>
<!-- semiotical&#45;&gt;EMMORelation -->
<g id="edge2" class="edge">
<title>semiotical&#45;&gt;EMMORelation</title>
<path fill="none" stroke="#000000" d="M286.2568,-24.0257C259.9284,-26.8882 227.5785,-30.4055 196.9463,-33.7359"/>
<polygon fill="none" stroke="#000000" points="196.1981,-30.2965 186.635,-34.857 196.9547,-37.2555 196.1981,-30.2965"/>
<text text-anchor="middle" x="218.6871" y="-35.8" font-family="Times,serif" font-size="14.00" fill="#000000">is_a</text>
</g>
</g>
</svg>
