<?xml version="1.0" encoding="UTF-8" standalone="no"?>
<!DOCTYPE svg PUBLIC "-//W3C//DTD SVG 1.1//EN"
 "http://www.w3.org/Graphics/SVG/1.1/DTD/svg11.dtd">
<!-- Generated by graphviz version 2.40.1 (0)
 -->
<!-- Title: G Pages: 1 -->
<svg width="1975pt" height="464pt"
 viewBox="0.00 0.00 1975.07 464.00" xmlns="http://www.w3.org/2000/svg" xmlns:xlink="http://www.w3.org/1999/xlink">
<g id="graph0" class="graph" transform="scale(1 1) rotate(0) translate(4 460)">
<title>G</title>
<polygon fill="#ffffff" stroke="transparent" points="-4,4 -4,-460 1971.0689,-460 1971.0689,4 -4,4"/>
<!-- EMMORelation -->
<g id="node1" class="node">
<title>EMMORelation</title>
<g id="a_node1"><a xlink:href="http://emmo.info/base/emmo-mereotopology.owl#EMMO_ec2472ae_cf4a_46a5_8555_1556f5a6c3c5" xlink:title="EMMORelation" target="_top">
<polygon fill="#ffffcc" stroke="#000000" points="182.5376,-94.5442 182.5376,-109.4558 130.2889,-120 56.3982,-120 4.1495,-109.4558 4.1495,-94.5442 56.3982,-84 130.2889,-84 182.5376,-94.5442"/>
<polygon fill="none" stroke="#000000" points="186.5309,-91.2697 186.5309,-112.7303 130.6872,-124 55.9999,-124 .1562,-112.7303 .1562,-91.2697 55.9999,-80 130.6872,-80 186.5309,-91.2697"/>
<text text-anchor="middle" x="93.3435" y="-98.3" font-family="Times,serif" font-size="14.00" fill="#000000">EMMORelation</text>
</a>
</g>
</g>
<!-- EMMORelation&#45;&gt;EMMORelation -->
<g id="edge29" class="edge">
<title>EMMORelation&#45;&gt;EMMORelation</title>
<path fill="none" stroke="#ffa500" d="M116.3154,-124.2124C118.1961,-133.7952 110.5389,-142 93.3435,-142 82.5965,-142 75.5752,-138.795 72.2797,-134.0517"/>
<polygon fill="#ffa500" stroke="#ffa500" points="75.7115,-133.3631 70.3717,-124.2124 68.8395,-134.6958 75.7115,-133.3631"/>
<text text-anchor="middle" x="93.3435" y="-145.8" font-family="Times,serif" font-size="14.00" fill="#000000">EMMORelation</text>
</g>
<!-- mereotopological -->
<g id="node2" class="node">
<title>mereotopological</title>
<g id="a_node2"><a xlink:href="http://emmo.info/base/emmo-mereotopology.owl#EMMO_03212fd7_abfd_4828_9c8e_62c293052d4b" xlink:title="mereotopological" target="_top">
<ellipse fill="#ffffcc" stroke="#000000" cx="341.679" cy="-129" rx="90.9839" ry="18"/>
<text text-anchor="middle" x="341.679" y="-125.3" font-family="Times,serif" font-size="14.00" fill="#000000">mereotopological</text>
</a>
</g>
</g>
<!-- mereotopological&#45;&gt;EMMORelation -->
<g id="edge1" class="edge">
<title>mereotopological&#45;&gt;EMMORelation</title>
<path fill="none" stroke="#000000" d="M261.7372,-120.3084C241.0508,-118.0593 218.4806,-115.6054 196.7799,-113.246"/>
<polygon fill="none" stroke="#000000" points="196.8657,-109.7348 186.5459,-112.1333 196.109,-116.6938 196.8657,-109.7348"/>
<text text-anchor="middle" x="218.6871" y="-120.8" font-family="Times,serif" font-size="14.00" fill="#000000">is_a</text>
</g>
<!-- connected -->
<g id="node3" class="node">
<title>connected</title>
<g id="a_node3"><a xlink:href="http://emmo.info/base/emmo-mereotopology.owl#EMMO_6703954e_34c4_4a15_a9e7_f313760ae1a8" xlink:title="connected" target="_top">
<ellipse fill="#ffffcc" stroke="#000000" cx="569.4645" cy="-217" rx="59.2899" ry="18"/>
<text text-anchor="middle" x="569.4645" y="-213.3" font-family="Times,serif" font-size="14.00" fill="#000000">connected</text>
</a>
</g>
</g>
<!-- connected&#45;&gt;mereotopological -->
<g id="edge2" class="edge">
<title>connected&#45;&gt;mereotopological</title>
<path fill="none" stroke="#000000" d="M532.4266,-202.7711C520.9629,-198.3622 508.2929,-193.4847 496.6709,-189 461.9353,-175.5961 422.839,-160.4609 392.6029,-148.7451"/>
<polygon fill="none" stroke="#000000" points="393.7031,-145.4179 383.114,-145.068 391.1737,-151.945 393.7031,-145.4179"/>
<text text-anchor="middle" x="464.6709" y="-183.8" font-family="Times,serif" font-size="14.00" fill="#000000">is_a</text>
</g>
<!-- connected&#45;&gt;connected -->
<g id="edge30" class="edge">
<title>connected&#45;&gt;connected</title>
<path fill="none" stroke="#ffa500" d="M588.0314,-234.4099C591.4972,-244.0879 585.3082,-253 569.4645,-253 559.5621,-253 553.4312,-249.5187 551.0717,-244.5449"/>
<polygon fill="#ffa500" stroke="#ffa500" points="554.5689,-244.3483 550.8976,-234.4099 547.5699,-244.4686 554.5689,-244.3483"/>
<text text-anchor="middle" x="569.4645" y="-256.8" font-family="Times,serif" font-size="14.00" fill="#000000">connected</text>
</g>
<!-- encloses -->
<g id="node4" class="node">
<title>encloses</title>
<g id="a_node4"><a xlink:href="http://emmo.info/base/emmo-mereotopology.owl#EMMO_8c898653_1118_4682_9bbf_6cc334d16a99" xlink:title="encloses" target="_top">
<ellipse fill="#ffffcc" stroke="#000000" cx="792.7004" cy="-267" rx="50.8918" ry="18"/>
<text text-anchor="middle" x="792.7004" y="-263.3" font-family="Times,serif" font-size="14.00" fill="#000000">encloses</text>
</a>
</g>
</g>
<!-- encloses&#45;&gt;connected -->
<g id="edge3" class="edge">
<title>encloses&#45;&gt;connected</title>
<path fill="none" stroke="#000000" d="M749.6582,-257.3595C714.8829,-249.5706 665.608,-238.5341 627.3731,-229.9703"/>
<polygon fill="none" stroke="#000000" points="627.9288,-226.5081 617.4056,-227.7378 626.3988,-233.3389 627.9288,-226.5081"/>
<text text-anchor="middle" x="674.258" y="-246.8" font-family="Times,serif" font-size="14.00" fill="#000000">is_a</text>
</g>
<!-- hasPart -->
<g id="node5" class="node">
<title>hasPart</title>
<g id="a_node5"><a xlink:href="http://emmo.info/base/emmo-mereotopology.owl#EMMO_17e27c22_37e1_468c_9dd7_95e137f73e7f" xlink:title="hasPart" target="_top">
<ellipse fill="#ffffcc" stroke="#000000" cx="1010.7367" cy="-278" rx="46.2923" ry="18"/>
<text text-anchor="middle" x="1010.7367" y="-274.3" font-family="Times,serif" font-size="14.00" fill="#000000">hasPart</text>
</a>
</g>
</g>
<!-- hasPart&#45;&gt;encloses -->
<g id="edge4" class="edge">
<title>hasPart&#45;&gt;encloses</title>
<path fill="none" stroke="#000000" d="M966.8349,-271.9425C953.4747,-270.3497 938.7312,-268.8426 925.1427,-268 901.7579,-266.55 876.0065,-266.0958 853.4771,-266.0745"/>
<polygon fill="none" stroke="#000000" points="853.3661,-262.5746 843.3726,-266.0931 853.3791,-269.5746 853.3661,-262.5746"/>
<text text-anchor="middle" x="911.1427" y="-271.8" font-family="Times,serif" font-size="14.00" fill="#000000">is_a</text>
</g>
<!-- hasOverlapWith -->
<g id="node16" class="node">
<title>hasOverlapWith</title>
<g id="a_node16"><a xlink:href="http://emmo.info/base/emmo-mereotopology.owl#EMMO_d893d373_b579_4867_841e_1c2b31a8d2c6" xlink:title="hasOverlapWith" target="_top">
<ellipse fill="#ffffcc" stroke="#000000" cx="792.7004" cy="-321" rx="86.3847" ry="18"/>
<text text-anchor="middle" x="792.7004" y="-317.3" font-family="Times,serif" font-size="14.00" fill="#000000">hasOverlapWith</text>
</a>
</g>
</g>
<!-- hasPart&#45;&gt;hasOverlapWith -->
<g id="edge17" class="edge">
<title>hasPart&#45;&gt;hasOverlapWith</title>
<path fill="none" stroke="#000000" d="M969.4694,-286.1385C940.254,-291.9002 900.2835,-299.783 865.7407,-306.5954"/>
<polygon fill="none" stroke="#000000" points="864.8193,-303.2096 855.6855,-308.5784 866.1737,-310.0773 864.8193,-303.2096"/>
<text text-anchor="middle" x="911.1427" y="-302.8" font-family="Times,serif" font-size="14.00" fill="#000000">is_a</text>
</g>
<!-- hasProperPart -->
<g id="node6" class="node">
<title>hasProperPart</title>
<g id="a_node6"><a xlink:href="http://emmo.info/base/emmo-mereotopology.owl#EMMO_9380ab64_0363_4804_b13f_3a8a94119a76" xlink:title="hasProperPart" target="_top">
<ellipse fill="#ffffcc" stroke="#000000" cx="1220.9737" cy="-311" rx="77.9862" ry="18"/>
<text text-anchor="middle" x="1220.9737" y="-307.3" font-family="Times,serif" font-size="14.00" fill="#000000">hasProperPart</text>
</a>
</g>
</g>
<!-- hasProperPart&#45;&gt;hasPart -->
<g id="edge5" class="edge">
<title>hasProperPart&#45;&gt;hasPart</title>
<path fill="none" stroke="#000000" d="M1156.4669,-300.8746C1126.7965,-296.2174 1092.0252,-290.7595 1063.8899,-286.3432"/>
<polygon fill="none" stroke="#000000" points="1064.268,-282.8598 1053.8462,-284.7667 1063.1825,-289.7751 1064.268,-282.8598"/>
<text text-anchor="middle" x="1110.3307" y="-298.8" font-family="Times,serif" font-size="14.00" fill="#000000">is_a</text>
</g>
<!-- hasSpatioTemporalPart -->
<g id="node7" class="node">
<title>hasSpatioTemporalPart</title>
<g id="a_node7"><a xlink:href="http://emmo.info/base/emmo-4d.owl#EMMO_6e046dd0_9634_4013_b2b1_9cc468087c83" xlink:title="hasSpatioTemporalPart" target="_top">
<ellipse fill="#ffffcc" stroke="#000000" cx="1483.8561" cy="-438" rx="120.4791" ry="18"/>
<text text-anchor="middle" x="1483.8561" y="-434.3" font-family="Times,serif" font-size="14.00" fill="#000000">hasSpatioTemporalPart</text>
</a>
</g>
</g>
<!-- hasSpatioTemporalPart&#45;&gt;hasProperPart -->
<g id="edge6" class="edge">
<title>hasSpatioTemporalPart&#45;&gt;hasProperPart</title>
<path fill="none" stroke="#000000" d="M1403.5383,-424.5595C1389.9176,-420.9904 1376.1407,-416.5352 1363.6167,-411 1319.9966,-391.721 1275.9927,-358.251 1248.6279,-335.387"/>
<polygon fill="none" stroke="#000000" points="1250.5804,-332.4539 1240.6884,-328.6593 1246.055,-337.7944 1250.5804,-332.4539"/>
<text text-anchor="middle" x="1331.6167" y="-403.8" font-family="Times,serif" font-size="14.00" fill="#000000">is_a</text>
</g>
<!-- hasSpatioTemporalDirectPart -->
<g id="node8" class="node">
<title>hasSpatioTemporalDirectPart</title>
<g id="a_node8"><a xlink:href="http://emmo.info/perspectives/emmo-existent.owl#EMMO_a50d920d_1ee3_4668_9a73_5d80a1c6fe15" xlink:title="hasSpatioTemporalDirectPart" target="_top">
<ellipse fill="#ffffcc" stroke="#000000" cx="1817.5821" cy="-438" rx="149.4735" ry="18"/>
<text text-anchor="middle" x="1817.5821" y="-434.3" font-family="Times,serif" font-size="14.00" fill="#000000">hasSpatioTemporalDirectPart</text>
</a>
</g>
</g>
<!-- hasSpatioTemporalDirectPart&#45;&gt;hasSpatioTemporalPart -->
<g id="edge7" class="edge">
<title>hasSpatioTemporalDirectPart&#45;&gt;hasSpatioTemporalPart</title>
<path fill="none" stroke="#000000" d="M1667.8024,-438C1649.9859,-438 1631.9069,-438 1614.3893,-438"/>
<polygon fill="none" stroke="#000000" points="1614.1464,-434.5001 1604.1463,-438 1614.1463,-441.5001 1614.1464,-434.5001"/>
<text text-anchor="middle" x="1636.0954" y="-441.8" font-family="Times,serif" font-size="14.00" fill="#000000">is_a</text>
</g>
<!-- hasSpatialPart -->
<g id="node9" class="node">
<title>hasSpatialPart</title>
<g id="a_node9"><a xlink:href="http://emmo.info/base/emmo-4d.owl#EMMO_f68030be_94b8_4c61_a161_886468558054" xlink:title="hasSpatialPart" target="_top">
<ellipse fill="#ffffcc" stroke="#000000" cx="1483.8561" cy="-384" rx="79.0865" ry="18"/>
<text text-anchor="middle" x="1483.8561" y="-380.3" font-family="Times,serif" font-size="14.00" fill="#000000">hasSpatialPart</text>
</a>
</g>
</g>
<!-- hasSpatialPart&#45;&gt;hasProperPart -->
<g id="edge8" class="edge">
<title>hasSpatialPart&#45;&gt;hasProperPart</title>
<path fill="none" stroke="#000000" d="M1424.8811,-371.8799C1405.2933,-367.5562 1383.431,-362.4075 1363.6167,-357 1333.547,-348.7937 1300.3857,-338.1954 1273.61,-329.2404"/>
<polygon fill="none" stroke="#000000" points="1274.6458,-325.8961 1264.0518,-326.023 1272.4127,-332.5304 1274.6458,-325.8961"/>
<text text-anchor="middle" x="1331.6167" y="-354.8" font-family="Times,serif" font-size="14.00" fill="#000000">is_a</text>
</g>
<!-- hasSpatialDirectPart -->
<g id="node10" class="node">
<title>hasSpatialDirectPart</title>
<g id="a_node10"><a xlink:href="http://emmo.info/perspectives/emmo-existent.owl#EMMO_b2282816_b7a3_44c6_b2cb_3feff1ceb7fe" xlink:title="hasSpatialDirectPart" target="_top">
<ellipse fill="#ffffcc" stroke="#000000" cx="1817.5821" cy="-384" rx="108.5808" ry="18"/>
<text text-anchor="middle" x="1817.5821" y="-380.3" font-family="Times,serif" font-size="14.00" fill="#000000">hasSpatialDirectPart</text>
</a>
</g>
</g>
<!-- hasSpatialDirectPart&#45;&gt;hasSpatialPart -->
<g id="edge9" class="edge">
<title>hasSpatialDirectPart&#45;&gt;hasSpatialPart</title>
<path fill="none" stroke="#000000" d="M1708.7695,-384C1664.9269,-384 1614.9764,-384 1573.3027,-384"/>
<polygon fill="none" stroke="#000000" points="1573.1714,-380.5001 1563.1713,-384 1573.1713,-387.5001 1573.1714,-380.5001"/>
<text text-anchor="middle" x="1636.0954" y="-387.8" font-family="Times,serif" font-size="14.00" fill="#000000">is_a</text>
</g>
<!-- hasMember -->
<g id="node11" class="node">
<title>hasMember</title>
<g id="a_node11"><a xlink:href="http://emmo.info/base/emmo-mereotopology.owl#EMMO_6b7276a4_4b9d_440a_b577_0277539c0fc4" xlink:title="hasMember" target="_top">
<ellipse fill="#ffffcc" stroke="#000000" cx="1483.8561" cy="-330" rx="65.7887" ry="18"/>
<text text-anchor="middle" x="1483.8561" y="-326.3" font-family="Times,serif" font-size="14.00" fill="#000000">hasMember</text>
</a>
</g>
</g>
<!-- hasMember&#45;&gt;hasProperPart -->
<g id="edge10" class="edge">
<title>hasMember&#45;&gt;hasProperPart</title>
<path fill="none" stroke="#000000" d="M1420.2196,-325.4006C1385.9123,-322.921 1343.1184,-319.8281 1305.9934,-317.1449"/>
<polygon fill="none" stroke="#000000" points="1305.9107,-313.6298 1295.6844,-316.3998 1305.406,-320.6116 1305.9107,-313.6298"/>
<text text-anchor="middle" x="1331.6167" y="-322.8" font-family="Times,serif" font-size="14.00" fill="#000000">is_a</text>
</g>
<!-- hasTemporalPart -->
<g id="node12" class="node">
<title>hasTemporalPart</title>
<g id="a_node12"><a xlink:href="http://emmo.info/base/emmo-mereotopology.owl#EMMO_7afbed84_7593_4a23_bd88_9d9c6b04e8f6" xlink:title="hasTemporalPart" target="_top">
<ellipse fill="#ffffcc" stroke="#000000" cx="1483.8561" cy="-276" rx="90.1842" ry="18"/>
<text text-anchor="middle" x="1483.8561" y="-272.3" font-family="Times,serif" font-size="14.00" fill="#000000">hasTemporalPart</text>
</a>
</g>
</g>
<!-- hasTemporalPart&#45;&gt;hasProperPart -->
<g id="edge11" class="edge">
<title>hasTemporalPart&#45;&gt;hasProperPart</title>
<path fill="none" stroke="#000000" d="M1408.5245,-286.0296C1374.1401,-290.6075 1333.4492,-296.0251 1298.7715,-300.642"/>
<polygon fill="none" stroke="#000000" points="1298.1404,-297.1951 1288.6898,-301.9843 1299.0643,-304.1339 1298.1404,-297.1951"/>
<text text-anchor="middle" x="1331.6167" y="-300.8" font-family="Times,serif" font-size="14.00" fill="#000000">is_a</text>
</g>
<!-- hasTemporalDirectPart -->
<g id="node13" class="node">
<title>hasTemporalDirectPart</title>
<g id="a_node13"><a xlink:href="http://emmo.info/perspectives/emmo-existent.owl#EMMO_65a2c5b8_e4d8_4a51_b2f8_e55effc0547d" xlink:title="hasTemporalDirectPart" target="_top">
<ellipse fill="#ffffcc" stroke="#000000" cx="1817.5821" cy="-276" rx="119.6788" ry="18"/>
<text text-anchor="middle" x="1817.5821" y="-272.3" font-family="Times,serif" font-size="14.00" fill="#000000">hasTemporalDirectPart</text>
</a>
</g>
</g>
<!-- hasTemporalDirectPart&#45;&gt;hasTemporalPart -->
<g id="edge12" class="edge">
<title>hasTemporalDirectPart&#45;&gt;hasTemporalPart</title>
<path fill="none" stroke="#000000" d="M1697.5709,-276C1660.5788,-276 1620.2438,-276 1584.6807,-276"/>
<polygon fill="none" stroke="#000000" points="1584.2965,-272.5001 1574.2965,-276 1584.2965,-279.5001 1584.2965,-272.5001"/>
<text text-anchor="middle" x="1636.0954" y="-279.8" font-family="Times,serif" font-size="14.00" fill="#000000">is_a</text>
</g>
<!-- hasProperParticipant -->
<g id="node14" class="node">
<title>hasProperParticipant</title>
<g id="a_node14"><a xlink:href="http://emmo.info/perspectives/emmo-processual.owl#EMMO_c5aae418_1622_4d02_93c5_21159e28e6c1" xlink:title="hasProperParticipant" target="_top">
<ellipse fill="#ffffcc" stroke="#000000" cx="1483.8561" cy="-219" rx="110.4804" ry="18"/>
<text text-anchor="middle" x="1483.8561" y="-215.3" font-family="Times,serif" font-size="14.00" fill="#000000">hasProperParticipant</text>
</a>
</g>
</g>
<!-- hasProperParticipant&#45;&gt;hasProperPart -->
<g id="edge13" class="edge">
<title>hasProperParticipant&#45;&gt;hasProperPart</title>
<path fill="none" stroke="#000000" d="M1417.4475,-233.4838C1399.7826,-237.9014 1380.8319,-243.156 1363.6167,-249 1329.158,-260.6977 1291.4492,-277.2613 1263.4616,-290.3259"/>
<polygon fill="none" stroke="#000000" points="1261.9181,-287.184 1254.3615,-294.6103 1264.8999,-293.5172 1261.9181,-287.184"/>
<text text-anchor="middle" x="1331.6167" y="-268.8" font-family="Times,serif" font-size="14.00" fill="#000000">is_a</text>
</g>
<!-- hasParticipant -->
<g id="node15" class="node">
<title>hasParticipant</title>
<g id="a_node15"><a xlink:href="http://emmo.info/perspectives/emmo-processual.owl#EMMO_ae2d1a96_bfa1_409a_a7d2_03d69e8a125a" xlink:title="hasParticipant" target="_top">
<ellipse fill="#ffffcc" stroke="#000000" cx="1220.9737" cy="-246" rx="78.7863" ry="18"/>
<text text-anchor="middle" x="1220.9737" y="-242.3" font-family="Times,serif" font-size="14.00" fill="#000000">hasParticipant</text>
</a>
</g>
</g>
<!-- hasProperParticipant&#45;&gt;hasParticipant -->
<g id="edge15" class="edge">
<title>hasProperParticipant&#45;&gt;hasParticipant</title>
<path fill="none" stroke="#000000" d="M1380.208,-212.716C1359.401,-212.8685 1337.7494,-214.0445 1317.6167,-217 1302.6899,-219.1913 1286.8683,-223.1905 1272.4434,-227.5331"/>
<polygon fill="none" stroke="#000000" points="1271.2085,-224.252 1262.7083,-230.5764 1273.2972,-230.9332 1271.2085,-224.252"/>
<text text-anchor="middle" x="1331.6167" y="-220.8" font-family="Times,serif" font-size="14.00" fill="#000000">is_a</text>
</g>
<!-- hasParticipant&#45;&gt;hasPart -->
<g id="edge14" class="edge">
<title>hasParticipant&#45;&gt;hasPart</title>
<path fill="none" stroke="#000000" d="M1153.9886,-255.4384C1135.3135,-258.1337 1115.0227,-261.1219 1096.3307,-264 1085.7295,-265.6323 1074.4007,-267.4402 1063.57,-269.1996"/>
<polygon fill="none" stroke="#000000" points="1062.6835,-265.7979 1053.3786,-270.8642 1063.812,-272.7063 1062.6835,-265.7979"/>
<text text-anchor="middle" x="1110.3307" y="-267.8" font-family="Times,serif" font-size="14.00" fill="#000000">is_a</text>
</g>
<!-- hasOverlapWith&#45;&gt;connected -->
<g id="edge16" class="edge">
<title>hasOverlapWith&#45;&gt;connected</title>
<path fill="none" stroke="#000000" d="M740.4033,-306.6063C728.9849,-302.929 717.0832,-298.6756 706.258,-294 669.8439,-278.272 630.6185,-255.5386 603.549,-238.8494"/>
<polygon fill="none" stroke="#000000" points="605.1961,-235.752 594.8566,-233.4401 601.4977,-241.6953 605.1961,-235.752"/>
<text text-anchor="middle" x="674.258" y="-288.8" font-family="Times,serif" font-size="14.00" fill="#000000">is_a</text>
</g>
<!-- hasOverlapWith&#45;&gt;hasOverlapWith -->
<g id="edge31" class="edge">
<title>hasOverlapWith&#45;&gt;hasOverlapWith</title>
<path fill="none" stroke="#ffa500" d="M813.9125,-338.7817C817.5172,-348.3149 810.4465,-357 792.7004,-357 781.8863,-357 775.0365,-353.7749 772.1508,-349.0981"/>
<polygon fill="#ffa500" stroke="#ffa500" points="775.6221,-348.5368 771.4882,-338.7817 768.6365,-348.9855 775.6221,-348.5368"/>
<text text-anchor="middle" x="792.7004" y="-360.8" font-family="Times,serif" font-size="14.00" fill="#000000">hasOverlapWith</text>
</g>
<!-- overcrosses -->
<g id="node17" class="node">
<title>overcrosses</title>
<g id="a_node17"><a xlink:href="http://emmo.info/base/emmo-mereotopology.owl#EMMO_9cb984ca_48ad_4864_b09e_50d3fff19420" xlink:title="overcrosses" target="_top">
<ellipse fill="#ffffcc" stroke="#000000" cx="1010.7367" cy="-343" rx="66.0889" ry="18"/>
<text text-anchor="middle" x="1010.7367" y="-339.3" font-family="Times,serif" font-size="14.00" fill="#000000">overcrosses</text>
</a>
</g>
</g>
<!-- overcrosses&#45;&gt;hasOverlapWith -->
<g id="edge18" class="edge">
<title>overcrosses&#45;&gt;hasOverlapWith</title>
<path fill="none" stroke="#000000" d="M948.548,-336.7251C927.3866,-334.5899 903.3186,-332.1615 880.5346,-329.8625"/>
<polygon fill="none" stroke="#000000" points="880.8186,-326.3735 870.5177,-328.8518 880.1158,-333.3381 880.8186,-326.3735"/>
<text text-anchor="middle" x="911.1427" y="-336.8" font-family="Times,serif" font-size="14.00" fill="#000000">is_a</text>
</g>
<!-- overcrosses&#45;&gt;overcrosses -->
<g id="edge32" class="edge">
<title>overcrosses&#45;&gt;overcrosses</title>
<path fill="none" stroke="#ffa500" d="M1028.2324,-360.4099C1031.4983,-370.0879 1025.6664,-379 1010.7367,-379 1001.4056,-379 995.6284,-375.5187 993.405,-370.5449"/>
<polygon fill="#ffa500" stroke="#ffa500" points="996.9024,-370.3519 993.241,-360.4099 989.9033,-370.4653 996.9024,-370.3519"/>
<text text-anchor="middle" x="1010.7367" y="-382.8" font-family="Times,serif" font-size="14.00" fill="#000000">overcrosses</text>
</g>
<!-- hasContactWith -->
<g id="node18" class="node">
<title>hasContactWith</title>
<g id="a_node18"><a xlink:href="http://emmo.info/base/emmo-mereotopology.owl#EMMO_4d6504f1_c470_4ce9_b941_bbbebc9ab05d" xlink:title="hasContactWith" target="_top">
<ellipse fill="#ffffcc" stroke="#000000" cx="792.7004" cy="-180" rx="86.3847" ry="18"/>
<text text-anchor="middle" x="792.7004" y="-176.3" font-family="Times,serif" font-size="14.00" fill="#000000">hasContactWith</text>
</a>
</g>
</g>
<!-- hasContactWith&#45;&gt;connected -->
<g id="edge19" class="edge">
<title>hasContactWith&#45;&gt;connected</title>
<path fill="none" stroke="#000000" d="M724.813,-191.2519C695.0936,-196.1777 660.4611,-201.9179 631.4474,-206.7267"/>
<polygon fill="none" stroke="#000000" points="630.7295,-203.2979 621.4365,-208.386 631.8742,-210.2036 630.7295,-203.2979"/>
<text text-anchor="middle" x="674.258" y="-204.8" font-family="Times,serif" font-size="14.00" fill="#000000">is_a</text>
</g>
<!-- hasContactWith&#45;&gt;hasContactWith -->
<g id="edge33" class="edge">
<title>hasContactWith&#45;&gt;hasContactWith</title>
<path fill="none" stroke="#ffa500" d="M813.9125,-197.7817C817.5172,-207.3149 810.4465,-216 792.7004,-216 781.8863,-216 775.0365,-212.7749 772.1508,-208.0981"/>
<polygon fill="#ffa500" stroke="#ffa500" points="775.6221,-207.5368 771.4882,-197.7817 768.6365,-207.9855 775.6221,-207.5368"/>
<text text-anchor="middle" x="792.7004" y="-219.8" font-family="Times,serif" font-size="14.00" fill="#000000">hasContactWith</text>
</g>
<!-- disconnected -->
<g id="node19" class="node">
<title>disconnected</title>
<g id="a_node19"><a xlink:href="http://emmo.info/base/emmo-mereotopology.owl#EMMO_517dfaf9_4970_41ac_81ee_d031627d2c7c" xlink:title="disconnected" target="_top">
<ellipse fill="#ffffcc" stroke="#000000" cx="569.4645" cy="-129" rx="72.5877" ry="18"/>
<text text-anchor="middle" x="569.4645" y="-125.3" font-family="Times,serif" font-size="14.00" fill="#000000">disconnected</text>
</a>
</g>
</g>
<!-- disconnected&#45;&gt;mereotopological -->
<g id="edge20" class="edge">
<title>disconnected&#45;&gt;mereotopological</title>
<path fill="none" stroke="#000000" d="M496.4518,-129C479.5121,-129 461.1813,-129 443.2617,-129"/>
<polygon fill="none" stroke="#000000" points="443.0675,-125.5001 433.0675,-129 443.0674,-132.5001 443.0675,-125.5001"/>
<text text-anchor="middle" x="464.6709" y="-132.8" font-family="Times,serif" font-size="14.00" fill="#000000">is_a</text>
</g>
<!-- disconnected&#45;&gt;disconnected -->
<g id="edge34" class="edge">
<title>disconnected&#45;&gt;disconnected</title>
<path fill="none" stroke="#ffa500" d="M588.0314,-146.4099C591.4972,-156.0879 585.3082,-165 569.4645,-165 559.5621,-165 553.4312,-161.5187 551.0717,-156.5449"/>
<polygon fill="#ffa500" stroke="#ffa500" points="554.5689,-156.3483 550.8976,-146.4099 547.5699,-156.4686 554.5689,-156.3483"/>
<text text-anchor="middle" x="569.4645" y="-168.8" font-family="Times,serif" font-size="14.00" fill="#000000">disconnected</text>
</g>
<!-- semiotical -->
<g id="node20" class="node">
<title>semiotical</title>
<g id="a_node20"><a xlink:href="http://emmo.info/perspectives/emmo-semiotics.owl#EMMO_2337e25c_3c60_43fc_a8f9_b11a3f974291" xlink:title="semiotical" target="_top">
<ellipse fill="#ffffcc" stroke="#000000" cx="341.679" cy="-75" rx="58.4896" ry="18"/>
<text text-anchor="middle" x="341.679" y="-71.3" font-family="Times,serif" font-size="14.00" fill="#000000">semiotical</text>
</a>
</g>
</g>
<!-- semiotical&#45;&gt;EMMORelation -->
<g id="edge21" class="edge">
<title>semiotical&#45;&gt;EMMORelation</title>
<path fill="none" stroke="#000000" d="M286.2568,-81.0257C259.9284,-83.8882 227.5785,-87.4055 196.9463,-90.7359"/>
<polygon fill="none" stroke="#000000" points="196.1981,-87.2965 186.635,-91.857 196.9547,-94.2555 196.1981,-87.2965"/>
<text text-anchor="middle" x="218.6871" y="-92.8" font-family="Times,serif" font-size="14.00" fill="#000000">is_a</text>
</g>
<!-- hasSign -->
<g id="node21" class="node">
<title>hasSign</title>
<g id="a_node21"><a xlink:href="http://emmo.info/perspectives/emmo-semiotics.owl#EMMO_60577dea_9019_4537_ac41_80b0fb563d41" xlink:title="hasSign" target="_top">
<ellipse fill="#ffffcc" stroke="#000000" cx="569.4645" cy="-74" rx="48.1917" ry="18"/>
<text text-anchor="middle" x="569.4645" y="-70.3" font-family="Times,serif" font-size="14.00" fill="#000000">hasSign</text>
</a>
</g>
</g>
<!-- hasSign&#45;&gt;semiotical -->
<g id="edge22" class="edge">
<title>hasSign&#45;&gt;semiotical</title>
<path fill="none" stroke="#000000" d="M521.1571,-74.2121C489.0645,-74.353 446.4328,-74.5401 410.7719,-74.6967"/>
<polygon fill="none" stroke="#000000" points="410.4165,-71.1981 400.432,-74.7421 410.4473,-78.198 410.4165,-71.1981"/>
<text text-anchor="middle" x="464.6709" y="-77.8" font-family="Times,serif" font-size="14.00" fill="#000000">is_a</text>
</g>
<!-- hasConvention -->
<g id="node22" class="node">
<title>hasConvention</title>
<g id="a_node22"><a xlink:href="http://emmo.info/perspectives/emmo-semiotics.owl#EMMO_eb3518bf_f799_4f9e_8c3e_ce59af11453b" xlink:title="hasConvention" target="_top">
<ellipse fill="#ffffcc" stroke="#000000" cx="792.7004" cy="-126" rx="79.8859" ry="18"/>
<text text-anchor="middle" x="792.7004" y="-122.3" font-family="Times,serif" font-size="14.00" fill="#000000">hasConvention</text>
</a>
</g>
</g>
<!-- hasConvention&#45;&gt;hasSign -->
<g id="edge23" class="edge">
<title>hasConvention&#45;&gt;hasSign</title>
<path fill="none" stroke="#000000" d="M736.9444,-113.0123C701.2123,-104.689 655.1894,-93.9685 620.4331,-85.8725"/>
<polygon fill="none" stroke="#000000" points="621.0239,-82.4165 610.4906,-83.5565 619.4358,-89.234 621.0239,-82.4165"/>
<text text-anchor="middle" x="674.258" y="-104.8" font-family="Times,serif" font-size="14.00" fill="#000000">is_a</text>
</g>
<!-- hasVariable -->
<g id="node23" class="node">
<title>hasVariable</title>
<g id="a_node23"><a xlink:href="http://emmo.info/domains/emmo-math.owl#EMMO_3446e167_c576_49d6_846c_215bb8878a55" xlink:title="hasVariable" target="_top">
<ellipse fill="#ffffcc" stroke="#000000" cx="1010.7367" cy="-180" rx="64.9885" ry="18"/>
<text text-anchor="middle" x="1010.7367" y="-176.3" font-family="Times,serif" font-size="14.00" fill="#000000">hasVariable</text>
</a>
</g>
</g>
<!-- hasVariable&#45;&gt;hasConvention -->
<g id="edge24" class="edge">
<title>hasVariable&#45;&gt;hasConvention</title>
<path fill="none" stroke="#000000" d="M962.0765,-167.9486C930.8911,-160.225 890.0836,-150.1184 856.3378,-141.7608"/>
<polygon fill="none" stroke="#000000" points="857.1151,-138.3476 846.5669,-139.3409 855.4322,-145.1423 857.1151,-138.3476"/>
<text text-anchor="middle" x="911.1427" y="-160.8" font-family="Times,serif" font-size="14.00" fill="#000000">is_a</text>
</g>
<!-- hasProperty -->
<g id="node24" class="node">
<title>hasProperty</title>
<g id="a_node24"><a xlink:href="http://emmo.info/domains/emmo-properties.owl#EMMO_e1097637_70d2_4895_973f_2396f04fa204" xlink:title="hasProperty" target="_top">
<ellipse fill="#ffffcc" stroke="#000000" cx="1010.7367" cy="-126" rx="67.6881" ry="18"/>
<text text-anchor="middle" x="1010.7367" y="-122.3" font-family="Times,serif" font-size="14.00" fill="#000000">hasProperty</text>
</a>
</g>
</g>
<!-- hasProperty&#45;&gt;hasConvention -->
<g id="edge25" class="edge">
<title>hasProperty&#45;&gt;hasConvention</title>
<path fill="none" stroke="#000000" d="M942.9438,-126C923.9081,-126 902.9059,-126 882.7905,-126"/>
<polygon fill="none" stroke="#000000" points="882.6848,-122.5001 872.6848,-126 882.6847,-129.5001 882.6848,-122.5001"/>
<text text-anchor="middle" x="911.1427" y="-129.8" font-family="Times,serif" font-size="14.00" fill="#000000">is_a</text>
</g>
<!-- hasIcon -->
<g id="node25" class="node">
<title>hasIcon</title>
<g id="a_node25"><a xlink:href="http://emmo.info/perspectives/emmo-semiotics.owl#EMMO_39c3815d_8cae_4c8f_b2ff_eeba24bec455" xlink:title="hasIcon" target="_top">
<ellipse fill="#ffffcc" stroke="#000000" cx="792.7004" cy="-72" rx="47.3916" ry="18"/>
<text text-anchor="middle" x="792.7004" y="-68.3" font-family="Times,serif" font-size="14.00" fill="#000000">hasIcon</text>
</a>
</g>
</g>
<!-- hasIcon&#45;&gt;hasSign -->
<g id="edge26" class="edge">
<title>hasIcon&#45;&gt;hasSign</title>
<path fill="none" stroke="#000000" d="M745.0845,-72.4266C710.7899,-72.7338 664.3203,-73.1502 627.7966,-73.4774"/>
<polygon fill="none" stroke="#000000" points="627.7453,-69.9776 617.7771,-73.5672 627.8081,-76.9773 627.7453,-69.9776"/>
<text text-anchor="middle" x="674.258" y="-76.8" font-family="Times,serif" font-size="14.00" fill="#000000">is_a</text>
</g>
<!-- hasModel -->
<g id="node26" class="node">
<title>hasModel</title>
<g id="a_node26"><a xlink:href="http://emmo.info/domains/emmo-models.owl#EMMO_24c71baf_6db6_48b9_86c8_8c70cf36db0c" xlink:title="hasModel" target="_top">
<ellipse fill="#ffffcc" stroke="#000000" cx="1010.7367" cy="-72" rx="55.7903" ry="18"/>
<text text-anchor="middle" x="1010.7367" y="-68.3" font-family="Times,serif" font-size="14.00" fill="#000000">hasModel</text>
</a>
</g>
</g>
<!-- hasModel&#45;&gt;hasIcon -->
<g id="edge27" class="edge">
<title>hasModel&#45;&gt;hasIcon</title>
<path fill="none" stroke="#000000" d="M954.5869,-72C922.5937,-72 882.5852,-72 850.3467,-72"/>
<polygon fill="none" stroke="#000000" points="850.1728,-68.5001 840.1727,-72 850.1727,-75.5001 850.1728,-68.5001"/>
<text text-anchor="middle" x="911.1427" y="-75.8" font-family="Times,serif" font-size="14.00" fill="#000000">is_a</text>
</g>
<!-- hasIndex -->
<g id="node27" class="node">
<title>hasIndex</title>
<g id="a_node27"><a xlink:href="http://emmo.info/perspectives/emmo-semiotics.owl#EMMO_297999d6_c9e4_4262_9536_bd524d1c6e21" xlink:title="hasIndex" target="_top">
<ellipse fill="#ffffcc" stroke="#000000" cx="792.7004" cy="-18" rx="53.0913" ry="18"/>
<text text-anchor="middle" x="792.7004" y="-14.3" font-family="Times,serif" font-size="14.00" fill="#000000">hasIndex</text>
</a>
</g>
</g>
<!-- hasIndex&#45;&gt;hasSign -->
<g id="edge28" class="edge">
<title>hasIndex&#45;&gt;hasSign</title>
<path fill="none" stroke="#000000" d="M749.6582,-28.7974C712.5568,-38.1045 658.9511,-51.5518 619.8564,-61.3589"/>
<polygon fill="none" stroke="#000000" points="618.5932,-58.0672 609.7454,-63.8953 620.2965,-64.8569 618.5932,-58.0672"/>
<text text-anchor="middle" x="674.258" y="-54.8" font-family="Times,serif" font-size="14.00" fill="#000000">is_a</text>
</g>
</g>
</svg>
