<?xml version="1.0" encoding="UTF-8" standalone="no"?>
<!DOCTYPE svg PUBLIC "-//W3C//DTD SVG 1.1//EN"
 "http://www.w3.org/Graphics/SVG/1.1/DTD/svg11.dtd">
<!-- Generated by graphviz version 2.40.1 (0)
 -->
<!-- Title: G Pages: 1 -->
<svg width="506pt" height="323pt"
 viewBox="0.00 0.00 505.86 323.00" xmlns="http://www.w3.org/2000/svg" xmlns:xlink="http://www.w3.org/1999/xlink">
<g id="graph0" class="graph" transform="scale(1 1) rotate(0) translate(4 319)">
<title>G</title>
<polygon fill="#ffffff" stroke="transparent" points="-4,4 -4,-319 501.8589,-319 501.8589,4 -4,4"/>
<!-- EMMO -->
<g id="node1" class="node">
<title>EMMO</title>
<g id="a_node1"><a xlink:href="http://emmo.info/base/emmo-mereotopology.owl#EMMO_802d3e92_8770_4f98_a289_ccaaab7fdddf" xlink:title="EMMO" target="_top">
<polygon fill="#ffc880" stroke="#000000" points="99.5255,-119.5442 99.5255,-134.4558 71.5905,-145 32.0845,-145 4.1495,-134.4558 4.1495,-119.5442 32.0845,-109 71.5905,-109 99.5255,-119.5442"/>
<polygon fill="none" stroke="#000000" points="103.513,-116.7755 103.513,-137.2245 72.3159,-149 31.3591,-149 .162,-137.2245 .162,-116.7755 31.3591,-105 72.3159,-105 103.513,-116.7755"/>
<text text-anchor="middle" x="51.8375" y="-123.3" font-family="Times,serif" font-size="14.00" fill="#000000">EMMO</text>
</a>
</g>
</g>
<!-- Quantum -->
<g id="node3" class="node">
<title>Quantum</title>
<g id="a_node3"><a xlink:href="http://emmo.info/base/emmo-mereotopology.owl#EMMO_3f9ae00e_810c_4518_aec2_7200e424cf68" xlink:title="Quantum" target="_top">
<ellipse fill="#ffffcc" stroke="#000000" cx="412.3589" cy="-297" rx="53.8905" ry="18"/>
<text text-anchor="middle" x="412.3589" y="-293.3" font-family="Times,serif" font-size="14.00" fill="#000000">Quantum</text>
</a>
</g>
</g>
<!-- EMMO&#45;&gt;Quantum -->
<g id="edge7" class="edge">
<title>EMMO&#45;&gt;Quantum</title>
<path fill="none" stroke="#6b8e23" d="M78.8039,-146.6898C123.0561,-178.0729 214.834,-239.3211 301.3647,-273 317.6446,-279.3363 335.9523,-284.1616 352.9337,-287.7628"/>
<polygon fill="#6b8e23" stroke="#6b8e23" points="352.2588,-291.197 362.7535,-289.7438 353.6431,-284.3353 352.2588,-291.197"/>
<text text-anchor="middle" x="225.5198" y="-267.8" font-family="Times,serif" font-size="14.00" fill="#000000">hasPart some &#160;&#160;</text>
</g>
<!-- Item -->
<g id="node2" class="node">
<title>Item</title>
<g id="a_node2"><a xlink:href="http://emmo.info/base/emmo-mereotopology.owl#EMMO_eb3a768e_d53e_4be9_a23b_0714833c36de" xlink:title="Item" target="_top">
<ellipse fill="#ffffcc" stroke="#000000" cx="225.5198" cy="-159" rx="32.4942" ry="18"/>
<text text-anchor="middle" x="225.5198" y="-155.3" font-family="Times,serif" font-size="14.00" fill="#000000">Item</text>
</a>
</g>
</g>
<!-- Item&#45;&gt;EMMO -->
<g id="edge1" class="edge">
<title>Item&#45;&gt;EMMO</title>
<path fill="none" stroke="#000000" d="M194.4689,-153.279C172.0486,-149.1482 141.0244,-143.4322 113.6348,-138.3858"/>
<polygon fill="none" stroke="#000000" points="114.1997,-134.9311 103.731,-136.5611 112.9313,-141.8152 114.1997,-134.9311"/>
<text text-anchor="middle" x="135.675" y="-147.8" font-family="Times,serif" font-size="14.00" fill="#000000">is_a</text>
</g>
<!-- Quantum&#45;&gt;Item -->
<g id="edge2" class="edge">
<title>Quantum&#45;&gt;Item</title>
<path fill="none" stroke="#000000" d="M373.7284,-284.3037C364.659,-280.4345 355.3263,-275.6711 347.3647,-270 312.4926,-245.1601 315.5901,-226.1888 283.3647,-198 275.0746,-190.7483 265.3751,-183.7274 256.3135,-177.6883"/>
<polygon fill="none" stroke="#000000" points="258.1824,-174.7288 247.888,-172.2237 254.3733,-180.6017 258.1824,-174.7288"/>
<text text-anchor="middle" x="315.3647" y="-257.8" font-family="Times,serif" font-size="14.00" fill="#000000">is_a</text>
</g>
<!-- Void -->
<g id="node4" class="node">
<title>Void</title>
<g id="a_node4"><a xlink:href="http://emmo.info/base/emmo-physical.owl#EMMO_29072ec4_ffcb_42fb_bdc7_26f05a2e9873" xlink:title="Void" target="_top">
<ellipse fill="#ffffcc" stroke="#000000" cx="412.3589" cy="-210" rx="30.5947" ry="18"/>
<text text-anchor="middle" x="412.3589" y="-206.3" font-family="Times,serif" font-size="14.00" fill="#000000">Void</text>
</a>
</g>
</g>
<!-- Void&#45;&gt;Item -->
<g id="edge3" class="edge">
<title>Void&#45;&gt;Item</title>
<path fill="none" stroke="#000000" d="M384.3872,-202.3648C352.6995,-193.7152 300.8222,-179.5547 265.0162,-169.781"/>
<polygon fill="none" stroke="#000000" points="265.4861,-166.2813 254.9174,-167.0244 263.6428,-173.0342 265.4861,-166.2813"/>
<text text-anchor="middle" x="315.3647" y="-189.8" font-family="Times,serif" font-size="14.00" fill="#000000">is_a</text>
</g>
<!-- Void&#45;&gt;Void -->
<g id="edge8" class="edge">
<title>Void&#45;&gt;Void</title>
<path fill="none" stroke="#6b8e23" d="M428.7725,-225.5414C433.3926,-235.9087 427.9214,-246 412.3589,-246 402.1461,-246 396.2791,-241.654 394.7582,-235.7362"/>
<polygon fill="#6b8e23" stroke="#6b8e23" points="398.2651,-235.8792 395.9454,-225.5414 391.3121,-235.0694 398.2651,-235.8792"/>
<text text-anchor="middle" x="412.3589" y="-249.8" font-family="Times,serif" font-size="14.00" fill="#000000">hasPart only &#160;&#160;</text>
</g>
<!-- Physical -->
<g id="node5" class="node">
<title>Physical</title>
<g id="a_node5"><a xlink:href="http://emmo.info/base/emmo-physical.owl#EMMO_c5ddfdba_c074_4aa4_ad6b_1ac4942d300d" xlink:title="Physical" target="_top">
<ellipse fill="#ffffcc" stroke="#000000" cx="412.3589" cy="-123" rx="50.0912" ry="18"/>
<text text-anchor="middle" x="412.3589" y="-119.3" font-family="Times,serif" font-size="14.00" fill="#000000">Physical</text>
</a>
</g>
</g>
<!-- Physical&#45;&gt;Item -->
<g id="edge4" class="edge">
<title>Physical&#45;&gt;Item</title>
<path fill="none" stroke="#000000" d="M368.0807,-131.5315C337.2875,-137.4647 296.536,-145.3167 266.4914,-151.1056"/>
<polygon fill="none" stroke="#000000" points="265.5019,-147.7318 256.3447,-153.0607 266.8263,-154.6054 265.5019,-147.7318"/>
<text text-anchor="middle" x="315.3647" y="-147.8" font-family="Times,serif" font-size="14.00" fill="#000000">is_a</text>
</g>
<!-- Physical&#45;&gt;Physical -->
<g id="edge10" class="edge">
<title>Physical&#45;&gt;Physical</title>
<path fill="none" stroke="#6b8e23" d="M429.3702,-140.0373C432.8419,-149.8579 427.1714,-159 412.3589,-159 403.1011,-159 397.4145,-155.4289 395.2989,-150.3529"/>
<polygon fill="#6b8e23" stroke="#6b8e23" points="398.8003,-150.0538 395.3477,-140.0373 391.8003,-150.0206 398.8003,-150.0538"/>
<text text-anchor="middle" x="412.3589" y="-162.8" font-family="Times,serif" font-size="14.00" fill="#000000">hasTemporalPart only &#160;&#160;</text>
</g>
<!-- Elementary -->
<g id="node6" class="node">
<title>Elementary</title>
<g id="a_node6"><a xlink:href="http://emmo.info/base/emmo-physical.owl#EMMO_0f795e3e_c602_4577_9a43_d5a231aa1360" xlink:title="Elementary" target="_top">
<ellipse fill="#ffffcc" stroke="#000000" cx="412.3589" cy="-18" rx="64.9885" ry="18"/>
<text text-anchor="middle" x="412.3589" y="-14.3" font-family="Times,serif" font-size="14.00" fill="#000000">Elementary</text>
</a>
</g>
</g>
<!-- Physical&#45;&gt;Elementary -->
<g id="edge9" class="edge">
<title>Physical&#45;&gt;Elementary</title>
<path fill="none" stroke="#6b8e23" d="M412.3589,-104.92C412.3589,-88.8012 412.3589,-64.9426 412.3589,-46.2977"/>
<polygon fill="#6b8e23" stroke="#6b8e23" points="415.859,-46.2896 412.3589,-36.2896 408.859,-46.2896 415.859,-46.2896"/>
<text text-anchor="middle" x="422.8589" y="-66.8" font-family="Times,serif" font-size="14.00" fill="#000000">hasPart some &#160;&#160;</text>
</g>
<!-- Elementary&#45;&gt;Item -->
<g id="edge5" class="edge">
<title>Elementary&#45;&gt;Item</title>
<path fill="none" stroke="#000000" d="M389.8218,-35.0079C355.5874,-60.8432 290.5444,-109.9286 253.3892,-137.9681"/>
<polygon fill="none" stroke="#000000" points="250.8949,-135.4656 245.0211,-144.2832 255.1116,-141.0531 250.8949,-135.4656"/>
<text text-anchor="middle" x="315.3647" y="-104.8" font-family="Times,serif" font-size="14.00" fill="#000000">is_a</text>
</g>
<!-- Elementary&#45;&gt;Elementary -->
<g id="edge11" class="edge">
<title>Elementary&#45;&gt;Elementary</title>
<path fill="none" stroke="#6b8e23" d="M429.4976,-35.4099C432.6968,-45.0879 426.9839,-54 412.3589,-54 403.2183,-54 397.559,-50.5187 395.381,-45.5449"/>
<polygon fill="#6b8e23" stroke="#6b8e23" points="398.8784,-45.3531 395.2203,-35.4099 391.8793,-45.4642 398.8784,-45.3531"/>
<text text-anchor="middle" x="412.3589" y="-57.8" font-family="Times,serif" font-size="14.00" fill="#000000">hasTemporalPart only &#160;&#160;</text>
</g>
<!-- Collection -->
<g id="node7" class="node">
<title>Collection</title>
<g id="a_node7"><a xlink:href="http://emmo.info/base/emmo-mereotopology.owl#EMMO_2d2ecd97_067f_4d0e_950c_d746b7700a31" xlink:title="Collection" target="_top">
<ellipse fill="#ffffcc" stroke="#000000" cx="225.5198" cy="-87" rx="57.6901" ry="18"/>
<text text-anchor="middle" x="225.5198" y="-83.3" font-family="Times,serif" font-size="14.00" fill="#000000">Collection</text>
</a>
</g>
</g>
<!-- Collection&#45;&gt;EMMO -->
<g id="edge6" class="edge">
<title>Collection&#45;&gt;EMMO</title>
<path fill="none" stroke="#000000" d="M178.9762,-97.7193C158.0633,-102.5356 133.1443,-108.2746 110.9317,-113.3903"/>
<polygon fill="none" stroke="#000000" points="109.8998,-110.0362 100.9404,-115.6913 111.4709,-116.8577 109.8998,-110.0362"/>
<text text-anchor="middle" x="135.675" y="-113.8" font-family="Times,serif" font-size="14.00" fill="#000000">is_a</text>
</g>
<!-- Collection&#45;&gt;Item -->
<g id="edge12" class="edge">
<title>Collection&#45;&gt;Item</title>
<path fill="none" stroke="#6b8e23" d="M225.5198,-105.1686C225.5198,-112.869 225.5198,-122.0257 225.5198,-130.5834"/>
<polygon fill="#6b8e23" stroke="#6b8e23" points="222.0199,-130.5867 225.5198,-140.5867 229.0199,-130.5868 222.0199,-130.5867"/>
<text text-anchor="middle" x="236.0198" y="-119.3" font-family="Times,serif" font-size="14.00" fill="#000000">hasMember some &#160;&#160;</text>
</g>
</g>
</svg>
