<?xml version="1.0" encoding="UTF-8" standalone="no"?>
<!DOCTYPE svg PUBLIC "-//W3C//DTD SVG 1.1//EN"
 "http://www.w3.org/Graphics/SVG/1.1/DTD/svg11.dtd">
<!-- Generated by graphviz version 2.40.1 (0)
 -->
<!-- Title: G Pages: 1 -->
<svg width="989pt" height="263pt"
 viewBox="0.00 0.00 989.03 263.00" xmlns="http://www.w3.org/2000/svg" xmlns:xlink="http://www.w3.org/1999/xlink">
<g id="graph0" class="graph" transform="scale(1 1) rotate(0) translate(4 259)">
<title>G</title>
<polygon fill="#ffffff" stroke="transparent" points="-4,4 -4,-259 985.03,-259 985.03,4 -4,4"/>
<!-- hasPart -->
<g id="node1" class="node">
<title>hasPart</title>
<g id="a_node1"><a xlink:href="http://emmo.info/base/emmo-mereotopology.owl#EMMO_17e27c22_37e1_468c_9dd7_95e137f73e7f" xlink:title="hasPart" target="_top">
<ellipse fill="#ffffcc" stroke="#000000" stroke-width="3" cx="46.1459" cy="-76" rx="46.2923" ry="18"/>
<text text-anchor="middle" x="46.1459" y="-72.3" font-family="Times,serif" font-size="14.00" fill="#000000">hasPart</text>
</a>
</g>
</g>
<!-- hasProperPart -->
<g id="node2" class="node">
<title>hasProperPart</title>
<g id="a_node2"><a xlink:href="http://emmo.info/base/emmo-mereotopology.owl#EMMO_9380ab64_0363_4804_b13f_3a8a94119a76" xlink:title="hasProperPart" target="_top">
<ellipse fill="#ffffcc" stroke="#000000" cx="234.9348" cy="-110" rx="77.9862" ry="18"/>
<text text-anchor="middle" x="234.9348" y="-106.3" font-family="Times,serif" font-size="14.00" fill="#000000">hasProperPart</text>
</a>
</g>
</g>
<!-- hasProperPart&#45;&gt;hasPart -->
<g id="edge1" class="edge">
<title>hasProperPart&#45;&gt;hasPart</title>
<path fill="none" stroke="#000000" d="M173.3795,-98.9142C149.103,-94.5421 121.5161,-89.5738 98.2501,-85.3837"/>
<polygon fill="none" stroke="#000000" points="98.6918,-81.907 88.2298,-83.5791 97.4511,-88.7962 98.6918,-81.907"/>
<text text-anchor="middle" x="124.2918" y="-95.8" font-family="Times,serif" font-size="14.00" fill="#000000">is_a</text>
</g>
<!-- hasSpatioTemporalPart -->
<g id="node3" class="node">
<title>hasSpatioTemporalPart</title>
<g id="a_node3"><a xlink:href="http://emmo.info/base/emmo-4d.owl#EMMO_6e046dd0_9634_4013_b2b1_9cc468087c83" xlink:title="hasSpatioTemporalPart" target="_top">
<ellipse fill="#ffffcc" stroke="#000000" cx="497.8172" cy="-237" rx="120.4791" ry="18"/>
<text text-anchor="middle" x="497.8172" y="-233.3" font-family="Times,serif" font-size="14.00" fill="#000000">hasSpatioTemporalPart</text>
</a>
</g>
</g>
<!-- hasSpatioTemporalPart&#45;&gt;hasProperPart -->
<g id="edge2" class="edge">
<title>hasSpatioTemporalPart&#45;&gt;hasProperPart</title>
<path fill="none" stroke="#000000" d="M417.4994,-223.5595C403.8787,-219.9904 390.1018,-215.5352 377.5779,-210 333.9577,-190.721 289.9538,-157.251 262.589,-134.387"/>
<polygon fill="none" stroke="#000000" points="264.5415,-131.4539 254.6495,-127.6593 260.0161,-136.7944 264.5415,-131.4539"/>
<text text-anchor="middle" x="345.5779" y="-202.8" font-family="Times,serif" font-size="14.00" fill="#000000">is_a</text>
</g>
<!-- hasSpatioTemporalDirectPart -->
<g id="node4" class="node">
<title>hasSpatioTemporalDirectPart</title>
<g id="a_node4"><a xlink:href="http://emmo.info/perspectives/emmo-existent.owl#EMMO_a50d920d_1ee3_4668_9a73_5d80a1c6fe15" xlink:title="hasSpatioTemporalDirectPart" target="_top">
<ellipse fill="#ffffcc" stroke="#000000" cx="831.5433" cy="-237" rx="149.4735" ry="18"/>
<text text-anchor="middle" x="831.5433" y="-233.3" font-family="Times,serif" font-size="14.00" fill="#000000">hasSpatioTemporalDirectPart</text>
</a>
</g>
</g>
<!-- hasSpatioTemporalDirectPart&#45;&gt;hasSpatioTemporalPart -->
<g id="edge3" class="edge">
<title>hasSpatioTemporalDirectPart&#45;&gt;hasSpatioTemporalPart</title>
<path fill="none" stroke="#000000" d="M681.7635,-237C663.9471,-237 645.868,-237 628.3504,-237"/>
<polygon fill="none" stroke="#000000" points="628.1075,-233.5001 618.1074,-237 628.1074,-240.5001 628.1075,-233.5001"/>
<text text-anchor="middle" x="650.0565" y="-240.8" font-family="Times,serif" font-size="14.00" fill="#000000">is_a</text>
</g>
<!-- hasSpatialPart -->
<g id="node5" class="node">
<title>hasSpatialPart</title>
<g id="a_node5"><a xlink:href="http://emmo.info/base/emmo-4d.owl#EMMO_f68030be_94b8_4c61_a161_886468558054" xlink:title="hasSpatialPart" target="_top">
<ellipse fill="#ffffcc" stroke="#000000" cx="497.8172" cy="-183" rx="79.0865" ry="18"/>
<text text-anchor="middle" x="497.8172" y="-179.3" font-family="Times,serif" font-size="14.00" fill="#000000">hasSpatialPart</text>
</a>
</g>
</g>
<!-- hasSpatialPart&#45;&gt;hasProperPart -->
<g id="edge4" class="edge">
<title>hasSpatialPart&#45;&gt;hasProperPart</title>
<path fill="none" stroke="#000000" d="M438.8422,-170.8799C419.2544,-166.5562 397.3921,-161.4075 377.5779,-156 347.5081,-147.7937 314.3468,-137.1954 287.5711,-128.2404"/>
<polygon fill="none" stroke="#000000" points="288.607,-124.8961 278.0129,-125.023 286.3738,-131.5304 288.607,-124.8961"/>
<text text-anchor="middle" x="345.5779" y="-153.8" font-family="Times,serif" font-size="14.00" fill="#000000">is_a</text>
</g>
<!-- hasSpatialDirectPart -->
<g id="node6" class="node">
<title>hasSpatialDirectPart</title>
<g id="a_node6"><a xlink:href="http://emmo.info/perspectives/emmo-existent.owl#EMMO_b2282816_b7a3_44c6_b2cb_3feff1ceb7fe" xlink:title="hasSpatialDirectPart" target="_top">
<ellipse fill="#ffffcc" stroke="#000000" cx="831.5433" cy="-183" rx="108.5808" ry="18"/>
<text text-anchor="middle" x="831.5433" y="-179.3" font-family="Times,serif" font-size="14.00" fill="#000000">hasSpatialDirectPart</text>
</a>
</g>
</g>
<!-- hasSpatialDirectPart&#45;&gt;hasSpatialPart -->
<g id="edge5" class="edge">
<title>hasSpatialDirectPart&#45;&gt;hasSpatialPart</title>
<path fill="none" stroke="#000000" d="M722.7306,-183C678.888,-183 628.9375,-183 587.2639,-183"/>
<polygon fill="none" stroke="#000000" points="587.1325,-179.5001 577.1325,-183 587.1324,-186.5001 587.1325,-179.5001"/>
<text text-anchor="middle" x="650.0565" y="-186.8" font-family="Times,serif" font-size="14.00" fill="#000000">is_a</text>
</g>
<!-- hasMember -->
<g id="node7" class="node">
<title>hasMember</title>
<g id="a_node7"><a xlink:href="http://emmo.info/base/emmo-mereotopology.owl#EMMO_6b7276a4_4b9d_440a_b577_0277539c0fc4" xlink:title="hasMember" target="_top">
<ellipse fill="#ffffcc" stroke="#000000" cx="497.8172" cy="-129" rx="65.7887" ry="18"/>
<text text-anchor="middle" x="497.8172" y="-125.3" font-family="Times,serif" font-size="14.00" fill="#000000">hasMember</text>
</a>
</g>
</g>
<!-- hasMember&#45;&gt;hasProperPart -->
<g id="edge6" class="edge">
<title>hasMember&#45;&gt;hasProperPart</title>
<path fill="none" stroke="#000000" d="M434.1807,-124.4006C399.8734,-121.921 357.0795,-118.8281 319.9545,-116.1449"/>
<polygon fill="none" stroke="#000000" points="319.8718,-112.6298 309.6455,-115.3998 319.3671,-119.6116 319.8718,-112.6298"/>
<text text-anchor="middle" x="345.5779" y="-121.8" font-family="Times,serif" font-size="14.00" fill="#000000">is_a</text>
</g>
<!-- hasTemporalPart -->
<g id="node8" class="node">
<title>hasTemporalPart</title>
<g id="a_node8"><a xlink:href="http://emmo.info/base/emmo-mereotopology.owl#EMMO_7afbed84_7593_4a23_bd88_9d9c6b04e8f6" xlink:title="hasTemporalPart" target="_top">
<ellipse fill="#ffffcc" stroke="#000000" cx="497.8172" cy="-75" rx="90.1842" ry="18"/>
<text text-anchor="middle" x="497.8172" y="-71.3" font-family="Times,serif" font-size="14.00" fill="#000000">hasTemporalPart</text>
</a>
</g>
</g>
<!-- hasTemporalPart&#45;&gt;hasProperPart -->
<g id="edge7" class="edge">
<title>hasTemporalPart&#45;&gt;hasProperPart</title>
<path fill="none" stroke="#000000" d="M422.4857,-85.0296C388.1013,-89.6075 347.4103,-95.0251 312.7326,-99.642"/>
<polygon fill="none" stroke="#000000" points="312.1015,-96.1951 302.6509,-100.9843 313.0254,-103.1339 312.1015,-96.1951"/>
<text text-anchor="middle" x="345.5779" y="-100.8" font-family="Times,serif" font-size="14.00" fill="#000000">is_a</text>
</g>
<!-- hasTemporalDirectPart -->
<g id="node9" class="node">
<title>hasTemporalDirectPart</title>
<g id="a_node9"><a xlink:href="http://emmo.info/perspectives/emmo-existent.owl#EMMO_65a2c5b8_e4d8_4a51_b2f8_e55effc0547d" xlink:title="hasTemporalDirectPart" target="_top">
<ellipse fill="#ffffcc" stroke="#000000" cx="831.5433" cy="-75" rx="119.6788" ry="18"/>
<text text-anchor="middle" x="831.5433" y="-71.3" font-family="Times,serif" font-size="14.00" fill="#000000">hasTemporalDirectPart</text>
</a>
</g>
</g>
<!-- hasTemporalDirectPart&#45;&gt;hasTemporalPart -->
<g id="edge8" class="edge">
<title>hasTemporalDirectPart&#45;&gt;hasTemporalPart</title>
<path fill="none" stroke="#000000" d="M711.532,-75C674.5399,-75 634.2049,-75 598.6418,-75"/>
<polygon fill="none" stroke="#000000" points="598.2576,-71.5001 588.2576,-75 598.2576,-78.5001 598.2576,-71.5001"/>
<text text-anchor="middle" x="650.0565" y="-78.8" font-family="Times,serif" font-size="14.00" fill="#000000">is_a</text>
</g>
<!-- hasProperParticipant -->
<g id="node10" class="node">
<title>hasProperParticipant</title>
<g id="a_node10"><a xlink:href="http://emmo.info/perspectives/emmo-processual.owl#EMMO_c5aae418_1622_4d02_93c5_21159e28e6c1" xlink:title="hasProperParticipant" target="_top">
<ellipse fill="#ffffcc" stroke="#000000" cx="497.8172" cy="-18" rx="110.4804" ry="18"/>
<text text-anchor="middle" x="497.8172" y="-14.3" font-family="Times,serif" font-size="14.00" fill="#000000">hasProperParticipant</text>
</a>
</g>
</g>
<!-- hasProperParticipant&#45;&gt;hasProperPart -->
<g id="edge9" class="edge">
<title>hasProperParticipant&#45;&gt;hasProperPart</title>
<path fill="none" stroke="#000000" d="M431.4086,-32.4838C413.7437,-36.9014 394.793,-42.156 377.5779,-48 343.1191,-59.6977 305.4103,-76.2613 277.4227,-89.3259"/>
<polygon fill="none" stroke="#000000" points="275.8792,-86.184 268.3227,-93.6103 278.861,-92.5172 275.8792,-86.184"/>
<text text-anchor="middle" x="345.5779" y="-68.8" font-family="Times,serif" font-size="14.00" fill="#000000">is_a</text>
</g>
<!-- hasParticipant -->
<g id="node11" class="node">
<title>hasParticipant</title>
<g id="a_node11"><a xlink:href="http://emmo.info/perspectives/emmo-processual.owl#EMMO_ae2d1a96_bfa1_409a_a7d2_03d69e8a125a" xlink:title="hasParticipant" target="_top">
<ellipse fill="#ffffcc" stroke="#000000" cx="234.9348" cy="-45" rx="78.7863" ry="18"/>
<text text-anchor="middle" x="234.9348" y="-41.3" font-family="Times,serif" font-size="14.00" fill="#000000">hasParticipant</text>
</a>
</g>
</g>
<!-- hasProperParticipant&#45;&gt;hasParticipant -->
<g id="edge11" class="edge">
<title>hasProperParticipant&#45;&gt;hasParticipant</title>
<path fill="none" stroke="#000000" d="M394.1691,-11.716C373.3621,-11.8685 351.7105,-13.0445 331.5779,-16 316.651,-18.1913 300.8294,-22.1905 286.4046,-26.5331"/>
<polygon fill="none" stroke="#000000" points="285.1696,-23.252 276.6694,-29.5764 287.2583,-29.9332 285.1696,-23.252"/>
<text text-anchor="middle" x="345.5779" y="-19.8" font-family="Times,serif" font-size="14.00" fill="#000000">is_a</text>
</g>
<!-- hasParticipant&#45;&gt;hasPart -->
<g id="edge10" class="edge">
<title>hasParticipant&#45;&gt;hasPart</title>
<path fill="none" stroke="#000000" d="M166.9007,-54.1146C148.4955,-56.7739 128.6029,-59.825 110.2918,-63 105.8905,-63.7632 101.3282,-64.5985 96.7583,-65.4659"/>
<polygon fill="none" stroke="#000000" points="95.95,-62.0574 86.801,-67.4002 97.285,-68.9289 95.95,-62.0574"/>
<text text-anchor="middle" x="124.2918" y="-66.8" font-family="Times,serif" font-size="14.00" fill="#000000">is_a</text>
</g>
</g>
</svg>
