<?xml version="1.0" encoding="UTF-8" standalone="no"?>
<!DOCTYPE svg PUBLIC "-//W3C//DTD SVG 1.1//EN"
 "http://www.w3.org/Graphics/SVG/1.1/DTD/svg11.dtd">
<!-- Generated by graphviz version 2.40.1 (0)
 -->
<!-- Title: G Pages: 1 -->
<svg width="1106pt" height="206pt"
 viewBox="0.00 0.00 1106.33 206.00" xmlns="http://www.w3.org/2000/svg" xmlns:xlink="http://www.w3.org/1999/xlink">
<g id="graph0" class="graph" transform="scale(1 1) rotate(0) translate(4 202)">
<title>G</title>
<polygon fill="#ffffff" stroke="transparent" points="-4,4 -4,-202 1102.3253,-202 1102.3253,4 -4,4"/>
<!-- Icon -->
<g id="node1" class="node">
<title>Icon</title>
<g id="a_node1"><a xlink:href="http://emmo.info/perspectives/emmo-semiotics.owl#EMMO_d7788d1a_020d_4c78_85a1_13563fcec168" xlink:title="Icon" target="_top">
<ellipse fill="#ffffcc" stroke="#000000" stroke-width="3" cx="31.1972" cy="-104" rx="31.3957" ry="18"/>
<text text-anchor="middle" x="31.1972" y="-100.3" font-family="Times,serif" font-size="14.00" fill="#000000">Icon</text>
</a>
</g>
</g>
<!-- PhysicsEquation -->
<g id="node2" class="node">
<title>PhysicsEquation</title>
<g id="a_node2"><a xlink:href="http://emmo.info/domains/emmo-models.owl#EMMO_27c5d8c6_8af7_4d63_beb1_ec37cd8b3fa3" xlink:title="PhysicsEquation" target="_top">
<ellipse fill="#ffffcc" stroke="#000000" cx="214.7866" cy="-77" rx="88.2844" ry="18"/>
<text text-anchor="middle" x="214.7866" y="-73.3" font-family="Times,serif" font-size="14.00" fill="#000000">PhysicsEquation</text>
</a>
</g>
</g>
<!-- PhysicsEquation&#45;&gt;Icon -->
<g id="edge1" class="edge">
<title>PhysicsEquation&#45;&gt;Icon</title>
<path fill="none" stroke="#000000" d="M130.9357,-82.75C114.1195,-84.5654 96.6327,-86.9303 80.3945,-90 76.4815,-90.7397 72.4298,-91.6499 68.4081,-92.648"/>
<polygon fill="none" stroke="#000000" points="67.3339,-89.3119 58.5687,-95.2636 69.1323,-96.077 67.3339,-89.3119"/>
<text text-anchor="middle" x="94.3945" y="-93.8" font-family="Times,serif" font-size="14.00" fill="#000000">is_a</text>
</g>
<!-- Model -->
<g id="node3" class="node">
<title>Model</title>
<g id="a_node3"><a xlink:href="http://emmo.info/domains/emmo-models.owl#EMMO_939483b1_0148_43d1_8b35_851d2cd5d939" xlink:title="Model" target="_top">
<ellipse fill="#ffc880" stroke="#000000" cx="214.7866" cy="-131" rx="39.7935" ry="18"/>
<text text-anchor="middle" x="214.7866" y="-127.3" font-family="Times,serif" font-size="14.00" fill="#000000">Model</text>
</a>
</g>
</g>
<!-- Model&#45;&gt;Icon -->
<g id="edge2" class="edge">
<title>Model&#45;&gt;Icon</title>
<path fill="none" stroke="#000000" d="M176.7468,-125.4056C146.0794,-120.8954 103.0526,-114.5676 71.7378,-109.9622"/>
<polygon fill="none" stroke="#000000" points="72.0046,-106.4639 61.6018,-108.4715 70.9861,-113.3894 72.0046,-106.4639"/>
<text text-anchor="middle" x="94.3945" y="-118.8" font-family="Times,serif" font-size="14.00" fill="#000000">is_a</text>
</g>
<!-- MathematicalModel -->
<g id="node4" class="node">
<title>MathematicalModel</title>
<g id="a_node4"><a xlink:href="http://emmo.info/domains/emmo-models.owl#EMMO_f7ed665b_c2e1_42bc_889b_6b42ed3a36f0" xlink:title="MathematicalModel" target="_top">
<ellipse fill="#ffc880" stroke="#000000" cx="471.1696" cy="-131" rx="103.9815" ry="18"/>
<text text-anchor="middle" x="471.1696" y="-127.3" font-family="Times,serif" font-size="14.00" fill="#000000">MathematicalModel</text>
</a>
</g>
</g>
<!-- MathematicalModel&#45;&gt;Model -->
<g id="edge3" class="edge">
<title>MathematicalModel&#45;&gt;Model</title>
<path fill="none" stroke="#000000" d="M366.8888,-131C331.6994,-131 294.0178,-131 264.9637,-131"/>
<polygon fill="none" stroke="#000000" points="264.6706,-127.5001 254.6706,-131 264.6705,-134.5001 264.6706,-127.5001"/>
<text text-anchor="middle" x="335.1788" y="-134.8" font-family="Times,serif" font-size="14.00" fill="#000000">is_a</text>
</g>
<!-- PhysicsBasedModel -->
<g id="node5" class="node">
<title>PhysicsBasedModel</title>
<g id="a_node5"><a xlink:href="http://emmo.info/domains/emmo-models.owl#EMMO_b29fd350_39aa_4af7_9459_3faa0544cba6" xlink:title="PhysicsBasedModel" target="_top">
<ellipse fill="#ffffcc" stroke="#000000" cx="742.5012" cy="-99" rx="103.1819" ry="18"/>
<text text-anchor="middle" x="742.5012" y="-95.3" font-family="Times,serif" font-size="14.00" fill="#000000">PhysicsBasedModel</text>
</a>
</g>
</g>
<!-- PhysicsBasedModel&#45;&gt;PhysicsEquation -->
<g id="edge10" class="edge">
<title>PhysicsBasedModel&#45;&gt;PhysicsEquation</title>
<path fill="none" stroke="#6b8e23" d="M664.3225,-110.8398C649.9977,-112.5729 635.1542,-114.0814 621.1603,-115 608.7426,-115.8152 604.1834,-120.7755 593.1603,-115 580.7111,-108.4772 587.4993,-95.7291 575.1603,-89 484.2995,-39.4487 360.4953,-48.8939 284.1933,-61.801"/>
<polygon fill="#6b8e23" stroke="#6b8e23" points="283.4536,-58.3773 274.2104,-63.5555 284.6653,-65.2716 283.4536,-58.3773"/>
<text text-anchor="middle" x="471.1696" y="-92.8" font-family="Times,serif" font-size="14.00" fill="#000000">hasSpatialPart some &#160;&#160;</text>
</g>
<!-- PhysicsBasedModel&#45;&gt;MathematicalModel -->
<g id="edge4" class="edge">
<title>PhysicsBasedModel&#45;&gt;MathematicalModel</title>
<path fill="none" stroke="#000000" d="M656.6501,-109.125C628.3181,-112.4664 596.6201,-116.2048 567.5546,-119.6327"/>
<polygon fill="none" stroke="#000000" points="566.9146,-116.1838 557.3934,-120.831 567.7345,-123.1356 566.9146,-116.1838"/>
<text text-anchor="middle" x="607.1603" y="-118.8" font-family="Times,serif" font-size="14.00" fill="#000000">is_a</text>
</g>
<!-- ContinuumModel -->
<g id="node6" class="node">
<title>ContinuumModel</title>
<g id="a_node6"><a xlink:href="http://emmo.info/domains/emmo-models.owl#EMMO_4456a5d2_16a6_4ee1_9a8e_5c75956b28ea" xlink:title="ContinuumModel" target="_top">
<ellipse fill="#ffffcc" stroke="#000000" cx="1004.0836" cy="-180" rx="90.9839" ry="18"/>
<text text-anchor="middle" x="1004.0836" y="-176.3" font-family="Times,serif" font-size="14.00" fill="#000000">ContinuumModel</text>
</a>
</g>
</g>
<!-- ContinuumModel&#45;&gt;PhysicsBasedModel -->
<g id="edge5" class="edge">
<title>ContinuumModel&#45;&gt;PhysicsBasedModel</title>
<path fill="none" stroke="#000000" d="M951.1585,-165.1703C937.66,-161.2966 923.1928,-157.0654 909.842,-153 873.3194,-141.8787 832.5441,-128.736 800.3877,-118.2011"/>
<polygon fill="none" stroke="#000000" points="801.2919,-114.8142 790.699,-115.0205 799.1085,-121.465 801.2919,-114.8142"/>
<text text-anchor="middle" x="877.842" y="-150.8" font-family="Times,serif" font-size="14.00" fill="#000000">is_a</text>
</g>
<!-- MesoscopicModel -->
<g id="node7" class="node">
<title>MesoscopicModel</title>
<g id="a_node7"><a xlink:href="http://emmo.info/domains/emmo-models.owl#EMMO_53935db0_af45_4426_b9e9_244a0d77db00" xlink:title="MesoscopicModel" target="_top">
<ellipse fill="#ffffcc" stroke="#000000" cx="1004.0836" cy="-126" rx="94.4839" ry="18"/>
<text text-anchor="middle" x="1004.0836" y="-122.3" font-family="Times,serif" font-size="14.00" fill="#000000">MesoscopicModel</text>
</a>
</g>
</g>
<!-- MesoscopicModel&#45;&gt;PhysicsBasedModel -->
<g id="edge6" class="edge">
<title>MesoscopicModel&#45;&gt;PhysicsBasedModel</title>
<path fill="none" stroke="#000000" d="M920.9579,-117.4199C895.8648,-114.8299 868.0601,-111.9599 842.0134,-109.2715"/>
<polygon fill="none" stroke="#000000" points="842.0508,-105.7568 831.7443,-108.2115 841.332,-112.7198 842.0508,-105.7568"/>
<text text-anchor="middle" x="877.842" y="-117.8" font-family="Times,serif" font-size="14.00" fill="#000000">is_a</text>
</g>
<!-- ElectronicModel -->
<g id="node8" class="node">
<title>ElectronicModel</title>
<g id="a_node8"><a xlink:href="http://emmo.info/domains/emmo-models.owl#EMMO_6eca09be_17e9_445e_abc9_000aa61b7a11" xlink:title="ElectronicModel" target="_top">
<ellipse fill="#ffffcc" stroke="#000000" cx="1004.0836" cy="-72" rx="87.9851" ry="18"/>
<text text-anchor="middle" x="1004.0836" y="-68.3" font-family="Times,serif" font-size="14.00" fill="#000000">ElectronicModel</text>
</a>
</g>
</g>
<!-- ElectronicModel&#45;&gt;PhysicsBasedModel -->
<g id="edge7" class="edge">
<title>ElectronicModel&#45;&gt;PhysicsBasedModel</title>
<path fill="none" stroke="#000000" d="M925.6003,-80.1009C899.1964,-82.8262 869.3872,-85.9031 841.6074,-88.7705"/>
<polygon fill="none" stroke="#000000" points="841.0623,-85.308 831.4746,-89.8164 841.7811,-92.271 841.0623,-85.308"/>
<text text-anchor="middle" x="877.842" y="-89.8" font-family="Times,serif" font-size="14.00" fill="#000000">is_a</text>
</g>
<!-- AtomisticModel -->
<g id="node9" class="node">
<title>AtomisticModel</title>
<g id="a_node9"><a xlink:href="http://emmo.info/domains/emmo-models.owl#EMMO_84cadc45_6758_46f2_ba2a_5ead65c70213" xlink:title="AtomisticModel" target="_top">
<ellipse fill="#ffffcc" stroke="#000000" cx="1004.0836" cy="-18" rx="84.485" ry="18"/>
<text text-anchor="middle" x="1004.0836" y="-14.3" font-family="Times,serif" font-size="14.00" fill="#000000">AtomisticModel</text>
</a>
</g>
</g>
<!-- AtomisticModel&#45;&gt;PhysicsBasedModel -->
<g id="edge8" class="edge">
<title>AtomisticModel&#45;&gt;PhysicsBasedModel</title>
<path fill="none" stroke="#000000" d="M952.6361,-32.406C938.7201,-36.3936 923.6813,-40.7859 909.842,-45 873.3194,-56.1213 832.5441,-69.264 800.3877,-79.7989"/>
<polygon fill="none" stroke="#000000" points="799.1085,-76.535 790.699,-82.9795 801.2919,-83.1858 799.1085,-76.535"/>
<text text-anchor="middle" x="877.842" y="-60.8" font-family="Times,serif" font-size="14.00" fill="#000000">is_a</text>
</g>
<!-- DataBasedModel -->
<g id="node10" class="node">
<title>DataBasedModel</title>
<g id="a_node10"><a xlink:href="http://emmo.info/domains/emmo-models.owl#EMMO_a4b14b83_9392_4a5f_a2e8_b2b58793f59b" xlink:title="DataBasedModel" target="_top">
<ellipse fill="#ffffcc" stroke="#000000" cx="742.5012" cy="-162" rx="89.8845" ry="18"/>
<text text-anchor="middle" x="742.5012" y="-158.3" font-family="Times,serif" font-size="14.00" fill="#000000">DataBasedModel</text>
</a>
</g>
</g>
<!-- DataBasedModel&#45;&gt;MathematicalModel -->
<g id="edge9" class="edge">
<title>DataBasedModel&#45;&gt;MathematicalModel</title>
<path fill="none" stroke="#000000" d="M664.3848,-153.0751C634.4361,-149.6534 599.8944,-145.707 568.3726,-142.1056"/>
<polygon fill="none" stroke="#000000" points="568.5867,-138.6074 558.2541,-140.9495 567.7921,-145.5621 568.5867,-138.6074"/>
<text text-anchor="middle" x="607.1603" y="-150.8" font-family="Times,serif" font-size="14.00" fill="#000000">is_a</text>
</g>
</g>
</svg>
