<?xml version="1.0" encoding="UTF-8" standalone="no"?>
<!DOCTYPE svg PUBLIC "-//W3C//DTD SVG 1.1//EN"
 "http://www.w3.org/Graphics/SVG/1.1/DTD/svg11.dtd">
<!-- Generated by graphviz version 2.40.1 (0)
 -->
<!-- Title: G Pages: 1 -->
<svg width="471pt" height="152pt"
 viewBox="0.00 0.00 471.37 152.00" xmlns="http://www.w3.org/2000/svg" xmlns:xlink="http://www.w3.org/1999/xlink">
<g id="graph0" class="graph" transform="scale(1 1) rotate(0) translate(4 148)">
<title>G</title>
<polygon fill="#ffffff" stroke="transparent" points="-4,4 -4,-148 467.3702,-148 467.3702,4 -4,4"/>
<!-- Impression -->
<g id="node1" class="node">
<title>Impression</title>
<g id="a_node1"><a xlink:href="http://emmo.info/perspectives/emmo-impression.owl#EMMO_649bf97b_4397_4005_90d9_219755d92e34" xlink:title="Impression" target="_top">
<ellipse fill="#ffffcc" stroke="#000000" stroke-width="3" cx="63.0444" cy="-37" rx="63.0888" ry="18"/>
<text text-anchor="middle" x="63.0444" y="-33.3" font-family="Times,serif" font-size="14.00" fill="#000000">Impression</text>
</a>
</g>
</g>
<!-- Acoustical -->
<g id="node2" class="node">
<title>Acoustical</title>
<g id="a_node2"><a xlink:href="http://emmo.info/domains/emmo-acoustical.owl#EMMO_4b3afb22_27cf_4ce3_88bc_492bfccb546b" xlink:title="Acoustical" target="_top">
<ellipse fill="#ffffcc" stroke="#000000" cx="249.8835" cy="-72" rx="59.5901" ry="18"/>
<text text-anchor="middle" x="249.8835" y="-68.3" font-family="Times,serif" font-size="14.00" fill="#000000">Acoustical</text>
</a>
</g>
</g>
<!-- Acoustical&#45;&gt;Impression -->
<g id="edge1" class="edge">
<title>Acoustical&#45;&gt;Impression</title>
<path fill="none" stroke="#000000" d="M198.8289,-62.4361C176.3283,-58.2211 149.6678,-53.2269 125.9537,-48.7846"/>
<polygon fill="none" stroke="#000000" points="126.4652,-45.3196 115.9917,-46.9184 125.1762,-52.1999 126.4652,-45.3196"/>
<text text-anchor="middle" x="158.0888" y="-59.8" font-family="Times,serif" font-size="14.00" fill="#000000">is_a</text>
</g>
<!-- Music -->
<g id="node3" class="node">
<title>Music</title>
<g id="a_node3"><a xlink:href="http://emmo.info/domains/emmo-acoustical.owl#EMMO_0d69f94a_f4fa_49d9_bf90_ace770eeab02" xlink:title="Music" target="_top">
<ellipse fill="#ffffcc" stroke="#000000" cx="418.5242" cy="-126" rx="38.9931" ry="18"/>
<text text-anchor="middle" x="418.5242" y="-122.3" font-family="Times,serif" font-size="14.00" fill="#000000">Music</text>
</a>
</g>
</g>
<!-- Music&#45;&gt;Acoustical -->
<g id="edge2" class="edge">
<title>Music&#45;&gt;Acoustical</title>
<path fill="none" stroke="#000000" d="M386.4072,-115.7159C362.1291,-107.9419 328.3318,-97.1197 300.4391,-88.1883"/>
<polygon fill="none" stroke="#000000" points="301.4356,-84.8324 290.8446,-85.116 299.3009,-91.4989 301.4356,-84.8324"/>
<text text-anchor="middle" x="341.6782" y="-108.8" font-family="Times,serif" font-size="14.00" fill="#000000">is_a</text>
</g>
<!-- Speech -->
<g id="node4" class="node">
<title>Speech</title>
<g id="a_node4"><a xlink:href="http://emmo.info/domains/emmo-acoustical.owl#EMMO_660ef3b0_6692_4c51_8f69_763c7817b2e1" xlink:title="Speech" target="_top">
<ellipse fill="#ffffcc" stroke="#000000" cx="418.5242" cy="-72" rx="44.6926" ry="18"/>
<text text-anchor="middle" x="418.5242" y="-68.3" font-family="Times,serif" font-size="14.00" fill="#000000">Speech</text>
</a>
</g>
</g>
<!-- Speech&#45;&gt;Acoustical -->
<g id="edge3" class="edge">
<title>Speech&#45;&gt;Acoustical</title>
<path fill="none" stroke="#000000" d="M373.3316,-72C356.9437,-72 338.0221,-72 319.9931,-72"/>
<polygon fill="none" stroke="#000000" points="319.7999,-68.5001 309.7999,-72 319.7999,-75.5001 319.7999,-68.5001"/>
<text text-anchor="middle" x="341.6782" y="-75.8" font-family="Times,serif" font-size="14.00" fill="#000000">is_a</text>
</g>
<!-- Noise -->
<g id="node5" class="node">
<title>Noise</title>
<g id="a_node5"><a xlink:href="http://emmo.info/domains/emmo-acoustical.owl#EMMO_91756568_8655_4060_8937_a1a906dad8c1" xlink:title="Noise" target="_top">
<ellipse fill="#ffffcc" stroke="#000000" cx="418.5242" cy="-18" rx="37.8943" ry="18"/>
<text text-anchor="middle" x="418.5242" y="-14.3" font-family="Times,serif" font-size="14.00" fill="#000000">Noise</text>
</a>
</g>
</g>
<!-- Noise&#45;&gt;Acoustical -->
<g id="edge4" class="edge">
<title>Noise&#45;&gt;Acoustical</title>
<path fill="none" stroke="#000000" d="M387.1994,-28.0304C362.9154,-35.8063 328.7694,-46.7402 300.6034,-55.7591"/>
<polygon fill="none" stroke="#000000" points="299.3724,-52.4781 290.9161,-58.8611 301.5072,-59.1447 299.3724,-52.4781"/>
<text text-anchor="middle" x="341.6782" y="-49.8" font-family="Times,serif" font-size="14.00" fill="#000000">is_a</text>
</g>
<!-- Graphical -->
<g id="node6" class="node">
<title>Graphical</title>
<g id="a_node6"><a xlink:href="http://emmo.info/domains/emmo-graphical.owl#EMMO_c74da218_9147_4f03_92d1_8894abca55f3" xlink:title="Graphical" target="_top">
<ellipse fill="#ffffcc" stroke="#000000" stroke-width="3" cx="249.8835" cy="-18" rx="55.7903" ry="18"/>
<text text-anchor="middle" x="249.8835" y="-14.3" font-family="Times,serif" font-size="14.00" fill="#000000">Graphical</text>
</a>
</g>
</g>
<!-- Graphical&#45;&gt;Impression -->
<g id="edge5" class="edge">
<title>Graphical&#45;&gt;Impression</title>
<path fill="none" stroke="#000000" d="M195.4818,-22.2304C178.9637,-23.6219 160.773,-25.2616 144.0888,-27 139.6868,-27.4587 135.1532,-27.9542 130.5855,-28.4707"/>
<polygon fill="none" stroke="#000000" points="130.1012,-25.0033 120.5695,-29.629 130.9054,-31.9569 130.1012,-25.0033"/>
<text text-anchor="middle" x="158.0888" y="-30.8" font-family="Times,serif" font-size="14.00" fill="#000000">is_a</text>
</g>
</g>
</svg>
