<?xml version="1.0" encoding="UTF-8" standalone="no"?>
<!DOCTYPE svg PUBLIC "-//W3C//DTD SVG 1.1//EN"
 "http://www.w3.org/Graphics/SVG/1.1/DTD/svg11.dtd">
<!-- Generated by graphviz version 2.40.1 (0)
 -->
<!-- Title: G Pages: 1 -->
<svg width="1352pt" height="696pt"
 viewBox="0.00 0.00 1351.93 696.00" xmlns="http://www.w3.org/2000/svg" xmlns:xlink="http://www.w3.org/1999/xlink">
<g id="graph0" class="graph" transform="scale(1 1) rotate(0) translate(4 692)">
<title>G</title>
<polygon fill="#ffffff" stroke="transparent" points="-4,4 -4,-692 1347.9331,-692 1347.9331,4 -4,4"/>
<!-- Mathematical -->
<g id="node1" class="node">
<title>Mathematical</title>
<g id="a_node1"><a xlink:href="http://emmo.info/domains/emmo-math.owl#EMMO_54ee6b5e_5261_44a8_86eb_5717e7fdb9d0" xlink:title="Mathematical" target="_top">
<ellipse fill="#ffffcc" stroke="#000000" stroke-width="3" cx="75.3933" cy="-340" rx="75.2868" ry="18"/>
<text text-anchor="middle" x="75.3933" y="-336.3" font-family="Times,serif" font-size="14.00" fill="#000000">Mathematical</text>
</a>
</g>
</g>
<!-- Number -->
<g id="node2" class="node">
<title>Number</title>
<g id="a_node2"><a xlink:href="http://emmo.info/domains/emmo-math.owl#EMMO_21f56795_ee72_4858_b571_11cfaa59c1a8" xlink:title="Number" target="_top">
<ellipse fill="#ffffcc" stroke="#000000" cx="318.7774" cy="-562" rx="49.2915" ry="18"/>
<text text-anchor="middle" x="318.7774" y="-558.3" font-family="Times,serif" font-size="14.00" fill="#000000">Number</text>
</a>
</g>
</g>
<!-- Number&#45;&gt;Mathematical -->
<g id="edge1" class="edge">
<title>Number&#45;&gt;Mathematical</title>
<path fill="none" stroke="#000000" d="M291.7918,-546.8911C260.3017,-528.5195 207.6026,-495.4203 168.7866,-459 138.4628,-430.5478 109.9235,-391.7698 92.5609,-366.3224"/>
<polygon fill="none" stroke="#000000" points="95.3893,-364.2564 86.901,-357.916 89.5827,-368.1659 95.3893,-364.2564"/>
<text text-anchor="middle" x="182.7866" y="-484.8" font-family="Times,serif" font-size="14.00" fill="#000000">is_a</text>
</g>
<!-- Natural -->
<g id="node3" class="node">
<title>Natural</title>
<g id="a_node3"><a xlink:href="http://emmo.info/domains/emmo-math.owl#EMMO_b9db54a5_2a6c_4764_8141_9f7579fe5ad8" xlink:title="Natural" target="_top">
<ellipse fill="#ffffcc" stroke="#000000" cx="855.109" cy="-670" rx="46.5926" ry="18"/>
<text text-anchor="middle" x="855.109" y="-666.3" font-family="Times,serif" font-size="14.00" fill="#000000">Natural</text>
</a>
</g>
</g>
<!-- Natural&#45;&gt;Number -->
<g id="edge2" class="edge">
<title>Natural&#45;&gt;Number</title>
<path fill="none" stroke="#000000" d="M808.3079,-670.6896C730.3416,-670.5985 569.6993,-665.1041 440.7682,-626 408.5,-616.2132 374.7733,-597.7945 350.9819,-583.2201"/>
<polygon fill="none" stroke="#000000" points="352.7104,-580.1732 342.3738,-577.8485 349.0046,-586.1118 352.7104,-580.1732"/>
<text text-anchor="middle" x="587.2682" y="-672.8" font-family="Times,serif" font-size="14.00" fill="#000000">is_a</text>
</g>
<!-- Complex -->
<g id="node4" class="node">
<title>Complex</title>
<g id="a_node4"><a xlink:href="http://emmo.info/domains/emmo-math.owl#EMMO_ba24b317_6fdd_4c64_a168_cc85a9869e44" xlink:title="Complex" target="_top">
<ellipse fill="#ffffcc" stroke="#000000" cx="855.109" cy="-616" rx="51.9908" ry="18"/>
<text text-anchor="middle" x="855.109" y="-612.3" font-family="Times,serif" font-size="14.00" fill="#000000">Complex</text>
</a>
</g>
</g>
<!-- Complex&#45;&gt;Number -->
<g id="edge3" class="edge">
<title>Complex&#45;&gt;Number</title>
<path fill="none" stroke="#000000" d="M803.638,-612.8189C725.1823,-607.7067 571.0401,-596.6275 440.7682,-581 418.73,-578.3563 394.5599,-574.7425 373.5888,-571.3759"/>
<polygon fill="none" stroke="#000000" points="374.0062,-567.8979 363.5743,-569.7485 372.8833,-574.8073 374.0062,-567.8979"/>
<text text-anchor="middle" x="587.2682" y="-610.8" font-family="Times,serif" font-size="14.00" fill="#000000">is_a</text>
</g>
<!-- Real -->
<g id="node5" class="node">
<title>Real</title>
<g id="a_node5"><a xlink:href="http://emmo.info/domains/emmo-math.owl#EMMO_c22f0989_1be2_4a34_9bb8_d780abffbdfa" xlink:title="Real" target="_top">
<ellipse fill="#ffffcc" stroke="#000000" cx="855.109" cy="-562" rx="31.3957" ry="18"/>
<text text-anchor="middle" x="855.109" y="-558.3" font-family="Times,serif" font-size="14.00" fill="#000000">Real</text>
</a>
</g>
</g>
<!-- Real&#45;&gt;Number -->
<g id="edge4" class="edge">
<title>Real&#45;&gt;Number</title>
<path fill="none" stroke="#000000" d="M823.5613,-562C736.5722,-562 492.2241,-562 378.4522,-562"/>
<polygon fill="none" stroke="#000000" points="378.1873,-558.5001 368.1873,-562 378.1873,-565.5001 378.1873,-558.5001"/>
<text text-anchor="middle" x="587.2682" y="-565.8" font-family="Times,serif" font-size="14.00" fill="#000000">is_a</text>
</g>
<!-- Integer -->
<g id="node6" class="node">
<title>Integer</title>
<g id="a_node6"><a xlink:href="http://emmo.info/domains/emmo-math.owl#EMMO_f8bd64d5_5d3e_4ad4_a46e_c30714fecb7f" xlink:title="Integer" target="_top">
<ellipse fill="#ffffcc" stroke="#000000" cx="855.109" cy="-508" rx="45.4919" ry="18"/>
<text text-anchor="middle" x="855.109" y="-504.3" font-family="Times,serif" font-size="14.00" fill="#000000">Integer</text>
</a>
</g>
</g>
<!-- Integer&#45;&gt;Number -->
<g id="edge5" class="edge">
<title>Integer&#45;&gt;Number</title>
<path fill="none" stroke="#000000" d="M809.9391,-510.7727C733.6814,-515.6871 574.624,-526.9426 440.7682,-543 418.73,-545.6437 394.5599,-549.2575 373.5888,-552.6241"/>
<polygon fill="none" stroke="#000000" points="372.8833,-549.1927 363.5743,-554.2515 374.0062,-556.1021 372.8833,-549.1927"/>
<text text-anchor="middle" x="587.2682" y="-546.8" font-family="Times,serif" font-size="14.00" fill="#000000">is_a</text>
</g>
<!-- Variable -->
<g id="node7" class="node">
<title>Variable</title>
<g id="a_node7"><a xlink:href="http://emmo.info/domains/emmo-math.owl#EMMO_1eed0732_e3f1_4b2c_a9c4_b4e75eeb5895" xlink:title="Variable" target="_top">
<ellipse fill="#ffffcc" stroke="#000000" cx="855.109" cy="-443" rx="48.9926" ry="18"/>
<text text-anchor="middle" x="855.109" y="-439.3" font-family="Times,serif" font-size="14.00" fill="#000000">Variable</text>
</a>
</g>
</g>
<!-- Variable&#45;&gt;Mathematical -->
<g id="edge6" class="edge">
<title>Variable&#45;&gt;Mathematical</title>
<path fill="none" stroke="#000000" d="M806.3319,-444.1375C676.6073,-446.6799 325.4593,-450.2816 214.7866,-418 174.9098,-406.3685 133.9755,-381.6446 106.8734,-363.1315"/>
<polygon fill="none" stroke="#000000" points="108.7872,-360.1993 98.5789,-357.3635 104.7907,-365.9463 108.7872,-360.1993"/>
<text text-anchor="middle" x="318.7774" y="-444.8" font-family="Times,serif" font-size="14.00" fill="#000000">is_a</text>
</g>
<!-- Variable&#45;&gt;Number -->
<g id="edge26" class="edge">
<title>Variable&#45;&gt;Number</title>
<path fill="none" stroke="#6b8e23" d="M808.126,-448.1615C707.0279,-459.4068 475.1856,-485.9911 440.7682,-497 408.5425,-507.3078 374.8115,-525.977 351.0076,-540.6713"/>
<polygon fill="#6b8e23" stroke="#6b8e23" points="349,-537.7991 342.3944,-546.0827 352.7239,-543.7264 349,-537.7991"/>
<text text-anchor="middle" x="587.2682" y="-500.8" font-family="Times,serif" font-size="14.00" fill="#000000">Inverse(emmo&#45;math.hasVariable) some &#160;&#160;</text>
</g>
<!-- MathSymbol -->
<g id="node11" class="node">
<title>MathSymbol</title>
<g id="a_node11"><a xlink:href="http://emmo.info/domains/emmo-math.owl#EMMO_031d61af_6405_41de_8880_df2f85a53383" xlink:title="MathSymbol" target="_top">
<ellipse fill="#ffc880" stroke="#000000" cx="318.7774" cy="-391" rx="69.5877" ry="18"/>
<text text-anchor="middle" x="318.7774" y="-387.3" font-family="Times,serif" font-size="14.00" fill="#000000">MathSymbol</text>
</a>
</g>
</g>
<!-- Variable&#45;&gt;MathSymbol -->
<g id="edge11" class="edge">
<title>Variable&#45;&gt;MathSymbol</title>
<path fill="none" stroke="#000000" d="M815.2303,-432.4498C791.6959,-426.6454 761.2306,-419.8577 733.7682,-416 617.9819,-399.7354 482.5615,-394.0443 398.7184,-392.0579"/>
<polygon fill="none" stroke="#000000" points="398.5778,-388.554 388.5017,-391.8282 398.4204,-395.5522 398.5778,-388.554"/>
<text text-anchor="middle" x="587.2682" y="-419.8" font-family="Times,serif" font-size="14.00" fill="#000000">is_a</text>
</g>
<!-- Constant -->
<g id="node8" class="node">
<title>Constant</title>
<g id="a_node8"><a xlink:href="http://emmo.info/domains/emmo-math.owl#EMMO_ae15fb4f_8e4d_41de_a0f9_3997f89ba6a2" xlink:title="Constant" target="_top">
<ellipse fill="#ffffcc" stroke="#000000" cx="1249.6915" cy="-497" rx="53.0913" ry="18"/>
<text text-anchor="middle" x="1249.6915" y="-493.3" font-family="Times,serif" font-size="14.00" fill="#000000">Constant</text>
</a>
</g>
</g>
<!-- Constant&#45;&gt;Variable -->
<g id="edge7" class="edge">
<title>Constant&#45;&gt;Variable</title>
<path fill="none" stroke="#000000" d="M1199.2739,-490.9697C1144.4001,-484.3066 1054.1011,-473.0505 976.4498,-462 954.5893,-458.889 930.5596,-455.186 909.6925,-451.8789"/>
<polygon fill="none" stroke="#000000" points="910.1522,-448.408 899.7262,-450.2915 909.0512,-455.3209 910.1522,-448.408"/>
<text text-anchor="middle" x="1056.9498" y="-485.8" font-family="Times,serif" font-size="14.00" fill="#000000">is_a</text>
</g>
<!-- Parameter -->
<g id="node9" class="node">
<title>Parameter</title>
<g id="a_node9"><a xlink:href="http://emmo.info/domains/emmo-math.owl#EMMO_d1d436e7_72fc_49cd_863b_7bfb4ba5276a" xlink:title="Parameter" target="_top">
<ellipse fill="#ffffcc" stroke="#000000" cx="1249.6915" cy="-443" rx="59.5901" ry="18"/>
<text text-anchor="middle" x="1249.6915" y="-439.3" font-family="Times,serif" font-size="14.00" fill="#000000">Parameter</text>
</a>
</g>
</g>
<!-- Parameter&#45;&gt;Variable -->
<g id="edge8" class="edge">
<title>Parameter&#45;&gt;Variable</title>
<path fill="none" stroke="#000000" d="M1189.7629,-443C1115.1214,-443 988.4049,-443 914.1698,-443"/>
<polygon fill="none" stroke="#000000" points="914.0541,-439.5001 904.0541,-443 914.0541,-446.5001 914.0541,-439.5001"/>
<text text-anchor="middle" x="1056.9498" y="-446.8" font-family="Times,serif" font-size="14.00" fill="#000000">is_a</text>
</g>
<!-- Unknown -->
<g id="node10" class="node">
<title>Unknown</title>
<g id="a_node10"><a xlink:href="http://emmo.info/domains/emmo-math.owl#EMMO_fe7e56ce_118b_4243_9aad_20eb9f4f31f6" xlink:title="Unknown" target="_top">
<ellipse fill="#ffffcc" stroke="#000000" cx="1249.6915" cy="-389" rx="55.4913" ry="18"/>
<text text-anchor="middle" x="1249.6915" y="-385.3" font-family="Times,serif" font-size="14.00" fill="#000000">Unknown</text>
</a>
</g>
</g>
<!-- Unknown&#45;&gt;Variable -->
<g id="edge9" class="edge">
<title>Unknown&#45;&gt;Variable</title>
<path fill="none" stroke="#000000" d="M1197.7594,-395.2143C1142.7494,-401.8993 1053.3909,-413.0506 976.4498,-424 954.5893,-427.111 930.5596,-430.814 909.6925,-434.1211"/>
<polygon fill="none" stroke="#000000" points="909.0512,-430.6791 899.7262,-435.7085 910.1522,-437.592 909.0512,-430.6791"/>
<text text-anchor="middle" x="1056.9498" y="-427.8" font-family="Times,serif" font-size="14.00" fill="#000000">is_a</text>
</g>
<!-- MathSymbol&#45;&gt;Mathematical -->
<g id="edge10" class="edge">
<title>MathSymbol&#45;&gt;Mathematical</title>
<path fill="none" stroke="#000000" d="M264.4602,-379.6181C228.3217,-372.0454 180.6076,-362.0472 142.1544,-353.9895"/>
<polygon fill="none" stroke="#000000" points="142.5877,-350.5043 132.0824,-351.8789 141.152,-357.3555 142.5877,-350.5043"/>
<text text-anchor="middle" x="182.7866" y="-366.8" font-family="Times,serif" font-size="14.00" fill="#000000">is_a</text>
</g>
<!-- Numeral -->
<g id="node12" class="node">
<title>Numeral</title>
<g id="a_node12"><a xlink:href="http://emmo.info/domains/emmo-math.owl#EMMO_1a663927_3b68_4618_acd3_a8aa0d406329" xlink:title="Numeral" target="_top">
<ellipse fill="#ffffcc" stroke="#000000" cx="855.109" cy="-357" rx="51.9908" ry="18"/>
<text text-anchor="middle" x="855.109" y="-353.3" font-family="Times,serif" font-size="14.00" fill="#000000">Numeral</text>
</a>
</g>
</g>
<!-- Numeral&#45;&gt;Mathematical -->
<g id="edge13" class="edge">
<title>Numeral&#45;&gt;Mathematical</title>
<path fill="none" stroke="#000000" d="M803.0428,-355.8648C671.2393,-352.9911 323.3571,-345.4063 161.0508,-341.8676"/>
<polygon fill="none" stroke="#000000" points="160.7066,-338.3593 150.6326,-341.6404 160.5539,-345.3577 160.7066,-338.3593"/>
<text text-anchor="middle" x="318.7774" y="-350.8" font-family="Times,serif" font-size="14.00" fill="#000000">is_a</text>
</g>
<!-- Numeral&#45;&gt;MathSymbol -->
<g id="edge12" class="edge">
<title>Numeral&#45;&gt;MathSymbol</title>
<path fill="none" stroke="#000000" d="M803.0369,-358.4101C724.4444,-360.7879 570.8701,-366.4062 440.7682,-377 424.7561,-378.3038 407.5999,-380.0532 391.3607,-381.8728"/>
<polygon fill="none" stroke="#000000" points="390.9249,-378.3997 381.3865,-383.0115 391.719,-385.3546 390.9249,-378.3997"/>
<text text-anchor="middle" x="587.2682" y="-380.8" font-family="Times,serif" font-size="14.00" fill="#000000">is_a</text>
</g>
<!-- MathString -->
<g id="node13" class="node">
<title>MathString</title>
<g id="a_node13"><a xlink:href="http://emmo.info/domains/emmo-math.owl#EMMO_2c03c212_742d_4699_9956_d182735009dc" xlink:title="MathString" target="_top">
<ellipse fill="#ffc880" stroke="#000000" cx="318.7774" cy="-286" rx="64.189" ry="18"/>
<text text-anchor="middle" x="318.7774" y="-282.3" font-family="Times,serif" font-size="14.00" fill="#000000">MathString</text>
</a>
</g>
</g>
<!-- MathString&#45;&gt;Mathematical -->
<g id="edge14" class="edge">
<title>MathString&#45;&gt;Mathematical</title>
<path fill="none" stroke="#000000" d="M260.7175,-293.7966C232.7506,-298.0296 198.8383,-303.8647 168.7866,-311 155.6234,-314.1254 141.6057,-318.115 128.541,-322.128"/>
<polygon fill="none" stroke="#000000" points="127.264,-318.8601 118.766,-325.1873 129.3549,-325.5406 127.264,-318.8601"/>
<text text-anchor="middle" x="182.7866" y="-314.8" font-family="Times,serif" font-size="14.00" fill="#000000">is_a</text>
</g>
<!-- Equation -->
<g id="node14" class="node">
<title>Equation</title>
<g id="a_node14"><a xlink:href="http://emmo.info/domains/emmo-math.owl#EMMO_e56ee3eb_7609_4ae1_8bed_51974f0960a6" xlink:title="Equation" target="_top">
<ellipse fill="#ffffcc" stroke="#000000" cx="855.109" cy="-286" rx="52.7911" ry="18"/>
<text text-anchor="middle" x="855.109" y="-282.3" font-family="Times,serif" font-size="14.00" fill="#000000">Equation</text>
</a>
</g>
</g>
<!-- Equation&#45;&gt;Mathematical -->
<g id="edge18" class="edge">
<title>Equation&#45;&gt;Mathematical</title>
<path fill="none" stroke="#000000" d="M816.08,-273.9116C714.3291,-244.4041 433.6614,-175.9221 214.7866,-244 170.0337,-257.9198 126.9364,-291.7602 100.8042,-315.2948"/>
<polygon fill="none" stroke="#000000" points="98.2487,-312.8897 93.2558,-322.2343 102.9863,-318.043 98.2487,-312.8897"/>
<text text-anchor="middle" x="318.7774" y="-247.8" font-family="Times,serif" font-size="14.00" fill="#000000">is_a</text>
</g>
<!-- Equation&#45;&gt;MathString -->
<g id="edge15" class="edge">
<title>Equation&#45;&gt;MathString</title>
<path fill="none" stroke="#000000" d="M802.2156,-286C706.2412,-286 503.1942,-286 393.2538,-286"/>
<polygon fill="none" stroke="#000000" points="393.2357,-282.5001 383.2356,-286 393.2356,-289.5001 393.2357,-282.5001"/>
<text text-anchor="middle" x="587.2682" y="-289.8" font-family="Times,serif" font-size="14.00" fill="#000000">is_a</text>
</g>
<!-- PhysicsEquation -->
<g id="node15" class="node">
<title>PhysicsEquation</title>
<g id="a_node15"><a xlink:href="http://emmo.info/domains/emmo-models.owl#EMMO_27c5d8c6_8af7_4d63_beb1_ec37cd8b3fa3" xlink:title="PhysicsEquation" target="_top">
<ellipse fill="#ffffcc" stroke="#000000" cx="1249.6915" cy="-329" rx="88.2844" ry="18"/>
<text text-anchor="middle" x="1249.6915" y="-325.3" font-family="Times,serif" font-size="14.00" fill="#000000">PhysicsEquation</text>
</a>
</g>
</g>
<!-- PhysicsEquation&#45;&gt;Equation -->
<g id="edge16" class="edge">
<title>PhysicsEquation&#45;&gt;Equation</title>
<path fill="none" stroke="#000000" d="M1169.8357,-321.2602C1115.3253,-315.8682 1041.485,-308.3512 976.4498,-301 956.3332,-298.7261 934.3637,-296.0646 914.7142,-293.6198"/>
<polygon fill="none" stroke="#000000" points="915.0293,-290.132 904.6723,-292.3643 914.1608,-297.078 915.0293,-290.132"/>
<text text-anchor="middle" x="1056.9498" y="-320.8" font-family="Times,serif" font-size="14.00" fill="#000000">is_a</text>
</g>
<!-- MaterialRelation -->
<g id="node16" class="node">
<title>MaterialRelation</title>
<g id="a_node16"><a xlink:href="http://emmo.info/domains/emmo-models.owl#EMMO_e5438930_04e7_4d42_ade5_3700d4a52ab7" xlink:title="MaterialRelation" target="_top">
<ellipse fill="#ffffcc" stroke="#000000" cx="1249.6915" cy="-275" rx="89.0842" ry="18"/>
<text text-anchor="middle" x="1249.6915" y="-271.3" font-family="Times,serif" font-size="14.00" fill="#000000">MaterialRelation</text>
</a>
</g>
</g>
<!-- MaterialRelation&#45;&gt;Equation -->
<g id="edge17" class="edge">
<title>MaterialRelation&#45;&gt;Equation</title>
<path fill="none" stroke="#000000" d="M1161.1395,-277.4686C1087.1611,-279.531 983.5187,-282.4203 917.8538,-284.2508"/>
<polygon fill="none" stroke="#000000" points="917.55,-280.7578 907.6515,-284.5352 917.7452,-287.7551 917.55,-280.7578"/>
<text text-anchor="middle" x="1056.9498" y="-285.8" font-family="Times,serif" font-size="14.00" fill="#000000">is_a</text>
</g>
<!-- MathematicalModel -->
<g id="node17" class="node">
<title>MathematicalModel</title>
<g id="a_node17"><a xlink:href="http://emmo.info/domains/emmo-models.owl#EMMO_f7ed665b_c2e1_42bc_889b_6b42ed3a36f0" xlink:title="MathematicalModel" target="_top">
<ellipse fill="#ffc880" stroke="#000000" cx="318.7774" cy="-126" rx="103.9815" ry="18"/>
<text text-anchor="middle" x="318.7774" y="-122.3" font-family="Times,serif" font-size="14.00" fill="#000000">MathematicalModel</text>
</a>
</g>
</g>
<!-- MathematicalModel&#45;&gt;Mathematical -->
<g id="edge19" class="edge">
<title>MathematicalModel&#45;&gt;Mathematical</title>
<path fill="none" stroke="#000000" d="M275.6858,-142.48C243.7505,-156.1506 200.4565,-177.8828 168.7866,-206 133.7705,-237.0881 105.0695,-283.8238 89.1058,-313.0857"/>
<polygon fill="none" stroke="#000000" points="86.0055,-311.4612 84.3785,-321.9304 92.179,-314.7609 86.0055,-311.4612"/>
<text text-anchor="middle" x="182.7866" y="-209.8" font-family="Times,serif" font-size="14.00" fill="#000000">is_a</text>
</g>
<!-- PhysicsBasedModel -->
<g id="node18" class="node">
<title>PhysicsBasedModel</title>
<g id="a_node18"><a xlink:href="http://emmo.info/domains/emmo-models.owl#EMMO_b29fd350_39aa_4af7_9459_3faa0544cba6" xlink:title="PhysicsBasedModel" target="_top">
<ellipse fill="#ffffcc" stroke="#000000" cx="855.109" cy="-126" rx="103.1819" ry="18"/>
<text text-anchor="middle" x="855.109" y="-122.3" font-family="Times,serif" font-size="14.00" fill="#000000">PhysicsBasedModel</text>
</a>
</g>
</g>
<!-- PhysicsBasedModel&#45;&gt;PhysicsEquation -->
<g id="edge27" class="edge">
<title>PhysicsBasedModel&#45;&gt;PhysicsEquation</title>
<path fill="none" stroke="#6b8e23" d="M871.2905,-143.9043C892.9374,-166.6842 933.5917,-205.5227 976.4498,-226 1042.3566,-257.4897 1081.0348,-212.6033 1137.4498,-259 1153.4514,-272.16 1139.9657,-288.235 1155.4498,-302 1160.4922,-306.4825 1166.2326,-310.2242 1172.334,-313.347"/>
<polygon fill="#6b8e23" stroke="#6b8e23" points="1170.9389,-316.5574 1181.4923,-317.4937 1173.8263,-310.1806 1170.9389,-316.5574"/>
<text text-anchor="middle" x="1056.9498" y="-262.8" font-family="Times,serif" font-size="14.00" fill="#000000">hasSpatialPart some &#160;&#160;</text>
</g>
<!-- PhysicsBasedModel&#45;&gt;MaterialRelation -->
<g id="edge28" class="edge">
<title>PhysicsBasedModel&#45;&gt;MaterialRelation</title>
<path fill="none" stroke="#6b8e23" d="M885.0614,-143.2346C909.0484,-156.3093 943.9441,-173.7299 976.4498,-184 1045.6337,-205.8584 1069.1015,-186.6544 1137.4498,-211 1165.6796,-221.0554 1195.0125,-238.045 1216.6094,-251.9932"/>
<polygon fill="#6b8e23" stroke="#6b8e23" points="1214.7942,-254.9884 1225.0724,-257.5591 1218.6406,-249.1399 1214.7942,-254.9884"/>
<text text-anchor="middle" x="1056.9498" y="-214.8" font-family="Times,serif" font-size="14.00" fill="#000000">hasSpatialPart some &#160;&#160;</text>
</g>
<!-- PhysicsBasedModel&#45;&gt;MathematicalModel -->
<g id="edge20" class="edge">
<title>PhysicsBasedModel&#45;&gt;MathematicalModel</title>
<path fill="none" stroke="#000000" d="M751.6989,-126C660.3593,-126 527.3844,-126 432.9492,-126"/>
<polygon fill="none" stroke="#000000" points="432.7837,-122.5001 422.7837,-126 432.7836,-129.5001 432.7837,-122.5001"/>
<text text-anchor="middle" x="587.2682" y="-129.8" font-family="Times,serif" font-size="14.00" fill="#000000">is_a</text>
</g>
<!-- ContinuumModel -->
<g id="node19" class="node">
<title>ContinuumModel</title>
<g id="a_node19"><a xlink:href="http://emmo.info/domains/emmo-models.owl#EMMO_4456a5d2_16a6_4ee1_9a8e_5c75956b28ea" xlink:title="ContinuumModel" target="_top">
<ellipse fill="#ffffcc" stroke="#000000" cx="1249.6915" cy="-180" rx="90.9839" ry="18"/>
<text text-anchor="middle" x="1249.6915" y="-176.3" font-family="Times,serif" font-size="14.00" fill="#000000">ContinuumModel</text>
</a>
</g>
</g>
<!-- ContinuumModel&#45;&gt;PhysicsBasedModel -->
<g id="edge21" class="edge">
<title>ContinuumModel&#45;&gt;PhysicsBasedModel</title>
<path fill="none" stroke="#000000" d="M1171.8799,-170.6193C1117.1638,-163.8796 1042.264,-154.366 976.4498,-145 964.9877,-143.3688 952.9292,-141.5749 941.0429,-139.7606"/>
<polygon fill="none" stroke="#000000" points="941.5315,-136.2946 931.1158,-138.2349 940.4681,-143.2134 941.5315,-136.2946"/>
<text text-anchor="middle" x="1056.9498" y="-168.8" font-family="Times,serif" font-size="14.00" fill="#000000">is_a</text>
</g>
<!-- MesoscopicModel -->
<g id="node20" class="node">
<title>MesoscopicModel</title>
<g id="a_node20"><a xlink:href="http://emmo.info/domains/emmo-models.owl#EMMO_53935db0_af45_4426_b9e9_244a0d77db00" xlink:title="MesoscopicModel" target="_top">
<ellipse fill="#ffffcc" stroke="#000000" cx="1249.6915" cy="-126" rx="94.4839" ry="18"/>
<text text-anchor="middle" x="1249.6915" y="-122.3" font-family="Times,serif" font-size="14.00" fill="#000000">MesoscopicModel</text>
</a>
</g>
</g>
<!-- MesoscopicModel&#45;&gt;PhysicsBasedModel -->
<g id="edge22" class="edge">
<title>MesoscopicModel&#45;&gt;PhysicsBasedModel</title>
<path fill="none" stroke="#000000" d="M1155.4299,-126C1099.3986,-126 1027.9561,-126 968.8103,-126"/>
<polygon fill="none" stroke="#000000" points="968.6742,-122.5001 958.6741,-126 968.6741,-129.5001 968.6742,-122.5001"/>
<text text-anchor="middle" x="1056.9498" y="-129.8" font-family="Times,serif" font-size="14.00" fill="#000000">is_a</text>
</g>
<!-- ElectronicModel -->
<g id="node21" class="node">
<title>ElectronicModel</title>
<g id="a_node21"><a xlink:href="http://emmo.info/domains/emmo-models.owl#EMMO_6eca09be_17e9_445e_abc9_000aa61b7a11" xlink:title="ElectronicModel" target="_top">
<ellipse fill="#ffffcc" stroke="#000000" cx="1249.6915" cy="-72" rx="87.9851" ry="18"/>
<text text-anchor="middle" x="1249.6915" y="-68.3" font-family="Times,serif" font-size="14.00" fill="#000000">ElectronicModel</text>
</a>
</g>
</g>
<!-- ElectronicModel&#45;&gt;PhysicsBasedModel -->
<g id="edge23" class="edge">
<title>ElectronicModel&#45;&gt;PhysicsBasedModel</title>
<path fill="none" stroke="#000000" d="M1173.9368,-81.1274C1119.0512,-87.8808 1043.0926,-97.5161 976.4498,-107 964.9877,-108.6312 952.9292,-110.4251 941.0429,-112.2394"/>
<polygon fill="none" stroke="#000000" points="940.4681,-108.7866 931.1158,-113.7651 941.5315,-115.7054 940.4681,-108.7866"/>
<text text-anchor="middle" x="1056.9498" y="-110.8" font-family="Times,serif" font-size="14.00" fill="#000000">is_a</text>
</g>
<!-- AtomisticModel -->
<g id="node22" class="node">
<title>AtomisticModel</title>
<g id="a_node22"><a xlink:href="http://emmo.info/domains/emmo-models.owl#EMMO_84cadc45_6758_46f2_ba2a_5ead65c70213" xlink:title="AtomisticModel" target="_top">
<ellipse fill="#ffffcc" stroke="#000000" cx="1249.6915" cy="-18" rx="84.485" ry="18"/>
<text text-anchor="middle" x="1249.6915" y="-14.3" font-family="Times,serif" font-size="14.00" fill="#000000">AtomisticModel</text>
</a>
</g>
</g>
<!-- AtomisticModel&#45;&gt;PhysicsBasedModel -->
<g id="edge24" class="edge">
<title>AtomisticModel&#45;&gt;PhysicsBasedModel</title>
<path fill="none" stroke="#000000" d="M1166.1021,-14.9868C1108.0085,-16.9204 1031.4453,-27.9103 976.4498,-67 963.1494,-76.4537 971.3709,-89.0342 958.4498,-99 953.0239,-103.1849 947.0111,-106.7243 940.694,-109.7172"/>
<polygon fill="none" stroke="#000000" points="939.0924,-106.5947 931.2539,-113.7228 941.8266,-113.0386 939.0924,-106.5947"/>
<text text-anchor="middle" x="1056.9498" y="-70.8" font-family="Times,serif" font-size="14.00" fill="#000000">is_a</text>
</g>
<!-- DataBasedModel -->
<g id="node23" class="node">
<title>DataBasedModel</title>
<g id="a_node23"><a xlink:href="http://emmo.info/domains/emmo-models.owl#EMMO_a4b14b83_9392_4a5f_a2e8_b2b58793f59b" xlink:title="DataBasedModel" target="_top">
<ellipse fill="#ffffcc" stroke="#000000" cx="855.109" cy="-72" rx="89.8845" ry="18"/>
<text text-anchor="middle" x="855.109" y="-68.3" font-family="Times,serif" font-size="14.00" fill="#000000">DataBasedModel</text>
</a>
</g>
</g>
<!-- DataBasedModel&#45;&gt;MathematicalModel -->
<g id="edge25" class="edge">
<title>DataBasedModel&#45;&gt;MathematicalModel</title>
<path fill="none" stroke="#000000" d="M769.6246,-77.4603C685.7207,-83.2344 554.1962,-93.3931 440.7682,-107 428.8803,-108.4261 416.3722,-110.1344 404.0805,-111.934"/>
<polygon fill="none" stroke="#000000" points="403.1993,-108.5266 393.8247,-113.4628 404.2315,-115.4501 403.1993,-108.5266"/>
<text text-anchor="middle" x="587.2682" y="-110.8" font-family="Times,serif" font-size="14.00" fill="#000000">is_a</text>
</g>
</g>
</svg>
