<?xml version="1.0" encoding="UTF-8" standalone="no"?>
<!DOCTYPE svg PUBLIC "-//W3C//DTD SVG 1.1//EN"
 "http://www.w3.org/Graphics/SVG/1.1/DTD/svg11.dtd">
<!-- Generated by graphviz version 2.40.1 (0)
 -->
<!-- Title: G Pages: 1 -->
<svg width="825pt" height="152pt"
 viewBox="0.00 0.00 825.36 152.00" xmlns="http://www.w3.org/2000/svg" xmlns:xlink="http://www.w3.org/1999/xlink">
<g id="graph0" class="graph" transform="scale(1 1) rotate(0) translate(4 148)">
<title>G</title>
<polygon fill="#ffffff" stroke="transparent" points="-4,4 -4,-148 821.3587,-148 821.3587,4 -4,4"/>
<!-- Process -->
<g id="node1" class="node">
<title>Process</title>
<g id="a_node1"><a xlink:href="http://emmo.info/perspectives/emmo-processual.owl#EMMO_43e9a05d_98af_41b4_92f6_00f79a09bfce" xlink:title="Process" target="_top">
<ellipse fill="#ffffcc" stroke="#000000" stroke-width="3" cx="47.4458" cy="-72" rx="47.3916" ry="18"/>
<text text-anchor="middle" x="47.4458" y="-68.3" font-family="Times,serif" font-size="14.00" fill="#000000">Process</text>
</a>
</g>
</g>
<!-- PhysicalPhenomenon -->
<g id="node2" class="node">
<title>PhysicalPhenomenon</title>
<g id="a_node2"><a xlink:href="http://emmo.info/domains/emmo-models.owl#EMMO_314d0bd5_67ed_437e_a609_36d46147cea7" xlink:title="PhysicalPhenomenon" target="_top">
<ellipse fill="#ffffcc" stroke="#000000" cx="268.7318" cy="-126" rx="109.6807" ry="18"/>
<text text-anchor="middle" x="268.7318" y="-122.3" font-family="Times,serif" font-size="14.00" fill="#000000">PhysicalPhenomenon</text>
</a>
</g>
</g>
<!-- PhysicalPhenomenon&#45;&gt;Process -->
<g id="edge1" class="edge">
<title>PhysicalPhenomenon&#45;&gt;Process</title>
<path fill="none" stroke="#000000" d="M201.0114,-111.7429C173.5664,-105.7175 141.627,-98.3905 112.8916,-91 106.8759,-89.4528 100.5752,-87.7412 94.3593,-85.9975"/>
<polygon fill="none" stroke="#000000" points="95.2907,-82.6237 84.7144,-83.2503 93.3731,-89.3559 95.2907,-82.6237"/>
<text text-anchor="middle" x="126.8916" y="-100.8" font-family="Times,serif" font-size="14.00" fill="#000000">is_a</text>
</g>
<!-- Semiosis -->
<g id="node3" class="node">
<title>Semiosis</title>
<g id="a_node3"><a xlink:href="http://emmo.info/perspectives/emmo-semiotics.owl#EMMO_008fd3b2_4013_451f_8827_52bceab11841" xlink:title="Semiosis" target="_top">
<ellipse fill="#ffffcc" stroke="#000000" cx="268.7318" cy="-72" rx="51.9908" ry="18"/>
<text text-anchor="middle" x="268.7318" y="-68.3" font-family="Times,serif" font-size="14.00" fill="#000000">Semiosis</text>
</a>
</g>
</g>
<!-- Semiosis&#45;&gt;Process -->
<g id="edge2" class="edge">
<title>Semiosis&#45;&gt;Process</title>
<path fill="none" stroke="#000000" d="M216.5703,-72C183.2205,-72 139.923,-72 105.4861,-72"/>
<polygon fill="none" stroke="#000000" points="105.1041,-68.5001 95.1041,-72 105.1041,-75.5001 105.1041,-68.5001"/>
<text text-anchor="middle" x="126.8916" y="-75.8" font-family="Times,serif" font-size="14.00" fill="#000000">is_a</text>
</g>
<!-- Observation -->
<g id="node4" class="node">
<title>Observation</title>
<g id="a_node4"><a xlink:href="http://emmo.info/domains/emmo-properties.owl#EMMO_10a5fd39_06aa_4648_9e70_f962a9cb2069" xlink:title="Observation" target="_top">
<ellipse fill="#ffffcc" stroke="#000000" cx="522.5721" cy="-72" rx="67.6881" ry="18"/>
<text text-anchor="middle" x="522.5721" y="-68.3" font-family="Times,serif" font-size="14.00" fill="#000000">Observation</text>
</a>
</g>
</g>
<!-- Observation&#45;&gt;Semiosis -->
<g id="edge3" class="edge">
<title>Observation&#45;&gt;Semiosis</title>
<path fill="none" stroke="#000000" d="M454.881,-72C416.4865,-72 368.7702,-72 331.2609,-72"/>
<polygon fill="none" stroke="#000000" points="330.9683,-68.5001 320.9683,-72 330.9682,-75.5001 330.9683,-68.5001"/>
<text text-anchor="middle" x="410.5721" y="-75.8" font-family="Times,serif" font-size="14.00" fill="#000000">is_a</text>
</g>
<!-- Experiment -->
<g id="node5" class="node">
<title>Experiment</title>
<g id="a_node5"><a xlink:href="http://emmo.info/domains/emmo-models.owl#EMMO_22522299_4091_4d1f_82a2_3890492df6db" xlink:title="Experiment" target="_top">
<ellipse fill="#ffffcc" stroke="#000000" cx="741.9654" cy="-126" rx="65.7887" ry="18"/>
<text text-anchor="middle" x="741.9654" y="-122.3" font-family="Times,serif" font-size="14.00" fill="#000000">Experiment</text>
</a>
</g>
</g>
<!-- Experiment&#45;&gt;PhysicalPhenomenon -->
<g id="edge8" class="edge">
<title>Experiment&#45;&gt;PhysicalPhenomenon</title>
<path fill="none" stroke="#6b8e23" d="M676.1643,-126C602.1149,-126 480.2738,-126 389.0873,-126"/>
<polygon fill="#6b8e23" stroke="#6b8e23" points="388.9657,-122.5001 378.9656,-126 388.9656,-129.5001 388.9657,-122.5001"/>
<text text-anchor="middle" x="522.5721" y="-129.8" font-family="Times,serif" font-size="14.00" fill="#000000">hasParticipant some &#160;&#160;</text>
</g>
<!-- Experiment&#45;&gt;Observation -->
<g id="edge4" class="edge">
<title>Experiment&#45;&gt;Observation</title>
<path fill="none" stroke="#000000" d="M693.0023,-113.9486C660.3585,-105.9138 617.2367,-95.3001 582.5368,-86.7593"/>
<polygon fill="none" stroke="#000000" points="583.0719,-83.2866 572.5252,-84.2951 581.3989,-90.0838 583.0719,-83.2866"/>
<text text-anchor="middle" x="634.5721" y="-105.8" font-family="Times,serif" font-size="14.00" fill="#000000">is_a</text>
</g>
<!-- Theorization -->
<g id="node6" class="node">
<title>Theorization</title>
<g id="a_node6"><a xlink:href="http://emmo.info/domains/emmo-models.owl#EMMO_6c739b1a_a774_4416_bb31_1961486fa9ed" xlink:title="Theorization" target="_top">
<ellipse fill="#ffffcc" stroke="#000000" cx="741.9654" cy="-72" rx="69.5877" ry="18"/>
<text text-anchor="middle" x="741.9654" y="-68.3" font-family="Times,serif" font-size="14.00" fill="#000000">Theorization</text>
</a>
</g>
</g>
<!-- Theorization&#45;&gt;Observation -->
<g id="edge5" class="edge">
<title>Theorization&#45;&gt;Observation</title>
<path fill="none" stroke="#000000" d="M672.2465,-72C649.4033,-72 623.8807,-72 600.4724,-72"/>
<polygon fill="none" stroke="#000000" points="600.2349,-68.5001 590.2349,-72 600.2348,-75.5001 600.2349,-68.5001"/>
<text text-anchor="middle" x="634.5721" y="-75.8" font-family="Times,serif" font-size="14.00" fill="#000000">is_a</text>
</g>
<!-- Measurement -->
<g id="node7" class="node">
<title>Measurement</title>
<g id="a_node7"><a xlink:href="http://emmo.info/domains/emmo-physical-properties.owl#EMMO_463bcfda_867b_41d9_a967_211d4d437cfb" xlink:title="Measurement" target="_top">
<ellipse fill="#ffffcc" stroke="#000000" cx="741.9654" cy="-18" rx="75.2868" ry="18"/>
<text text-anchor="middle" x="741.9654" y="-14.3" font-family="Times,serif" font-size="14.00" fill="#000000">Measurement</text>
</a>
</g>
</g>
<!-- Measurement&#45;&gt;Observation -->
<g id="edge6" class="edge">
<title>Measurement&#45;&gt;Observation</title>
<path fill="none" stroke="#000000" d="M689.4152,-30.9343C657.2477,-38.8519 615.9841,-49.0082 582.5418,-57.2395"/>
<polygon fill="none" stroke="#000000" points="581.3067,-53.9389 572.433,-59.7276 582.9797,-60.7361 581.3067,-53.9389"/>
<text text-anchor="middle" x="634.5721" y="-50.8" font-family="Times,serif" font-size="14.00" fill="#000000">is_a</text>
</g>
<!-- Manufacturing -->
<g id="node8" class="node">
<title>Manufacturing</title>
<g id="a_node8"><a xlink:href="http://emmo.info/domains/emmo-usercase.owl#EMMO_a4d66059_5dd3_4b90_b4cb_10960559441b" xlink:title="Manufacturing" target="_top">
<ellipse fill="#ffffcc" stroke="#000000" cx="268.7318" cy="-18" rx="79.8859" ry="18"/>
<text text-anchor="middle" x="268.7318" y="-14.3" font-family="Times,serif" font-size="14.00" fill="#000000">Manufacturing</text>
</a>
</g>
</g>
<!-- Manufacturing&#45;&gt;Process -->
<g id="edge7" class="edge">
<title>Manufacturing&#45;&gt;Process</title>
<path fill="none" stroke="#000000" d="M210.0648,-30.2808C180.7707,-36.6399 144.8497,-44.7806 112.8916,-53 106.8759,-54.5472 100.5752,-56.2588 94.3593,-58.0025"/>
<polygon fill="none" stroke="#000000" points="93.3731,-54.6441 84.7144,-60.7497 95.2907,-61.3763 93.3731,-54.6441"/>
<text text-anchor="middle" x="126.8916" y="-56.8" font-family="Times,serif" font-size="14.00" fill="#000000">is_a</text>
</g>
</g>
</svg>
