<?xml version="1.0" encoding="UTF-8" standalone="no"?>
<!DOCTYPE svg PUBLIC "-//W3C//DTD SVG 1.1//EN"
 "http://www.w3.org/Graphics/SVG/1.1/DTD/svg11.dtd">
<!-- Generated by graphviz version 2.40.1 (0)
 -->
<!-- Title: G Pages: 1 -->
<svg width="1198pt" height="296pt"
 viewBox="0.00 0.00 1197.62 296.00" xmlns="http://www.w3.org/2000/svg" xmlns:xlink="http://www.w3.org/1999/xlink">
<g id="graph0" class="graph" transform="scale(1 1) rotate(0) translate(4 292)">
<title>G</title>
<polygon fill="#ffffff" stroke="transparent" points="-4,4 -4,-292 1193.6228,-292 1193.6228,4 -4,4"/>
<!-- Processual -->
<g id="node1" class="node">
<title>Processual</title>
<g id="a_node1"><a xlink:href="http://emmo.info/perspectives/emmo-processual.owl#EMMO_0277f24a_ea7f_4917_81b7_fb0406c8fc62" xlink:title="Processual" target="_top">
<ellipse fill="#ffffcc" stroke="#000000" stroke-width="3" cx="61.7445" cy="-171" rx="61.99" ry="18"/>
<text text-anchor="middle" x="61.7445" y="-167.3" font-family="Times,serif" font-size="14.00" fill="#000000">Processual</text>
</a>
</g>
</g>
<!-- Process -->
<g id="node2" class="node">
<title>Process</title>
<g id="a_node2"><a xlink:href="http://emmo.info/perspectives/emmo-processual.owl#EMMO_43e9a05d_98af_41b4_92f6_00f79a09bfce" xlink:title="Process" target="_top">
<ellipse fill="#ffffcc" stroke="#000000" stroke-width="3" cx="249.8835" cy="-207" rx="47.3916" ry="18"/>
<text text-anchor="middle" x="249.8835" y="-203.3" font-family="Times,serif" font-size="14.00" fill="#000000">Process</text>
</a>
</g>
</g>
<!-- Process&#45;&gt;Processual -->
<g id="edge1" class="edge">
<title>Process&#45;&gt;Processual</title>
<path fill="none" stroke="#000000" d="M207.1919,-198.831C182.4731,-194.1012 150.9268,-188.0648 123.5355,-182.8236"/>
<polygon fill="none" stroke="#000000" points="124.132,-179.3743 113.6524,-180.9325 122.8164,-186.2496 124.132,-179.3743"/>
<text text-anchor="middle" x="155.489" y="-194.8" font-family="Times,serif" font-size="14.00" fill="#000000">is_a</text>
</g>
<!-- Participant -->
<g id="node3" class="node">
<title>Participant</title>
<g id="a_node3"><a xlink:href="http://emmo.info/perspectives/emmo-processual.owl#EMMO_49804605_c0fe_4538_abda_f70ba1dc8a5d" xlink:title="Participant" target="_top">
<ellipse fill="#ffffcc" stroke="#000000" cx="249.8835" cy="-135" rx="62.2891" ry="18"/>
<text text-anchor="middle" x="249.8835" y="-131.3" font-family="Times,serif" font-size="14.00" fill="#000000">Participant</text>
</a>
</g>
</g>
<!-- Process&#45;&gt;Participant -->
<g id="edge12" class="edge">
<title>Process&#45;&gt;Participant</title>
<path fill="none" stroke="#6b8e23" d="M249.8835,-188.5867C249.8835,-180.9407 249.8835,-171.8916 249.8835,-163.4274"/>
<polygon fill="#6b8e23" stroke="#6b8e23" points="253.3836,-163.1686 249.8835,-153.1686 246.3836,-163.1687 253.3836,-163.1686"/>
<text text-anchor="middle" x="260.3835" y="-167.3" font-family="Times,serif" font-size="14.00" fill="#000000">hasParticipant some &#160;&#160;</text>
</g>
<!-- Participant&#45;&gt;Processual -->
<g id="edge2" class="edge">
<title>Participant&#45;&gt;Processual</title>
<path fill="none" stroke="#000000" d="M197.4763,-145.028C174.5483,-149.4152 147.4822,-154.5943 123.576,-159.1687"/>
<polygon fill="none" stroke="#000000" points="122.7092,-155.7709 113.5452,-161.088 124.0249,-162.6462 122.7092,-155.7709"/>
<text text-anchor="middle" x="155.489" y="-158.8" font-family="Times,serif" font-size="14.00" fill="#000000">is_a</text>
</g>
<!-- Engineered -->
<g id="node4" class="node">
<title>Engineered</title>
<g id="a_node4"><a xlink:href="http://emmo.info/domains/emmo-usercase.owl#EMMO_86ca9b93_1183_4b65_81b8_c0fcd3bba5ad" xlink:title="Engineered" target="_top">
<ellipse fill="#ffffcc" stroke="#000000" cx="440.6223" cy="-198" rx="64.189" ry="18"/>
<text text-anchor="middle" x="440.6223" y="-194.3" font-family="Times,serif" font-size="14.00" fill="#000000">Engineered</text>
</a>
</g>
</g>
<!-- Engineered&#45;&gt;Participant -->
<g id="edge3" class="edge">
<title>Engineered&#45;&gt;Participant</title>
<path fill="none" stroke="#000000" d="M398.7638,-184.1744C369.8695,-174.6308 331.2861,-161.8868 300.638,-151.7639"/>
<polygon fill="none" stroke="#000000" points="301.5817,-148.3897 290.9885,-148.5768 299.3862,-155.0365 301.5817,-148.3897"/>
<text text-anchor="middle" x="344.278" y="-173.8" font-family="Times,serif" font-size="14.00" fill="#000000">is_a</text>
</g>
<!-- Component -->
<g id="node5" class="node">
<title>Component</title>
<g id="a_node5"><a xlink:href="http://emmo.info/domains/emmo-usercase.owl#EMMO_494b372c_cfdf_47d3_a4de_5e037c540de8" xlink:title="Component" target="_top">
<ellipse fill="#ffffcc" stroke="#000000" cx="633.3108" cy="-270" rx="64.189" ry="18"/>
<text text-anchor="middle" x="633.3108" y="-266.3" font-family="Times,serif" font-size="14.00" fill="#000000">Component</text>
</a>
</g>
</g>
<!-- Component&#45;&gt;Engineered -->
<g id="edge4" class="edge">
<title>Component&#45;&gt;Engineered</title>
<path fill="none" stroke="#000000" d="M594.3174,-255.4297C563.9213,-244.0719 521.5506,-228.2397 488.9932,-216.0743"/>
<polygon fill="none" stroke="#000000" points="489.8209,-212.6473 479.2284,-212.4256 487.3707,-219.2045 489.8209,-212.6473"/>
<text text-anchor="middle" x="536.9666" y="-241.8" font-family="Times,serif" font-size="14.00" fill="#000000">is_a</text>
</g>
<!-- System -->
<g id="node6" class="node">
<title>System</title>
<g id="a_node6"><a xlink:href="http://emmo.info/domains/emmo-usercase.owl#EMMO_e775e341_5687_4d45_b50c_379b098a8c26" xlink:title="System" target="_top">
<ellipse fill="#ffc880" stroke="#000000" cx="633.3108" cy="-198" rx="45.4919" ry="18"/>
<text text-anchor="middle" x="633.3108" y="-194.3" font-family="Times,serif" font-size="14.00" fill="#000000">System</text>
</a>
</g>
</g>
<!-- System&#45;&gt;Engineered -->
<g id="edge5" class="edge">
<title>System&#45;&gt;Engineered</title>
<path fill="none" stroke="#000000" d="M587.6463,-198C566.1256,-198 539.8885,-198 515.5676,-198"/>
<polygon fill="none" stroke="#000000" points="515.281,-194.5001 505.281,-198 515.281,-201.5001 515.281,-194.5001"/>
<text text-anchor="middle" x="536.9666" y="-201.8" font-family="Times,serif" font-size="14.00" fill="#000000">is_a</text>
</g>
<!-- System&#45;&gt;Component -->
<g id="edge13" class="edge">
<title>System&#45;&gt;Component</title>
<path fill="none" stroke="#00cd00" d="M633.3108,-216.1686C633.3108,-223.869 633.3108,-233.0257 633.3108,-241.5834"/>
<polygon fill="#00cd00" stroke="#00cd00" points="629.8109,-241.5867 633.3108,-251.5867 636.8109,-241.5868 629.8109,-241.5867"/>
<text text-anchor="middle" x="643.8108" y="-230.3" font-family="Times,serif" font-size="14.00" fill="#000000">hasSpatialDirectPart some &#160;&#160;</text>
</g>
<!-- Semiotic -->
<g id="node7" class="node">
<title>Semiotic</title>
<g id="a_node7"><a xlink:href="http://emmo.info/perspectives/emmo-semiotics.owl#EMMO_b803f122_4acb_4064_9d71_c1e5fd091fc9" xlink:title="Semiotic" target="_top">
<ellipse fill="#ffc880" stroke="#000000" cx="440.6223" cy="-108" rx="51.9908" ry="18"/>
<text text-anchor="middle" x="440.6223" y="-104.3" font-family="Times,serif" font-size="14.00" fill="#000000">Semiotic</text>
</a>
</g>
</g>
<!-- Semiotic&#45;&gt;Participant -->
<g id="edge6" class="edge">
<title>Semiotic&#45;&gt;Participant</title>
<path fill="none" stroke="#000000" d="M390.8346,-113.2757C371.8513,-115.4419 350.0335,-118.1184 330.278,-121 324.758,-121.8052 319.0341,-122.6939 313.2997,-123.6213"/>
<polygon fill="none" stroke="#000000" points="312.3032,-120.2385 303.0081,-125.323 313.4451,-127.1447 312.3032,-120.2385"/>
<text text-anchor="middle" x="344.278" y="-124.8" font-family="Times,serif" font-size="14.00" fill="#000000">is_a</text>
</g>
<!-- Object -->
<g id="node8" class="node">
<title>Object</title>
<g id="a_node8"><a xlink:href="http://emmo.info/perspectives/emmo-semiotics.owl#EMMO_6f5af708_f825_4feb_a0d1_a8d813d3022b" xlink:title="Object" target="_top">
<ellipse fill="#ffc880" stroke="#000000" cx="633.3108" cy="-144" rx="42.4939" ry="18"/>
<text text-anchor="middle" x="633.3108" y="-140.3" font-family="Times,serif" font-size="14.00" fill="#000000">Object</text>
</a>
</g>
</g>
<!-- Object&#45;&gt;Semiotic -->
<g id="edge7" class="edge">
<title>Object&#45;&gt;Semiotic</title>
<path fill="none" stroke="#000000" d="M594.3174,-136.7149C566.2354,-131.4683 527.9326,-124.3122 496.5901,-118.4565"/>
<polygon fill="none" stroke="#000000" points="497.153,-115.0012 486.6803,-116.605 495.8674,-121.8821 497.153,-115.0012"/>
<text text-anchor="middle" x="536.9666" y="-131.8" font-family="Times,serif" font-size="14.00" fill="#000000">is_a</text>
</g>
<!-- Sign -->
<g id="node9" class="node">
<title>Sign</title>
<g id="a_node9"><a xlink:href="http://emmo.info/perspectives/emmo-semiotics.owl#EMMO_b21a56ed_f969_4612_a6ec_cb7766f7f31d" xlink:title="Sign" target="_top">
<ellipse fill="#ffc880" stroke="#000000" stroke-width="3" cx="633.3108" cy="-72" rx="31.6951" ry="18"/>
<text text-anchor="middle" x="633.3108" y="-68.3" font-family="Times,serif" font-size="14.00" fill="#000000">Sign</text>
</a>
</g>
</g>
<!-- Object&#45;&gt;Sign -->
<g id="edge14" class="edge">
<title>Object&#45;&gt;Sign</title>
<path fill="none" stroke="#00cd00" d="M633.3108,-125.5867C633.3108,-117.9407 633.3108,-108.8916 633.3108,-100.4274"/>
<polygon fill="#00cd00" stroke="#00cd00" points="636.8109,-100.1686 633.3108,-90.1686 629.8109,-100.1687 636.8109,-100.1686"/>
<text text-anchor="middle" x="643.8108" y="-104.3" font-family="Times,serif" font-size="14.00" fill="#000000">hasSign some &#160;&#160;</text>
</g>
<!-- Sign&#45;&gt;Semiotic -->
<g id="edge8" class="edge">
<title>Sign&#45;&gt;Semiotic</title>
<path fill="none" stroke="#000000" d="M602.7788,-77.7043C574.2862,-83.0276 531.0836,-91.0991 496.4346,-97.5726"/>
<polygon fill="none" stroke="#000000" points="495.6333,-94.1617 486.4462,-99.4387 496.9189,-101.0426 495.6333,-94.1617"/>
<text text-anchor="middle" x="536.9666" y="-95.8" font-family="Times,serif" font-size="14.00" fill="#000000">is_a</text>
</g>
<!-- Interpreter -->
<g id="node10" class="node">
<title>Interpreter</title>
<g id="a_node10"><a xlink:href="http://emmo.info/perspectives/emmo-semiotics.owl#EMMO_0527413c_b286_4e9c_b2d0_03fb2a038dee" xlink:title="Interpreter" target="_top">
<ellipse fill="#ffffcc" stroke="#000000" cx="633.3108" cy="-18" rx="63.8893" ry="18"/>
<text text-anchor="middle" x="633.3108" y="-14.3" font-family="Times,serif" font-size="14.00" fill="#000000">Interpreter</text>
</a>
</g>
</g>
<!-- Interpreter&#45;&gt;Semiotic -->
<g id="edge9" class="edge">
<title>Interpreter&#45;&gt;Semiotic</title>
<path fill="none" stroke="#000000" d="M596.7377,-32.9066C587.6206,-36.7432 577.899,-40.9378 568.9666,-45 538.5128,-58.8493 504.5503,-75.5786 479.2152,-88.3164"/>
<polygon fill="none" stroke="#000000" points="477.3051,-85.3598 469.953,-92.9886 480.4577,-91.6097 477.3051,-85.3598"/>
<text text-anchor="middle" x="536.9666" y="-68.8" font-family="Times,serif" font-size="14.00" fill="#000000">is_a</text>
</g>
<!-- Observer -->
<g id="node11" class="node">
<title>Observer</title>
<g id="a_node11"><a xlink:href="http://emmo.info/domains/emmo-properties.owl#EMMO_1b52ee70_121e_4d8d_8419_3f97cd0bd89c" xlink:title="Observer" target="_top">
<ellipse fill="#ffffcc" stroke="#000000" cx="815.6003" cy="-18" rx="53.8905" ry="18"/>
<text text-anchor="middle" x="815.6003" y="-14.3" font-family="Times,serif" font-size="14.00" fill="#000000">Observer</text>
</a>
</g>
</g>
<!-- Observer&#45;&gt;Interpreter -->
<g id="edge10" class="edge">
<title>Observer&#45;&gt;Interpreter</title>
<path fill="none" stroke="#000000" d="M761.401,-18C744.478,-18 725.5094,-18 707.4624,-18"/>
<polygon fill="none" stroke="#000000" points="707.259,-14.5001 697.2589,-18 707.2589,-21.5001 707.259,-14.5001"/>
<text text-anchor="middle" x="729.6551" y="-21.8" font-family="Times,serif" font-size="14.00" fill="#000000">is_a</text>
</g>
<!-- MeasurementInstrument -->
<g id="node12" class="node">
<title>MeasurementInstrument</title>
<g id="a_node12"><a xlink:href="http://emmo.info/domains/emmo-physical-properties.owl#EMMO_f2d5d3ad_2e00_417f_8849_686f3988d929" xlink:title="MeasurementInstrument" target="_top">
<ellipse fill="#ffffcc" stroke="#000000" cx="1061.5842" cy="-18" rx="128.0773" ry="18"/>
<text text-anchor="middle" x="1061.5842" y="-14.3" font-family="Times,serif" font-size="14.00" fill="#000000">MeasurementInstrument</text>
</a>
</g>
</g>
<!-- MeasurementInstrument&#45;&gt;Observer -->
<g id="edge11" class="edge">
<title>MeasurementInstrument&#45;&gt;Observer</title>
<path fill="none" stroke="#000000" d="M933.1889,-18C914.6669,-18 896.3087,-18 879.7987,-18"/>
<polygon fill="none" stroke="#000000" points="879.7728,-14.5001 869.7728,-18 879.7728,-21.5001 879.7728,-14.5001"/>
<text text-anchor="middle" x="901.5456" y="-21.8" font-family="Times,serif" font-size="14.00" fill="#000000">is_a</text>
</g>
</g>
</svg>
