<?xml version="1.0" encoding="UTF-8" standalone="no"?>
<!DOCTYPE svg PUBLIC "-//W3C//DTD SVG 1.1//EN"
 "http://www.w3.org/Graphics/SVG/1.1/DTD/svg11.dtd">
<!-- Generated by graphviz version 2.40.1 (0)
 -->
<!-- Title: G Pages: 1 -->
<svg width="708pt" height="206pt"
 viewBox="0.00 0.00 708.25 206.00" xmlns="http://www.w3.org/2000/svg" xmlns:xlink="http://www.w3.org/1999/xlink">
<g id="graph0" class="graph" transform="scale(1 1) rotate(0) translate(4 202)">
<title>G</title>
<polygon fill="#ffffff" stroke="transparent" points="-4,4 -4,-202 704.2549,-202 704.2549,4 -4,4"/>
<!-- semiotical -->
<g id="node1" class="node">
<title>semiotical</title>
<g id="a_node1"><a xlink:href="http://emmo.info/perspectives/emmo-semiotics.owl#EMMO_2337e25c_3c60_43fc_a8f9_b11a3f974291" xlink:title="semiotical" target="_top">
<ellipse fill="#ffffcc" stroke="#000000" stroke-width="3" cx="58.4948" cy="-72" rx="58.4896" ry="18"/>
<text text-anchor="middle" x="58.4948" y="-68.3" font-family="Times,serif" font-size="14.00" fill="#000000">semiotical</text>
</a>
</g>
</g>
<!-- hasSign -->
<g id="node2" class="node">
<title>hasSign</title>
<g id="a_node2"><a xlink:href="http://emmo.info/perspectives/emmo-semiotics.owl#EMMO_60577dea_9019_4537_ac41_80b0fb563d41" xlink:title="hasSign" target="_top">
<ellipse fill="#ffffcc" stroke="#000000" cx="229.0854" cy="-72" rx="48.1917" ry="18"/>
<text text-anchor="middle" x="229.0854" y="-68.3" font-family="Times,serif" font-size="14.00" fill="#000000">hasSign</text>
</a>
</g>
</g>
<!-- hasSign&#45;&gt;semiotical -->
<g id="edge1" class="edge">
<title>hasSign&#45;&gt;semiotical</title>
<path fill="none" stroke="#000000" d="M180.6573,-72C164.0289,-72 145.0858,-72 127.1619,-72"/>
<polygon fill="none" stroke="#000000" points="127.0421,-68.5001 117.042,-72 127.042,-75.5001 127.0421,-68.5001"/>
<text text-anchor="middle" x="148.9896" y="-75.8" font-family="Times,serif" font-size="14.00" fill="#000000">is_a</text>
</g>
<!-- hasConvention -->
<g id="node3" class="node">
<title>hasConvention</title>
<g id="a_node3"><a xlink:href="http://emmo.info/perspectives/emmo-semiotics.owl#EMMO_eb3518bf_f799_4f9e_8c3e_ce59af11453b" xlink:title="hasConvention" target="_top">
<ellipse fill="#ffffcc" stroke="#000000" cx="421.124" cy="-126" rx="79.8859" ry="18"/>
<text text-anchor="middle" x="421.124" y="-122.3" font-family="Times,serif" font-size="14.00" fill="#000000">hasConvention</text>
</a>
</g>
</g>
<!-- hasConvention&#45;&gt;hasSign -->
<g id="edge2" class="edge">
<title>hasConvention&#45;&gt;hasSign</title>
<path fill="none" stroke="#000000" d="M370.5379,-112.0519C347.5313,-105.68 319.9672,-98.0065 295.1811,-91 289.2245,-89.3162 282.9698,-87.5352 276.782,-85.7654"/>
<polygon fill="none" stroke="#000000" points="277.7432,-82.4 267.1659,-83.009 275.8143,-89.129 277.7432,-82.4"/>
<text text-anchor="middle" x="309.1811" y="-101.8" font-family="Times,serif" font-size="14.00" fill="#000000">is_a</text>
</g>
<!-- hasVariable -->
<g id="node4" class="node">
<title>hasVariable</title>
<g id="a_node4"><a xlink:href="http://emmo.info/domains/emmo-math.owl#EMMO_3446e167_c576_49d6_846c_215bb8878a55" xlink:title="hasVariable" target="_top">
<ellipse fill="#ffffcc" stroke="#000000" cx="632.6609" cy="-180" rx="64.9885" ry="18"/>
<text text-anchor="middle" x="632.6609" y="-176.3" font-family="Times,serif" font-size="14.00" fill="#000000">hasVariable</text>
</a>
</g>
</g>
<!-- hasVariable&#45;&gt;hasConvention -->
<g id="edge3" class="edge">
<title>hasVariable&#45;&gt;hasConvention</title>
<path fill="none" stroke="#000000" d="M584.6599,-167.7466C554.8328,-160.1325 516.1642,-150.2613 483.9172,-142.0295"/>
<polygon fill="none" stroke="#000000" points="484.6876,-138.614 474.1326,-139.5318 482.9562,-145.3965 484.6876,-138.614"/>
<text text-anchor="middle" x="533.0669" y="-160.8" font-family="Times,serif" font-size="14.00" fill="#000000">is_a</text>
</g>
<!-- hasProperty -->
<g id="node5" class="node">
<title>hasProperty</title>
<g id="a_node5"><a xlink:href="http://emmo.info/domains/emmo-properties.owl#EMMO_e1097637_70d2_4895_973f_2396f04fa204" xlink:title="hasProperty" target="_top">
<ellipse fill="#ffffcc" stroke="#000000" cx="632.6609" cy="-126" rx="67.6881" ry="18"/>
<text text-anchor="middle" x="632.6609" y="-122.3" font-family="Times,serif" font-size="14.00" fill="#000000">hasProperty</text>
</a>
</g>
</g>
<!-- hasProperty&#45;&gt;hasConvention -->
<g id="edge4" class="edge">
<title>hasProperty&#45;&gt;hasConvention</title>
<path fill="none" stroke="#000000" d="M564.8564,-126C547.8057,-126 529.2372,-126 511.2824,-126"/>
<polygon fill="none" stroke="#000000" points="511.0923,-122.5001 501.0923,-126 511.0923,-129.5001 511.0923,-122.5001"/>
<text text-anchor="middle" x="533.0669" y="-129.8" font-family="Times,serif" font-size="14.00" fill="#000000">is_a</text>
</g>
<!-- hasIcon -->
<g id="node6" class="node">
<title>hasIcon</title>
<g id="a_node6"><a xlink:href="http://emmo.info/perspectives/emmo-semiotics.owl#EMMO_39c3815d_8cae_4c8f_b2ff_eeba24bec455" xlink:title="hasIcon" target="_top">
<ellipse fill="#ffffcc" stroke="#000000" cx="421.124" cy="-72" rx="47.3916" ry="18"/>
<text text-anchor="middle" x="421.124" y="-68.3" font-family="Times,serif" font-size="14.00" fill="#000000">hasIcon</text>
</a>
</g>
</g>
<!-- hasIcon&#45;&gt;hasSign -->
<g id="edge5" class="edge">
<title>hasIcon&#45;&gt;hasSign</title>
<path fill="none" stroke="#000000" d="M373.6538,-72C347.6528,-72 315.2066,-72 287.6442,-72"/>
<polygon fill="none" stroke="#000000" points="287.3434,-68.5001 277.3434,-72 287.3433,-75.5001 287.3434,-68.5001"/>
<text text-anchor="middle" x="309.1811" y="-75.8" font-family="Times,serif" font-size="14.00" fill="#000000">is_a</text>
</g>
<!-- hasModel -->
<g id="node7" class="node">
<title>hasModel</title>
<g id="a_node7"><a xlink:href="http://emmo.info/domains/emmo-models.owl#EMMO_24c71baf_6db6_48b9_86c8_8c70cf36db0c" xlink:title="hasModel" target="_top">
<ellipse fill="#ffffcc" stroke="#000000" cx="632.6609" cy="-72" rx="55.7903" ry="18"/>
<text text-anchor="middle" x="632.6609" y="-68.3" font-family="Times,serif" font-size="14.00" fill="#000000">hasModel</text>
</a>
</g>
</g>
<!-- hasModel&#45;&gt;hasIcon -->
<g id="edge6" class="edge">
<title>hasModel&#45;&gt;hasIcon</title>
<path fill="none" stroke="#000000" d="M576.5283,-72C546.3968,-72 509.3148,-72 478.9315,-72"/>
<polygon fill="none" stroke="#000000" points="478.9041,-68.5001 468.9041,-72 478.904,-75.5001 478.9041,-68.5001"/>
<text text-anchor="middle" x="533.0669" y="-75.8" font-family="Times,serif" font-size="14.00" fill="#000000">is_a</text>
</g>
<!-- hasIndex -->
<g id="node8" class="node">
<title>hasIndex</title>
<g id="a_node8"><a xlink:href="http://emmo.info/perspectives/emmo-semiotics.owl#EMMO_297999d6_c9e4_4262_9536_bd524d1c6e21" xlink:title="hasIndex" target="_top">
<ellipse fill="#ffffcc" stroke="#000000" cx="421.124" cy="-18" rx="53.0913" ry="18"/>
<text text-anchor="middle" x="421.124" y="-14.3" font-family="Times,serif" font-size="14.00" fill="#000000">hasIndex</text>
</a>
</g>
</g>
<!-- hasIndex&#45;&gt;hasSign -->
<g id="edge7" class="edge">
<title>hasIndex&#45;&gt;hasSign</title>
<path fill="none" stroke="#000000" d="M379.6899,-29.4154C355.1116,-36.2117 323.3521,-45.0367 295.1811,-53 289.2245,-54.6838 282.9698,-56.4648 276.782,-58.2346"/>
<polygon fill="none" stroke="#000000" points="275.8143,-54.871 267.1659,-60.991 277.7432,-61.6 275.8143,-54.871"/>
<text text-anchor="middle" x="309.1811" y="-56.8" font-family="Times,serif" font-size="14.00" fill="#000000">is_a</text>
</g>
</g>
</svg>
