<?xml version="1.0" encoding="UTF-8" standalone="no"?>
<!DOCTYPE svg PUBLIC "-//W3C//DTD SVG 1.1//EN"
 "http://www.w3.org/Graphics/SVG/1.1/DTD/svg11.dtd">
<!-- Generated by graphviz version 2.40.1 (0)
 -->
<!-- Title: G Pages: 1 -->
<svg width="280pt" height="206pt"
 viewBox="0.00 0.00 279.98 206.00" xmlns="http://www.w3.org/2000/svg" xmlns:xlink="http://www.w3.org/1999/xlink">
<g id="graph0" class="graph" transform="scale(1 1) rotate(0) translate(4 202)">
<title>G</title>
<polygon fill="#ffffff" stroke="transparent" points="-4,4 -4,-202 275.9815,-202 275.9815,4 -4,4"/>
<!-- Sign -->
<g id="node1" class="node">
<title>Sign</title>
<g id="a_node1"><a xlink:href="http://emmo.info/perspectives/emmo-semiotics.owl#EMMO_b21a56ed_f969_4612_a6ec_cb7766f7f31d" xlink:title="Sign" target="_top">
<ellipse fill="#ffc880" stroke="#000000" stroke-width="3" cx="31.8472" cy="-99" rx="31.6951" ry="18"/>
<text text-anchor="middle" x="31.8472" y="-95.3" font-family="Times,serif" font-size="14.00" fill="#000000">Sign</text>
</a>
</g>
</g>
<!-- Index -->
<g id="node2" class="node">
<title>Index</title>
<g id="a_node2"><a xlink:href="http://emmo.info/perspectives/emmo-semiotics.owl#EMMO_0cd58641_824c_4851_907f_f4c3be76630c" xlink:title="Index" target="_top">
<ellipse fill="#ffffcc" stroke="#000000" cx="199.8379" cy="-180" rx="37.0935" ry="18"/>
<text text-anchor="middle" x="199.8379" y="-176.3" font-family="Times,serif" font-size="14.00" fill="#000000">Index</text>
</a>
</g>
</g>
<!-- Index&#45;&gt;Sign -->
<g id="edge1" class="edge">
<title>Index&#45;&gt;Sign</title>
<path fill="none" stroke="#000000" d="M169.317,-169.5177C156.3388,-164.8194 141.1295,-158.9917 127.6943,-153 106.634,-143.6076 101.8047,-140.284 81.6943,-129 75.421,-125.48 68.7803,-121.5967 62.462,-117.8246"/>
<polygon fill="none" stroke="#000000" points="63.8877,-114.5974 53.5162,-112.433 60.2743,-120.5927 63.8877,-114.5974"/>
<text text-anchor="middle" x="95.6943" y="-147.8" font-family="Times,serif" font-size="14.00" fill="#000000">is_a</text>
</g>
<!-- Icon -->
<g id="node3" class="node">
<title>Icon</title>
<g id="a_node3"><a xlink:href="http://emmo.info/perspectives/emmo-semiotics.owl#EMMO_d7788d1a_020d_4c78_85a1_13563fcec168" xlink:title="Icon" target="_top">
<ellipse fill="#ffffcc" stroke="#000000" stroke-width="3" cx="199.8379" cy="-126" rx="31.3957" ry="18"/>
<text text-anchor="middle" x="199.8379" y="-122.3" font-family="Times,serif" font-size="14.00" fill="#000000">Icon</text>
</a>
</g>
</g>
<!-- Icon&#45;&gt;Sign -->
<g id="edge2" class="edge">
<title>Icon&#45;&gt;Sign</title>
<path fill="none" stroke="#000000" d="M169.4161,-121.1105C142.3507,-116.7605 102.5486,-110.3634 72.7114,-105.5678"/>
<polygon fill="none" stroke="#000000" points="73.0391,-102.0757 62.6104,-103.9444 71.9283,-108.987 73.0391,-102.0757"/>
<text text-anchor="middle" x="95.6943" y="-113.8" font-family="Times,serif" font-size="14.00" fill="#000000">is_a</text>
</g>
<!-- Conventional -->
<g id="node4" class="node">
<title>Conventional</title>
<g id="a_node4"><a xlink:href="http://emmo.info/perspectives/emmo-semiotics.owl#EMMO_35d2e130_6e01_41ed_94f7_00b333d46cf9" xlink:title="Conventional" target="_top">
<ellipse fill="#ffffcc" stroke="#000000" stroke-width="3" cx="199.8379" cy="-72" rx="72.2875" ry="18"/>
<text text-anchor="middle" x="199.8379" y="-68.3" font-family="Times,serif" font-size="14.00" fill="#000000">Conventional</text>
</a>
</g>
</g>
<!-- Conventional&#45;&gt;Sign -->
<g id="edge3" class="edge">
<title>Conventional&#45;&gt;Sign</title>
<path fill="none" stroke="#000000" d="M134.6893,-79.8421C117.4171,-82.1889 98.8126,-84.9574 81.6943,-88 78.2751,-88.6077 74.7345,-89.2872 71.1901,-90.0021"/>
<polygon fill="none" stroke="#000000" points="70.3553,-86.601 61.2877,-92.0809 71.7935,-93.4517 70.3553,-86.601"/>
<text text-anchor="middle" x="95.6943" y="-91.8" font-family="Times,serif" font-size="14.00" fill="#000000">is_a</text>
</g>
<!-- Interpretant -->
<g id="node5" class="node">
<title>Interpretant</title>
<g id="a_node5"><a xlink:href="http://emmo.info/perspectives/emmo-semiotics.owl#EMMO_054af807_85cd_4a13_8eba_119dfdaaf38b" xlink:title="Interpretant" target="_top">
<ellipse fill="#ffffcc" stroke="#000000" cx="199.8379" cy="-18" rx="68.7879" ry="18"/>
<text text-anchor="middle" x="199.8379" y="-14.3" font-family="Times,serif" font-size="14.00" fill="#000000">Interpretant</text>
</a>
</g>
</g>
<!-- Interpretant&#45;&gt;Sign -->
<g id="edge4" class="edge">
<title>Interpretant&#45;&gt;Sign</title>
<path fill="none" stroke="#000000" d="M155.9655,-31.9965C133.1707,-40.0276 105.2354,-51.0803 81.6943,-64 74.1335,-68.1495 66.3306,-73.2077 59.2074,-78.1743"/>
<polygon fill="none" stroke="#000000" points="56.6997,-75.6661 50.6175,-84.3412 60.782,-81.3524 56.6997,-75.6661"/>
<text text-anchor="middle" x="95.6943" y="-67.8" font-family="Times,serif" font-size="14.00" fill="#000000">is_a</text>
</g>
</g>
</svg>
