<?xml version="1.0" encoding="UTF-8" standalone="no"?>
<!DOCTYPE svg PUBLIC "-//W3C//DTD SVG 1.1//EN"
 "http://www.w3.org/Graphics/SVG/1.1/DTD/svg11.dtd">
<!-- Generated by graphviz version 2.40.1 (0)
 -->
<!-- Title: G Pages: 1 -->
<svg width="694pt" height="257pt"
 viewBox="0.00 0.00 693.97 257.00" xmlns="http://www.w3.org/2000/svg" xmlns:xlink="http://www.w3.org/1999/xlink">
<g id="graph0" class="graph" transform="scale(1 1) rotate(0) translate(4 253)">
<title>G</title>
<polygon fill="#ffffff" stroke="transparent" points="-4,4 -4,-253 689.9666,-253 689.9666,4 -4,4"/>
<!-- Subatomic -->
<g id="node1" class="node">
<title>Subatomic</title>
<g id="a_node1"><a xlink:href="http://emmo.info/domains/emmo-material.owl#EMMO_7d66bde4_b68d_41cc_b5fc_6fd98c5e2ff0" xlink:title="Subatomic" target="_top">
<ellipse fill="#ffffcc" stroke="#000000" stroke-width="3" cx="60.4446" cy="-125" rx="60.3893" ry="18"/>
<text text-anchor="middle" x="60.4446" y="-121.3" font-family="Times,serif" font-size="14.00" fill="#000000">Subatomic</text>
</a>
</g>
</g>
<!-- Elementary -->
<g id="node2" class="node">
<title>Elementary</title>
<g id="a_node2"><a xlink:href="http://emmo.info/base/emmo-physical.owl#EMMO_0f795e3e_c602_4577_9a43_d5a231aa1360" xlink:title="Elementary" target="_top">
<ellipse fill="#ffffcc" stroke="#000000" stroke-width="3" cx="262.8824" cy="-198" rx="64.9885" ry="18"/>
<text text-anchor="middle" x="262.8824" y="-194.3" font-family="Times,serif" font-size="14.00" fill="#000000">Elementary</text>
</a>
</g>
</g>
<!-- Elementary&#45;&gt;Subatomic -->
<g id="edge1" class="edge">
<title>Elementary&#45;&gt;Subatomic</title>
<path fill="none" stroke="#000000" d="M221.9435,-184.0067C209.9813,-179.8695 196.8963,-175.2969 184.8893,-171 159.3666,-161.8662 131.0102,-151.4087 107.8196,-142.7749"/>
<polygon fill="none" stroke="#000000" points="108.8129,-139.41 98.2203,-139.1955 106.3672,-145.9688 108.8129,-139.41"/>
<text text-anchor="middle" x="152.8893" y="-166.8" font-family="Times,serif" font-size="14.00" fill="#000000">is_a</text>
</g>
<!-- Elementary&#45;&gt;Elementary -->
<g id="edge7" class="edge">
<title>Elementary&#45;&gt;Elementary</title>
<path fill="none" stroke="#6b8e23" d="M282.1634,-215.4099C285.7625,-225.0879 279.3355,-234 262.8824,-234 252.5991,-234 246.2324,-230.5187 243.7821,-225.5449"/>
<polygon fill="#6b8e23" stroke="#6b8e23" points="247.2792,-225.3459 243.6013,-215.4099 240.2803,-225.4708 247.2792,-225.3459"/>
<text text-anchor="middle" x="262.8824" y="-237.8" font-family="Times,serif" font-size="14.00" fill="#000000">hasTemporalPart only &#160;&#160;</text>
</g>
<!-- ElectronCloud -->
<g id="node3" class="node">
<title>ElectronCloud</title>
<g id="a_node3"><a xlink:href="http://emmo.info/domains/emmo-material.owl#EMMO_1067b97a_84f8_4d22_8ace_b842b8ce355c" xlink:title="ElectronCloud" target="_top">
<ellipse fill="#ffffcc" stroke="#000000" cx="262.8824" cy="-144" rx="77.9862" ry="18"/>
<text text-anchor="middle" x="262.8824" y="-140.3" font-family="Times,serif" font-size="14.00" fill="#000000">ElectronCloud</text>
</a>
</g>
</g>
<!-- ElectronCloud&#45;&gt;Subatomic -->
<g id="edge2" class="edge">
<title>ElectronCloud&#45;&gt;Subatomic</title>
<path fill="none" stroke="#000000" d="M190.3695,-137.1942C170.1777,-135.2991 148.3245,-133.2481 128.4047,-131.3785"/>
<polygon fill="none" stroke="#000000" points="128.4665,-127.869 118.1832,-130.4191 127.8123,-134.8383 128.4665,-127.869"/>
<text text-anchor="middle" x="152.8893" y="-137.8" font-family="Times,serif" font-size="14.00" fill="#000000">is_a</text>
</g>
<!-- Nucleon -->
<g id="node4" class="node">
<title>Nucleon</title>
<g id="a_node4"><a xlink:href="http://emmo.info/domains/emmo-material.owl#EMMO_50781fd9_a9e4_46ad_b7be_4500371d188d" xlink:title="Nucleon" target="_top">
<ellipse fill="#ffffcc" stroke="#000000" cx="262.8824" cy="-90" rx="50.0912" ry="18"/>
<text text-anchor="middle" x="262.8824" y="-86.3" font-family="Times,serif" font-size="14.00" fill="#000000">Nucleon</text>
</a>
</g>
</g>
<!-- Nucleon&#45;&gt;Subatomic -->
<g id="edge3" class="edge">
<title>Nucleon&#45;&gt;Subatomic</title>
<path fill="none" stroke="#000000" d="M217.7033,-97.8111C189.8547,-102.626 153.7416,-108.8696 123.1465,-114.1593"/>
<polygon fill="none" stroke="#000000" points="122.2598,-110.7606 113.0023,-115.9132 123.4524,-117.6583 122.2598,-110.7606"/>
<text text-anchor="middle" x="152.8893" y="-113.8" font-family="Times,serif" font-size="14.00" fill="#000000">is_a</text>
</g>
<!-- Proton -->
<g id="node5" class="node">
<title>Proton</title>
<g id="a_node5"><a xlink:href="http://emmo.info/domains/emmo-material.owl#EMMO_8f87e700_99a8_4427_8ffb_e493de05c217" xlink:title="Proton" target="_top">
<ellipse fill="#ffffcc" stroke="#000000" cx="635.921" cy="-128" rx="42.4939" ry="18"/>
<text text-anchor="middle" x="635.921" y="-124.3" font-family="Times,serif" font-size="14.00" fill="#000000">Proton</text>
</a>
</g>
</g>
<!-- Proton&#45;&gt;Nucleon -->
<g id="edge4" class="edge">
<title>Proton&#45;&gt;Nucleon</title>
<path fill="none" stroke="#000000" d="M593.5646,-125.7705C539.1193,-122.6448 441.7248,-116.175 358.8754,-106 345.5123,-104.3588 331.1673,-102.1891 317.7465,-99.9788"/>
<polygon fill="none" stroke="#000000" points="318.1372,-96.4954 307.6952,-98.2888 316.9764,-103.3986 318.1372,-96.4954"/>
<text text-anchor="middle" x="463.3754" y="-126.8" font-family="Times,serif" font-size="14.00" fill="#000000">is_a</text>
</g>
<!-- Neutron -->
<g id="node6" class="node">
<title>Neutron</title>
<g id="a_node6"><a xlink:href="http://emmo.info/domains/emmo-material.owl#EMMO_df808271_df91_4f27_ba59_fa423c51896c" xlink:title="Neutron" target="_top">
<ellipse fill="#ffffcc" stroke="#000000" cx="635.921" cy="-52" rx="50.0912" ry="18"/>
<text text-anchor="middle" x="635.921" y="-48.3" font-family="Times,serif" font-size="14.00" fill="#000000">Neutron</text>
</a>
</g>
</g>
<!-- Neutron&#45;&gt;Nucleon -->
<g id="edge5" class="edge">
<title>Neutron&#45;&gt;Nucleon</title>
<path fill="none" stroke="#000000" d="M587.8719,-46.9412C532.2248,-42.2843 438.0545,-38.1207 358.8754,-53 339.5064,-56.6398 319.0004,-64.016 301.936,-71.2314"/>
<polygon fill="none" stroke="#000000" points="300.0838,-68.2211 292.3211,-75.4316 302.886,-74.6357 300.0838,-68.2211"/>
<text text-anchor="middle" x="463.3754" y="-56.8" font-family="Times,serif" font-size="14.00" fill="#000000">is_a</text>
</g>
<!-- Nucleus -->
<g id="node7" class="node">
<title>Nucleus</title>
<g id="a_node7"><a xlink:href="http://emmo.info/domains/emmo-material.owl#EMMO_f835f4d4_c665_403d_ab25_dca5cc74be52" xlink:title="Nucleus" target="_top">
<ellipse fill="#ffffcc" stroke="#000000" cx="262.8824" cy="-18" rx="49.2915" ry="18"/>
<text text-anchor="middle" x="262.8824" y="-14.3" font-family="Times,serif" font-size="14.00" fill="#000000">Nucleus</text>
</a>
</g>
</g>
<!-- Nucleus&#45;&gt;Subatomic -->
<g id="edge6" class="edge">
<title>Nucleus&#45;&gt;Subatomic</title>
<path fill="none" stroke="#000000" d="M234.7343,-32.8779C199.4577,-51.5236 138.8259,-83.571 99.1875,-104.5222"/>
<polygon fill="none" stroke="#000000" points="97.5341,-101.4372 90.3286,-109.2046 100.8052,-107.6259 97.5341,-101.4372"/>
<text text-anchor="middle" x="152.8893" y="-84.8" font-family="Times,serif" font-size="14.00" fill="#000000">is_a</text>
</g>
<!-- Nucleus&#45;&gt;Nucleon -->
<g id="edge8" class="edge">
<title>Nucleus&#45;&gt;Nucleon</title>
<path fill="none" stroke="#6b8e23" d="M262.8824,-36.1686C262.8824,-43.869 262.8824,-53.0257 262.8824,-61.5834"/>
<polygon fill="#6b8e23" stroke="#6b8e23" points="259.3825,-61.5867 262.8824,-71.5867 266.3825,-61.5868 259.3825,-61.5867"/>
<text text-anchor="middle" x="273.3824" y="-50.3" font-family="Times,serif" font-size="14.00" fill="#000000">hasSpatialDirectPart some &#160;&#160;</text>
</g>
<!-- Nucleus&#45;&gt;Proton -->
<g id="edge9" class="edge">
<title>Nucleus&#45;&gt;Proton</title>
<path fill="none" stroke="#6b8e23" d="M287.0175,-33.962C305.7843,-45.5131 332.9116,-60.3811 358.8754,-68 448.3736,-94.2628 479.2354,-57.9723 567.8754,-87 581.5582,-91.4808 595.3966,-99.1248 606.9886,-106.6072"/>
<polygon fill="#6b8e23" stroke="#6b8e23" points="605.1231,-109.5704 615.3754,-112.2424 609.0271,-103.7601 605.1231,-109.5704"/>
<text text-anchor="middle" x="463.3754" y="-90.8" font-family="Times,serif" font-size="14.00" fill="#000000">hasSpatialDirectPart min 1 &#160;&#160;</text>
</g>
</g>
</svg>
