<?xml version="1.0" encoding="UTF-8" standalone="no"?>
<!DOCTYPE svg PUBLIC "-//W3C//DTD SVG 1.1//EN"
 "http://www.w3.org/Graphics/SVG/1.1/DTD/svg11.dtd">
<!-- Generated by graphviz version 2.40.1 (0)
 -->
<!-- Title: G Pages: 1 -->
<svg width="654pt" height="165pt"
 viewBox="0.00 0.00 653.66 165.00" xmlns="http://www.w3.org/2000/svg" xmlns:xlink="http://www.w3.org/1999/xlink">
<g id="graph0" class="graph" transform="scale(1 1) rotate(0) translate(4 161)">
<title>G</title>
<polygon fill="#ffffff" stroke="transparent" points="-4,4 -4,-161 649.6597,-161 649.6597,4 -4,4"/>
<!-- Symbol -->
<g id="node1" class="node">
<title>Symbol</title>
<g id="a_node1"><a xlink:href="http://emmo.info/domains/emmo-graphical.owl#EMMO_a1083d0a_c1fb_471f_8e20_a98f881ad527" xlink:title="Symbol" target="_top">
<ellipse fill="#ffffcc" stroke="#000000" stroke-width="3" cx="45.496" cy="-101" rx="45.4919" ry="18"/>
<text text-anchor="middle" x="45.496" y="-97.3" font-family="Times,serif" font-size="14.00" fill="#000000">Symbol</text>
</a>
</g>
</g>
<!-- Variable -->
<g id="node2" class="node">
<title>Variable</title>
<g id="a_node2"><a xlink:href="http://emmo.info/domains/emmo-math.owl#EMMO_1eed0732_e3f1_4b2c_a9c4_b4e75eeb5895" xlink:title="Variable" target="_top">
<ellipse fill="#ffffcc" stroke="#000000" cx="410.075" cy="-72" rx="48.9926" ry="18"/>
<text text-anchor="middle" x="410.075" y="-68.3" font-family="Times,serif" font-size="14.00" fill="#000000">Variable</text>
</a>
</g>
</g>
<!-- Variable&#45;&gt;Symbol -->
<g id="edge1" class="edge">
<title>Variable&#45;&gt;Symbol</title>
<path fill="none" stroke="#000000" d="M366.7946,-63.7131C315.7242,-55.3304 228.46,-45.393 154.9919,-59 130.2777,-63.5773 103.9369,-73.5067 83.2853,-82.562"/>
<polygon fill="none" stroke="#000000" points="81.6121,-79.4768 73.9306,-86.7737 84.486,-85.8597 81.6121,-79.4768"/>
<text text-anchor="middle" x="224.5358" y="-62.8" font-family="Times,serif" font-size="14.00" fill="#000000">is_a</text>
</g>
<!-- MathSymbol -->
<g id="node6" class="node">
<title>MathSymbol</title>
<g id="a_node6"><a xlink:href="http://emmo.info/domains/emmo-math.owl#EMMO_031d61af_6405_41de_8880_df2f85a53383" xlink:title="MathSymbol" target="_top">
<ellipse fill="#ffc880" stroke="#000000" cx="224.5358" cy="-101" rx="69.5877" ry="18"/>
<text text-anchor="middle" x="224.5358" y="-97.3" font-family="Times,serif" font-size="14.00" fill="#000000">MathSymbol</text>
</a>
</g>
</g>
<!-- Variable&#45;&gt;MathSymbol -->
<g id="edge6" class="edge">
<title>Variable&#45;&gt;MathSymbol</title>
<path fill="none" stroke="#000000" d="M364.692,-78.882C348.1301,-81.4106 329.2539,-84.3123 312.0796,-87 306.2345,-87.9147 300.1711,-88.8703 294.0867,-89.834"/>
<polygon fill="none" stroke="#000000" points="293.1894,-86.4326 283.8621,-91.4575 294.2872,-93.3459 293.1894,-86.4326"/>
<text text-anchor="middle" x="326.0796" y="-90.8" font-family="Times,serif" font-size="14.00" fill="#000000">is_a</text>
</g>
<!-- Constant -->
<g id="node3" class="node">
<title>Constant</title>
<g id="a_node3"><a xlink:href="http://emmo.info/domains/emmo-math.owl#EMMO_ae15fb4f_8e4d_41de_a0f9_3997f89ba6a2" xlink:title="Constant" target="_top">
<ellipse fill="#ffffcc" stroke="#000000" cx="585.8651" cy="-126" rx="53.0913" ry="18"/>
<text text-anchor="middle" x="585.8651" y="-122.3" font-family="Times,serif" font-size="14.00" fill="#000000">Constant</text>
</a>
</g>
</g>
<!-- Constant&#45;&gt;Variable -->
<g id="edge2" class="edge">
<title>Constant&#45;&gt;Variable</title>
<path fill="none" stroke="#000000" d="M546.4143,-113.8813C520.0887,-105.7945 485.3313,-95.1176 457.4996,-86.5681"/>
<polygon fill="none" stroke="#000000" points="458.1745,-83.1141 447.5876,-83.5233 456.119,-89.8055 458.1745,-83.1141"/>
<text text-anchor="middle" x="494.0704" y="-103.8" font-family="Times,serif" font-size="14.00" fill="#000000">is_a</text>
</g>
<!-- Parameter -->
<g id="node4" class="node">
<title>Parameter</title>
<g id="a_node4"><a xlink:href="http://emmo.info/domains/emmo-math.owl#EMMO_d1d436e7_72fc_49cd_863b_7bfb4ba5276a" xlink:title="Parameter" target="_top">
<ellipse fill="#ffffcc" stroke="#000000" cx="585.8651" cy="-72" rx="59.5901" ry="18"/>
<text text-anchor="middle" x="585.8651" y="-68.3" font-family="Times,serif" font-size="14.00" fill="#000000">Parameter</text>
</a>
</g>
</g>
<!-- Parameter&#45;&gt;Variable -->
<g id="edge3" class="edge">
<title>Parameter&#45;&gt;Variable</title>
<path fill="none" stroke="#000000" d="M525.8597,-72C507.5659,-72 487.4739,-72 469.2364,-72"/>
<polygon fill="none" stroke="#000000" points="469.0305,-68.5001 459.0304,-72 469.0304,-75.5001 469.0305,-68.5001"/>
<text text-anchor="middle" x="494.0704" y="-75.8" font-family="Times,serif" font-size="14.00" fill="#000000">is_a</text>
</g>
<!-- Unknown -->
<g id="node5" class="node">
<title>Unknown</title>
<g id="a_node5"><a xlink:href="http://emmo.info/domains/emmo-math.owl#EMMO_fe7e56ce_118b_4243_9aad_20eb9f4f31f6" xlink:title="Unknown" target="_top">
<ellipse fill="#ffffcc" stroke="#000000" cx="585.8651" cy="-18" rx="55.4913" ry="18"/>
<text text-anchor="middle" x="585.8651" y="-14.3" font-family="Times,serif" font-size="14.00" fill="#000000">Unknown</text>
</a>
</g>
</g>
<!-- Unknown&#45;&gt;Variable -->
<g id="edge4" class="edge">
<title>Unknown&#45;&gt;Variable</title>
<path fill="none" stroke="#000000" d="M545.5353,-30.3887C519.3544,-38.431 485.1164,-48.9484 457.6126,-57.3972"/>
<polygon fill="none" stroke="#000000" points="456.343,-54.1257 447.8116,-60.4079 458.3986,-60.8171 456.343,-54.1257"/>
<text text-anchor="middle" x="494.0704" y="-52.8" font-family="Times,serif" font-size="14.00" fill="#000000">is_a</text>
</g>
<!-- MathSymbol&#45;&gt;Symbol -->
<g id="edge5" class="edge">
<title>MathSymbol&#45;&gt;Symbol</title>
<path fill="none" stroke="#000000" d="M154.8016,-101C137.0759,-101 118.2608,-101 101.3282,-101"/>
<polygon fill="none" stroke="#000000" points="101.0552,-97.5001 91.0552,-101 101.0551,-104.5001 101.0552,-97.5001"/>
<text text-anchor="middle" x="122.9919" y="-104.8" font-family="Times,serif" font-size="14.00" fill="#000000">is_a</text>
</g>
<!-- Numeral -->
<g id="node7" class="node">
<title>Numeral</title>
<g id="a_node7"><a xlink:href="http://emmo.info/domains/emmo-math.owl#EMMO_1a663927_3b68_4618_acd3_a8aa0d406329" xlink:title="Numeral" target="_top">
<ellipse fill="#ffffcc" stroke="#000000" cx="410.075" cy="-136" rx="51.9908" ry="18"/>
<text text-anchor="middle" x="410.075" y="-132.3" font-family="Times,serif" font-size="14.00" fill="#000000">Numeral</text>
</a>
</g>
</g>
<!-- Numeral&#45;&gt;Symbol -->
<g id="edge8" class="edge">
<title>Numeral&#45;&gt;Symbol</title>
<path fill="none" stroke="#000000" d="M359.2519,-140.0576C352.8022,-140.4468 346.2889,-140.7785 340.0796,-141 237.0163,-144.6764 209.3703,-143.6588 108.9919,-120 103.1086,-118.6133 96.9662,-116.9957 90.9187,-115.3003"/>
<polygon fill="none" stroke="#000000" points="91.4721,-111.817 80.8934,-112.4007 89.5272,-118.5414 91.4721,-111.817"/>
<text text-anchor="middle" x="224.5358" y="-145.8" font-family="Times,serif" font-size="14.00" fill="#000000">is_a</text>
</g>
<!-- Numeral&#45;&gt;MathSymbol -->
<g id="edge7" class="edge">
<title>Numeral&#45;&gt;MathSymbol</title>
<path fill="none" stroke="#000000" d="M364.2113,-127.3483C342.0469,-123.1672 315.0348,-118.0717 290.6931,-113.4799"/>
<polygon fill="none" stroke="#000000" points="291.2792,-110.0288 280.8037,-111.6143 289.9815,-116.9075 291.2792,-110.0288"/>
<text text-anchor="middle" x="326.0796" y="-125.8" font-family="Times,serif" font-size="14.00" fill="#000000">is_a</text>
</g>
</g>
</svg>
