<?xml version="1.0" encoding="UTF-8" standalone="no"?>
<!DOCTYPE svg PUBLIC "-//W3C//DTD SVG 1.1//EN"
 "http://www.w3.org/Graphics/SVG/1.1/DTD/svg11.dtd">
<!-- Generated by graphviz version 2.40.1 (0)
 -->
<!-- Title: G Pages: 1 -->
<svg width="675pt" height="476pt"
 viewBox="0.00 0.00 675.45 476.00" xmlns="http://www.w3.org/2000/svg" xmlns:xlink="http://www.w3.org/1999/xlink">
<g id="graph0" class="graph" transform="scale(1 1) rotate(0) translate(4 472)">
<title>G</title>
<polygon fill="#ffffff" stroke="transparent" points="-4,4 -4,-472 671.4521,-472 671.4521,4 -4,4"/>
<!-- Symbolic -->
<g id="node1" class="node">
<title>Symbolic</title>
<g id="a_node1"><a xlink:href="http://emmo.info/domains/emmo-graphical.owl#EMMO_057e7d57_aff0_49de_911a_8861d85cef40" xlink:title="Symbolic" target="_top">
<ellipse fill="#ffffcc" stroke="#000000" stroke-width="3" cx="53.9452" cy="-270" rx="53.8905" ry="18"/>
<text text-anchor="middle" x="53.9452" y="-266.3" font-family="Times,serif" font-size="14.00" fill="#000000">Symbolic</text>
</a>
</g>
</g>
<!-- SymbolicDomain -->
<g id="node2" class="node">
<title>SymbolicDomain</title>
<g id="a_node2"><a xlink:href="http://emmo.info/domains/emmo-graphical.owl#EMMO_0733a7f0_5ddd_4390_b94b_dfd52fe457f7" xlink:title="SymbolicDomain" target="_top">
<ellipse fill="#ffffcc" stroke="#000000" cx="282.3806" cy="-396" rx="89.0842" ry="18"/>
<text text-anchor="middle" x="282.3806" y="-392.3" font-family="Times,serif" font-size="14.00" fill="#000000">SymbolicDomain</text>
</a>
</g>
</g>
<!-- SymbolicDomain&#45;&gt;Symbolic -->
<g id="edge1" class="edge">
<title>SymbolicDomain&#45;&gt;Symbolic</title>
<path fill="none" stroke="#000000" d="M251.5728,-379.0071C209.8729,-356.0063 135.5587,-315.0162 90.9036,-290.3854"/>
<polygon fill="none" stroke="#000000" points="92.5637,-287.304 82.1169,-285.5389 89.1828,-293.4334 92.5637,-287.304"/>
<text text-anchor="middle" x="139.8904" y="-324.8" font-family="Times,serif" font-size="14.00" fill="#000000">is_a</text>
</g>
<!-- Property -->
<g id="node3" class="node">
<title>Property</title>
<g id="a_node3"><a xlink:href="http://emmo.info/domains/emmo-properties.owl#EMMO_b7bcff25_ffc3_474e_9ab5_01b1664bd4ba" xlink:title="Property" target="_top">
<ellipse fill="#ffffcc" stroke="#000000" stroke-width="3" cx="562.1615" cy="-450" rx="51.9908" ry="18"/>
<text text-anchor="middle" x="562.1615" y="-446.3" font-family="Times,serif" font-size="14.00" fill="#000000">Property</text>
</a>
</g>
</g>
<!-- Property&#45;&gt;SymbolicDomain -->
<g id="edge2" class="edge">
<title>Property&#45;&gt;SymbolicDomain</title>
<path fill="none" stroke="#000000" d="M516.5872,-441.2038C473.4007,-432.8684 407.7664,-420.2005 356.9558,-410.3936"/>
<polygon fill="none" stroke="#000000" points="357.4845,-406.9311 347.0024,-408.4725 356.1579,-413.8043 357.4845,-406.9311"/>
<text text-anchor="middle" x="424.8708" y="-427.8" font-family="Times,serif" font-size="14.00" fill="#000000">is_a</text>
</g>
<!-- Mathematical -->
<g id="node4" class="node">
<title>Mathematical</title>
<g id="a_node4"><a xlink:href="http://emmo.info/domains/emmo-math.owl#EMMO_54ee6b5e_5261_44a8_86eb_5717e7fdb9d0" xlink:title="Mathematical" target="_top">
<ellipse fill="#ffffcc" stroke="#000000" stroke-width="3" cx="562.1615" cy="-396" rx="75.2868" ry="18"/>
<text text-anchor="middle" x="562.1615" y="-392.3" font-family="Times,serif" font-size="14.00" fill="#000000">Mathematical</text>
</a>
</g>
</g>
<!-- Mathematical&#45;&gt;SymbolicDomain -->
<g id="edge3" class="edge">
<title>Mathematical&#45;&gt;SymbolicDomain</title>
<path fill="none" stroke="#000000" d="M486.4487,-396C454.1916,-396 416.1219,-396 381.6543,-396"/>
<polygon fill="none" stroke="#000000" points="381.5615,-392.5001 371.5615,-396 381.5615,-399.5001 381.5615,-392.5001"/>
<text text-anchor="middle" x="424.8708" y="-399.8" font-family="Times,serif" font-size="14.00" fill="#000000">is_a</text>
</g>
<!-- SymbolicStructured -->
<g id="node5" class="node">
<title>SymbolicStructured</title>
<g id="a_node5"><a xlink:href="http://emmo.info/domains/emmo-graphical.owl#EMMO_b0b624ef_f126_4805_bfb6_86e2041a6e4c" xlink:title="SymbolicStructured" target="_top">
<ellipse fill="#ffffcc" stroke="#000000" cx="282.3806" cy="-270" rx="104.7816" ry="18"/>
<text text-anchor="middle" x="282.3806" y="-266.3" font-family="Times,serif" font-size="14.00" fill="#000000">SymbolicStructured</text>
</a>
</g>
</g>
<!-- SymbolicStructured&#45;&gt;Symbolic -->
<g id="edge4" class="edge">
<title>SymbolicStructured&#45;&gt;Symbolic</title>
<path fill="none" stroke="#000000" d="M177.523,-270C157.2357,-270 136.5519,-270 118.0549,-270"/>
<polygon fill="none" stroke="#000000" points="118.0202,-266.5001 108.0202,-270 118.0201,-273.5001 118.0202,-266.5001"/>
<text text-anchor="middle" x="139.8904" y="-273.8" font-family="Times,serif" font-size="14.00" fill="#000000">is_a</text>
</g>
<!-- Symbol -->
<g id="node6" class="node">
<title>Symbol</title>
<g id="a_node6"><a xlink:href="http://emmo.info/domains/emmo-graphical.owl#EMMO_a1083d0a_c1fb_471f_8e20_a98f881ad527" xlink:title="Symbol" target="_top">
<ellipse fill="#ffffcc" stroke="#000000" stroke-width="3" cx="562.1615" cy="-342" rx="45.4919" ry="18"/>
<text text-anchor="middle" x="562.1615" y="-338.3" font-family="Times,serif" font-size="14.00" fill="#000000">Symbol</text>
</a>
</g>
</g>
<!-- Symbol&#45;&gt;SymbolicStructured -->
<g id="edge5" class="edge">
<title>Symbol&#45;&gt;SymbolicStructured</title>
<path fill="none" stroke="#000000" d="M523.8458,-332.1397C479.3248,-320.6825 405.0234,-301.5614 350.5776,-287.5501"/>
<polygon fill="none" stroke="#000000" points="351.2109,-284.0991 340.6541,-284.9963 349.4662,-290.8782 351.2109,-284.0991"/>
<text text-anchor="middle" x="424.8708" y="-311.8" font-family="Times,serif" font-size="14.00" fill="#000000">is_a</text>
</g>
<!-- Composition -->
<g id="node7" class="node">
<title>Composition</title>
<g id="a_node7"><a xlink:href="http://emmo.info/domains/emmo-graphical.owl#EMMO_2c1ceb4c_8b09_4374_91ec_98497b245a22" xlink:title="Composition" target="_top">
<ellipse fill="#ffffcc" stroke="#000000" cx="562.1615" cy="-198" rx="69.5877" ry="18"/>
<text text-anchor="middle" x="562.1615" y="-194.3" font-family="Times,serif" font-size="14.00" fill="#000000">Composition</text>
</a>
</g>
</g>
<!-- Composition&#45;&gt;SymbolicStructured -->
<g id="edge6" class="edge">
<title>Composition&#45;&gt;SymbolicStructured</title>
<path fill="none" stroke="#000000" d="M512.7863,-210.7064C467.7831,-222.2877 400.8773,-239.5056 350.7414,-252.4077"/>
<polygon fill="none" stroke="#000000" points="349.7615,-249.0458 340.9493,-254.9277 351.5061,-255.8249 349.7615,-249.0458"/>
<text text-anchor="middle" x="424.8708" y="-239.8" font-family="Times,serif" font-size="14.00" fill="#000000">is_a</text>
</g>
<!-- String -->
<g id="node8" class="node">
<title>String</title>
<g id="a_node8"><a xlink:href="http://emmo.info/domains/emmo-graphical.owl#EMMO_50ea1ec5_f157_41b0_b46b_a9032f17ca10" xlink:title="String" target="_top">
<ellipse fill="#ffffcc" stroke="#000000" stroke-width="3" cx="562.1615" cy="-270" rx="40.0939" ry="18"/>
<text text-anchor="middle" x="562.1615" y="-266.3" font-family="Times,serif" font-size="14.00" fill="#000000">String</text>
</a>
</g>
</g>
<!-- Composition&#45;&gt;String -->
<g id="edge12" class="edge">
<title>Composition&#45;&gt;String</title>
<path fill="none" stroke="#6b8e23" d="M562.1615,-216.1686C562.1615,-223.869 562.1615,-233.0257 562.1615,-241.5834"/>
<polygon fill="#6b8e23" stroke="#6b8e23" points="558.6616,-241.5867 562.1615,-251.5867 565.6616,-241.5868 558.6616,-241.5867"/>
<text text-anchor="middle" x="572.6615" y="-230.3" font-family="Times,serif" font-size="14.00" fill="#000000">hasProperPart some &#160;&#160;</text>
</g>
<!-- String&#45;&gt;SymbolicStructured -->
<g id="edge7" class="edge">
<title>String&#45;&gt;SymbolicStructured</title>
<path fill="none" stroke="#000000" d="M521.7777,-270C489.1366,-270 441.5093,-270 397.3161,-270"/>
<polygon fill="none" stroke="#000000" points="397.06,-266.5001 387.06,-270 397.06,-273.5001 397.06,-266.5001"/>
<text text-anchor="middle" x="424.8708" y="-273.8" font-family="Times,serif" font-size="14.00" fill="#000000">is_a</text>
</g>
<!-- String&#45;&gt;Symbol -->
<g id="edge13" class="edge">
<title>String&#45;&gt;Symbol</title>
<path fill="none" stroke="#6b8e23" d="M562.1615,-288.1686C562.1615,-295.869 562.1615,-305.0257 562.1615,-313.5834"/>
<polygon fill="#6b8e23" stroke="#6b8e23" points="558.6616,-313.5867 562.1615,-323.5867 565.6616,-313.5868 558.6616,-313.5867"/>
<text text-anchor="middle" x="572.6615" y="-302.3" font-family="Times,serif" font-size="14.00" fill="#000000">hasProperPart some &#160;&#160;</text>
</g>
<!-- QuantitativeProperty -->
<g id="node9" class="node">
<title>QuantitativeProperty</title>
<g id="a_node9"><a xlink:href="http://emmo.info/domains/emmo-physical-properties.owl#EMMO_dd4a7f3e_ef56_466c_ac1a_d2716b5f87ec" xlink:title="QuantitativeProperty" target="_top">
<ellipse fill="#ffffcc" stroke="#000000" cx="282.3806" cy="-109" rx="110.4804" ry="18"/>
<text text-anchor="middle" x="282.3806" y="-105.3" font-family="Times,serif" font-size="14.00" fill="#000000">QuantitativeProperty</text>
</a>
</g>
</g>
<!-- QuantitativeProperty&#45;&gt;Symbolic -->
<g id="edge8" class="edge">
<title>QuantitativeProperty&#45;&gt;Symbolic</title>
<path fill="none" stroke="#000000" d="M257.0612,-126.845C215.1551,-156.3802 131.4659,-215.3638 85.6777,-247.6351"/>
<polygon fill="none" stroke="#000000" points="83.4758,-244.905 77.3183,-253.5268 87.5085,-250.6267 83.4758,-244.905"/>
<text text-anchor="middle" x="139.8904" y="-220.8" font-family="Times,serif" font-size="14.00" fill="#000000">is_a</text>
</g>
<!-- PhysicalQuantity -->
<g id="node10" class="node">
<title>PhysicalQuantity</title>
<g id="a_node10"><a xlink:href="http://emmo.info/domains/emmo-physical-properties.owl#EMMO_02c0621e_a527_4790_8a0f_2bb51973c819" xlink:title="PhysicalQuantity" target="_top">
<ellipse fill="#ffffcc" stroke="#000000" cx="562.1615" cy="-144" rx="90.9839" ry="18"/>
<text text-anchor="middle" x="562.1615" y="-140.3" font-family="Times,serif" font-size="14.00" fill="#000000">PhysicalQuantity</text>
</a>
</g>
</g>
<!-- PhysicalQuantity&#45;&gt;QuantitativeProperty -->
<g id="edge9" class="edge">
<title>PhysicalQuantity&#45;&gt;QuantitativeProperty</title>
<path fill="none" stroke="#000000" d="M484.9695,-134.3434C452.5826,-130.2919 414.5425,-125.5332 380.2244,-121.2401"/>
<polygon fill="none" stroke="#000000" points="380.5365,-117.7519 370.1793,-119.9834 379.6675,-124.6978 380.5365,-117.7519"/>
<text text-anchor="middle" x="424.8708" y="-130.8" font-family="Times,serif" font-size="14.00" fill="#000000">is_a</text>
</g>
<!-- MeasurementUnit -->
<g id="node11" class="node">
<title>MeasurementUnit</title>
<g id="a_node11"><a xlink:href="http://emmo.info/domains/emmo-physical-properties.owl#EMMO_b081b346_7279_46ef_9a3d_2c088fcd79f4" xlink:title="MeasurementUnit" target="_top">
<ellipse fill="#ffffcc" stroke="#000000" cx="562.1615" cy="-72" rx="95.5831" ry="18"/>
<text text-anchor="middle" x="562.1615" y="-68.3" font-family="Times,serif" font-size="14.00" fill="#000000">MeasurementUnit</text>
</a>
</g>
</g>
<!-- PhysicalQuantity&#45;&gt;MeasurementUnit -->
<g id="edge14" class="edge">
<title>PhysicalQuantity&#45;&gt;MeasurementUnit</title>
<path fill="none" stroke="#6b8e23" d="M562.1615,-125.5867C562.1615,-117.9407 562.1615,-108.8916 562.1615,-100.4274"/>
<polygon fill="#6b8e23" stroke="#6b8e23" points="565.6616,-100.1686 562.1615,-90.1686 558.6616,-100.1687 565.6616,-100.1686"/>
<text text-anchor="middle" x="572.6615" y="-104.3" font-family="Times,serif" font-size="14.00" fill="#000000">hasSpatialPart some &#160;&#160;</text>
</g>
<!-- MeasurementUnit&#45;&gt;QuantitativeProperty -->
<g id="edge10" class="edge">
<title>MeasurementUnit&#45;&gt;QuantitativeProperty</title>
<path fill="none" stroke="#000000" d="M483.8549,-82.3558C451.1911,-86.6754 412.9306,-91.7352 378.5778,-96.2783"/>
<polygon fill="none" stroke="#000000" points="377.9828,-92.8264 368.528,-97.6073 378.9006,-99.766 377.9828,-92.8264"/>
<text text-anchor="middle" x="424.8708" y="-94.8" font-family="Times,serif" font-size="14.00" fill="#000000">is_a</text>
</g>
<!-- DescriptiveProperty -->
<g id="node12" class="node">
<title>DescriptiveProperty</title>
<g id="a_node12"><a xlink:href="http://emmo.info/domains/emmo-physical-properties.owl#EMMO_c46f091c_0420_4c1a_af30_0a2c8ebcf7d7" xlink:title="DescriptiveProperty" target="_top">
<ellipse fill="#ffffcc" stroke="#000000" cx="562.1615" cy="-18" rx="105.0817" ry="18"/>
<text text-anchor="middle" x="562.1615" y="-14.3" font-family="Times,serif" font-size="14.00" fill="#000000">DescriptiveProperty</text>
</a>
</g>
</g>
<!-- DescriptiveProperty&#45;&gt;QuantitativeProperty -->
<g id="edge11" class="edge">
<title>DescriptiveProperty&#45;&gt;QuantitativeProperty</title>
<path fill="none" stroke="#000000" d="M500.6253,-32.6726C486.1926,-36.4193 470.9272,-40.632 456.8708,-45 414.9044,-58.0409 368.204,-75.3203 333.6848,-88.6374"/>
<polygon fill="none" stroke="#000000" points="332.3442,-85.4032 324.2857,-92.2816 334.8747,-91.9298 332.3442,-85.4032"/>
<text text-anchor="middle" x="424.8708" y="-62.8" font-family="Times,serif" font-size="14.00" fill="#000000">is_a</text>
</g>
</g>
</svg>
