<?xml version="1.0" encoding="UTF-8" standalone="no"?>
<!DOCTYPE svg PUBLIC "-//W3C//DTD SVG 1.1//EN"
 "http://www.w3.org/Graphics/SVG/1.1/DTD/svg11.dtd">
<!-- Generated by graphviz version 2.40.1 (0)
 -->
<!-- Title: G Pages: 1 -->
<svg width="389pt" height="164pt"
 viewBox="0.00 0.00 389.48 164.00" xmlns="http://www.w3.org/2000/svg" xmlns:xlink="http://www.w3.org/1999/xlink">
<g id="graph0" class="graph" transform="scale(1 1) rotate(0) translate(4 160)">
<title>G</title>
<polygon fill="#ffffff" stroke="transparent" points="-4,4 -4,-160 385.4775,-160 385.4775,4 -4,4"/>
<!-- Type -->
<g id="node1" class="node">
<title>Type</title>
<g id="a_node1"><a xlink:href="http://emmo.info/domains/emmo-material.owl#EMMO_508e84f6_5081_4a9b_80b4_0b7830718b37" xlink:title="Type" target="_top">
<ellipse fill="#ffc880" stroke="#000000" stroke-width="3" cx="33.797" cy="-61" rx="33.5952" ry="18"/>
<text text-anchor="middle" x="33.797" y="-57.3" font-family="Times,serif" font-size="14.00" fill="#000000">Type</text>
</a>
</g>
</g>
<!-- Field -->
<g id="node2" class="node">
<title>Field</title>
<g id="a_node2"><a xlink:href="http://emmo.info/domains/emmo-material.owl#EMMO_70dac51e_bddd_48c2_8a98_7d8395e91fc2" xlink:title="Field" target="_top">
<ellipse fill="#ffffcc" stroke="#000000" cx="174.4902" cy="-105" rx="34.394" ry="18"/>
<text text-anchor="middle" x="174.4902" y="-101.3" font-family="Times,serif" font-size="14.00" fill="#000000">Field</text>
</a>
</g>
</g>
<!-- Field&#45;&gt;Type -->
<g id="edge1" class="edge">
<title>Field&#45;&gt;Type</title>
<path fill="none" stroke="#000000" d="M144.6528,-95.6687C123.7139,-89.1204 95.5114,-80.3004 72.7931,-73.1955"/>
<polygon fill="none" stroke="#000000" points="73.6978,-69.8114 63.109,-70.1669 71.6084,-76.4923 73.6978,-69.8114"/>
<text text-anchor="middle" x="99.594" y="-88.8" font-family="Times,serif" font-size="14.00" fill="#000000">is_a</text>
</g>
<!-- Field&#45;&gt;Field -->
<g id="edge5" class="edge">
<title>Field&#45;&gt;Field</title>
<path fill="none" stroke="#6b8e23" d="M187.603,-122.0373C190.2791,-131.8579 185.9082,-141 174.4902,-141 167.354,-141 162.9705,-137.4289 161.3397,-132.3529"/>
<polygon fill="#6b8e23" stroke="#6b8e23" points="164.8408,-132.05 161.3774,-122.0373 157.8408,-132.0244 164.8408,-132.05"/>
<text text-anchor="middle" x="174.4902" y="-144.8" font-family="Times,serif" font-size="14.00" fill="#000000">hasTemporalPart only &#160;&#160;</text>
</g>
<!-- Vacuum -->
<g id="node3" class="node">
<title>Vacuum</title>
<g id="a_node3"><a xlink:href="http://emmo.info/domains/emmo-material.owl#EMMO_3c218fbe_60c9_4597_8bcf_41eb1773af1f" xlink:title="Vacuum" target="_top">
<ellipse fill="#ffc880" stroke="#000000" cx="331.4319" cy="-105" rx="48.1917" ry="18"/>
<text text-anchor="middle" x="331.4319" y="-101.3" font-family="Times,serif" font-size="14.00" fill="#000000">Vacuum</text>
</a>
</g>
</g>
<!-- Vacuum&#45;&gt;Field -->
<g id="edge2" class="edge">
<title>Vacuum&#45;&gt;Field</title>
<path fill="none" stroke="#000000" d="M283.0637,-105C262.6625,-105 239.0619,-105 219.0857,-105"/>
<polygon fill="none" stroke="#000000" points="219.0061,-101.5001 209.0061,-105 219.006,-108.5001 219.0061,-101.5001"/>
<text text-anchor="middle" x="249.3864" y="-108.8" font-family="Times,serif" font-size="14.00" fill="#000000">is_a</text>
</g>
<!-- Matter -->
<g id="node4" class="node">
<title>Matter</title>
<g id="a_node4"><a xlink:href="http://emmo.info/domains/emmo-material.owl#EMMO_5b2222df_4da6_442f_8244_96e9e45887d1" xlink:title="Matter" target="_top">
<ellipse fill="#ffffcc" stroke="#000000" cx="174.4902" cy="-18" rx="42.7926" ry="18"/>
<text text-anchor="middle" x="174.4902" y="-14.3" font-family="Times,serif" font-size="14.00" fill="#000000">Matter</text>
</a>
</g>
</g>
<!-- Matter&#45;&gt;Type -->
<g id="edge3" class="edge">
<title>Matter&#45;&gt;Type</title>
<path fill="none" stroke="#000000" d="M139.7121,-28.6292C119.5721,-34.7846 94.1538,-42.5532 73.2664,-48.937"/>
<polygon fill="none" stroke="#000000" points="71.9599,-45.6764 63.4196,-51.9465 74.0059,-52.3707 71.9599,-45.6764"/>
<text text-anchor="middle" x="99.594" y="-47.8" font-family="Times,serif" font-size="14.00" fill="#000000">is_a</text>
</g>
<!-- Matter&#45;&gt;Matter -->
<g id="edge6" class="edge">
<title>Matter&#45;&gt;Matter</title>
<path fill="none" stroke="#6b8e23" d="M187.7013,-35.4099C190.1673,-45.0879 185.7636,-54 174.4902,-54 167.4443,-54 163.0819,-50.5187 161.403,-45.5449"/>
<polygon fill="#6b8e23" stroke="#6b8e23" points="164.9012,-45.3663 161.2791,-35.4099 157.9017,-45.452 164.9012,-45.3663"/>
<text text-anchor="middle" x="174.4902" y="-57.8" font-family="Times,serif" font-size="14.00" fill="#000000">hasTemporalPart only &#160;&#160;</text>
</g>
<!-- Material -->
<g id="node5" class="node">
<title>Material</title>
<g id="a_node5"><a xlink:href="http://emmo.info/domains/emmo-material.owl#EMMO_4207e895_8b83_4318_996a_72cfb32acd94" xlink:title="Material" target="_top">
<ellipse fill="#ffffcc" stroke="#000000" cx="331.4319" cy="-18" rx="50.0912" ry="18"/>
<text text-anchor="middle" x="331.4319" y="-14.3" font-family="Times,serif" font-size="14.00" fill="#000000">Material</text>
</a>
</g>
</g>
<!-- Material&#45;&gt;Matter -->
<g id="edge4" class="edge">
<title>Material&#45;&gt;Matter</title>
<path fill="none" stroke="#000000" d="M281.3431,-18C264.331,-18 245.262,-18 227.9937,-18"/>
<polygon fill="none" stroke="#000000" points="227.509,-14.5001 217.509,-18 227.5089,-21.5001 227.509,-14.5001"/>
<text text-anchor="middle" x="249.3864" y="-21.8" font-family="Times,serif" font-size="14.00" fill="#000000">is_a</text>
</g>
</g>
</svg>
