<?xml version="1.0" encoding="UTF-8" standalone="no"?>
<!DOCTYPE svg PUBLIC "-//W3C//DTD SVG 1.1//EN"
 "http://www.w3.org/Graphics/SVG/1.1/DTD/svg11.dtd">
<!-- Generated by graphviz version 2.40.1 (0)
 -->
<!-- Title: G Pages: 1 -->
<svg width="496pt" height="260pt"
 viewBox="0.00 0.00 495.78 260.00" xmlns="http://www.w3.org/2000/svg" xmlns:xlink="http://www.w3.org/1999/xlink">
<g id="graph0" class="graph" transform="scale(1 1) rotate(0) translate(4 256)">
<title>G</title>
<polygon fill="#ffffff" stroke="transparent" points="-4,4 -4,-256 491.7757,-256 491.7757,4 -4,4"/>
<!-- Elementary -->
<g id="node1" class="node">
<title>Elementary</title>
<g id="a_node1"><a xlink:href="http://emmo.info/base/emmo-physical.owl#EMMO_0f795e3e_c602_4577_9a43_d5a231aa1360" xlink:title="Elementary" target="_top">
<ellipse fill="#ffffcc" stroke="#000000" stroke-width="3" cx="85.5" cy="-126" rx="64.9885" ry="18"/>
<text text-anchor="middle" x="85.5" y="-122.3" font-family="Times,serif" font-size="14.00" fill="#000000">Elementary</text>
</a>
</g>
</g>
<!-- Elementary&#45;&gt;Elementary -->
<g id="edge8" class="edge">
<title>Elementary&#45;&gt;Elementary</title>
<path fill="none" stroke="#6b8e23" d="M102.6387,-143.4099C105.8379,-153.0879 100.125,-162 85.5,-162 76.3594,-162 70.7,-158.5187 68.522,-153.5449"/>
<polygon fill="#6b8e23" stroke="#6b8e23" points="72.0195,-153.3531 68.3613,-143.4099 65.0204,-153.4642 72.0195,-153.3531"/>
<text text-anchor="middle" x="85.5" y="-165.8" font-family="Times,serif" font-size="14.00" fill="#000000">hasTemporalPart only &#160;&#160;</text>
</g>
<!-- Massive -->
<g id="node2" class="node">
<title>Massive</title>
<g id="a_node2"><a xlink:href="http://emmo.info/domains/emmo-material.owl#EMMO_385b8f6e_43ac_4596_ad76_ac322c68b7ca" xlink:title="Massive" target="_top">
<ellipse fill="#ffffcc" stroke="#000000" cx="267.7895" cy="-180" rx="48.9926" ry="18"/>
<text text-anchor="middle" x="267.7895" y="-176.3" font-family="Times,serif" font-size="14.00" fill="#000000">Massive</text>
</a>
</g>
</g>
<!-- Massive&#45;&gt;Elementary -->
<g id="edge1" class="edge">
<title>Massive&#45;&gt;Elementary</title>
<path fill="none" stroke="#000000" d="M229.5757,-168.6798C203.6133,-160.989 168.8825,-150.7006 140.0256,-142.1522"/>
<polygon fill="none" stroke="#000000" points="140.6698,-138.6928 130.0876,-139.2083 138.6816,-145.4045 140.6698,-138.6928"/>
<text text-anchor="middle" x="182.4942" y="-160.8" font-family="Times,serif" font-size="14.00" fill="#000000">is_a</text>
</g>
<!-- Electron -->
<g id="node3" class="node">
<title>Electron</title>
<g id="a_node3"><a xlink:href="http://emmo.info/domains/emmo-material.owl#EMMO_8043d3c6_a4c1_4089_ba34_9744e28e5b3d" xlink:title="Electron" target="_top">
<ellipse fill="#ffffcc" stroke="#000000" cx="436.4302" cy="-234" rx="50.8918" ry="18"/>
<text text-anchor="middle" x="436.4302" y="-230.3" font-family="Times,serif" font-size="14.00" fill="#000000">Electron</text>
</a>
</g>
</g>
<!-- Electron&#45;&gt;Massive -->
<g id="edge2" class="edge">
<title>Electron&#45;&gt;Massive</title>
<path fill="none" stroke="#000000" d="M398.584,-221.8813C373.6981,-213.9127 340.958,-203.4291 314.4602,-194.9443"/>
<polygon fill="none" stroke="#000000" points="315.2307,-191.516 304.6397,-191.7997 313.096,-198.1826 315.2307,-191.516"/>
<text text-anchor="middle" x="353.0848" y="-213.8" font-family="Times,serif" font-size="14.00" fill="#000000">is_a</text>
</g>
<!-- Quark -->
<g id="node4" class="node">
<title>Quark</title>
<g id="a_node4"><a xlink:href="http://emmo.info/domains/emmo-material.owl#EMMO_72d53756_7fb1_46ed_980f_83f47efbe105" xlink:title="Quark" target="_top">
<ellipse fill="#ffffcc" stroke="#000000" cx="436.4302" cy="-180" rx="40.0939" ry="18"/>
<text text-anchor="middle" x="436.4302" y="-176.3" font-family="Times,serif" font-size="14.00" fill="#000000">Quark</text>
</a>
</g>
</g>
<!-- Quark&#45;&gt;Massive -->
<g id="edge3" class="edge">
<title>Quark&#45;&gt;Massive</title>
<path fill="none" stroke="#000000" d="M396.0366,-180C375.3337,-180 349.7293,-180 326.8562,-180"/>
<polygon fill="none" stroke="#000000" points="326.5665,-176.5001 316.5665,-180 326.5665,-183.5001 326.5665,-176.5001"/>
<text text-anchor="middle" x="353.0848" y="-183.8" font-family="Times,serif" font-size="14.00" fill="#000000">is_a</text>
</g>
<!-- Massless -->
<g id="node5" class="node">
<title>Massless</title>
<g id="a_node5"><a xlink:href="http://emmo.info/domains/emmo-material.owl#EMMO_e5488299_8dab_4ebb_900a_26d2abed8396" xlink:title="Massless" target="_top">
<ellipse fill="#ffffcc" stroke="#000000" cx="267.7895" cy="-99" rx="53.0913" ry="18"/>
<text text-anchor="middle" x="267.7895" y="-95.3" font-family="Times,serif" font-size="14.00" fill="#000000">Massless</text>
</a>
</g>
</g>
<!-- Massless&#45;&gt;Elementary -->
<g id="edge4" class="edge">
<title>Massless&#45;&gt;Elementary</title>
<path fill="none" stroke="#000000" d="M217.7343,-105.1872C201.9615,-107.2349 184.4848,-109.6054 168.4942,-112 162.7544,-112.8596 156.7979,-113.7894 150.83,-114.747"/>
<polygon fill="none" stroke="#000000" points="150.1199,-111.3164 140.812,-116.3773 151.2444,-118.2255 150.1199,-111.3164"/>
<text text-anchor="middle" x="182.4942" y="-115.8" font-family="Times,serif" font-size="14.00" fill="#000000">is_a</text>
</g>
<!-- Photon -->
<g id="node6" class="node">
<title>Photon</title>
<g id="a_node6"><a xlink:href="http://emmo.info/domains/emmo-material.owl#EMMO_25f8b804_9a0b_4387_a3e7_b35bce5365ee" xlink:title="Photon" target="_top">
<ellipse fill="#ffffcc" stroke="#000000" cx="436.4302" cy="-126" rx="43.5923" ry="18"/>
<text text-anchor="middle" x="436.4302" y="-122.3" font-family="Times,serif" font-size="14.00" fill="#000000">Photon</text>
</a>
</g>
</g>
<!-- Photon&#45;&gt;Massless -->
<g id="edge5" class="edge">
<title>Photon&#45;&gt;Massless</title>
<path fill="none" stroke="#000000" d="M395.607,-119.4641C374.7181,-116.1197 348.9248,-111.9901 325.9915,-108.3184"/>
<polygon fill="none" stroke="#000000" points="326.451,-104.8474 316.0234,-106.7224 325.3443,-111.7594 326.451,-104.8474"/>
<text text-anchor="middle" x="353.0848" y="-117.8" font-family="Times,serif" font-size="14.00" fill="#000000">is_a</text>
</g>
<!-- Gluon -->
<g id="node7" class="node">
<title>Gluon</title>
<g id="a_node7"><a xlink:href="http://emmo.info/domains/emmo-material.owl#EMMO_7db59e56_f68b_48b7_ae99_891c35ae5c3b" xlink:title="Gluon" target="_top">
<ellipse fill="#ffffcc" stroke="#000000" cx="436.4302" cy="-72" rx="38.1938" ry="18"/>
<text text-anchor="middle" x="436.4302" y="-68.3" font-family="Times,serif" font-size="14.00" fill="#000000">Gluon</text>
</a>
</g>
</g>
<!-- Gluon&#45;&gt;Massless -->
<g id="edge6" class="edge">
<title>Gluon&#45;&gt;Massless</title>
<path fill="none" stroke="#000000" d="M399.8377,-77.8586C378.2969,-81.3074 350.5597,-85.7482 326.0714,-89.6689"/>
<polygon fill="none" stroke="#000000" points="325.4802,-86.2188 316.1593,-91.2558 326.5869,-93.1308 325.4802,-86.2188"/>
<text text-anchor="middle" x="353.0848" y="-90.8" font-family="Times,serif" font-size="14.00" fill="#000000">is_a</text>
</g>
<!-- Graviton -->
<g id="node8" class="node">
<title>Graviton</title>
<g id="a_node8"><a xlink:href="http://emmo.info/domains/emmo-material.owl#EMMO_eb3c61f0_3983_4346_a0c6_e7f6b90a67a8" xlink:title="Graviton" target="_top">
<ellipse fill="#ffffcc" stroke="#000000" cx="436.4302" cy="-18" rx="51.1914" ry="18"/>
<text text-anchor="middle" x="436.4302" y="-14.3" font-family="Times,serif" font-size="14.00" fill="#000000">Graviton</text>
</a>
</g>
</g>
<!-- Graviton&#45;&gt;Massless -->
<g id="edge7" class="edge">
<title>Graviton&#45;&gt;Massless</title>
<path fill="none" stroke="#000000" d="M405.2474,-32.5908C386.1189,-41.5771 361.1455,-53.3734 339.0848,-64 328.7177,-68.9938 317.5333,-74.4511 307.1661,-79.5391"/>
<polygon fill="none" stroke="#000000" points="305.3517,-76.531 297.9219,-84.0841 308.4402,-82.8128 305.3517,-76.531"/>
<text text-anchor="middle" x="353.0848" y="-67.8" font-family="Times,serif" font-size="14.00" fill="#000000">is_a</text>
</g>
</g>
</svg>
