<?xml version="1.0" encoding="UTF-8" standalone="no"?>
<!DOCTYPE svg PUBLIC "-//W3C//DTD SVG 1.1//EN"
 "http://www.w3.org/Graphics/SVG/1.1/DTD/svg11.dtd">
<!-- Generated by graphviz version 2.40.1 (0)
 -->
<!-- Title: G Pages: 1 -->
<svg width="595pt" height="276pt"
 viewBox="0.00 0.00 594.67 276.19" xmlns="http://www.w3.org/2000/svg" xmlns:xlink="http://www.w3.org/1999/xlink">
<g id="graph0" class="graph" transform="scale(1 1) rotate(0) translate(4 272.1864)">
<title>G</title>
<polygon fill="#ffffff" stroke="transparent" points="-4,4 -4,-272.1864 590.6678,-272.1864 590.6678,4 -4,4"/>
<!-- emmo -->
<g id="node1" class="node">
<title>emmo</title>
<g id="a_node1"><a xlink:href="emmodoc.html#emmo" xlink:title="emmo" target="_top">
<ellipse fill="#ffffcc" stroke="#000000" cx="38.9965" cy="-166.1864" rx="38.9931" ry="18"/>
<text text-anchor="middle" x="38.9965" y="-162.4864" font-family="Times,serif" font-size="14.00" fill="#000000">emmo</text>
</a>
</g>
</g>
<!-- collection -->
<g id="node2" class="node">
<title>collection</title>
<g id="a_node2"><a xlink:href="emmodoc.html#collection" xlink:title="collection" target="_top">
<ellipse fill="#ffffcc" stroke="#000000" cx="197.8881" cy="-202.1864" rx="55.7903" ry="18"/>
<text text-anchor="middle" x="197.8881" y="-198.4864" font-family="Times,serif" font-size="14.00" fill="#000000">collection</text>
</a>
</g>
</g>
<!-- collection&#45;&gt;emmo -->
<g id="edge1" class="edge">
<title>collection&#45;&gt;emmo</title>
<path fill="none" stroke="#000000" d="M151.9301,-191.7737C130.5669,-186.9335 105.2494,-181.1973 84.0054,-176.384"/>
<polygon fill="none" stroke="#000000" points="84.7767,-172.9702 74.2505,-174.1739 83.2299,-179.7971 84.7767,-172.9702"/>
<text text-anchor="middle" x="109.9931" y="-188.9864" font-family="Times,serif" font-size="14.00" fill="#000000">is_a</text>
</g>
<!-- item -->
<g id="node3" class="node">
<title>item</title>
<g id="a_node3"><a xlink:href="emmodoc.html#item" xlink:title="item" target="_top">
<ellipse fill="#ffffcc" stroke="#000000" cx="197.8881" cy="-130.1864" rx="31.6951" ry="18"/>
<text text-anchor="middle" x="197.8881" y="-126.4864" font-family="Times,serif" font-size="14.00" fill="#000000">item</text>
</a>
</g>
</g>
<!-- collection&#45;&gt;item -->
<g id="edge8" class="edge">
<title>collection&#45;&gt;item</title>
<path fill="none" stroke="#6b8e23" d="M197.8881,-183.7731C197.8881,-176.1271 197.8881,-167.078 197.8881,-158.6138"/>
<polygon fill="#6b8e23" stroke="#6b8e23" points="201.3882,-158.355 197.8881,-148.355 194.3882,-158.3551 201.3882,-158.355"/>
<text text-anchor="middle" x="208.3881" y="-162.4864" font-family="Times,serif" font-size="14.00" fill="#000000">hm&#45;s &#160;&#160;</text>
</g>
<!-- item&#45;&gt;emmo -->
<g id="edge2" class="edge">
<title>item&#45;&gt;emmo</title>
<path fill="none" stroke="#000000" d="M168.0018,-136.9577C144.3271,-142.3217 110.8761,-149.9007 83.9696,-155.9969"/>
<polygon fill="none" stroke="#000000" points="82.9913,-152.6297 74.0119,-158.253 84.5382,-159.4567 82.9913,-152.6297"/>
<text text-anchor="middle" x="109.9931" y="-155.9864" font-family="Times,serif" font-size="14.00" fill="#000000">is_a</text>
</g>
<!-- quantum -->
<g id="node4" class="node">
<title>quantum</title>
<g id="a_node4"><a xlink:href="emmodoc.html#quantum" xlink:title="quantum" target="_top">
<ellipse fill="#ffffcc" stroke="#000000" cx="369.7785" cy="-250.1864" rx="51.9908" ry="18"/>
<text text-anchor="middle" x="369.7785" y="-246.4864" font-family="Times,serif" font-size="14.00" fill="#000000">quantum</text>
</a>
</g>
</g>
<!-- quantum&#45;&gt;item -->
<g id="edge3" class="edge">
<title>quantum&#45;&gt;item</title>
<path fill="none" stroke="#000000" d="M339.2878,-235.5254C332.0935,-231.7476 324.5511,-227.5181 317.7832,-223.1864 299.2045,-211.2953 253.6248,-175.1631 224.3215,-151.5943"/>
<polygon fill="none" stroke="#000000" points="226.1434,-148.5675 216.1611,-145.0174 221.7508,-154.0177 226.1434,-148.5675"/>
<text text-anchor="middle" x="285.7832" y="-211.9864" font-family="Times,serif" font-size="14.00" fill="#000000">is_a</text>
</g>
<!-- void -->
<g id="node5" class="node">
<title>void</title>
<g id="a_node5"><a xlink:href="emmodoc.html#void" xlink:title="void" target="_top">
<ellipse fill="#ffffcc" stroke="#000000" cx="369.7785" cy="-163.1864" rx="30.5947" ry="18"/>
<text text-anchor="middle" x="369.7785" y="-159.4864" font-family="Times,serif" font-size="14.00" fill="#000000">void</text>
</a>
</g>
</g>
<!-- void&#45;&gt;item -->
<g id="edge4" class="edge">
<title>void&#45;&gt;item</title>
<path fill="none" stroke="#000000" d="M340.6197,-157.5884C312.4796,-152.186 269.6385,-143.9612 238.2327,-137.9319"/>
<polygon fill="none" stroke="#000000" points="238.5387,-134.4268 228.0582,-135.9785 237.2189,-141.3012 238.5387,-134.4268"/>
<text text-anchor="middle" x="285.7832" y="-152.9864" font-family="Times,serif" font-size="14.00" fill="#000000">is_a</text>
</g>
<!-- void&#45;&gt;void -->
<g id="edge9" class="edge">
<title>void&#45;&gt;void</title>
<path fill="none" stroke="#6b8e23" d="M384.0687,-179.4767C387.5146,-189.5756 382.7512,-199.1864 369.7785,-199.1864 361.4679,-199.1864 356.5264,-195.2421 354.954,-189.752"/>
<polygon fill="#6b8e23" stroke="#6b8e23" points="358.4642,-189.645 355.4884,-179.4767 351.4736,-189.2814 358.4642,-189.645"/>
<text text-anchor="middle" x="369.7785" y="-202.9864" font-family="Times,serif" font-size="14.00" fill="#000000">hp&#45;o &#160;&#160;</text>
</g>
<!-- physical -->
<g id="node6" class="node">
<title>physical</title>
<g id="a_node6"><a xlink:href="emmodoc.html#physical" xlink:title="physical" target="_top">
<ellipse fill="#ffffcc" stroke="#000000" cx="369.7785" cy="-76.1864" rx="49.2915" ry="18"/>
<text text-anchor="middle" x="369.7785" y="-72.4864" font-family="Times,serif" font-size="14.00" fill="#000000">physical</text>
</a>
</g>
</g>
<!-- physical&#45;&gt;item -->
<g id="edge5" class="edge">
<title>physical&#45;&gt;item</title>
<path fill="none" stroke="#000000" d="M332.0565,-88.0369C303.414,-97.0351 264.2065,-109.3522 235.5731,-118.3475"/>
<polygon fill="none" stroke="#000000" points="234.4121,-115.0435 225.9208,-121.3798 236.5101,-121.7217 234.4121,-115.0435"/>
<text text-anchor="middle" x="285.7832" y="-109.9864" font-family="Times,serif" font-size="14.00" fill="#000000">is_a</text>
</g>
<!-- physical&#45;&gt;physical -->
<g id="edge10" class="edge">
<title>physical&#45;&gt;physical</title>
<path fill="none" stroke="#6b8e23" d="M384.4178,-93.5963C387.1505,-103.2743 382.2707,-112.1864 369.7785,-112.1864 361.9709,-112.1864 357.1369,-108.7051 355.2765,-103.7313"/>
<polygon fill="#6b8e23" stroke="#6b8e23" points="358.7744,-103.548 355.1393,-93.5963 351.7751,-103.6428 358.7744,-103.548"/>
<text text-anchor="middle" x="369.7785" y="-115.9864" font-family="Times,serif" font-size="14.00" fill="#000000">has_temporal_part only &#160;&#160;</text>
</g>
<!-- existent -->
<g id="node7" class="node">
<title>existent</title>
<g id="a_node7"><a xlink:href="emmodoc.html#existent" xlink:title="existent" target="_top">
<ellipse fill="#ffffcc" stroke="#000000" cx="369.7785" cy="-22.1864" rx="48.1917" ry="18"/>
<text text-anchor="middle" x="369.7785" y="-18.4864" font-family="Times,serif" font-size="14.00" fill="#000000">existent</text>
</a>
</g>
</g>
<!-- existent&#45;&gt;item -->
<g id="edge6" class="edge">
<title>existent&#45;&gt;item</title>
<path fill="none" stroke="#000000" d="M340.6247,-36.6808C333.1028,-40.5954 325.074,-44.93 317.7832,-49.1864 285.1306,-68.2491 249.4281,-92.8966 225.5497,-109.9719"/>
<polygon fill="none" stroke="#000000" points="223.3887,-107.2149 217.3149,-115.8959 227.4766,-112.8973 223.3887,-107.2149"/>
<text text-anchor="middle" x="285.7832" y="-79.9864" font-family="Times,serif" font-size="14.00" fill="#000000">is_a</text>
</g>
<!-- state -->
<g id="node8" class="node">
<title>state</title>
<g id="a_node8"><a xlink:href="emmodoc.html#state" xlink:title="state" target="_top">
<ellipse fill="#ffffcc" stroke="#000000" cx="552.2209" cy="-22.1864" rx="34.394" ry="18"/>
<text text-anchor="middle" x="552.2209" y="-18.4864" font-family="Times,serif" font-size="14.00" fill="#000000">state</text>
</a>
</g>
</g>
<!-- existent&#45;&gt;state -->
<g id="edge11" class="edge">
<title>existent&#45;&gt;state</title>
<path fill="none" stroke="#6b8e23" d="M406.0948,-10.3695C416.821,-7.4149 428.6656,-4.6673 439.7739,-3.1864 466.2068,.3374 473.5089,1.4245 499.7739,-3.1864 505.199,-4.1388 510.8022,-5.6058 516.2367,-7.3118"/>
<polygon fill="#6b8e23" stroke="#6b8e23" points="515.1668,-10.6449 525.7615,-10.5811 517.4394,-4.0241 515.1668,-10.6449"/>
<text text-anchor="middle" x="469.7739" y="-6.9864" font-family="Times,serif" font-size="14.00" fill="#000000">htdp&#45;o &#160;&#160;</text>
</g>
<!-- state&#45;&gt;existent -->
<g id="edge7" class="edge">
<title>state&#45;&gt;existent</title>
<path fill="none" stroke="#000000" d="M517.4754,-22.1864C492.3202,-22.1864 457.7185,-22.1864 428.3296,-22.1864"/>
<polygon fill="none" stroke="#000000" points="428.1758,-18.6865 418.1758,-22.1864 428.1758,-25.6865 428.1758,-18.6865"/>
<text text-anchor="middle" x="469.7739" y="-25.9864" font-family="Times,serif" font-size="14.00" fill="#000000">is_a</text>
</g>
</g>
</svg>
