<?xml version="1.0" encoding="UTF-8" standalone="no"?>
<!DOCTYPE svg PUBLIC "-//W3C//DTD SVG 1.1//EN"
 "http://www.w3.org/Graphics/SVG/1.1/DTD/svg11.dtd">
<!-- Generated by graphviz version 2.40.1 (0)
 -->
<!-- Title: G Pages: 1 -->
<svg width="414pt" height="98pt"
 viewBox="0.00 0.00 413.87 98.00" xmlns="http://www.w3.org/2000/svg" xmlns:xlink="http://www.w3.org/1999/xlink">
<g id="graph0" class="graph" transform="scale(1 1) rotate(0) translate(4 94)">
<title>G</title>
<polygon fill="#ffffff" stroke="transparent" points="-4,4 -4,-94 409.8697,-94 409.8697,4 -4,4"/>
<!-- emmo_relation -->
<g id="node1" class="node">
<title>emmo_relation</title>
<g id="a_node1"><a xlink:href="emmodoc.html#emmo_relation" xlink:title="emmo_relation" target="_top">
<ellipse fill="#ffffcc" stroke="#000000" cx="79.9429" cy="-45" rx="79.8859" ry="18"/>
<text text-anchor="middle" x="79.9429" y="-41.3" font-family="Times,serif" font-size="14.00" fill="#000000">emmo_relation</text>
</a>
</g>
</g>
<!-- mereotopological -->
<g id="node2" class="node">
<title>mereotopological</title>
<g id="a_node2"><a xlink:href="emmodoc.html#mereotopological" xlink:title="mereotopological" target="_top">
<ellipse fill="#ffffcc" stroke="#000000" cx="314.8777" cy="-72" rx="90.9839" ry="18"/>
<text text-anchor="middle" x="314.8777" y="-68.3" font-family="Times,serif" font-size="14.00" fill="#000000">mereotopological</text>
</a>
</g>
</g>
<!-- mereotopological&#45;&gt;emmo_relation -->
<g id="edge1" class="edge">
<title>mereotopological&#45;&gt;emmo_relation</title>
<path fill="none" stroke="#000000" d="M235.9943,-62.9343C212.0831,-60.1863 185.7724,-57.1625 161.6784,-54.3935"/>
<polygon fill="none" stroke="#000000" points="161.8358,-50.8886 151.5016,-53.2239 161.0365,-57.8429 161.8358,-50.8886"/>
<text text-anchor="middle" x="191.8858" y="-62.8" font-family="Times,serif" font-size="14.00" fill="#000000">is_a</text>
</g>
<!-- semiotic -->
<g id="node3" class="node">
<title>semiotic</title>
<g id="a_node3"><a xlink:href="emmodoc.html#semiotic" xlink:title="semiotic" target="_top">
<ellipse fill="#ffffcc" stroke="#000000" cx="314.8777" cy="-18" rx="50.0912" ry="18"/>
<text text-anchor="middle" x="314.8777" y="-14.3" font-family="Times,serif" font-size="14.00" fill="#000000">semiotic</text>
</a>
</g>
</g>
<!-- semiotic&#45;&gt;emmo_relation -->
<g id="edge2" class="edge">
<title>semiotic&#45;&gt;emmo_relation</title>
<path fill="none" stroke="#000000" d="M267.052,-23.4964C236.7689,-26.9767 196.8213,-31.5677 161.6161,-35.6137"/>
<polygon fill="none" stroke="#000000" points="160.878,-32.1754 151.3431,-36.7943 161.6773,-39.1296 160.878,-32.1754"/>
<text text-anchor="middle" x="191.8858" y="-36.8" font-family="Times,serif" font-size="14.00" fill="#000000">is_a</text>
</g>
</g>
</svg>
