<?xml version="1.0" encoding="UTF-8" standalone="no"?>
<!DOCTYPE svg PUBLIC "-//W3C//DTD SVG 1.1//EN"
 "http://www.w3.org/Graphics/SVG/1.1/DTD/svg11.dtd">
<!-- Generated by graphviz version 2.40.1 (0)
 -->
<!-- Title: G Pages: 1 -->
<svg width="390pt" height="98pt"
 viewBox="0.00 0.00 390.47 98.00" xmlns="http://www.w3.org/2000/svg" xmlns:xlink="http://www.w3.org/1999/xlink">
<g id="graph0" class="graph" transform="scale(1 1) rotate(0) translate(4 94)">
<title>G</title>
<polygon fill="#ffffff" stroke="transparent" points="-4,4 -4,-94 386.4717,-94 386.4717,4 -4,4"/>
<!-- formula -->
<g id="node1" class="node">
<title>formula</title>
<g id="a_node1"><a xlink:href="emmodoc.html#formula" xlink:title="formula" target="_top">
<ellipse fill="#ffffcc" stroke="#000000" cx="46.7958" cy="-45" rx="46.5926" ry="18"/>
<text text-anchor="middle" x="46.7958" y="-41.3" font-family="Times,serif" font-size="14.00" fill="#000000">formula</text>
</a>
</g>
</g>
<!-- mathematical -->
<g id="node2" class="node">
<title>mathematical</title>
<g id="a_node2"><a xlink:href="emmodoc.html#mathematical" xlink:title="mathematical" target="_top">
<ellipse fill="#ffffcc" stroke="#000000" cx="270.0317" cy="-72" rx="74.9875" ry="18"/>
<text text-anchor="middle" x="270.0317" y="-68.3" font-family="Times,serif" font-size="14.00" fill="#000000">mathematical</text>
</a>
</g>
</g>
<!-- mathematical&#45;&gt;formula -->
<g id="edge1" class="edge">
<title>mathematical&#45;&gt;formula</title>
<path fill="none" stroke="#000000" d="M203.0536,-63.8991C170.6304,-59.9776 132.1903,-55.3283 101.5503,-51.6225"/>
<polygon fill="none" stroke="#000000" points="101.8263,-48.1304 91.4784,-50.4043 100.9857,-55.0798 101.8263,-48.1304"/>
<text text-anchor="middle" x="125.5917" y="-59.8" font-family="Times,serif" font-size="14.00" fill="#000000">is_a</text>
</g>
<!-- quantitative_property -->
<g id="node3" class="node">
<title>quantitative_property</title>
<g id="a_node3"><a xlink:href="emmodoc.html#quantitative_property" xlink:title="quantitative_property" target="_top">
<ellipse fill="#ffffcc" stroke="#000000" cx="270.0317" cy="-18" rx="112.3801" ry="18"/>
<text text-anchor="middle" x="270.0317" y="-14.3" font-family="Times,serif" font-size="14.00" fill="#000000">quantitative_property</text>
</a>
</g>
</g>
<!-- quantitative_property&#45;&gt;formula -->
<g id="edge2" class="edge">
<title>quantitative_property&#45;&gt;formula</title>
<path fill="none" stroke="#000000" d="M169.719,-26.14C150.3936,-28.0914 130.3363,-30.3822 111.5917,-33 107.3852,-33.5875 103.0361,-34.2569 98.6741,-34.9722"/>
<polygon fill="none" stroke="#000000" points="97.8004,-31.5707 88.5341,-36.7074 98.9812,-38.4704 97.8004,-31.5707"/>
<text text-anchor="middle" x="125.5917" y="-36.8" font-family="Times,serif" font-size="14.00" fill="#000000">is_a</text>
</g>
</g>
</svg>
