<?xml version="1.0" encoding="UTF-8" standalone="no"?>
<!DOCTYPE svg PUBLIC "-//W3C//DTD SVG 1.1//EN"
 "http://www.w3.org/Graphics/SVG/1.1/DTD/svg11.dtd">
<!-- Generated by graphviz version 2.40.1 (0)
 -->
<!-- Title: G Pages: 1 -->
<svg width="561pt" height="422pt"
 viewBox="0.00 0.00 561.06 422.00" xmlns="http://www.w3.org/2000/svg" xmlns:xlink="http://www.w3.org/1999/xlink">
<g id="graph0" class="graph" transform="scale(1 1) rotate(0) translate(4 418)">
<title>G</title>
<polygon fill="#ffffff" stroke="transparent" points="-4,4 -4,-418 557.0623,-418 557.0623,4 -4,4"/>
<!-- Geometrical -->
<g id="node1" class="node">
<title>Geometrical</title>
<g id="a_node1"><a xlink:href="http://emmo.info/domains/emmo-geometry.owl#EMMO_b5957cef_a287_442d_a3ce_fd39f20ba1cd" xlink:title="Geometrical" target="_top">
<ellipse fill="#ffffcc" stroke="#000000" stroke-width="3" cx="67.594" cy="-193" rx="67.6881" ry="18"/>
<text text-anchor="middle" x="67.594" y="-189.3" font-family="Times,serif" font-size="14.00" fill="#000000">Geometrical</text>
</a>
</g>
</g>
<!-- 0&#45;manifold -->
<g id="node2" class="node">
<title>0&#45;manifold</title>
<g id="a_node2"><a xlink:href="http://emmo.info/domains/emmo-geometry.owl#EMMO_0ab0485c_9e5b_4257_a679_90a2dfba5c7c" xlink:title="0&#45;manifold" target="_top">
<ellipse fill="#ffffcc" stroke="#000000" cx="258.9827" cy="-348" rx="59.5901" ry="18"/>
<text text-anchor="middle" x="258.9827" y="-344.3" font-family="Times,serif" font-size="14.00" fill="#000000">0&#45;manifold</text>
</a>
</g>
</g>
<!-- 0&#45;manifold&#45;&gt;Geometrical -->
<g id="edge1" class="edge">
<title>0&#45;manifold&#45;&gt;Geometrical</title>
<path fill="none" stroke="#000000" d="M238.1364,-331.1172C203.9468,-303.4281 135.8679,-248.293 96.859,-216.7009"/>
<polygon fill="none" stroke="#000000" points="98.9728,-213.9089 88.9988,-210.3351 94.5672,-219.3487 98.9728,-213.9089"/>
<text text-anchor="middle" x="167.188" y="-287.8" font-family="Times,serif" font-size="14.00" fill="#000000">is_a</text>
</g>
<!-- Point -->
<g id="node3" class="node">
<title>Point</title>
<g id="a_node3"><a xlink:href="http://emmo.info/domains/emmo-geometry.owl#EMMO_39362460_2a97_4367_8f93_0418c2ac9a08" xlink:title="Point" target="_top">
<ellipse fill="#ffffcc" stroke="#000000" cx="467.9198" cy="-396" rx="34.394" ry="18"/>
<text text-anchor="middle" x="467.9198" y="-392.3" font-family="Times,serif" font-size="14.00" fill="#000000">Point</text>
</a>
</g>
</g>
<!-- Point&#45;&gt;0&#45;manifold -->
<g id="edge2" class="edge">
<title>Point&#45;&gt;0&#45;manifold</title>
<path fill="none" stroke="#000000" d="M436.1868,-388.7098C404.5388,-381.4392 355.2108,-370.1069 316.6272,-361.2429"/>
<polygon fill="none" stroke="#000000" points="317.091,-357.7584 306.5612,-358.9304 315.5236,-364.5806 317.091,-357.7584"/>
<text text-anchor="middle" x="350.7774" y="-375.8" font-family="Times,serif" font-size="14.00" fill="#000000">is_a</text>
</g>
<!-- 1&#45;manifold -->
<g id="node4" class="node">
<title>1&#45;manifold</title>
<g id="a_node4"><a xlink:href="http://emmo.info/domains/emmo-geometry.owl#EMMO_0c576e13_4ee7_4f3d_bfe9_1614243df018" xlink:title="1&#45;manifold" target="_top">
<ellipse fill="#ffffcc" stroke="#000000" cx="258.9827" cy="-247" rx="59.5901" ry="18"/>
<text text-anchor="middle" x="258.9827" y="-243.3" font-family="Times,serif" font-size="14.00" fill="#000000">1&#45;manifold</text>
</a>
</g>
</g>
<!-- 1&#45;manifold&#45;&gt;Geometrical -->
<g id="edge3" class="edge">
<title>1&#45;manifold&#45;&gt;Geometrical</title>
<path fill="none" stroke="#000000" d="M215.0743,-234.6113C188.1235,-227.0072 153.3306,-217.1904 124.3077,-209.0017"/>
<polygon fill="none" stroke="#000000" points="124.8796,-205.5264 114.3049,-206.1794 122.9787,-212.2634 124.8796,-205.5264"/>
<text text-anchor="middle" x="167.188" y="-227.8" font-family="Times,serif" font-size="14.00" fill="#000000">is_a</text>
</g>
<!-- Curve -->
<g id="node5" class="node">
<title>Curve</title>
<g id="a_node5"><a xlink:href="http://emmo.info/domains/emmo-geometry.owl#EMMO_0ef4ff4a_5458_4f2a_b51f_4689d472a3f2" xlink:title="Curve" target="_top">
<ellipse fill="#ffffcc" stroke="#000000" cx="467.9198" cy="-342" rx="38.9931" ry="18"/>
<text text-anchor="middle" x="467.9198" y="-338.3" font-family="Times,serif" font-size="14.00" fill="#000000">Curve</text>
</a>
</g>
</g>
<!-- Curve&#45;&gt;1&#45;manifold -->
<g id="edge4" class="edge">
<title>Curve&#45;&gt;1&#45;manifold</title>
<path fill="none" stroke="#000000" d="M433.8041,-332.8406C418.0165,-328.1832 399.1701,-322.0216 382.7774,-315 351.7976,-301.7302 318.4001,-283.1087 294.1105,-268.7067"/>
<polygon fill="none" stroke="#000000" points="295.6488,-265.5484 285.2712,-263.4136 292.0525,-271.554 295.6488,-265.5484"/>
<text text-anchor="middle" x="350.7774" y="-308.8" font-family="Times,serif" font-size="14.00" fill="#000000">is_a</text>
</g>
<!-- Line -->
<g id="node6" class="node">
<title>Line</title>
<g id="a_node6"><a xlink:href="http://emmo.info/domains/emmo-geometry.owl#EMMO_3e309118_e8b7_4021_80f4_642d2df65d94" xlink:title="Line" target="_top">
<ellipse fill="#ffffcc" stroke="#000000" cx="467.9198" cy="-288" rx="31.3957" ry="18"/>
<text text-anchor="middle" x="467.9198" y="-284.3" font-family="Times,serif" font-size="14.00" fill="#000000">Line</text>
</a>
</g>
</g>
<!-- Line&#45;&gt;1&#45;manifold -->
<g id="edge5" class="edge">
<title>Line&#45;&gt;1&#45;manifold</title>
<path fill="none" stroke="#000000" d="M437.9842,-282.1257C407.2205,-276.0889 358.464,-266.5213 319.5998,-258.895"/>
<polygon fill="none" stroke="#000000" points="319.9246,-255.392 309.4377,-256.9009 318.5766,-262.261 319.9246,-255.392"/>
<text text-anchor="middle" x="350.7774" y="-270.8" font-family="Times,serif" font-size="14.00" fill="#000000">is_a</text>
</g>
<!-- Circle -->
<g id="node7" class="node">
<title>Circle</title>
<g id="a_node7"><a xlink:href="http://emmo.info/domains/emmo-geometry.owl#EMMO_b2a234a8_579a_422c_9305_b8f7e72c76cd" xlink:title="Circle" target="_top">
<ellipse fill="#ffffcc" stroke="#000000" cx="467.9198" cy="-234" rx="38.9931" ry="18"/>
<text text-anchor="middle" x="467.9198" y="-230.3" font-family="Times,serif" font-size="14.00" fill="#000000">Circle</text>
</a>
</g>
</g>
<!-- Circle&#45;&gt;1&#45;manifold -->
<g id="edge6" class="edge">
<title>Circle&#45;&gt;1&#45;manifold</title>
<path fill="none" stroke="#000000" d="M429.11,-236.4147C400.7683,-238.1781 361.584,-240.6162 327.9643,-242.708"/>
<polygon fill="none" stroke="#000000" points="327.4907,-239.2306 317.7274,-243.3449 327.9255,-246.2171 327.4907,-239.2306"/>
<text text-anchor="middle" x="350.7774" y="-245.8" font-family="Times,serif" font-size="14.00" fill="#000000">is_a</text>
</g>
<!-- 2&#45;manifold -->
<g id="node8" class="node">
<title>2&#45;manifold</title>
<g id="a_node8"><a xlink:href="http://emmo.info/domains/emmo-geometry.owl#EMMO_9268958f_7f54_48ab_a693_febe2645892b" xlink:title="2&#45;manifold" target="_top">
<ellipse fill="#ffffcc" stroke="#000000" cx="258.9827" cy="-166" rx="59.5901" ry="18"/>
<text text-anchor="middle" x="258.9827" y="-162.3" font-family="Times,serif" font-size="14.00" fill="#000000">2&#45;manifold</text>
</a>
</g>
</g>
<!-- 2&#45;manifold&#45;&gt;Geometrical -->
<g id="edge7" class="edge">
<title>2&#45;manifold&#45;&gt;Geometrical</title>
<path fill="none" stroke="#000000" d="M202.9242,-172.466C186.847,-174.4348 169.3083,-176.6922 153.188,-179 147.3632,-179.8339 141.3222,-180.7394 135.2667,-181.6753"/>
<polygon fill="none" stroke="#000000" points="134.434,-178.2631 125.0978,-183.2716 135.5197,-185.1784 134.434,-178.2631"/>
<text text-anchor="middle" x="167.188" y="-182.8" font-family="Times,serif" font-size="14.00" fill="#000000">is_a</text>
</g>
<!-- Plane -->
<g id="node9" class="node">
<title>Plane</title>
<g id="a_node9"><a xlink:href="http://emmo.info/domains/emmo-geometry.owl#EMMO_25f5ca8e_8f7f_44d8_a392_bd3fe8894458" xlink:title="Plane" target="_top">
<ellipse fill="#ffffcc" stroke="#000000" cx="467.9198" cy="-180" rx="36.2938" ry="18"/>
<text text-anchor="middle" x="467.9198" y="-176.3" font-family="Times,serif" font-size="14.00" fill="#000000">Plane</text>
</a>
</g>
</g>
<!-- Plane&#45;&gt;2&#45;manifold -->
<g id="edge8" class="edge">
<title>Plane&#45;&gt;2&#45;manifold</title>
<path fill="none" stroke="#000000" d="M431.5258,-177.5614C402.9006,-175.6433 362.1975,-172.916 327.5131,-170.5919"/>
<polygon fill="none" stroke="#000000" points="327.6468,-167.0931 317.4351,-169.9167 327.1787,-174.0775 327.6468,-167.0931"/>
<text text-anchor="middle" x="350.7774" y="-176.8" font-family="Times,serif" font-size="14.00" fill="#000000">is_a</text>
</g>
<!-- Torus -->
<g id="node10" class="node">
<title>Torus</title>
<g id="a_node10"><a xlink:href="http://emmo.info/domains/emmo-geometry.owl#EMMO_86060335_31c2_4820_b433_27c64aea0366" xlink:title="Torus" target="_top">
<ellipse fill="#ffffcc" stroke="#000000" cx="467.9198" cy="-126" rx="37.0935" ry="18"/>
<text text-anchor="middle" x="467.9198" y="-122.3" font-family="Times,serif" font-size="14.00" fill="#000000">Torus</text>
</a>
</g>
</g>
<!-- Torus&#45;&gt;2&#45;manifold -->
<g id="edge9" class="edge">
<title>Torus&#45;&gt;2&#45;manifold</title>
<path fill="none" stroke="#000000" d="M433.4181,-132.6052C402.588,-138.5075 356.7117,-147.2902 319.7438,-154.3676"/>
<polygon fill="none" stroke="#000000" points="318.7365,-150.9968 309.573,-156.3147 320.0528,-157.8719 318.7365,-150.9968"/>
<text text-anchor="middle" x="350.7774" y="-153.8" font-family="Times,serif" font-size="14.00" fill="#000000">is_a</text>
</g>
<!-- Sphere -->
<g id="node11" class="node">
<title>Sphere</title>
<g id="a_node11"><a xlink:href="http://emmo.info/domains/emmo-geometry.owl#EMMO_d7bf784a_db94_4dd9_861c_54f262846fbf" xlink:title="Sphere" target="_top">
<ellipse fill="#ffffcc" stroke="#000000" cx="467.9198" cy="-72" rx="44.393" ry="18"/>
<text text-anchor="middle" x="467.9198" y="-68.3" font-family="Times,serif" font-size="14.00" fill="#000000">Sphere</text>
</a>
</g>
</g>
<!-- Sphere&#45;&gt;2&#45;manifold -->
<g id="edge10" class="edge">
<title>Sphere&#45;&gt;2&#45;manifold</title>
<path fill="none" stroke="#000000" d="M430.9089,-82.0745C415.7549,-86.6255 398.1927,-92.4538 382.7774,-99 352.0611,-112.0439 318.8902,-130.2359 294.6232,-144.3724"/>
<polygon fill="none" stroke="#000000" points="292.6273,-141.4857 285.7823,-149.5725 296.1763,-147.5194 292.6273,-141.4857"/>
<text text-anchor="middle" x="350.7774" y="-123.8" font-family="Times,serif" font-size="14.00" fill="#000000">is_a</text>
</g>
<!-- 3&#45;manifold -->
<g id="node12" class="node">
<title>3&#45;manifold</title>
<g id="a_node12"><a xlink:href="http://emmo.info/domains/emmo-geometry.owl#EMMO_46f0f8df_4dc6_418f_8036_10427a3a288e" xlink:title="3&#45;manifold" target="_top">
<ellipse fill="#ffffcc" stroke="#000000" cx="258.9827" cy="-58" rx="59.5901" ry="18"/>
<text text-anchor="middle" x="258.9827" y="-54.3" font-family="Times,serif" font-size="14.00" fill="#000000">3&#45;manifold</text>
</a>
</g>
</g>
<!-- 3&#45;manifold&#45;&gt;Geometrical -->
<g id="edge11" class="edge">
<title>3&#45;manifold&#45;&gt;Geometrical</title>
<path fill="none" stroke="#000000" d="M235.1302,-74.8249C201.0337,-98.8755 138.2616,-143.1531 99.9877,-170.1504"/>
<polygon fill="none" stroke="#000000" points="97.9014,-167.3389 91.7471,-175.9631 101.9362,-173.0591 97.9014,-167.3389"/>
<text text-anchor="middle" x="167.188" y="-132.8" font-family="Times,serif" font-size="14.00" fill="#000000">is_a</text>
</g>
<!-- EuclideanSpace -->
<g id="node13" class="node">
<title>EuclideanSpace</title>
<g id="a_node13"><a xlink:href="http://emmo.info/domains/emmo-geometry.owl#EMMO_5f278af9_8593_4e27_a717_ccc9e07a0ddf" xlink:title="EuclideanSpace" target="_top">
<ellipse fill="#ffffcc" stroke="#000000" cx="467.9198" cy="-18" rx="85.2851" ry="18"/>
<text text-anchor="middle" x="467.9198" y="-14.3" font-family="Times,serif" font-size="14.00" fill="#000000">EuclideanSpace</text>
</a>
</g>
</g>
<!-- EuclideanSpace&#45;&gt;3&#45;manifold -->
<g id="edge12" class="edge">
<title>EuclideanSpace&#45;&gt;3&#45;manifold</title>
<path fill="none" stroke="#000000" d="M391.2939,-25.859C373.3168,-28.2748 354.2982,-31.2988 336.7774,-35 327.771,-36.9026 318.2925,-39.3329 309.1701,-41.8974"/>
<polygon fill="none" stroke="#000000" points="308.0808,-38.569 299.4503,-44.7143 310.0293,-45.2924 308.0808,-38.569"/>
<text text-anchor="middle" x="350.7774" y="-38.8" font-family="Times,serif" font-size="14.00" fill="#000000">is_a</text>
</g>
</g>
</svg>
