<?xml version="1.0" encoding="UTF-8" standalone="no"?>
<!DOCTYPE svg PUBLIC "-//W3C//DTD SVG 1.1//EN"
 "http://www.w3.org/Graphics/SVG/1.1/DTD/svg11.dtd">
<!-- Generated by graphviz version 2.40.1 (0)
 -->
<!-- Title: G Pages: 1 -->
<svg width="549pt" height="206pt"
 viewBox="0.00 0.00 549.36 206.00" xmlns="http://www.w3.org/2000/svg" xmlns:xlink="http://www.w3.org/1999/xlink">
<g id="graph0" class="graph" transform="scale(1 1) rotate(0) translate(4 202)">
<title>G</title>
<polygon fill="#ffffff" stroke="transparent" points="-4,4 -4,-202 545.3633,-202 545.3633,4 -4,4"/>
<!-- has_sign -->
<g id="node1" class="node">
<title>has_sign</title>
<g id="a_node1"><a xlink:href="emmodoc.html#has_sign" xlink:title="has_sign" target="_top">
<ellipse fill="#ffffcc" stroke="#000000" cx="51.3454" cy="-72" rx="51.1914" ry="18"/>
<text text-anchor="middle" x="51.3454" y="-68.3" font-family="Times,serif" font-size="14.00" fill="#000000">has_sign</text>
</a>
</g>
</g>
<!-- has_convention -->
<g id="node2" class="node">
<title>has_convention</title>
<g id="a_node2"><a xlink:href="emmodoc.html#has_convention" xlink:title="has_convention" target="_top">
<ellipse fill="#ffffcc" stroke="#000000" cx="249.8835" cy="-126" rx="83.3857" ry="18"/>
<text text-anchor="middle" x="249.8835" y="-122.3" font-family="Times,serif" font-size="14.00" fill="#000000">has_convention</text>
</a>
</g>
</g>
<!-- has_convention&#45;&gt;has_sign -->
<g id="edge1" class="edge">
<title>has_convention&#45;&gt;has_sign</title>
<path fill="none" stroke="#000000" d="M197.7002,-111.8993C174.1669,-105.5309 146.0261,-97.9026 120.6909,-91 114.605,-89.3419 108.2198,-87.5981 101.8906,-85.867"/>
<polygon fill="none" stroke="#000000" points="102.6112,-82.4356 92.0419,-83.1714 100.7632,-89.1872 102.6112,-82.4356"/>
<text text-anchor="middle" x="134.6909" y="-100.8" font-family="Times,serif" font-size="14.00" fill="#000000">is_a</text>
</g>
<!-- has_variable -->
<g id="node3" class="node">
<title>has_variable</title>
<g id="a_node3"><a xlink:href="emmodoc.html#has_variable" xlink:title="has_variable" target="_top">
<ellipse fill="#ffffcc" stroke="#000000" cx="469.2197" cy="-180" rx="69.5877" ry="18"/>
<text text-anchor="middle" x="469.2197" y="-176.3" font-family="Times,serif" font-size="14.00" fill="#000000">has_variable</text>
</a>
</g>
</g>
<!-- has_variable&#45;&gt;has_convention -->
<g id="edge2" class="edge">
<title>has_variable&#45;&gt;has_convention</title>
<path fill="none" stroke="#000000" d="M418.6242,-167.5435C387.7824,-159.9503 348.056,-150.1698 314.8975,-142.0063"/>
<polygon fill="none" stroke="#000000" points="315.3817,-138.521 304.8349,-139.5289 313.7083,-145.3181 315.3817,-138.521"/>
<text text-anchor="middle" x="365.0761" y="-159.8" font-family="Times,serif" font-size="14.00" fill="#000000">is_a</text>
</g>
<!-- has_property -->
<g id="node4" class="node">
<title>has_property</title>
<g id="a_node4"><a xlink:href="emmodoc.html#has_property" xlink:title="has_property" target="_top">
<ellipse fill="#ffffcc" stroke="#000000" cx="469.2197" cy="-126" rx="72.2875" ry="18"/>
<text text-anchor="middle" x="469.2197" y="-122.3" font-family="Times,serif" font-size="14.00" fill="#000000">has_property</text>
</a>
</g>
</g>
<!-- has_property&#45;&gt;has_convention -->
<g id="edge3" class="edge">
<title>has_property&#45;&gt;has_convention</title>
<path fill="none" stroke="#000000" d="M396.793,-126C379.7906,-126 361.4331,-126 343.6459,-126"/>
<polygon fill="none" stroke="#000000" points="343.2536,-122.5001 333.2535,-126 343.2535,-129.5001 343.2536,-122.5001"/>
<text text-anchor="middle" x="365.0761" y="-129.8" font-family="Times,serif" font-size="14.00" fill="#000000">is_a</text>
</g>
<!-- has_icon -->
<g id="node5" class="node">
<title>has_icon</title>
<g id="a_node5"><a xlink:href="emmodoc.html#has_icon" xlink:title="has_icon" target="_top">
<ellipse fill="#ffffcc" stroke="#000000" cx="249.8835" cy="-72" rx="51.1914" ry="18"/>
<text text-anchor="middle" x="249.8835" y="-68.3" font-family="Times,serif" font-size="14.00" fill="#000000">has_icon</text>
</a>
</g>
</g>
<!-- has_icon&#45;&gt;has_sign -->
<g id="edge4" class="edge">
<title>has_icon&#45;&gt;has_sign</title>
<path fill="none" stroke="#000000" d="M198.4968,-72C172.4157,-72 140.5361,-72 113.1262,-72"/>
<polygon fill="none" stroke="#000000" points="112.8614,-68.5001 102.8614,-72 112.8613,-75.5001 112.8614,-68.5001"/>
<text text-anchor="middle" x="134.6909" y="-75.8" font-family="Times,serif" font-size="14.00" fill="#000000">is_a</text>
</g>
<!-- has_model -->
<g id="node6" class="node">
<title>has_model</title>
<g id="a_node6"><a xlink:href="emmodoc.html#has_model" xlink:title="has_model" target="_top">
<ellipse fill="#ffffcc" stroke="#000000" cx="469.2197" cy="-72" rx="59.5901" ry="18"/>
<text text-anchor="middle" x="469.2197" y="-68.3" font-family="Times,serif" font-size="14.00" fill="#000000">has_model</text>
</a>
</g>
</g>
<!-- has_model&#45;&gt;has_icon -->
<g id="edge5" class="edge">
<title>has_model&#45;&gt;has_icon</title>
<path fill="none" stroke="#000000" d="M409.2851,-72C378.9727,-72 342.2289,-72 311.6619,-72"/>
<polygon fill="none" stroke="#000000" points="311.5507,-68.5001 301.5507,-72 311.5507,-75.5001 311.5507,-68.5001"/>
<text text-anchor="middle" x="365.0761" y="-75.8" font-family="Times,serif" font-size="14.00" fill="#000000">is_a</text>
</g>
<!-- has_index -->
<g id="node7" class="node">
<title>has_index</title>
<g id="a_node7"><a xlink:href="emmodoc.html#has_index" xlink:title="has_index" target="_top">
<ellipse fill="#ffffcc" stroke="#000000" cx="249.8835" cy="-18" rx="57.3905" ry="18"/>
<text text-anchor="middle" x="249.8835" y="-14.3" font-family="Times,serif" font-size="14.00" fill="#000000">has_index</text>
</a>
</g>
</g>
<!-- has_index&#45;&gt;has_sign -->
<g id="edge6" class="edge">
<title>has_index&#45;&gt;has_sign</title>
<path fill="none" stroke="#000000" d="M206.2208,-29.7955C181.1829,-36.5678 149.165,-45.2422 120.6909,-53 114.605,-54.6581 108.2198,-56.4019 101.8906,-58.133"/>
<polygon fill="none" stroke="#000000" points="100.7632,-54.8128 92.0419,-60.8286 102.6112,-61.5644 100.7632,-54.8128"/>
<text text-anchor="middle" x="134.6909" y="-56.8" font-family="Times,serif" font-size="14.00" fill="#000000">is_a</text>
</g>
</g>
</svg>
