<?xml version="1.0" encoding="UTF-8" standalone="no"?>
<!DOCTYPE svg PUBLIC "-//W3C//DTD SVG 1.1//EN"
 "http://www.w3.org/Graphics/SVG/1.1/DTD/svg11.dtd">
<!-- Generated by graphviz version 2.40.1 (0)
 -->
<!-- Title: G Pages: 1 -->
<svg width="300pt" height="77pt"
 viewBox="0.00 0.00 300.49 77.00" xmlns="http://www.w3.org/2000/svg" xmlns:xlink="http://www.w3.org/1999/xlink">
<g id="graph0" class="graph" transform="scale(1 1) rotate(0) translate(4 73)">
<title>G</title>
<polygon fill="#ffffff" stroke="transparent" points="-4,4 -4,-73 296.4873,-73 296.4873,4 -4,4"/>
<!-- Matter -->
<g id="node1" class="node">
<title>Matter</title>
<g id="a_node1"><a xlink:href="http://emmo.info/domains/emmo-material.owl#EMMO_5b2222df_4da6_442f_8244_96e9e45887d1" xlink:title="Matter" target="_top">
<ellipse fill="#ffffcc" stroke="#000000" stroke-width="3" cx="85.5" cy="-18" rx="42.7926" ry="18"/>
<text text-anchor="middle" x="85.5" y="-14.3" font-family="Times,serif" font-size="14.00" fill="#000000">Matter</text>
</a>
</g>
</g>
<!-- Matter&#45;&gt;Matter -->
<g id="edge2" class="edge">
<title>Matter&#45;&gt;Matter</title>
<path fill="none" stroke="#6b8e23" d="M98.7111,-35.4099C101.1771,-45.0879 96.7734,-54 85.5,-54 78.4541,-54 74.0917,-50.5187 72.4128,-45.5449"/>
<polygon fill="#6b8e23" stroke="#6b8e23" points="75.911,-45.3663 72.2889,-35.4099 68.9115,-45.452 75.911,-45.3663"/>
<text text-anchor="middle" x="85.5" y="-57.8" font-family="Times,serif" font-size="14.00" fill="#000000">hasTemporalPart only &#160;&#160;</text>
</g>
<!-- Material -->
<g id="node2" class="node">
<title>Material</title>
<g id="a_node2"><a xlink:href="http://emmo.info/domains/emmo-material.owl#EMMO_4207e895_8b83_4318_996a_72cfb32acd94" xlink:title="Material" target="_top">
<ellipse fill="#ffffcc" stroke="#000000" cx="242.4418" cy="-18" rx="50.0912" ry="18"/>
<text text-anchor="middle" x="242.4418" y="-14.3" font-family="Times,serif" font-size="14.00" fill="#000000">Material</text>
</a>
</g>
</g>
<!-- Material&#45;&gt;Matter -->
<g id="edge1" class="edge">
<title>Material&#45;&gt;Matter</title>
<path fill="none" stroke="#000000" d="M192.3529,-18C175.3408,-18 156.2718,-18 139.0035,-18"/>
<polygon fill="none" stroke="#000000" points="138.5188,-14.5001 128.5188,-18 138.5188,-21.5001 138.5188,-14.5001"/>
<text text-anchor="middle" x="160.3962" y="-21.8" font-family="Times,serif" font-size="14.00" fill="#000000">is_a</text>
</g>
</g>
</svg>
