<?xml version="1.0" encoding="UTF-8" standalone="no"?>
<!DOCTYPE svg PUBLIC "-//W3C//DTD SVG 1.1//EN"
 "http://www.w3.org/Graphics/SVG/1.1/DTD/svg11.dtd">
<!-- Generated by graphviz version 2.40.1 (0)
 -->
<!-- Title: G Pages: 1 -->
<svg width="807pt" height="312pt"
 viewBox="0.00 0.00 807.05 312.00" xmlns="http://www.w3.org/2000/svg" xmlns:xlink="http://www.w3.org/1999/xlink">
<g id="graph0" class="graph" transform="scale(1 1) rotate(0) translate(4 308)">
<title>G</title>
<polygon fill="#ffffff" stroke="transparent" points="-4,4 -4,-308 803.0496,-308 803.0496,4 -4,4"/>
<!-- matter -->
<g id="node1" class="node">
<title>matter</title>
<g id="a_node1"><a xlink:href="emmodoc.html#matter" xlink:title="matter" target="_top">
<ellipse fill="#ffc880" stroke="#000000" cx="42.2463" cy="-147" rx="42.4939" ry="18"/>
<text text-anchor="middle" x="42.2463" y="-143.3" font-family="Times,serif" font-size="14.00" fill="#000000">matter</text>
</a>
</g>
</g>
<!-- electron_cloud -->
<g id="node2" class="node">
<title>electron_cloud</title>
<g id="a_node2"><a xlink:href="emmodoc.html#electron_cloud" xlink:title="electron_cloud" target="_top">
<ellipse fill="#ffffcc" stroke="#000000" cx="227.7855" cy="-273" rx="79.0865" ry="18"/>
<text text-anchor="middle" x="227.7855" y="-269.3" font-family="Times,serif" font-size="14.00" fill="#000000">electron_cloud</text>
</a>
</g>
</g>
<!-- electron_cloud&#45;&gt;matter -->
<g id="edge1" class="edge">
<title>electron_cloud&#45;&gt;matter</title>
<path fill="none" stroke="#000000" d="M196.3255,-256.4254C181.5295,-248.3086 163.8127,-238.1204 148.4925,-228 120.6435,-209.6032 90.533,-186.2955 69.5025,-169.4103"/>
<polygon fill="none" stroke="#000000" points="71.6119,-166.615 61.634,-163.0522 67.2123,-172.0596 71.6119,-166.615"/>
<text text-anchor="middle" x="116.4925" y="-218.8" font-family="Times,serif" font-size="14.00" fill="#000000">is_a</text>
</g>
<!-- atom -->
<g id="node3" class="node">
<title>atom</title>
<g id="a_node3"><a xlink:href="emmodoc.html#atom" xlink:title="atom" target="_top">
<ellipse fill="#ffffcc" stroke="#000000" cx="227.7855" cy="-201" rx="34.394" ry="18"/>
<text text-anchor="middle" x="227.7855" y="-197.3" font-family="Times,serif" font-size="14.00" fill="#000000">atom</text>
</a>
</g>
</g>
<!-- atom&#45;&gt;matter -->
<g id="edge2" class="edge">
<title>atom&#45;&gt;matter</title>
<path fill="none" stroke="#000000" d="M197.0667,-192.7237C171.652,-185.8033 134.6409,-175.5567 102.4925,-166 97.1048,-164.3984 91.4597,-162.6766 85.8763,-160.9469"/>
<polygon fill="none" stroke="#000000" points="86.5502,-157.4906 75.9615,-157.8491 84.4626,-164.1721 86.5502,-157.4906"/>
<text text-anchor="middle" x="116.4925" y="-176.8" font-family="Times,serif" font-size="14.00" fill="#000000">is_a</text>
</g>
<!-- atom&#45;&gt;electron_cloud -->
<g id="edge12" class="edge">
<title>atom&#45;&gt;electron_cloud</title>
<path fill="none" stroke="#6b8e23" d="M227.7855,-219.1686C227.7855,-226.869 227.7855,-236.0257 227.7855,-244.5834"/>
<polygon fill="#6b8e23" stroke="#6b8e23" points="224.2856,-244.5867 227.7855,-254.5867 231.2856,-244.5868 224.2856,-244.5867"/>
<text text-anchor="middle" x="238.2855" y="-233.3" font-family="Times,serif" font-size="14.00" fill="#000000">hsdp&#45;e &#160;&#160;</text>
</g>
<!-- nucleus -->
<g id="node12" class="node">
<title>nucleus</title>
<g id="a_node12"><a xlink:href="emmodoc.html#nucleus" xlink:title="nucleus" target="_top">
<ellipse fill="#ffffcc" stroke="#000000" cx="227.7855" cy="-21" rx="46.5926" ry="18"/>
<text text-anchor="middle" x="227.7855" y="-17.3" font-family="Times,serif" font-size="14.00" fill="#000000">nucleus</text>
</a>
</g>
</g>
<!-- atom&#45;&gt;nucleus -->
<g id="edge13" class="edge">
<title>atom&#45;&gt;nucleus</title>
<path fill="none" stroke="#6b8e23" d="M261.2519,-196.3918C295.638,-189.6036 347.0246,-173.2157 368.0784,-134.5 393.2652,-88.1843 324.7174,-53.7156 274.7842,-35.532"/>
<polygon fill="#6b8e23" stroke="#6b8e23" points="275.6739,-32.1346 265.0791,-32.1137 273.3484,-38.7371 275.6739,-32.1346"/>
<text text-anchor="middle" x="358.5784" y="-123.3" font-family="Times,serif" font-size="14.00" fill="#000000">hsdp&#45;e &#160;&#160;</text>
</g>
<!-- standalone_atom -->
<g id="node4" class="node">
<title>standalone_atom</title>
<g id="a_node4"><a xlink:href="emmodoc.html#standalone_atom" xlink:title="standalone_atom" target="_top">
<ellipse fill="#ffffcc" stroke="#000000" cx="499.7705" cy="-259" rx="89.8845" ry="18"/>
<text text-anchor="middle" x="499.7705" y="-255.3" font-family="Times,serif" font-size="14.00" fill="#000000">standalone_atom</text>
</a>
</g>
</g>
<!-- standalone_atom&#45;&gt;atom -->
<g id="edge3" class="edge">
<title>standalone_atom&#45;&gt;atom</title>
<path fill="none" stroke="#000000" d="M415.9752,-252.3863C386.929,-249.0577 354.3261,-244.1523 325.0784,-237 304.265,-231.9102 281.7845,-223.7763 263.6814,-216.5269"/>
<polygon fill="none" stroke="#000000" points="264.6936,-213.1596 254.1128,-212.6153 262.0448,-219.6391 264.6936,-213.1596"/>
<text text-anchor="middle" x="358.5784" y="-252.8" font-family="Times,serif" font-size="14.00" fill="#000000">is_a</text>
</g>
<!-- neutral_atom -->
<g id="node5" class="node">
<title>neutral_atom</title>
<g id="a_node5"><a xlink:href="emmodoc.html#neutral_atom" xlink:title="neutral_atom" target="_top">
<ellipse fill="#ffffcc" stroke="#000000" cx="726.2561" cy="-286" rx="72.5877" ry="18"/>
<text text-anchor="middle" x="726.2561" y="-282.3" font-family="Times,serif" font-size="14.00" fill="#000000">neutral_atom</text>
</a>
</g>
</g>
<!-- neutral_atom&#45;&gt;standalone_atom -->
<g id="edge4" class="edge">
<title>neutral_atom&#45;&gt;standalone_atom</title>
<path fill="none" stroke="#000000" d="M660.4428,-278.1542C637.4847,-275.4173 611.3521,-272.302 586.9309,-269.3906"/>
<polygon fill="none" stroke="#000000" points="587.2911,-265.9089 576.947,-268.2004 586.4624,-272.8597 587.2911,-265.9089"/>
<text text-anchor="middle" x="621.4625" y="-277.8" font-family="Times,serif" font-size="14.00" fill="#000000">is_a</text>
</g>
<!-- ion_atom -->
<g id="node6" class="node">
<title>ion_atom</title>
<g id="a_node6"><a xlink:href="emmodoc.html#ion_atom" xlink:title="ion_atom" target="_top">
<ellipse fill="#ffffcc" stroke="#000000" cx="726.2561" cy="-232" rx="53.0913" ry="18"/>
<text text-anchor="middle" x="726.2561" y="-228.3" font-family="Times,serif" font-size="14.00" fill="#000000">ion_atom</text>
</a>
</g>
</g>
<!-- ion_atom&#45;&gt;standalone_atom -->
<g id="edge5" class="edge">
<title>ion_atom&#45;&gt;standalone_atom</title>
<path fill="none" stroke="#000000" d="M675.9916,-237.9922C649.8815,-241.1048 617.222,-244.9983 587.1368,-248.5848"/>
<polygon fill="none" stroke="#000000" points="586.5612,-245.1285 577.0459,-249.7878 587.3899,-252.0793 586.5612,-245.1285"/>
<text text-anchor="middle" x="621.4625" y="-248.8" font-family="Times,serif" font-size="14.00" fill="#000000">is_a</text>
</g>
<!-- e&#45;bonded_atom -->
<g id="node7" class="node">
<title>e&#45;bonded_atom</title>
<g id="a_node7"><a xlink:href="emmodoc.html#e-bonded_atom" xlink:title="e&#45;bonded_atom" target="_top">
<ellipse fill="#ffffcc" stroke="#000000" cx="499.7705" cy="-200" rx="81.4863" ry="18"/>
<text text-anchor="middle" x="499.7705" y="-196.3" font-family="Times,serif" font-size="14.00" fill="#000000">e&#45;bonded_atom</text>
</a>
</g>
</g>
<!-- e&#45;bonded_atom&#45;&gt;atom -->
<g id="edge6" class="edge">
<title>e&#45;bonded_atom&#45;&gt;atom</title>
<path fill="none" stroke="#000000" d="M418.5344,-200.2987C370.6849,-200.4746 311.978,-200.6905 272.4345,-200.8358"/>
<polygon fill="none" stroke="#000000" points="272.301,-197.3362 262.3139,-200.8731 272.3268,-204.3362 272.301,-197.3362"/>
<text text-anchor="middle" x="358.5784" y="-203.8" font-family="Times,serif" font-size="14.00" fill="#000000">is_a</text>
</g>
<!-- molecule -->
<g id="node8" class="node">
<title>molecule</title>
<g id="a_node8"><a xlink:href="emmodoc.html#molecule" xlink:title="molecule" target="_top">
<ellipse fill="#ffffcc" stroke="#000000" cx="227.7855" cy="-147" rx="52.7911" ry="18"/>
<text text-anchor="middle" x="227.7855" y="-143.3" font-family="Times,serif" font-size="14.00" fill="#000000">molecule</text>
</a>
</g>
</g>
<!-- molecule&#45;&gt;matter -->
<g id="edge7" class="edge">
<title>molecule&#45;&gt;matter</title>
<path fill="none" stroke="#000000" d="M175.1137,-147C149.9723,-147 119.9657,-147 94.835,-147"/>
<polygon fill="none" stroke="#000000" points="94.7509,-143.5001 84.7509,-147 94.7508,-150.5001 94.7509,-143.5001"/>
<text text-anchor="middle" x="116.4925" y="-150.8" font-family="Times,serif" font-size="14.00" fill="#000000">is_a</text>
</g>
<!-- molecule&#45;&gt;electron_cloud -->
<g id="edge15" class="edge">
<title>molecule&#45;&gt;electron_cloud</title>
<path fill="none" stroke="#6b8e23" d="M272.481,-156.5285C324.1144,-169.6138 398.3312,-196.0986 368.0784,-235.5 355.3455,-252.0834 336.1398,-261.8579 315.9911,-267.4946"/>
<polygon fill="#6b8e23" stroke="#6b8e23" points="314.9225,-264.153 306.0484,-269.941 316.5951,-270.9503 314.9225,-264.153"/>
<text text-anchor="middle" x="358.5784" y="-224.3" font-family="Times,serif" font-size="14.00" fill="#000000">hsdp&#45;e &#160;&#160;</text>
</g>
<!-- molecule&#45;&gt;e&#45;bonded_atom -->
<g id="edge14" class="edge">
<title>molecule&#45;&gt;e&#45;bonded_atom</title>
<path fill="none" stroke="#6b8e23" d="M273.8122,-155.9689C316.2542,-164.2393 379.8993,-176.6415 428.8382,-186.1779"/>
<polygon fill="#6b8e23" stroke="#6b8e23" points="428.2469,-189.6284 438.7317,-188.1058 429.5858,-182.7576 428.2469,-189.6284"/>
<text text-anchor="middle" x="358.5784" y="-181.8" font-family="Times,serif" font-size="14.00" fill="#000000">hsdp&#45;m &#160;&#160;</text>
</g>
<!-- nucleon -->
<g id="node9" class="node">
<title>nucleon</title>
<g id="a_node9"><a xlink:href="emmodoc.html#nucleon" xlink:title="nucleon" target="_top">
<ellipse fill="#ffffcc" stroke="#000000" cx="227.7855" cy="-93" rx="47.3916" ry="18"/>
<text text-anchor="middle" x="227.7855" y="-89.3" font-family="Times,serif" font-size="14.00" fill="#000000">nucleon</text>
</a>
</g>
</g>
<!-- nucleon&#45;&gt;matter -->
<g id="edge8" class="edge">
<title>nucleon&#45;&gt;matter</title>
<path fill="none" stroke="#000000" d="M189.0273,-103.471C164.2246,-110.2596 131.3935,-119.4086 102.4925,-128 97.1048,-129.6016 91.4597,-131.3234 85.8763,-133.0531"/>
<polygon fill="none" stroke="#000000" points="84.4626,-129.8279 75.9615,-136.1509 86.5502,-136.5094 84.4626,-129.8279"/>
<text text-anchor="middle" x="116.4925" y="-131.8" font-family="Times,serif" font-size="14.00" fill="#000000">is_a</text>
</g>
<!-- proton -->
<g id="node10" class="node">
<title>proton</title>
<g id="a_node10"><a xlink:href="emmodoc.html#proton" xlink:title="proton" target="_top">
<ellipse fill="#ffffcc" stroke="#000000" cx="499.7705" cy="-94" rx="41.6928" ry="18"/>
<text text-anchor="middle" x="499.7705" y="-90.3" font-family="Times,serif" font-size="14.00" fill="#000000">proton</text>
</a>
</g>
</g>
<!-- proton&#45;&gt;nucleon -->
<g id="edge9" class="edge">
<title>proton&#45;&gt;nucleon</title>
<path fill="none" stroke="#000000" d="M458.1657,-93.847C411.9879,-93.6773 337.1589,-93.4021 285.371,-93.2117"/>
<polygon fill="none" stroke="#000000" points="285.3488,-89.7117 275.336,-93.1748 285.323,-96.7117 285.3488,-89.7117"/>
<text text-anchor="middle" x="358.5784" y="-96.8" font-family="Times,serif" font-size="14.00" fill="#000000">is_a</text>
</g>
<!-- neutron -->
<g id="node11" class="node">
<title>neutron</title>
<g id="a_node11"><a xlink:href="emmodoc.html#neutron" xlink:title="neutron" target="_top">
<ellipse fill="#ffffcc" stroke="#000000" cx="499.7705" cy="-18" rx="47.3916" ry="18"/>
<text text-anchor="middle" x="499.7705" y="-14.3" font-family="Times,serif" font-size="14.00" fill="#000000">neutron</text>
</a>
</g>
</g>
<!-- neutron&#45;&gt;nucleon -->
<g id="edge10" class="edge">
<title>neutron&#45;&gt;nucleon</title>
<path fill="none" stroke="#000000" d="M454.8509,-12.0726C418.1882,-9.2362 365.9522,-9.8746 325.0784,-29 314.5426,-33.9299 316.237,-40.8286 307.0784,-48 294.6237,-57.7524 279.8091,-66.7483 266.3753,-74.0922"/>
<polygon fill="none" stroke="#000000" points="264.5238,-71.1128 257.3414,-78.9015 267.8133,-77.2917 264.5238,-71.1128"/>
<text text-anchor="middle" x="358.5784" y="-32.8" font-family="Times,serif" font-size="14.00" fill="#000000">is_a</text>
</g>
<!-- nucleus&#45;&gt;matter -->
<g id="edge11" class="edge">
<title>nucleus&#45;&gt;matter</title>
<path fill="none" stroke="#000000" d="M200.0876,-35.5292C184.6073,-43.9423 165.1386,-55.0152 148.4925,-66 127.0509,-80.1494 122.9238,-85.4272 102.4925,-101 92.1899,-108.8527 80.9026,-117.4677 70.9112,-125.0977"/>
<polygon fill="none" stroke="#000000" points="68.696,-122.3855 62.8733,-131.2369 72.9449,-127.9485 68.696,-122.3855"/>
<text text-anchor="middle" x="116.4925" y="-104.8" font-family="Times,serif" font-size="14.00" fill="#000000">is_a</text>
</g>
<!-- nucleus&#45;&gt;nucleon -->
<g id="edge16" class="edge">
<title>nucleus&#45;&gt;nucleon</title>
<path fill="none" stroke="#6b8e23" d="M227.7855,-39.1686C227.7855,-46.869 227.7855,-56.0257 227.7855,-64.5834"/>
<polygon fill="#6b8e23" stroke="#6b8e23" points="224.2856,-64.5867 227.7855,-74.5867 231.2856,-64.5868 224.2856,-64.5867"/>
<text text-anchor="middle" x="238.2855" y="-53.3" font-family="Times,serif" font-size="14.00" fill="#000000">hsdp&#45;s &#160;&#160;</text>
</g>
<!-- nucleus&#45;&gt;proton -->
<g id="edge17" class="edge">
<title>nucleus&#45;&gt;proton</title>
<path fill="none" stroke="#6b8e23" d="M266.4249,-31.3707C316.0062,-44.6782 401.8762,-67.7255 454.4763,-81.8432"/>
<polygon fill="#6b8e23" stroke="#6b8e23" points="453.6477,-85.2446 464.2132,-84.4565 455.4623,-78.4839 453.6477,-85.2446"/>
<text text-anchor="middle" x="358.5784" y="-67.8" font-family="Times,serif" font-size="14.00" fill="#000000">hsdp&#45;m &#160;&#160;</text>
</g>
</g>
</svg>
