<?xml version="1.0" encoding="UTF-8" standalone="no"?>
<!DOCTYPE svg PUBLIC "-//W3C//DTD SVG 1.1//EN"
 "http://www.w3.org/Graphics/SVG/1.1/DTD/svg11.dtd">
<!-- Generated by graphviz version 2.40.1 (0)
 -->
<!-- Title: G Pages: 1 -->
<svg width="400pt" height="164pt"
 viewBox="0.00 0.00 399.57 164.00" xmlns="http://www.w3.org/2000/svg" xmlns:xlink="http://www.w3.org/1999/xlink">
<g id="graph0" class="graph" transform="scale(1 1) rotate(0) translate(4 160)">
<title>G</title>
<polygon fill="#ffffff" stroke="transparent" points="-4,4 -4,-160 395.5709,-160 395.5709,4 -4,4"/>
<!-- mereotopological -->
<g id="node1" class="node">
<title>mereotopological</title>
<g id="a_node1"><a xlink:href="http://emmo.info/base/emmo-mereotopology.owl#EMMO_03212fd7_abfd_4828_9c8e_62c293052d4b" xlink:title="mereotopological" target="_top">
<ellipse fill="#ffffcc" stroke="#000000" stroke-width="3" cx="90.9919" cy="-61" rx="90.9839" ry="18"/>
<text text-anchor="middle" x="90.9919" y="-57.3" font-family="Times,serif" font-size="14.00" fill="#000000">mereotopological</text>
</a>
</g>
</g>
<!-- connected -->
<g id="node2" class="node">
<title>connected</title>
<g id="a_node2"><a xlink:href="http://emmo.info/base/emmo-mereotopology.owl#EMMO_6703954e_34c4_4a15_a9e7_f313760ae1a8" xlink:title="connected" target="_top">
<ellipse fill="#ffffcc" stroke="#000000" stroke-width="3" cx="318.7774" cy="-105" rx="59.2899" ry="18"/>
<text text-anchor="middle" x="318.7774" y="-101.3" font-family="Times,serif" font-size="14.00" fill="#000000">connected</text>
</a>
</g>
</g>
<!-- connected&#45;&gt;mereotopological -->
<g id="edge1" class="edge">
<title>connected&#45;&gt;mereotopological</title>
<path fill="none" stroke="#000000" d="M268.7889,-95.344C238.8805,-89.5668 200.2793,-82.1104 166.6905,-75.6223"/>
<polygon fill="none" stroke="#000000" points="166.9248,-72.1029 156.4425,-73.6427 165.5972,-78.9758 166.9248,-72.1029"/>
<text text-anchor="middle" x="213.9839" y="-89.8" font-family="Times,serif" font-size="14.00" fill="#000000">is_a</text>
</g>
<!-- connected&#45;&gt;connected -->
<g id="edge3" class="edge">
<title>connected&#45;&gt;connected</title>
<path fill="none" stroke="#ffa500" d="M337.3443,-122.4099C340.8101,-132.0879 334.6211,-141 318.7774,-141 308.875,-141 302.7441,-137.5187 300.3846,-132.5449"/>
<polygon fill="#ffa500" stroke="#ffa500" points="303.8818,-132.3483 300.2105,-122.4099 296.8828,-132.4686 303.8818,-132.3483"/>
<text text-anchor="middle" x="318.7774" y="-144.8" font-family="Times,serif" font-size="14.00" fill="#000000">connected</text>
</g>
<!-- disconnected -->
<g id="node3" class="node">
<title>disconnected</title>
<g id="a_node3"><a xlink:href="http://emmo.info/base/emmo-mereotopology.owl#EMMO_517dfaf9_4970_41ac_81ee_d031627d2c7c" xlink:title="disconnected" target="_top">
<ellipse fill="#ffffcc" stroke="#000000" cx="318.7774" cy="-18" rx="72.5877" ry="18"/>
<text text-anchor="middle" x="318.7774" y="-14.3" font-family="Times,serif" font-size="14.00" fill="#000000">disconnected</text>
</a>
</g>
</g>
<!-- disconnected&#45;&gt;mereotopological -->
<g id="edge2" class="edge">
<title>disconnected&#45;&gt;mereotopological</title>
<path fill="none" stroke="#000000" d="M260.7081,-28.962C232.2864,-34.3273 197.7028,-40.8557 167.1884,-46.6161"/>
<polygon fill="none" stroke="#000000" points="166.1879,-43.243 157.0107,-48.5374 167.4865,-50.1216 166.1879,-43.243"/>
<text text-anchor="middle" x="213.9839" y="-42.8" font-family="Times,serif" font-size="14.00" fill="#000000">is_a</text>
</g>
<!-- disconnected&#45;&gt;disconnected -->
<g id="edge4" class="edge">
<title>disconnected&#45;&gt;disconnected</title>
<path fill="none" stroke="#ffa500" d="M337.3443,-35.4099C340.8101,-45.0879 334.6211,-54 318.7774,-54 308.875,-54 302.7441,-50.5187 300.3846,-45.5449"/>
<polygon fill="#ffa500" stroke="#ffa500" points="303.8818,-45.3483 300.2105,-35.4099 296.8828,-45.4686 303.8818,-45.3483"/>
<text text-anchor="middle" x="318.7774" y="-57.8" font-family="Times,serif" font-size="14.00" fill="#000000">disconnected</text>
</g>
</g>
</svg>
