<?xml version="1.0" encoding="UTF-8" standalone="no"?>
<!DOCTYPE svg PUBLIC "-//W3C//DTD SVG 1.1//EN"
 "http://www.w3.org/Graphics/SVG/1.1/DTD/svg11.dtd">
<!-- Generated by graphviz version 2.40.1 (0)
 -->
<!-- Title: G Pages: 1 -->
<svg width="534pt" height="386pt"
 viewBox="0.00 0.00 533.78 386.00" xmlns="http://www.w3.org/2000/svg" xmlns:xlink="http://www.w3.org/1999/xlink">
<g id="graph0" class="graph" transform="scale(1 1) rotate(0) translate(4 382)">
<title>G</title>
<polygon fill="#ffffff" stroke="transparent" points="-4,4 -4,-382 529.7757,-382 529.7757,4 -4,4"/>
<!-- physical -->
<g id="node1" class="node">
<title>physical</title>
<g id="a_node1"><a xlink:href="emmodoc.html#physical" xlink:title="physical" target="_top">
<ellipse fill="#ffffcc" stroke="#000000" cx="91.5" cy="-180" rx="49.2915" ry="18"/>
<text text-anchor="middle" x="91.5" y="-176.3" font-family="Times,serif" font-size="14.00" fill="#000000">physical</text>
</a>
</g>
</g>
<!-- physical&#45;&gt;physical -->
<g id="edge10" class="edge">
<title>physical&#45;&gt;physical</title>
<path fill="none" stroke="#6b8e23" d="M105.7822,-197.4099C108.4482,-207.0879 103.6875,-216 91.5,-216 83.8828,-216 79.1667,-212.5187 77.3517,-207.5449"/>
<polygon fill="#6b8e23" stroke="#6b8e23" points="80.8497,-207.3628 77.2178,-197.4099 73.8503,-207.4553 80.8497,-207.3628"/>
<text text-anchor="middle" x="91.5" y="-219.8" font-family="Times,serif" font-size="14.00" fill="#000000">has_temporal_part only &#160;&#160;</text>
</g>
<!-- process -->
<g id="node2" class="node">
<title>process</title>
<g id="a_node2"><a xlink:href="emmodoc.html#process" xlink:title="process" target="_top">
<ellipse fill="#ffffcc" stroke="#000000" cx="267.2901" cy="-360" rx="46.5926" ry="18"/>
<text text-anchor="middle" x="267.2901" y="-356.3" font-family="Times,serif" font-size="14.00" fill="#000000">process</text>
</a>
</g>
</g>
<!-- process&#45;&gt;physical -->
<g id="edge1" class="edge">
<title>process&#45;&gt;physical</title>
<path fill="none" stroke="#000000" d="M243.4583,-344.2435C231.5137,-335.9938 217.0447,-325.4528 204.8956,-315 166.4155,-281.8926 130.2024,-235.0241 109.4684,-206.1187"/>
<polygon fill="none" stroke="#000000" points="112.1828,-203.8955 103.5453,-197.7599 106.4713,-207.9427 112.1828,-203.8955"/>
<text text-anchor="middle" x="172.8956" y="-298.8" font-family="Times,serif" font-size="14.00" fill="#000000">is_a</text>
</g>
<!-- participant -->
<g id="node3" class="node">
<title>participant</title>
<g id="a_node3"><a xlink:href="emmodoc.html#participant" xlink:title="participant" target="_top">
<ellipse fill="#ffffcc" stroke="#000000" cx="267.2901" cy="-288" rx="62.2891" ry="18"/>
<text text-anchor="middle" x="267.2901" y="-284.3" font-family="Times,serif" font-size="14.00" fill="#000000">participant</text>
</a>
</g>
</g>
<!-- process&#45;&gt;participant -->
<g id="edge11" class="edge">
<title>process&#45;&gt;participant</title>
<path fill="none" stroke="#6b8e23" d="M267.2901,-341.5867C267.2901,-333.9407 267.2901,-324.8916 267.2901,-316.4274"/>
<polygon fill="#6b8e23" stroke="#6b8e23" points="270.7902,-316.1686 267.2901,-306.1686 263.7902,-316.1687 270.7902,-316.1686"/>
<text text-anchor="middle" x="277.7901" y="-320.3" font-family="Times,serif" font-size="14.00" fill="#000000">has_participant some &#160;&#160;</text>
</g>
<!-- participant&#45;&gt;physical -->
<g id="edge2" class="edge">
<title>participant&#45;&gt;physical</title>
<path fill="none" stroke="#000000" d="M230.0398,-273.4164C221.6056,-269.6952 212.8081,-265.4711 204.8956,-261 174.4518,-243.7973 142.2383,-220.1998 119.9577,-202.912"/>
<polygon fill="none" stroke="#000000" points="121.9595,-200.0341 111.9292,-196.6217 117.6423,-205.5442 121.9595,-200.0341"/>
<text text-anchor="middle" x="172.8956" y="-252.8" font-family="Times,serif" font-size="14.00" fill="#000000">is_a</text>
</g>
<!-- semiotic -->
<g id="node4" class="node">
<title>semiotic</title>
<g id="a_node4"><a xlink:href="emmodoc.html#semiotic" xlink:title="semiotic" target="_top">
<ellipse fill="#ffffcc" stroke="#000000" cx="475.7301" cy="-288" rx="50.0912" ry="18"/>
<text text-anchor="middle" x="475.7301" y="-284.3" font-family="Times,serif" font-size="14.00" fill="#000000">semiotic</text>
</a>
</g>
</g>
<!-- semiotic&#45;&gt;participant -->
<g id="edge3" class="edge">
<title>semiotic&#45;&gt;participant</title>
<path fill="none" stroke="#000000" d="M425.5383,-288C399.8965,-288 368.2237,-288 339.9665,-288"/>
<polygon fill="none" stroke="#000000" points="339.728,-284.5001 329.728,-288 339.728,-291.5001 339.728,-284.5001"/>
<text text-anchor="middle" x="377.6845" y="-291.8" font-family="Times,serif" font-size="14.00" fill="#000000">is_a</text>
</g>
<!-- existent -->
<g id="node5" class="node">
<title>existent</title>
<g id="a_node5"><a xlink:href="emmodoc.html#existent" xlink:title="existent" target="_top">
<ellipse fill="#ffffcc" stroke="#000000" cx="267.2901" cy="-234" rx="48.1917" ry="18"/>
<text text-anchor="middle" x="267.2901" y="-230.3" font-family="Times,serif" font-size="14.00" fill="#000000">existent</text>
</a>
</g>
</g>
<!-- existent&#45;&gt;physical -->
<g id="edge4" class="edge">
<title>existent&#45;&gt;physical</title>
<path fill="none" stroke="#000000" d="M230.0095,-222.548C203.504,-214.4059 167.6832,-203.4023 139.1101,-194.6251"/>
<polygon fill="none" stroke="#000000" points="139.9198,-191.2125 129.3328,-191.6217 137.8642,-197.9039 139.9198,-191.2125"/>
<text text-anchor="middle" x="172.8956" y="-211.8" font-family="Times,serif" font-size="14.00" fill="#000000">is_a</text>
</g>
<!-- state -->
<g id="node6" class="node">
<title>state</title>
<g id="a_node6"><a xlink:href="emmodoc.html#state" xlink:title="state" target="_top">
<ellipse fill="#ffffcc" stroke="#000000" cx="475.7301" cy="-234" rx="34.394" ry="18"/>
<text text-anchor="middle" x="475.7301" y="-230.3" font-family="Times,serif" font-size="14.00" fill="#000000">state</text>
</a>
</g>
</g>
<!-- existent&#45;&gt;state -->
<g id="edge12" class="edge">
<title>existent&#45;&gt;state</title>
<path fill="none" stroke="#6b8e23" d="M305.8135,-222.9803C318.9777,-219.7286 333.8665,-216.6107 347.6845,-215 374.1719,-211.9126 381.2646,-211.3807 407.6845,-215 417.425,-216.3344 427.7369,-218.6959 437.3073,-221.3104"/>
<polygon fill="#6b8e23" stroke="#6b8e23" points="436.379,-224.6853 446.9574,-224.0943 438.3193,-217.9596 436.379,-224.6853"/>
<text text-anchor="middle" x="377.6845" y="-218.8" font-family="Times,serif" font-size="14.00" fill="#000000">htdp&#45;o &#160;&#160;</text>
</g>
<!-- state&#45;&gt;existent -->
<g id="edge5" class="edge">
<title>state&#45;&gt;existent</title>
<path fill="none" stroke="#000000" d="M440.8419,-234C409.4853,-234 362.8045,-234 325.7517,-234"/>
<polygon fill="none" stroke="#000000" points="325.577,-230.5001 315.5769,-234 325.5769,-237.5001 325.577,-230.5001"/>
<text text-anchor="middle" x="377.6845" y="-237.8" font-family="Times,serif" font-size="14.00" fill="#000000">is_a</text>
</g>
<!-- matter -->
<g id="node7" class="node">
<title>matter</title>
<g id="a_node7"><a xlink:href="emmodoc.html#matter" xlink:title="matter" target="_top">
<ellipse fill="#ffc880" stroke="#000000" cx="267.2901" cy="-180" rx="42.4939" ry="18"/>
<text text-anchor="middle" x="267.2901" y="-176.3" font-family="Times,serif" font-size="14.00" fill="#000000">matter</text>
</a>
</g>
</g>
<!-- matter&#45;&gt;physical -->
<g id="edge6" class="edge">
<title>matter&#45;&gt;physical</title>
<path fill="none" stroke="#000000" d="M224.7362,-180C202.6863,-180 175.3939,-180 151.2636,-180"/>
<polygon fill="none" stroke="#000000" points="151.1402,-176.5001 141.1402,-180 151.1402,-183.5001 151.1402,-176.5001"/>
<text text-anchor="middle" x="172.8956" y="-183.8" font-family="Times,serif" font-size="14.00" fill="#000000">is_a</text>
</g>
<!-- vacuum -->
<g id="node8" class="node">
<title>vacuum</title>
<g id="a_node8"><a xlink:href="emmodoc.html#vacuum" xlink:title="vacuum" target="_top">
<ellipse fill="#ffc880" stroke="#000000" cx="267.2901" cy="-126" rx="47.3916" ry="18"/>
<text text-anchor="middle" x="267.2901" y="-122.3" font-family="Times,serif" font-size="14.00" fill="#000000">vacuum</text>
</a>
</g>
</g>
<!-- vacuum&#45;&gt;physical -->
<g id="edge7" class="edge">
<title>vacuum&#45;&gt;physical</title>
<path fill="none" stroke="#000000" d="M230.0095,-137.452C203.504,-145.5941 167.6832,-156.5977 139.1101,-165.3749"/>
<polygon fill="none" stroke="#000000" points="137.8642,-162.0961 129.3328,-168.3783 139.9198,-168.7875 137.8642,-162.0961"/>
<text text-anchor="middle" x="172.8956" y="-160.8" font-family="Times,serif" font-size="14.00" fill="#000000">is_a</text>
</g>
<!-- field -->
<g id="node9" class="node">
<title>field</title>
<g id="a_node9"><a xlink:href="emmodoc.html#field" xlink:title="field" target="_top">
<ellipse fill="#ffc880" stroke="#000000" cx="267.2901" cy="-72" rx="31.3957" ry="18"/>
<text text-anchor="middle" x="267.2901" y="-68.3" font-family="Times,serif" font-size="14.00" fill="#000000">field</text>
</a>
</g>
</g>
<!-- field&#45;&gt;physical -->
<g id="edge8" class="edge">
<title>field&#45;&gt;physical</title>
<path fill="none" stroke="#000000" d="M240.8924,-81.9704C229.5473,-86.6226 216.302,-92.5547 204.8956,-99 174.4518,-116.2027 142.2383,-139.8002 119.9577,-157.088"/>
<polygon fill="none" stroke="#000000" points="117.6423,-154.4558 111.9292,-163.3783 121.9595,-159.9659 117.6423,-154.4558"/>
<text text-anchor="middle" x="172.8956" y="-130.8" font-family="Times,serif" font-size="14.00" fill="#000000">is_a</text>
</g>
<!-- symbolic -->
<g id="node10" class="node">
<title>symbolic</title>
<g id="a_node10"><a xlink:href="emmodoc.html#symbolic" xlink:title="symbolic" target="_top">
<ellipse fill="#ffffcc" stroke="#000000" cx="267.2901" cy="-18" rx="51.9908" ry="18"/>
<text text-anchor="middle" x="267.2901" y="-14.3" font-family="Times,serif" font-size="14.00" fill="#000000">symbolic</text>
</a>
</g>
</g>
<!-- symbolic&#45;&gt;physical -->
<g id="edge9" class="edge">
<title>symbolic&#45;&gt;physical</title>
<path fill="none" stroke="#000000" d="M231.0938,-30.9245C222.179,-34.8346 212.9006,-39.5599 204.8956,-45 162.4521,-73.8444 126.9659,-122.8099 107.5285,-153.1702"/>
<polygon fill="none" stroke="#000000" points="104.3689,-151.6207 102.0214,-161.9522 110.2994,-155.3396 104.3689,-151.6207"/>
<text text-anchor="middle" x="172.8956" y="-85.8" font-family="Times,serif" font-size="14.00" fill="#000000">is_a</text>
</g>
</g>
</svg>
