<?xml version="1.0" encoding="UTF-8" standalone="no"?>
<!DOCTYPE svg PUBLIC "-//W3C//DTD SVG 1.1//EN"
 "http://www.w3.org/Graphics/SVG/1.1/DTD/svg11.dtd">
<!-- Generated by graphviz version 2.40.1 (0)
 -->
<!-- Title: G Pages: 1 -->
<svg width="684pt" height="294pt"
 viewBox="0.00 0.00 683.91 294.00" xmlns="http://www.w3.org/2000/svg" xmlns:xlink="http://www.w3.org/1999/xlink">
<g id="graph0" class="graph" transform="scale(1 1) rotate(0) translate(4 290)">
<title>G</title>
<polygon fill="#ffffff" stroke="transparent" points="-4,4 -4,-290 679.9146,-290 679.9146,4 -4,4"/>
<!-- Physical -->
<g id="node1" class="node">
<title>Physical</title>
<g id="a_node1"><a xlink:href="http://emmo.info/base/emmo-physical.owl#EMMO_c5ddfdba_c074_4aa4_ad6b_1ac4942d300d" xlink:title="Physical" target="_top">
<ellipse fill="#ffffcc" stroke="#000000" stroke-width="3" cx="85.5" cy="-126" rx="50.0912" ry="18"/>
<text text-anchor="middle" x="85.5" y="-122.3" font-family="Times,serif" font-size="14.00" fill="#000000">Physical</text>
</a>
</g>
</g>
<!-- Physical&#45;&gt;Physical -->
<g id="edge13" class="edge">
<title>Physical&#45;&gt;Physical</title>
<path fill="none" stroke="#6b8e23" d="M100.1393,-143.4099C102.8719,-153.0879 97.9922,-162 85.5,-162 77.6924,-162 72.8584,-158.5187 70.998,-153.5449"/>
<polygon fill="#6b8e23" stroke="#6b8e23" points="74.4959,-153.3616 70.8607,-143.4099 67.4965,-153.4564 74.4959,-153.3616"/>
<text text-anchor="middle" x="85.5" y="-165.8" font-family="Times,serif" font-size="14.00" fill="#000000">hasTemporalPart only &#160;&#160;</text>
</g>
<!-- Existent -->
<g id="node2" class="node">
<title>Existent</title>
<g id="a_node2"><a xlink:href="http://emmo.info/perspectives/emmo-existent.owl#EMMO_52211e5e_d767_4812_845e_eb6b402c476a" xlink:title="Existent" target="_top">
<ellipse fill="#ffffcc" stroke="#000000" cx="262.59" cy="-180" rx="50.0912" ry="18"/>
<text text-anchor="middle" x="262.59" y="-176.3" font-family="Times,serif" font-size="14.00" fill="#000000">Existent</text>
</a>
</g>
</g>
<!-- Existent&#45;&gt;Physical -->
<g id="edge1" class="edge">
<title>Existent&#45;&gt;Physical</title>
<path fill="none" stroke="#000000" d="M224.1641,-168.2828C197.593,-160.1805 162.0436,-149.3404 133.5921,-140.6647"/>
<polygon fill="none" stroke="#000000" points="134.437,-137.2633 123.8509,-137.6943 132.3952,-143.9589 134.437,-137.2633"/>
<text text-anchor="middle" x="167.5456" y="-157.8" font-family="Times,serif" font-size="14.00" fill="#000000">is_a</text>
</g>
<!-- State -->
<g id="node3" class="node">
<title>State</title>
<g id="a_node3"><a xlink:href="http://emmo.info/perspectives/emmo-existent.owl#EMMO_36c79456_e29c_400d_8bd3_0eedddb82652" xlink:title="State" target="_top">
<ellipse fill="#ffffcc" stroke="#000000" cx="435.1303" cy="-180" rx="35.9954" ry="18"/>
<text text-anchor="middle" x="435.1303" y="-176.3" font-family="Times,serif" font-size="14.00" fill="#000000">State</text>
</a>
</g>
</g>
<!-- State&#45;&gt;Existent -->
<g id="edge2" class="edge">
<title>State&#45;&gt;Existent</title>
<path fill="none" stroke="#000000" d="M399.3799,-180C377.3442,-180 348.519,-180 323.0142,-180"/>
<polygon fill="none" stroke="#000000" points="322.6877,-176.5001 312.6877,-180 322.6877,-183.5001 322.6877,-176.5001"/>
<text text-anchor="middle" x="357.6344" y="-183.8" font-family="Times,serif" font-size="14.00" fill="#000000">is_a</text>
</g>
<!-- Elementary -->
<g id="node4" class="node">
<title>Elementary</title>
<g id="a_node4"><a xlink:href="http://emmo.info/base/emmo-physical.owl#EMMO_0f795e3e_c602_4577_9a43_d5a231aa1360" xlink:title="Elementary" target="_top">
<ellipse fill="#ffffcc" stroke="#000000" stroke-width="3" cx="610.2705" cy="-268" rx="64.9885" ry="18"/>
<text text-anchor="middle" x="610.2705" y="-264.3" font-family="Times,serif" font-size="14.00" fill="#000000">Elementary</text>
</a>
</g>
</g>
<!-- Elementary&#45;&gt;Physical -->
<g id="edge9" class="edge">
<title>Elementary&#45;&gt;Physical</title>
<path fill="none" stroke="#000000" d="M545.2295,-267.6006C462.1401,-265.0413 315.2461,-253.5485 199.5456,-207 166.1822,-193.5773 133.2571,-168.5807 111.4265,-149.8911"/>
<polygon fill="none" stroke="#000000" points="113.4584,-147.0187 103.6252,-143.0742 108.8524,-152.2898 113.4584,-147.0187"/>
<text text-anchor="middle" x="357.6344" y="-254.8" font-family="Times,serif" font-size="14.00" fill="#000000">is_a</text>
</g>
<!-- Elementary&#45;&gt;State -->
<g id="edge3" class="edge">
<title>Elementary&#45;&gt;State</title>
<path fill="none" stroke="#000000" d="M572.4747,-253.2671C563.2776,-249.4597 553.5287,-245.2349 544.6263,-241 517.8033,-228.2403 488.4542,-211.745 466.8988,-199.1254"/>
<polygon fill="none" stroke="#000000" points="468.5597,-196.0416 458.168,-193.9765 465.0037,-202.0712 468.5597,-196.0416"/>
<text text-anchor="middle" x="512.6263" y="-234.8" font-family="Times,serif" font-size="14.00" fill="#000000">is_a</text>
</g>
<!-- Subatomic -->
<g id="node5" class="node">
<title>Subatomic</title>
<g id="a_node5"><a xlink:href="http://emmo.info/domains/emmo-material.owl#EMMO_7d66bde4_b68d_41cc_b5fc_6fd98c5e2ff0" xlink:title="Subatomic" target="_top">
<ellipse fill="#ffffcc" stroke="#000000" stroke-width="3" cx="610.2705" cy="-214" rx="60.3893" ry="18"/>
<text text-anchor="middle" x="610.2705" y="-210.3" font-family="Times,serif" font-size="14.00" fill="#000000">Subatomic</text>
</a>
</g>
</g>
<!-- Subatomic&#45;&gt;State -->
<g id="edge4" class="edge">
<title>Subatomic&#45;&gt;State</title>
<path fill="none" stroke="#000000" d="M559.6127,-204.1658C533.9772,-199.1892 503.176,-193.2097 478.626,-188.4438"/>
<polygon fill="none" stroke="#000000" points="479.0044,-184.952 468.5206,-186.4821 477.6703,-191.8237 479.0044,-184.952"/>
<text text-anchor="middle" x="512.6263" y="-200.8" font-family="Times,serif" font-size="14.00" fill="#000000">is_a</text>
</g>
<!-- Mesoscopic -->
<g id="node6" class="node">
<title>Mesoscopic</title>
<g id="a_node6"><a xlink:href="http://emmo.info/domains/emmo-material.owl#EMMO_174cf221_9d16_427c_abea_e217a948969b" xlink:title="Mesoscopic" target="_top">
<ellipse fill="#ffffcc" stroke="#000000" stroke-width="3" cx="610.2705" cy="-160" rx="65.7887" ry="18"/>
<text text-anchor="middle" x="610.2705" y="-156.3" font-family="Times,serif" font-size="14.00" fill="#000000">Mesoscopic</text>
</a>
</g>
</g>
<!-- Mesoscopic&#45;&gt;State -->
<g id="edge5" class="edge">
<title>Mesoscopic&#45;&gt;State</title>
<path fill="none" stroke="#000000" d="M544.5222,-159.2016C529.3886,-159.7277 513.4013,-160.8541 498.6263,-163 491.0095,-164.1063 482.9988,-165.8096 475.3305,-167.7186"/>
<polygon fill="none" stroke="#000000" points="474.2829,-164.3752 465.5088,-170.3137 476.0712,-171.1429 474.2829,-164.3752"/>
<text text-anchor="middle" x="512.6263" y="-166.8" font-family="Times,serif" font-size="14.00" fill="#000000">is_a</text>
</g>
<!-- Atomic -->
<g id="node7" class="node">
<title>Atomic</title>
<g id="a_node7"><a xlink:href="http://emmo.info/domains/emmo-material.owl#EMMO_5c4aff3c_c30c_4507_86d5_b4df41eb9f2f" xlink:title="Atomic" target="_top">
<ellipse fill="#ffffcc" stroke="#000000" stroke-width="3" cx="610.2705" cy="-106" rx="44.393" ry="18"/>
<text text-anchor="middle" x="610.2705" y="-102.3" font-family="Times,serif" font-size="14.00" fill="#000000">Atomic</text>
</a>
</g>
</g>
<!-- Atomic&#45;&gt;State -->
<g id="edge6" class="edge">
<title>Atomic&#45;&gt;State</title>
<path fill="none" stroke="#000000" d="M572.042,-115.0902C549.9955,-121.0369 522.0845,-129.7869 498.6263,-141 489.9516,-145.1466 488.7633,-147.8781 480.6263,-153 476.4726,-155.6146 472.0706,-158.3141 467.7049,-160.9492"/>
<polygon fill="none" stroke="#000000" points="465.6745,-158.0852 458.8861,-166.2196 469.2655,-164.0939 465.6745,-158.0852"/>
<text text-anchor="middle" x="512.6263" y="-144.8" font-family="Times,serif" font-size="14.00" fill="#000000">is_a</text>
</g>
<!-- Continuum -->
<g id="node8" class="node">
<title>Continuum</title>
<g id="a_node8"><a xlink:href="http://emmo.info/domains/emmo-material.owl#EMMO_8b0923ab_b500_477b_9ce9_8b3a3e4dc4f2" xlink:title="Continuum" target="_top">
<ellipse fill="#ffffcc" stroke="#000000" stroke-width="3" cx="610.2705" cy="-52" rx="62.2891" ry="18"/>
<text text-anchor="middle" x="610.2705" y="-48.3" font-family="Times,serif" font-size="14.00" fill="#000000">Continuum</text>
</a>
</g>
</g>
<!-- Continuum&#45;&gt;State -->
<g id="edge7" class="edge">
<title>Continuum&#45;&gt;State</title>
<path fill="none" stroke="#000000" d="M571.7809,-66.192C562.6978,-69.9866 553.1743,-74.3412 544.6263,-79 522.7585,-90.9183 514.3625,-91.6966 498.6263,-111 485.7941,-126.741 494.0183,-137.7324 480.6263,-153 477.615,-156.433 474.0573,-159.551 470.2791,-162.3468"/>
<polygon fill="none" stroke="#000000" points="468.2036,-159.5229 461.782,-167.9498 472.0571,-165.3667 468.2036,-159.5229"/>
<text text-anchor="middle" x="512.6263" y="-114.8" font-family="Times,serif" font-size="14.00" fill="#000000">is_a</text>
</g>
<!-- System -->
<g id="node9" class="node">
<title>System</title>
<g id="a_node9"><a xlink:href="http://emmo.info/domains/emmo-usercase.owl#EMMO_e775e341_5687_4d45_b50c_379b098a8c26" xlink:title="System" target="_top">
<ellipse fill="#ffc880" stroke="#000000" cx="435.1303" cy="-126" rx="45.4919" ry="18"/>
<text text-anchor="middle" x="435.1303" y="-122.3" font-family="Times,serif" font-size="14.00" fill="#000000">System</text>
</a>
</g>
</g>
<!-- System&#45;&gt;Existent -->
<g id="edge8" class="edge">
<title>System&#45;&gt;Existent</title>
<path fill="none" stroke="#000000" d="M399.3799,-137.1888C373.5089,-145.2857 338.2792,-156.3115 310.0518,-165.1458"/>
<polygon fill="none" stroke="#000000" points="308.8845,-161.8437 300.3863,-168.1709 310.9753,-168.5242 308.8845,-161.8437"/>
<text text-anchor="middle" x="357.6344" y="-157.8" font-family="Times,serif" font-size="14.00" fill="#000000">is_a</text>
</g>
<!-- Impression -->
<g id="node10" class="node">
<title>Impression</title>
<g id="a_node10"><a xlink:href="http://emmo.info/perspectives/emmo-impression.owl#EMMO_649bf97b_4397_4005_90d9_219755d92e34" xlink:title="Impression" target="_top">
<ellipse fill="#ffffcc" stroke="#000000" stroke-width="3" cx="262.59" cy="-126" rx="63.0888" ry="18"/>
<text text-anchor="middle" x="262.59" y="-122.3" font-family="Times,serif" font-size="14.00" fill="#000000">Impression</text>
</a>
</g>
</g>
<!-- Impression&#45;&gt;Physical -->
<g id="edge10" class="edge">
<title>Impression&#45;&gt;Physical</title>
<path fill="none" stroke="#000000" d="M199.1566,-126C181.8971,-126 163.2498,-126 146.1488,-126"/>
<polygon fill="none" stroke="#000000" points="145.727,-122.5001 135.727,-126 145.727,-129.5001 145.727,-122.5001"/>
<text text-anchor="middle" x="167.5456" y="-129.8" font-family="Times,serif" font-size="14.00" fill="#000000">is_a</text>
</g>
<!-- Type -->
<g id="node11" class="node">
<title>Type</title>
<g id="a_node11"><a xlink:href="http://emmo.info/domains/emmo-material.owl#EMMO_508e84f6_5081_4a9b_80b4_0b7830718b37" xlink:title="Type" target="_top">
<ellipse fill="#ffc880" stroke="#000000" stroke-width="3" cx="262.59" cy="-72" rx="33.5952" ry="18"/>
<text text-anchor="middle" x="262.59" y="-68.3" font-family="Times,serif" font-size="14.00" fill="#000000">Type</text>
</a>
</g>
</g>
<!-- Type&#45;&gt;Physical -->
<g id="edge11" class="edge">
<title>Type&#45;&gt;Physical</title>
<path fill="none" stroke="#000000" d="M232.9491,-81.0384C205.9394,-89.2744 165.5468,-101.5913 133.8646,-111.2522"/>
<polygon fill="none" stroke="#000000" points="132.4566,-108.0224 123.9122,-114.287 134.4983,-114.718 132.4566,-108.0224"/>
<text text-anchor="middle" x="167.5456" y="-107.8" font-family="Times,serif" font-size="14.00" fill="#000000">is_a</text>
</g>
<!-- Processual -->
<g id="node12" class="node">
<title>Processual</title>
<g id="a_node12"><a xlink:href="http://emmo.info/perspectives/emmo-processual.owl#EMMO_0277f24a_ea7f_4917_81b7_fb0406c8fc62" xlink:title="Processual" target="_top">
<ellipse fill="#ffffcc" stroke="#000000" stroke-width="3" cx="262.59" cy="-18" rx="61.99" ry="18"/>
<text text-anchor="middle" x="262.59" y="-14.3" font-family="Times,serif" font-size="14.00" fill="#000000">Processual</text>
</a>
</g>
</g>
<!-- Processual&#45;&gt;Physical -->
<g id="edge12" class="edge">
<title>Processual&#45;&gt;Physical</title>
<path fill="none" stroke="#000000" d="M225.2858,-32.4191C216.6629,-36.1762 207.646,-40.4572 199.5456,-45 168.9304,-62.1692 136.5319,-85.771 114.1227,-103.069"/>
<polygon fill="none" stroke="#000000" points="111.7829,-100.455 106.0478,-109.3634 116.0865,-105.9759 111.7829,-100.455"/>
<text text-anchor="middle" x="167.5456" y="-77.8" font-family="Times,serif" font-size="14.00" fill="#000000">is_a</text>
</g>
</g>
</svg>
