<?xml version="1.0" encoding="UTF-8" standalone="no"?>
<!DOCTYPE svg PUBLIC "-//W3C//DTD SVG 1.1//EN"
 "http://www.w3.org/Graphics/SVG/1.1/DTD/svg11.dtd">
<!-- Generated by graphviz version 2.40.1 (0)
 -->
<!-- Title: G Pages: 1 -->
<svg width="672pt" height="125pt"
 viewBox="0.00 0.00 671.55 125.00" xmlns="http://www.w3.org/2000/svg" xmlns:xlink="http://www.w3.org/1999/xlink">
<g id="graph0" class="graph" transform="scale(1 1) rotate(0) translate(4 121)">
<title>G</title>
<polygon fill="#ffffff" stroke="transparent" points="-4,4 -4,-121 667.5525,-121 667.5525,4 -4,4"/>
<!-- property -->
<g id="node1" class="node">
<title>property</title>
<g id="a_node1"><a xlink:href="emmodoc.html#property" xlink:title="property" target="_top">
<ellipse fill="#ffffcc" stroke="#000000" cx="51.3454" cy="-37" rx="51.1914" ry="18"/>
<text text-anchor="middle" x="51.3454" y="-33.3" font-family="Times,serif" font-size="14.00" fill="#000000">property</text>
</a>
</g>
</g>
<!-- objective_property -->
<g id="node2" class="node">
<title>objective_property</title>
<g id="a_node2"><a xlink:href="emmodoc.html#objective_property" xlink:title="objective_property" target="_top">
<ellipse fill="#ffffcc" stroke="#000000" cx="270.6817" cy="-72" rx="98.5829" ry="18"/>
<text text-anchor="middle" x="270.6817" y="-68.3" font-family="Times,serif" font-size="14.00" fill="#000000">objective_property</text>
</a>
</g>
</g>
<!-- objective_property&#45;&gt;property -->
<g id="edge1" class="edge">
<title>objective_property&#45;&gt;property</title>
<path fill="none" stroke="#000000" d="M196.1184,-60.1018C167.3763,-55.5153 135.038,-50.355 108.2272,-46.0768"/>
<polygon fill="none" stroke="#000000" points="108.668,-42.6029 98.2414,-44.4833 107.5649,-49.5154 108.668,-42.6029"/>
<text text-anchor="middle" x="134.6909" y="-55.8" font-family="Times,serif" font-size="14.00" fill="#000000">is_a</text>
</g>
<!-- quantitative_property -->
<g id="node3" class="node">
<title>quantitative_property</title>
<g id="a_node3"><a xlink:href="emmodoc.html#quantitative_property" xlink:title="quantitative_property" target="_top">
<ellipse fill="#ffffcc" stroke="#000000" cx="551.1125" cy="-99" rx="112.3801" ry="18"/>
<text text-anchor="middle" x="551.1125" y="-95.3" font-family="Times,serif" font-size="14.00" fill="#000000">quantitative_property</text>
</a>
</g>
</g>
<!-- quantitative_property&#45;&gt;objective_property -->
<g id="edge2" class="edge">
<title>quantitative_property&#45;&gt;objective_property</title>
<path fill="none" stroke="#000000" d="M454.6041,-89.7081C426.8062,-87.0317 396.4618,-84.1102 368.5805,-81.4257"/>
<polygon fill="none" stroke="#000000" points="368.7186,-77.9229 358.4292,-80.4484 368.0477,-84.8907 368.7186,-77.9229"/>
<text text-anchor="middle" x="406.6724" y="-89.8" font-family="Times,serif" font-size="14.00" fill="#000000">is_a</text>
</g>
<!-- qualitative_property -->
<g id="node4" class="node">
<title>qualitative_property</title>
<g id="a_node4"><a xlink:href="emmodoc.html#qualitative_property" xlink:title="qualitative_property" target="_top">
<ellipse fill="#ffffcc" stroke="#000000" cx="551.1125" cy="-45" rx="105.8812" ry="18"/>
<text text-anchor="middle" x="551.1125" y="-41.3" font-family="Times,serif" font-size="14.00" fill="#000000">qualitative_property</text>
</a>
</g>
</g>
<!-- qualitative_property&#45;&gt;objective_property -->
<g id="edge3" class="edge">
<title>qualitative_property&#45;&gt;objective_property</title>
<path fill="none" stroke="#000000" d="M458.9005,-53.8782C429.9118,-56.6693 397.8099,-59.76 368.4496,-62.5869"/>
<polygon fill="none" stroke="#000000" points="367.807,-59.1325 358.1885,-63.5748 368.4779,-66.1002 367.807,-59.1325"/>
<text text-anchor="middle" x="406.6724" y="-63.8" font-family="Times,serif" font-size="14.00" fill="#000000">is_a</text>
</g>
<!-- subjective_property -->
<g id="node5" class="node">
<title>subjective_property</title>
<g id="a_node5"><a xlink:href="emmodoc.html#subjective_property" xlink:title="subjective_property" target="_top">
<ellipse fill="#ffffcc" stroke="#000000" cx="270.6817" cy="-18" rx="103.9815" ry="18"/>
<text text-anchor="middle" x="270.6817" y="-14.3" font-family="Times,serif" font-size="14.00" fill="#000000">subjective_property</text>
</a>
</g>
</g>
<!-- subjective_property&#45;&gt;property -->
<g id="edge4" class="edge">
<title>subjective_property&#45;&gt;property</title>
<path fill="none" stroke="#000000" d="M170.1406,-22.8741C153.6001,-24.0086 136.6516,-25.3732 120.6909,-27 116.7203,-27.4047 112.6282,-27.87 108.5112,-28.3736"/>
<polygon fill="none" stroke="#000000" points="107.7513,-24.9425 98.2806,-29.6919 108.646,-31.8851 107.7513,-24.9425"/>
<text text-anchor="middle" x="134.6909" y="-30.8" font-family="Times,serif" font-size="14.00" fill="#000000">is_a</text>
</g>
</g>
</svg>
