<?xml version="1.0" encoding="UTF-8" standalone="no"?>
<!DOCTYPE svg PUBLIC "-//W3C//DTD SVG 1.1//EN"
 "http://www.w3.org/Graphics/SVG/1.1/DTD/svg11.dtd">
<!-- Generated by graphviz version 2.40.1 (0)
 -->
<!-- Title: G Pages: 1 -->
<svg width="937pt" height="201pt"
 viewBox="0.00 0.00 937.03 201.00" xmlns="http://www.w3.org/2000/svg" xmlns:xlink="http://www.w3.org/1999/xlink">
<g id="graph0" class="graph" transform="scale(1 1) rotate(0) translate(4 197)">
<title>G</title>
<polygon fill="#ffffff" stroke="transparent" points="-4,4 -4,-197 933.0346,-197 933.0346,4 -4,4"/>
<!-- Property -->
<g id="node1" class="node">
<title>Property</title>
<g id="a_node1"><a xlink:href="http://emmo.info/domains/emmo-properties.owl#EMMO_b7bcff25_ffc3_474e_9ab5_01b1664bd4ba" xlink:title="Property" target="_top">
<ellipse fill="#ffffcc" stroke="#000000" stroke-width="3" cx="51.9954" cy="-37" rx="51.9908" ry="18"/>
<text text-anchor="middle" x="51.9954" y="-33.3" font-family="Times,serif" font-size="14.00" fill="#000000">Property</text>
</a>
</g>
</g>
<!-- ObjectiveProperty -->
<g id="node2" class="node">
<title>ObjectiveProperty</title>
<g id="a_node2"><a xlink:href="http://emmo.info/domains/emmo-properties.owl#EMMO_2a888cdf_ec4a_4ec5_af1c_0343372fc978" xlink:title="ObjectiveProperty" target="_top">
<ellipse fill="#ffffcc" stroke="#000000" cx="268.7318" cy="-72" rx="96.6831" ry="18"/>
<text text-anchor="middle" x="268.7318" y="-68.3" font-family="Times,serif" font-size="14.00" fill="#000000">ObjectiveProperty</text>
</a>
</g>
</g>
<!-- ObjectiveProperty&#45;&gt;Property -->
<g id="edge1" class="edge">
<title>ObjectiveProperty&#45;&gt;Property</title>
<path fill="none" stroke="#000000" d="M195.3548,-60.1506C167.3837,-55.6336 135.9285,-50.5541 109.6245,-46.3063"/>
<polygon fill="none" stroke="#000000" points="109.872,-42.801 99.4419,-44.662 108.756,-49.7115 109.872,-42.801"/>
<text text-anchor="middle" x="135.9908" y="-56.8" font-family="Times,serif" font-size="14.00" fill="#000000">is_a</text>
</g>
<!-- QuantitativeProperty -->
<g id="node3" class="node">
<title>QuantitativeProperty</title>
<g id="a_node3"><a xlink:href="http://emmo.info/domains/emmo-physical-properties.owl#EMMO_dd4a7f3e_ef56_466c_ac1a_d2716b5f87ec" xlink:title="QuantitativeProperty" target="_top">
<ellipse fill="#ffffcc" stroke="#000000" cx="543.9631" cy="-103" rx="110.4804" ry="18"/>
<text text-anchor="middle" x="543.9631" y="-99.3" font-family="Times,serif" font-size="14.00" fill="#000000">QuantitativeProperty</text>
</a>
</g>
</g>
<!-- QuantitativeProperty&#45;&gt;ObjectiveProperty -->
<g id="edge2" class="edge">
<title>QuantitativeProperty&#45;&gt;ObjectiveProperty</title>
<path fill="none" stroke="#000000" d="M453.0793,-92.7635C423.8056,-89.4664 391.3306,-85.8086 361.8954,-82.4932"/>
<polygon fill="none" stroke="#000000" points="361.9497,-78.9773 351.6208,-81.336 361.1662,-85.9333 361.9497,-78.9773"/>
<text text-anchor="middle" x="401.4729" y="-91.8" font-family="Times,serif" font-size="14.00" fill="#000000">is_a</text>
</g>
<!-- PhysicalQuantity -->
<g id="node4" class="node">
<title>PhysicalQuantity</title>
<g id="a_node4"><a xlink:href="http://emmo.info/domains/emmo-physical-properties.owl#EMMO_02c0621e_a527_4790_8a0f_2bb51973c819" xlink:title="PhysicalQuantity" target="_top">
<ellipse fill="#ffffcc" stroke="#000000" cx="823.7439" cy="-175" rx="90.9839" ry="18"/>
<text text-anchor="middle" x="823.7439" y="-171.3" font-family="Times,serif" font-size="14.00" fill="#000000">PhysicalQuantity</text>
</a>
</g>
</g>
<!-- PhysicalQuantity&#45;&gt;QuantitativeProperty -->
<g id="edge3" class="edge">
<title>PhysicalQuantity&#45;&gt;QuantitativeProperty</title>
<path fill="none" stroke="#000000" d="M768.1337,-160.689C723.6491,-149.2412 661.0367,-133.1282 613.2862,-120.8399"/>
<polygon fill="none" stroke="#000000" points="613.8909,-117.3816 603.3342,-118.2788 612.1463,-124.1607 613.8909,-117.3816"/>
<text text-anchor="middle" x="686.4533" y="-144.8" font-family="Times,serif" font-size="14.00" fill="#000000">is_a</text>
</g>
<!-- MeasurementUnit -->
<g id="node5" class="node">
<title>MeasurementUnit</title>
<g id="a_node5"><a xlink:href="http://emmo.info/domains/emmo-physical-properties.owl#EMMO_b081b346_7279_46ef_9a3d_2c088fcd79f4" xlink:title="MeasurementUnit" target="_top">
<ellipse fill="#ffffcc" stroke="#000000" cx="823.7439" cy="-103" rx="95.5831" ry="18"/>
<text text-anchor="middle" x="823.7439" y="-99.3" font-family="Times,serif" font-size="14.00" fill="#000000">MeasurementUnit</text>
</a>
</g>
</g>
<!-- PhysicalQuantity&#45;&gt;MeasurementUnit -->
<g id="edge8" class="edge">
<title>PhysicalQuantity&#45;&gt;MeasurementUnit</title>
<path fill="none" stroke="#6b8e23" d="M823.7439,-156.5867C823.7439,-148.9407 823.7439,-139.8916 823.7439,-131.4274"/>
<polygon fill="#6b8e23" stroke="#6b8e23" points="827.244,-131.1686 823.7439,-121.1686 820.244,-131.1687 827.244,-131.1686"/>
<text text-anchor="middle" x="834.2439" y="-135.3" font-family="Times,serif" font-size="14.00" fill="#000000">hasSpatialPart some &#160;&#160;</text>
</g>
<!-- MeasurementUnit&#45;&gt;QuantitativeProperty -->
<g id="edge4" class="edge">
<title>MeasurementUnit&#45;&gt;QuantitativeProperty</title>
<path fill="none" stroke="#000000" d="M727.8507,-103C707.5955,-103 685.9703,-103 664.9271,-103"/>
<polygon fill="none" stroke="#000000" points="664.6521,-99.5001 654.6521,-103 664.6521,-106.5001 664.6521,-99.5001"/>
<text text-anchor="middle" x="686.4533" y="-106.8" font-family="Times,serif" font-size="14.00" fill="#000000">is_a</text>
</g>
<!-- DescriptiveProperty -->
<g id="node6" class="node">
<title>DescriptiveProperty</title>
<g id="a_node6"><a xlink:href="http://emmo.info/domains/emmo-physical-properties.owl#EMMO_c46f091c_0420_4c1a_af30_0a2c8ebcf7d7" xlink:title="DescriptiveProperty" target="_top">
<ellipse fill="#ffffcc" stroke="#000000" cx="823.7439" cy="-49" rx="105.0817" ry="18"/>
<text text-anchor="middle" x="823.7439" y="-45.3" font-family="Times,serif" font-size="14.00" fill="#000000">DescriptiveProperty</text>
</a>
</g>
</g>
<!-- DescriptiveProperty&#45;&gt;QuantitativeProperty -->
<g id="edge5" class="edge">
<title>DescriptiveProperty&#45;&gt;QuantitativeProperty</title>
<path fill="none" stroke="#000000" d="M753.8651,-62.4872C714.8391,-70.0195 666.0184,-79.4423 625.2835,-87.3045"/>
<polygon fill="none" stroke="#000000" points="624.5379,-83.8837 615.3824,-89.2155 625.8645,-90.7569 624.5379,-83.8837"/>
<text text-anchor="middle" x="686.4533" y="-80.8" font-family="Times,serif" font-size="14.00" fill="#000000">is_a</text>
</g>
<!-- QualitativeProperty -->
<g id="node7" class="node">
<title>QualitativeProperty</title>
<g id="a_node7"><a xlink:href="http://emmo.info/domains/emmo-physical-properties.owl#EMMO_909415d1_7c43_4d5e_bbeb_7e1910159f66" xlink:title="QualitativeProperty" target="_top">
<ellipse fill="#ffffcc" stroke="#000000" cx="543.9631" cy="-49" rx="103.1819" ry="18"/>
<text text-anchor="middle" x="543.9631" y="-45.3" font-family="Times,serif" font-size="14.00" fill="#000000">QualitativeProperty</text>
</a>
</g>
</g>
<!-- QualitativeProperty&#45;&gt;ObjectiveProperty -->
<g id="edge6" class="edge">
<title>QualitativeProperty&#45;&gt;ObjectiveProperty</title>
<path fill="none" stroke="#000000" d="M444.1383,-53.8447C425.3005,-55.0129 405.7718,-56.3965 387.4729,-58 378.2646,-58.8069 368.6669,-59.7567 359.0939,-60.7753"/>
<polygon fill="none" stroke="#000000" points="358.7066,-57.2967 349.1442,-61.8585 359.4643,-64.2556 358.7066,-57.2967"/>
<text text-anchor="middle" x="401.4729" y="-61.8" font-family="Times,serif" font-size="14.00" fill="#000000">is_a</text>
</g>
<!-- SubjectiveProperty -->
<g id="node8" class="node">
<title>SubjectiveProperty</title>
<g id="a_node8"><a xlink:href="http://emmo.info/domains/emmo-properties.owl#EMMO_251cfb4f_5c75_4778_91ed_6c8395212fd8" xlink:title="SubjectiveProperty" target="_top">
<ellipse fill="#ffffcc" stroke="#000000" cx="268.7318" cy="-18" rx="100.9827" ry="18"/>
<text text-anchor="middle" x="268.7318" y="-14.3" font-family="Times,serif" font-size="14.00" fill="#000000">SubjectiveProperty</text>
</a>
</g>
</g>
<!-- SubjectiveProperty&#45;&gt;Property -->
<g id="edge7" class="edge">
<title>SubjectiveProperty&#45;&gt;Property</title>
<path fill="none" stroke="#000000" d="M171.5546,-22.8527C154.9983,-23.9963 137.9878,-25.3694 121.9908,-27 118.0505,-27.4016 113.9915,-27.8609 109.9064,-28.3569"/>
<polygon fill="none" stroke="#000000" points="109.2269,-24.9151 99.7507,-29.6534 110.1135,-31.8587 109.2269,-24.9151"/>
<text text-anchor="middle" x="135.9908" y="-30.8" font-family="Times,serif" font-size="14.00" fill="#000000">is_a</text>
</g>
</g>
</svg>
