<?xml version="1.0" encoding="UTF-8" standalone="no"?>
<!DOCTYPE svg PUBLIC "-//W3C//DTD SVG 1.1//EN"
 "http://www.w3.org/Graphics/SVG/1.1/DTD/svg11.dtd">
<!-- Generated by graphviz version 2.40.1 (0)
 -->
<!-- Title: G Pages: 1 -->
<svg width="514pt" height="170pt"
 viewBox="0.00 0.00 513.96 170.00" xmlns="http://www.w3.org/2000/svg" xmlns:xlink="http://www.w3.org/1999/xlink">
<g id="graph0" class="graph" transform="scale(1 1) rotate(0) translate(4 166)">
<title>G</title>
<polygon fill="#ffffff" stroke="transparent" points="-4,4 -4,-166 509.9608,-166 509.9608,4 -4,4"/>
<!-- quantitative_property -->
<g id="node1" class="node">
<title>quantitative_property</title>
<g id="a_node1"><a xlink:href="emmodoc.html#quantitative_property" xlink:title="quantitative_property" target="_top">
<ellipse fill="#ffffcc" stroke="#000000" cx="112.44" cy="-72" rx="112.3801" ry="18"/>
<text text-anchor="middle" x="112.44" y="-68.3" font-family="Times,serif" font-size="14.00" fill="#000000">quantitative_property</text>
</a>
</g>
</g>
<!-- physical_quantity -->
<g id="node2" class="node">
<title>physical_quantity</title>
<g id="a_node2"><a xlink:href="emmodoc.html#physical_quantity" xlink:title="physical_quantity" target="_top">
<ellipse fill="#ffffcc" stroke="#000000" cx="397.4204" cy="-144" rx="92.8835" ry="18"/>
<text text-anchor="middle" x="397.4204" y="-140.3" font-family="Times,serif" font-size="14.00" fill="#000000">physical_quantity</text>
</a>
</g>
</g>
<!-- physical_quantity&#45;&gt;quantitative_property -->
<g id="edge1" class="edge">
<title>physical_quantity&#45;&gt;quantitative_property</title>
<path fill="none" stroke="#000000" d="M340.7767,-129.689C295.3706,-118.2172 231.4225,-102.0608 182.7464,-89.7628"/>
<polygon fill="none" stroke="#000000" points="183.4672,-86.335 172.9145,-87.2788 181.7525,-93.1218 183.4672,-86.335"/>
<text text-anchor="middle" x="256.88" y="-113.8" font-family="Times,serif" font-size="14.00" fill="#000000">is_a</text>
</g>
<!-- measurement_unit -->
<g id="node3" class="node">
<title>measurement_unit</title>
<g id="a_node3"><a xlink:href="emmodoc.html#measurement_unit" xlink:title="measurement_unit" target="_top">
<ellipse fill="#ffffcc" stroke="#000000" cx="397.4204" cy="-72" rx="98.2828" ry="18"/>
<text text-anchor="middle" x="397.4204" y="-68.3" font-family="Times,serif" font-size="14.00" fill="#000000">measurement_unit</text>
</a>
</g>
</g>
<!-- physical_quantity&#45;&gt;measurement_unit -->
<g id="edge4" class="edge">
<title>physical_quantity&#45;&gt;measurement_unit</title>
<path fill="none" stroke="#6b8e23" d="M397.4204,-125.5867C397.4204,-117.9407 397.4204,-108.8916 397.4204,-100.4274"/>
<polygon fill="#6b8e23" stroke="#6b8e23" points="400.9205,-100.1686 397.4204,-90.1686 393.9205,-100.1687 400.9205,-100.1686"/>
<text text-anchor="middle" x="407.9204" y="-104.3" font-family="Times,serif" font-size="14.00" fill="#000000">has_spatial_part some &#160;&#160;</text>
</g>
<!-- measurement_unit&#45;&gt;quantitative_property -->
<g id="edge2" class="edge">
<title>measurement_unit&#45;&gt;quantitative_property</title>
<path fill="none" stroke="#000000" d="M298.9473,-72C278.3919,-72 256.4813,-72 235.172,-72"/>
<polygon fill="none" stroke="#000000" points="235.1006,-68.5001 225.1006,-72 235.1006,-75.5001 235.1006,-68.5001"/>
<text text-anchor="middle" x="256.88" y="-75.8" font-family="Times,serif" font-size="14.00" fill="#000000">is_a</text>
</g>
<!-- descriptive_property -->
<g id="node4" class="node">
<title>descriptive_property</title>
<g id="a_node4"><a xlink:href="emmodoc.html#descriptive_property" xlink:title="descriptive_property" target="_top">
<ellipse fill="#ffffcc" stroke="#000000" cx="397.4204" cy="-18" rx="108.5808" ry="18"/>
<text text-anchor="middle" x="397.4204" y="-14.3" font-family="Times,serif" font-size="14.00" fill="#000000">descriptive_property</text>
</a>
</g>
</g>
<!-- descriptive_property&#45;&gt;quantitative_property -->
<g id="edge3" class="edge">
<title>descriptive_property&#45;&gt;quantitative_property</title>
<path fill="none" stroke="#000000" d="M325.8757,-31.5568C286.1208,-39.0898 236.4741,-48.4972 195.0692,-56.3429"/>
<polygon fill="none" stroke="#000000" points="194.1791,-52.9492 185.0056,-58.2498 195.4824,-59.8268 194.1791,-52.9492"/>
<text text-anchor="middle" x="256.88" y="-50.8" font-family="Times,serif" font-size="14.00" fill="#000000">is_a</text>
</g>
</g>
</svg>
