<?xml version="1.0" encoding="UTF-8" standalone="no"?>
<!DOCTYPE svg PUBLIC "-//W3C//DTD SVG 1.1//EN"
 "http://www.w3.org/Graphics/SVG/1.1/DTD/svg11.dtd">
<!-- Generated by graphviz version 2.40.1 (0)
 -->
<!-- Title: G Pages: 1 -->
<svg width="2233pt" height="450pt"
 viewBox="0.00 0.00 2233.25 450.00" xmlns="http://www.w3.org/2000/svg" xmlns:xlink="http://www.w3.org/1999/xlink">
<g id="graph0" class="graph" transform="scale(1 1) rotate(0) translate(4 446)">
<title>G</title>
<polygon fill="#ffffff" stroke="transparent" points="-4,4 -4,-446 2229.248,-446 2229.248,4 -4,4"/>
<!-- emmo_relation -->
<g id="node1" class="node">
<title>emmo_relation</title>
<ellipse fill="#ffffcc" stroke="#000000" cx="79.9429" cy="-129" rx="79.8859" ry="18"/>
<text text-anchor="middle" x="79.9429" y="-125.3" font-family="Times,serif" font-size="14.00" fill="#000000">emmo_relation</text>
</g>
<!-- mereotopological -->
<g id="node2" class="node">
<title>mereotopological</title>
<ellipse fill="#ffffcc" stroke="#000000" cx="314.8777" cy="-156" rx="90.9839" ry="18"/>
<text text-anchor="middle" x="314.8777" y="-152.3" font-family="Times,serif" font-size="14.00" fill="#000000">mereotopological</text>
</g>
<!-- mereotopological&#45;&gt;emmo_relation -->
<g id="edge1" class="edge">
<title>mereotopological&#45;&gt;emmo_relation</title>
<path fill="none" stroke="#000000" d="M235.9943,-146.9343C212.0831,-144.1863 185.7724,-141.1625 161.6784,-138.3935"/>
<polygon fill="none" stroke="#000000" points="161.8358,-134.8886 151.5016,-137.2239 161.0365,-141.8429 161.8358,-134.8886"/>
<text text-anchor="middle" x="191.8858" y="-147.8" font-family="Times,serif" font-size="14.00" fill="#000000">is_a</text>
</g>
<!-- connected -->
<g id="node3" class="node">
<title>connected</title>
<ellipse fill="#ffffcc" stroke="#000000" cx="542.6632" cy="-215" rx="59.2899" ry="18"/>
<text text-anchor="middle" x="542.6632" y="-211.3" font-family="Times,serif" font-size="14.00" fill="#000000">connected</text>
</g>
<!-- connected&#45;&gt;mereotopological -->
<g id="edge2" class="edge">
<title>connected&#45;&gt;mereotopological</title>
<path fill="none" stroke="#000000" d="M497.3878,-203.273C463.8012,-194.5735 417.5221,-182.5865 379.9709,-172.8602"/>
<polygon fill="none" stroke="#000000" points="380.6865,-169.4301 370.1284,-170.3108 378.9313,-176.2065 380.6865,-169.4301"/>
<text text-anchor="middle" x="437.8697" y="-194.8" font-family="Times,serif" font-size="14.00" fill="#000000">is_a</text>
</g>
<!-- encloses -->
<g id="node4" class="node">
<title>encloses</title>
<ellipse fill="#ffffcc" stroke="#000000" cx="762.6494" cy="-234" rx="50.8918" ry="18"/>
<text text-anchor="middle" x="762.6494" y="-230.3" font-family="Times,serif" font-size="14.00" fill="#000000">encloses</text>
</g>
<!-- encloses&#45;&gt;connected -->
<g id="edge3" class="edge">
<title>encloses&#45;&gt;connected</title>
<path fill="none" stroke="#000000" d="M713.2802,-229.736C682.7428,-227.0985 643.1392,-223.678 609.776,-220.7965"/>
<polygon fill="none" stroke="#000000" points="609.9033,-217.2945 599.6392,-219.921 609.3009,-224.2686 609.9033,-217.2945"/>
<text text-anchor="middle" x="647.4567" y="-229.8" font-family="Times,serif" font-size="14.00" fill="#000000">is_a</text>
</g>
<!-- has_part -->
<g id="node5" class="node">
<title>has_part</title>
<ellipse fill="#ffffcc" stroke="#000000" cx="981.9856" cy="-245" rx="51.1914" ry="18"/>
<text text-anchor="middle" x="981.9856" y="-241.3" font-family="Times,serif" font-size="14.00" fill="#000000">has_part</text>
</g>
<!-- has_part&#45;&gt;encloses -->
<g id="edge4" class="edge">
<title>has_part&#45;&gt;encloses</title>
<path fill="none" stroke="#000000" d="M933.4094,-238.6857C919.9684,-237.191 905.3598,-235.8 891.842,-235 869.5164,-233.6788 844.9832,-233.235 823.349,-233.1857"/>
<polygon fill="none" stroke="#000000" points="823.3071,-229.6856 813.3087,-233.19 823.3102,-236.6856 823.3071,-229.6856"/>
<text text-anchor="middle" x="877.842" y="-238.8" font-family="Times,serif" font-size="14.00" fill="#000000">is_a</text>
</g>
<!-- overlaps -->
<g id="node17" class="node">
<title>overlaps</title>
<ellipse fill="#ffffcc" stroke="#000000" cx="762.6494" cy="-288" rx="50.0912" ry="18"/>
<text text-anchor="middle" x="762.6494" y="-284.3" font-family="Times,serif" font-size="14.00" fill="#000000">overlaps</text>
</g>
<!-- has_part&#45;&gt;overlaps -->
<g id="edge18" class="edge">
<title>has_part&#45;&gt;overlaps</title>
<path fill="none" stroke="#000000" d="M937.0704,-253.8055C902.2439,-260.633 853.8441,-270.1216 816.8622,-277.3718"/>
<polygon fill="none" stroke="#000000" points="815.8948,-273.9947 806.755,-279.3533 817.2416,-280.864 815.8948,-273.9947"/>
<text text-anchor="middle" x="877.842" y="-271.8" font-family="Times,serif" font-size="14.00" fill="#000000">is_a</text>
</g>
<!-- has_proper_part -->
<g id="node6" class="node">
<title>has_proper_part</title>
<ellipse fill="#ffffcc" stroke="#000000" cx="1205.2215" cy="-278" rx="87.1846" ry="18"/>
<text text-anchor="middle" x="1205.2215" y="-274.3" font-family="Times,serif" font-size="14.00" fill="#000000">has_proper_part</text>
</g>
<!-- has_proper_part&#45;&gt;has_part -->
<g id="edge5" class="edge">
<title>has_proper_part&#45;&gt;has_part</title>
<path fill="none" stroke="#000000" d="M1134.2815,-267.5133C1103.6748,-262.9888 1068.3407,-257.7655 1039.4164,-253.4898"/>
<polygon fill="none" stroke="#000000" points="1039.8755,-250.0197 1029.4712,-252.0196 1038.8518,-256.9444 1039.8755,-250.0197"/>
<text text-anchor="middle" x="1086.1292" y="-265.8" font-family="Times,serif" font-size="14.00" fill="#000000">is_a</text>
</g>
<!-- has_spatial_part -->
<g id="node7" class="node">
<title>has_spatial_part</title>
<ellipse fill="#ffffcc" stroke="#000000" cx="1475.9031" cy="-405" rx="87.1846" ry="18"/>
<text text-anchor="middle" x="1475.9031" y="-401.3" font-family="Times,serif" font-size="14.00" fill="#000000">has_spatial_part</text>
</g>
<!-- has_spatial_part&#45;&gt;has_proper_part -->
<g id="edge6" class="edge">
<title>has_spatial_part&#45;&gt;has_proper_part</title>
<path fill="none" stroke="#000000" d="M1406.8847,-393.8853C1389.9656,-389.9548 1372.1707,-384.767 1356.3137,-378 1310.4953,-358.4469 1263.5435,-324.8164 1234.3949,-302.0086"/>
<polygon fill="none" stroke="#000000" points="1236.3128,-299.0627 1226.3016,-295.5947 1231.9651,-304.5488 1236.3128,-299.0627"/>
<text text-anchor="middle" x="1324.3137" y="-370.8" font-family="Times,serif" font-size="14.00" fill="#000000">is_a</text>
</g>
<!-- has_non_essential_part -->
<g id="node8" class="node">
<title>has_non_essential_part</title>
<ellipse fill="#ffffcc" stroke="#000000" cx="1790.1309" cy="-424" rx="119.6788" ry="18"/>
<text text-anchor="middle" x="1790.1309" y="-420.3" font-family="Times,serif" font-size="14.00" fill="#000000">has_non_essential_part</text>
</g>
<!-- has_non_essential_part&#45;&gt;has_spatial_part -->
<g id="edge7" class="edge">
<title>has_non_essential_part&#45;&gt;has_spatial_part</title>
<path fill="none" stroke="#000000" d="M1678.9037,-417.2746C1643.231,-415.1176 1604.0987,-412.7514 1569.7931,-410.6771"/>
<polygon fill="none" stroke="#000000" points="1569.9761,-407.1819 1559.783,-410.0719 1569.5535,-414.1691 1569.9761,-407.1819"/>
<text text-anchor="middle" x="1627.4925" y="-417.8" font-family="Times,serif" font-size="14.00" fill="#000000">is_a</text>
</g>
<!-- has_essential_part -->
<g id="node9" class="node">
<title>has_essential_part</title>
<ellipse fill="#ffffcc" stroke="#000000" cx="1790.1309" cy="-370" rx="97.4827" ry="18"/>
<text text-anchor="middle" x="1790.1309" y="-366.3" font-family="Times,serif" font-size="14.00" fill="#000000">has_essential_part</text>
</g>
<!-- has_essential_part&#45;&gt;has_spatial_part -->
<g id="edge8" class="edge">
<title>has_essential_part&#45;&gt;has_spatial_part</title>
<path fill="none" stroke="#000000" d="M1706.3364,-379.3334C1661.9676,-384.2754 1607.5427,-390.3374 1562.7283,-395.329"/>
<polygon fill="none" stroke="#000000" points="1562.2849,-391.8567 1552.7338,-396.4423 1563.0598,-398.8137 1562.2849,-391.8567"/>
<text text-anchor="middle" x="1627.4925" y="-392.8" font-family="Times,serif" font-size="14.00" fill="#000000">is_a</text>
</g>
<!-- has_spatial_direct_part -->
<g id="node10" class="node">
<title>has_spatial_direct_part</title>
<ellipse fill="#ffffcc" stroke="#000000" cx="2105.0087" cy="-370" rx="120.4791" ry="18"/>
<text text-anchor="middle" x="2105.0087" y="-366.3" font-family="Times,serif" font-size="14.00" fill="#000000">has_spatial_direct_part</text>
</g>
<!-- has_spatial_direct_part&#45;&gt;has_essential_part -->
<g id="edge9" class="edge">
<title>has_spatial_direct_part&#45;&gt;has_essential_part</title>
<path fill="none" stroke="#000000" d="M1984.6191,-370C1956.1678,-370 1926.0052,-370 1898.1413,-370"/>
<polygon fill="none" stroke="#000000" points="1897.9871,-366.5001 1887.9871,-370 1897.987,-373.5001 1897.9871,-366.5001"/>
<text text-anchor="middle" x="1952.7693" y="-373.8" font-family="Times,serif" font-size="14.00" fill="#000000">is_a</text>
</g>
<!-- has_member -->
<g id="node11" class="node">
<title>has_member</title>
<ellipse fill="#ffffcc" stroke="#000000" cx="1475.9031" cy="-351" rx="70.3881" ry="18"/>
<text text-anchor="middle" x="1475.9031" y="-347.3" font-family="Times,serif" font-size="14.00" fill="#000000">has_member</text>
</g>
<!-- has_member&#45;&gt;has_proper_part -->
<g id="edge10" class="edge">
<title>has_member&#45;&gt;has_proper_part</title>
<path fill="none" stroke="#000000" d="M1421.5233,-339.6072C1401.0053,-335.077 1377.5068,-329.6104 1356.3137,-324 1324.8963,-315.6829 1290.1826,-305.2067 1261.9597,-296.3536"/>
<polygon fill="none" stroke="#000000" points="1262.8533,-292.9655 1252.2636,-293.296 1260.7481,-299.6415 1262.8533,-292.9655"/>
<text text-anchor="middle" x="1324.3137" y="-322.8" font-family="Times,serif" font-size="14.00" fill="#000000">is_a</text>
</g>
<!-- has_temporal_part -->
<g id="node12" class="node">
<title>has_temporal_part</title>
<ellipse fill="#ffffcc" stroke="#000000" cx="1475.9031" cy="-297" rx="98.2828" ry="18"/>
<text text-anchor="middle" x="1475.9031" y="-293.3" font-family="Times,serif" font-size="14.00" fill="#000000">has_temporal_part</text>
</g>
<!-- has_temporal_part&#45;&gt;has_proper_part -->
<g id="edge11" class="edge">
<title>has_temporal_part&#45;&gt;has_proper_part</title>
<path fill="none" stroke="#000000" d="M1383.885,-290.541C1356.1753,-288.5959 1325.7572,-286.4608 1297.9986,-284.5123"/>
<polygon fill="none" stroke="#000000" points="1298.1226,-281.0125 1287.9021,-283.8036 1297.6324,-287.9953 1298.1226,-281.0125"/>
<text text-anchor="middle" x="1324.3137" y="-290.8" font-family="Times,serif" font-size="14.00" fill="#000000">is_a</text>
</g>
<!-- has_temporal_direct_part -->
<g id="node13" class="node">
<title>has_temporal_direct_part</title>
<ellipse fill="#ffffcc" stroke="#000000" cx="1790.1309" cy="-297" rx="130.777" ry="18"/>
<text text-anchor="middle" x="1790.1309" y="-293.3" font-family="Times,serif" font-size="14.00" fill="#000000">has_temporal_direct_part</text>
</g>
<!-- has_temporal_direct_part&#45;&gt;has_temporal_part -->
<g id="edge12" class="edge">
<title>has_temporal_direct_part&#45;&gt;has_temporal_part</title>
<path fill="none" stroke="#000000" d="M1659.1454,-297C1634.2433,-297 1608.4403,-297 1584.3339,-297"/>
<polygon fill="none" stroke="#000000" points="1584.1141,-293.5001 1574.114,-297 1584.114,-300.5001 1584.1141,-293.5001"/>
<text text-anchor="middle" x="1627.4925" y="-300.8" font-family="Times,serif" font-size="14.00" fill="#000000">is_a</text>
</g>
<!-- has_direct_part -->
<g id="node14" class="node">
<title>has_direct_part</title>
<ellipse fill="#ffffcc" stroke="#000000" cx="1475.9031" cy="-243" rx="83.6854" ry="18"/>
<text text-anchor="middle" x="1475.9031" y="-239.3" font-family="Times,serif" font-size="14.00" fill="#000000">has_direct_part</text>
</g>
<!-- has_direct_part&#45;&gt;has_proper_part -->
<g id="edge13" class="edge">
<title>has_direct_part&#45;&gt;has_proper_part</title>
<path fill="none" stroke="#000000" d="M1404.0761,-252.2875C1368.858,-256.8413 1326.2193,-262.3546 1289.4708,-267.1063"/>
<polygon fill="none" stroke="#000000" points="1288.7417,-263.6713 1279.2731,-268.4249 1289.6394,-270.6136 1288.7417,-263.6713"/>
<text text-anchor="middle" x="1324.3137" y="-267.8" font-family="Times,serif" font-size="14.00" fill="#000000">is_a</text>
</g>
<!-- has_proper_participant -->
<g id="node15" class="node">
<title>has_proper_participant</title>
<ellipse fill="#ffffcc" stroke="#000000" cx="1475.9031" cy="-186" rx="119.6788" ry="18"/>
<text text-anchor="middle" x="1475.9031" y="-182.3" font-family="Times,serif" font-size="14.00" fill="#000000">has_proper_participant</text>
</g>
<!-- has_proper_participant&#45;&gt;has_proper_part -->
<g id="edge14" class="edge">
<title>has_proper_participant&#45;&gt;has_proper_part</title>
<path fill="none" stroke="#000000" d="M1408.9987,-200.9832C1391.6963,-205.3479 1373.1917,-210.4519 1356.3137,-216 1336.409,-222.543 1289.1288,-242.1955 1252.7158,-257.6401"/>
<polygon fill="none" stroke="#000000" points="1251.0755,-254.5342 1243.2417,-261.6673 1253.8139,-260.9763 1251.0755,-254.5342"/>
<text text-anchor="middle" x="1324.3137" y="-236.8" font-family="Times,serif" font-size="14.00" fill="#000000">is_a</text>
</g>
<!-- has_participant -->
<g id="node16" class="node">
<title>has_participant</title>
<ellipse fill="#ffffcc" stroke="#000000" cx="1205.2215" cy="-213" rx="83.3857" ry="18"/>
<text text-anchor="middle" x="1205.2215" y="-209.3" font-family="Times,serif" font-size="14.00" fill="#000000">has_participant</text>
</g>
<!-- has_proper_participant&#45;&gt;has_participant -->
<g id="edge16" class="edge">
<title>has_proper_participant&#45;&gt;has_participant</title>
<path fill="none" stroke="#000000" d="M1362.5079,-180.2251C1344.9795,-180.6023 1327.1229,-181.7233 1310.3137,-184 1293.6166,-186.2615 1275.8236,-190.4571 1259.7161,-194.9681"/>
<polygon fill="none" stroke="#000000" points="1258.5607,-191.6588 1249.9295,-197.8031 1260.5085,-198.3824 1258.5607,-191.6588"/>
<text text-anchor="middle" x="1324.3137" y="-187.8" font-family="Times,serif" font-size="14.00" fill="#000000">is_a</text>
</g>
<!-- has_participant&#45;&gt;has_part -->
<g id="edge15" class="edge">
<title>has_participant&#45;&gt;has_part</title>
<path fill="none" stroke="#000000" d="M1134.0416,-222.3638C1114.0055,-225.0709 1092.204,-228.0839 1072.1292,-231 1061.3295,-232.5688 1049.8127,-234.3073 1038.7473,-236.0106"/>
<polygon fill="none" stroke="#000000" points="1038.0923,-232.5702 1028.7456,-237.5591 1039.1634,-239.4878 1038.0923,-232.5702"/>
<text text-anchor="middle" x="1086.1292" y="-234.8" font-family="Times,serif" font-size="14.00" fill="#000000">is_a</text>
</g>
<!-- overlaps&#45;&gt;connected -->
<g id="edge17" class="edge">
<title>overlaps&#45;&gt;connected</title>
<path fill="none" stroke="#000000" d="M725.3501,-275.9874C710.9932,-271.3393 694.4517,-265.9543 679.4567,-261 650.4501,-251.4162 618.0446,-240.5272 592.0571,-231.75"/>
<polygon fill="none" stroke="#000000" points="593.0261,-228.3831 582.4319,-228.4966 590.7846,-235.0145 593.0261,-228.3831"/>
<text text-anchor="middle" x="647.4567" y="-258.8" font-family="Times,serif" font-size="14.00" fill="#000000">is_a</text>
</g>
<!-- overcrosses -->
<g id="node18" class="node">
<title>overcrosses</title>
<ellipse fill="#ffffcc" stroke="#000000" cx="981.9856" cy="-310" rx="66.0889" ry="18"/>
<text text-anchor="middle" x="981.9856" y="-306.3" font-family="Times,serif" font-size="14.00" fill="#000000">overcrosses</text>
</g>
<!-- overcrosses&#45;&gt;overlaps -->
<g id="edge19" class="edge">
<title>overcrosses&#45;&gt;overlaps</title>
<path fill="none" stroke="#000000" d="M919.7193,-303.7545C888.7689,-300.6501 851.5813,-296.9201 821.1613,-293.8689"/>
<polygon fill="none" stroke="#000000" points="821.4225,-290.3776 811.1231,-292.862 820.7239,-297.3427 821.4225,-290.3776"/>
<text text-anchor="middle" x="877.842" y="-304.8" font-family="Times,serif" font-size="14.00" fill="#000000">is_a</text>
</g>
<!-- contacts -->
<g id="node19" class="node">
<title>contacts</title>
<ellipse fill="#ffffcc" stroke="#000000" cx="762.6494" cy="-180" rx="50.8918" ry="18"/>
<text text-anchor="middle" x="762.6494" y="-176.3" font-family="Times,serif" font-size="14.00" fill="#000000">contacts</text>
</g>
<!-- contacts&#45;&gt;connected -->
<g id="edge20" class="edge">
<title>contacts&#45;&gt;connected</title>
<path fill="none" stroke="#000000" d="M716.2648,-187.3798C684.0251,-192.5092 640.6771,-199.4059 605.3629,-205.0244"/>
<polygon fill="none" stroke="#000000" points="604.4841,-201.6201 595.1583,-206.648 605.584,-208.5332 604.4841,-201.6201"/>
<text text-anchor="middle" x="647.4567" y="-203.8" font-family="Times,serif" font-size="14.00" fill="#000000">is_a</text>
</g>
<!-- disconnected -->
<g id="node20" class="node">
<title>disconnected</title>
<ellipse fill="#ffffcc" stroke="#000000" cx="542.6632" cy="-156" rx="72.5877" ry="18"/>
<text text-anchor="middle" x="542.6632" y="-152.3" font-family="Times,serif" font-size="14.00" fill="#000000">disconnected</text>
</g>
<!-- disconnected&#45;&gt;mereotopological -->
<g id="edge21" class="edge">
<title>disconnected&#45;&gt;mereotopological</title>
<path fill="none" stroke="#000000" d="M469.6506,-156C452.7108,-156 434.38,-156 416.4605,-156"/>
<polygon fill="none" stroke="#000000" points="416.2662,-152.5001 406.2662,-156 416.2661,-159.5001 416.2662,-152.5001"/>
<text text-anchor="middle" x="437.8697" y="-159.8" font-family="Times,serif" font-size="14.00" fill="#000000">is_a</text>
</g>
<!-- semiotic -->
<g id="node21" class="node">
<title>semiotic</title>
<ellipse fill="#ffffcc" stroke="#000000" cx="314.8777" cy="-102" rx="50.0912" ry="18"/>
<text text-anchor="middle" x="314.8777" y="-98.3" font-family="Times,serif" font-size="14.00" fill="#000000">semiotic</text>
</g>
<!-- semiotic&#45;&gt;emmo_relation -->
<g id="edge22" class="edge">
<title>semiotic&#45;&gt;emmo_relation</title>
<path fill="none" stroke="#000000" d="M267.052,-107.4964C236.7689,-110.9767 196.8213,-115.5677 161.6161,-119.6137"/>
<polygon fill="none" stroke="#000000" points="160.878,-116.1754 151.3431,-120.7943 161.6773,-123.1296 160.878,-116.1754"/>
<text text-anchor="middle" x="191.8858" y="-121.8" font-family="Times,serif" font-size="14.00" fill="#000000">is_a</text>
</g>
<!-- has_sign -->
<g id="node22" class="node">
<title>has_sign</title>
<ellipse fill="#ffffcc" stroke="#000000" cx="542.6632" cy="-93" rx="51.1914" ry="18"/>
<text text-anchor="middle" x="542.6632" y="-89.3" font-family="Times,serif" font-size="14.00" fill="#000000">has_sign</text>
</g>
<!-- has_sign&#45;&gt;semiotic -->
<g id="edge23" class="edge">
<title>has_sign&#45;&gt;semiotic</title>
<path fill="none" stroke="#000000" d="M491.5437,-95.0198C457.0415,-96.383 411.3624,-98.1878 375.0965,-99.6207"/>
<polygon fill="none" stroke="#000000" points="374.5058,-96.1412 364.6518,-100.0334 374.7822,-103.1358 374.5058,-96.1412"/>
<text text-anchor="middle" x="437.8697" y="-101.8" font-family="Times,serif" font-size="14.00" fill="#000000">is_a</text>
</g>
<!-- has_convention -->
<g id="node23" class="node">
<title>has_convention</title>
<ellipse fill="#ffffcc" stroke="#000000" cx="762.6494" cy="-126" rx="83.3857" ry="18"/>
<text text-anchor="middle" x="762.6494" y="-122.3" font-family="Times,serif" font-size="14.00" fill="#000000">has_convention</text>
</g>
<!-- has_convention&#45;&gt;has_sign -->
<g id="edge24" class="edge">
<title>has_convention&#45;&gt;has_sign</title>
<path fill="none" stroke="#000000" d="M694.2502,-115.7395C664.0131,-111.2036 628.8579,-105.93 600.0194,-101.604"/>
<polygon fill="none" stroke="#000000" points="600.5093,-98.1384 590.1007,-100.1161 599.4708,-105.0609 600.5093,-98.1384"/>
<text text-anchor="middle" x="647.4567" y="-114.8" font-family="Times,serif" font-size="14.00" fill="#000000">is_a</text>
</g>
<!-- has_variable -->
<g id="node24" class="node">
<title>has_variable</title>
<ellipse fill="#ffffcc" stroke="#000000" cx="981.9856" cy="-180" rx="69.5877" ry="18"/>
<text text-anchor="middle" x="981.9856" y="-176.3" font-family="Times,serif" font-size="14.00" fill="#000000">has_variable</text>
</g>
<!-- has_variable&#45;&gt;has_convention -->
<g id="edge25" class="edge">
<title>has_variable&#45;&gt;has_convention</title>
<path fill="none" stroke="#000000" d="M931.39,-167.5435C900.5482,-159.9503 860.8218,-150.1698 827.6634,-142.0063"/>
<polygon fill="none" stroke="#000000" points="828.1476,-138.521 817.6008,-139.5289 826.4741,-145.3181 828.1476,-138.521"/>
<text text-anchor="middle" x="877.842" y="-160.8" font-family="Times,serif" font-size="14.00" fill="#000000">is_a</text>
</g>
<!-- has_property -->
<g id="node25" class="node">
<title>has_property</title>
<ellipse fill="#ffffcc" stroke="#000000" cx="981.9856" cy="-126" rx="72.2875" ry="18"/>
<text text-anchor="middle" x="981.9856" y="-122.3" font-family="Times,serif" font-size="14.00" fill="#000000">has_property</text>
</g>
<!-- has_property&#45;&gt;has_convention -->
<g id="edge26" class="edge">
<title>has_property&#45;&gt;has_convention</title>
<path fill="none" stroke="#000000" d="M909.5588,-126C892.5565,-126 874.199,-126 856.4118,-126"/>
<polygon fill="none" stroke="#000000" points="856.0194,-122.5001 846.0194,-126 856.0194,-129.5001 856.0194,-122.5001"/>
<text text-anchor="middle" x="877.842" y="-129.8" font-family="Times,serif" font-size="14.00" fill="#000000">is_a</text>
</g>
<!-- has_icon -->
<g id="node26" class="node">
<title>has_icon</title>
<ellipse fill="#ffffcc" stroke="#000000" cx="762.6494" cy="-72" rx="51.1914" ry="18"/>
<text text-anchor="middle" x="762.6494" y="-68.3" font-family="Times,serif" font-size="14.00" fill="#000000">has_icon</text>
</g>
<!-- has_icon&#45;&gt;has_sign -->
<g id="edge27" class="edge">
<title>has_icon&#45;&gt;has_sign</title>
<path fill="none" stroke="#000000" d="M711.9855,-75.4116C688.136,-77.1481 659.3131,-79.4342 633.4567,-82 623.0396,-83.0337 611.9661,-84.2646 601.2653,-85.5225"/>
<polygon fill="none" stroke="#000000" points="600.6673,-82.0689 591.1535,-86.7312 601.4982,-89.0195 600.6673,-82.0689"/>
<text text-anchor="middle" x="647.4567" y="-85.8" font-family="Times,serif" font-size="14.00" fill="#000000">is_a</text>
</g>
<!-- has_model -->
<g id="node27" class="node">
<title>has_model</title>
<ellipse fill="#ffffcc" stroke="#000000" cx="981.9856" cy="-72" rx="59.5901" ry="18"/>
<text text-anchor="middle" x="981.9856" y="-68.3" font-family="Times,serif" font-size="14.00" fill="#000000">has_model</text>
</g>
<!-- has_model&#45;&gt;has_icon -->
<g id="edge28" class="edge">
<title>has_model&#45;&gt;has_icon</title>
<path fill="none" stroke="#000000" d="M922.051,-72C891.7385,-72 854.9948,-72 824.4278,-72"/>
<polygon fill="none" stroke="#000000" points="824.3166,-68.5001 814.3166,-72 824.3165,-75.5001 824.3166,-68.5001"/>
<text text-anchor="middle" x="877.842" y="-75.8" font-family="Times,serif" font-size="14.00" fill="#000000">is_a</text>
</g>
<!-- has_index -->
<g id="node28" class="node">
<title>has_index</title>
<ellipse fill="#ffffcc" stroke="#000000" cx="762.6494" cy="-18" rx="57.3905" ry="18"/>
<text text-anchor="middle" x="762.6494" y="-14.3" font-family="Times,serif" font-size="14.00" fill="#000000">has_index</text>
</g>
<!-- has_index&#45;&gt;has_sign -->
<g id="edge29" class="edge">
<title>has_index&#45;&gt;has_sign</title>
<path fill="none" stroke="#000000" d="M722.3947,-30.8772C708.7436,-35.2939 693.4183,-40.3069 679.4567,-45 648.8605,-55.2848 614.5881,-67.3116 588.002,-76.7538"/>
<polygon fill="none" stroke="#000000" points="586.824,-73.4579 578.5758,-80.1076 589.1705,-80.0529 586.824,-73.4579"/>
<text text-anchor="middle" x="647.4567" y="-64.8" font-family="Times,serif" font-size="14.00" fill="#000000">is_a</text>
</g>
</g>
</svg>
