<?xml version="1.0" encoding="UTF-8" standalone="no"?>
<!DOCTYPE svg PUBLIC "-//W3C//DTD SVG 1.1//EN"
 "http://www.w3.org/Graphics/SVG/1.1/DTD/svg11.dtd">
<!-- Generated by graphviz version 2.40.1 (0)
 -->
<!-- Title: G Pages: 1 -->
<svg width="713pt" height="206pt"
 viewBox="0.00 0.00 713.45 206.00" xmlns="http://www.w3.org/2000/svg" xmlns:xlink="http://www.w3.org/1999/xlink">
<g id="graph0" class="graph" transform="scale(1 1) rotate(0) translate(4 202)">
<title>G</title>
<polygon fill="#ffffff" stroke="transparent" points="-4,4 -4,-202 709.4544,-202 709.4544,4 -4,4"/>
<!-- semiotic -->
<g id="node1" class="node">
<title>semiotic</title>
<g id="a_node1"><a xlink:href="emmodoc.html#semiotic" xlink:title="semiotic" target="_top">
<ellipse fill="#ffffcc" stroke="#000000" cx="50.0456" cy="-72" rx="50.0912" ry="18"/>
<text text-anchor="middle" x="50.0456" y="-68.3" font-family="Times,serif" font-size="14.00" fill="#000000">semiotic</text>
</a>
</g>
</g>
<!-- has_sign -->
<g id="node2" class="node">
<title>has_sign</title>
<g id="a_node2"><a xlink:href="emmodoc.html#has_sign" xlink:title="has_sign" target="_top">
<ellipse fill="#ffffcc" stroke="#000000" cx="215.4366" cy="-72" rx="51.1914" ry="18"/>
<text text-anchor="middle" x="215.4366" y="-68.3" font-family="Times,serif" font-size="14.00" fill="#000000">has_sign</text>
</a>
</g>
</g>
<!-- has_sign&#45;&gt;semiotic -->
<g id="edge1" class="edge">
<title>has_sign&#45;&gt;semiotic</title>
<path fill="none" stroke="#000000" d="M164.0124,-72C147.0489,-72 128.0266,-72 110.455,-72"/>
<polygon fill="none" stroke="#000000" points="110.3033,-68.5001 100.3033,-72 110.3033,-75.5001 110.3033,-68.5001"/>
<text text-anchor="middle" x="132.0911" y="-75.8" font-family="Times,serif" font-size="14.00" fill="#000000">is_a</text>
</g>
<!-- has_convention -->
<g id="node3" class="node">
<title>has_convention</title>
<g id="a_node3"><a xlink:href="emmodoc.html#has_convention" xlink:title="has_convention" target="_top">
<ellipse fill="#ffffcc" stroke="#000000" cx="413.9746" cy="-126" rx="83.3857" ry="18"/>
<text text-anchor="middle" x="413.9746" y="-122.3" font-family="Times,serif" font-size="14.00" fill="#000000">has_convention</text>
</a>
</g>
</g>
<!-- has_convention&#45;&gt;has_sign -->
<g id="edge2" class="edge">
<title>has_convention&#45;&gt;has_sign</title>
<path fill="none" stroke="#000000" d="M361.7913,-111.8993C338.258,-105.5309 310.1172,-97.9026 284.782,-91 278.6961,-89.3419 272.3109,-87.5981 265.9818,-85.867"/>
<polygon fill="none" stroke="#000000" points="266.7023,-82.4356 256.1331,-83.1714 264.8543,-89.1872 266.7023,-82.4356"/>
<text text-anchor="middle" x="298.782" y="-100.8" font-family="Times,serif" font-size="14.00" fill="#000000">is_a</text>
</g>
<!-- has_variable -->
<g id="node4" class="node">
<title>has_variable</title>
<g id="a_node4"><a xlink:href="emmodoc.html#has_variable" xlink:title="has_variable" target="_top">
<ellipse fill="#ffffcc" stroke="#000000" cx="633.3108" cy="-180" rx="69.5877" ry="18"/>
<text text-anchor="middle" x="633.3108" y="-176.3" font-family="Times,serif" font-size="14.00" fill="#000000">has_variable</text>
</a>
</g>
</g>
<!-- has_variable&#45;&gt;has_convention -->
<g id="edge3" class="edge">
<title>has_variable&#45;&gt;has_convention</title>
<path fill="none" stroke="#000000" d="M582.7153,-167.5435C551.8735,-159.9503 512.1471,-150.1698 478.9887,-142.0063"/>
<polygon fill="none" stroke="#000000" points="479.4729,-138.521 468.9261,-139.5289 477.7994,-145.3181 479.4729,-138.521"/>
<text text-anchor="middle" x="529.1672" y="-159.8" font-family="Times,serif" font-size="14.00" fill="#000000">is_a</text>
</g>
<!-- has_property -->
<g id="node5" class="node">
<title>has_property</title>
<g id="a_node5"><a xlink:href="emmodoc.html#has_property" xlink:title="has_property" target="_top">
<ellipse fill="#ffffcc" stroke="#000000" cx="633.3108" cy="-126" rx="72.2875" ry="18"/>
<text text-anchor="middle" x="633.3108" y="-122.3" font-family="Times,serif" font-size="14.00" fill="#000000">has_property</text>
</a>
</g>
</g>
<!-- has_property&#45;&gt;has_convention -->
<g id="edge4" class="edge">
<title>has_property&#45;&gt;has_convention</title>
<path fill="none" stroke="#000000" d="M560.8841,-126C543.8817,-126 525.5242,-126 507.737,-126"/>
<polygon fill="none" stroke="#000000" points="507.3447,-122.5001 497.3447,-126 507.3446,-129.5001 507.3447,-122.5001"/>
<text text-anchor="middle" x="529.1672" y="-129.8" font-family="Times,serif" font-size="14.00" fill="#000000">is_a</text>
</g>
<!-- has_icon -->
<g id="node6" class="node">
<title>has_icon</title>
<g id="a_node6"><a xlink:href="emmodoc.html#has_icon" xlink:title="has_icon" target="_top">
<ellipse fill="#ffffcc" stroke="#000000" cx="413.9746" cy="-72" rx="51.1914" ry="18"/>
<text text-anchor="middle" x="413.9746" y="-68.3" font-family="Times,serif" font-size="14.00" fill="#000000">has_icon</text>
</a>
</g>
</g>
<!-- has_icon&#45;&gt;has_sign -->
<g id="edge5" class="edge">
<title>has_icon&#45;&gt;has_sign</title>
<path fill="none" stroke="#000000" d="M362.5879,-72C336.5069,-72 304.6272,-72 277.2173,-72"/>
<polygon fill="none" stroke="#000000" points="276.9525,-68.5001 266.9525,-72 276.9525,-75.5001 276.9525,-68.5001"/>
<text text-anchor="middle" x="298.782" y="-75.8" font-family="Times,serif" font-size="14.00" fill="#000000">is_a</text>
</g>
<!-- has_model -->
<g id="node7" class="node">
<title>has_model</title>
<g id="a_node7"><a xlink:href="emmodoc.html#has_model" xlink:title="has_model" target="_top">
<ellipse fill="#ffffcc" stroke="#000000" cx="633.3108" cy="-72" rx="59.5901" ry="18"/>
<text text-anchor="middle" x="633.3108" y="-68.3" font-family="Times,serif" font-size="14.00" fill="#000000">has_model</text>
</a>
</g>
</g>
<!-- has_model&#45;&gt;has_icon -->
<g id="edge6" class="edge">
<title>has_model&#45;&gt;has_icon</title>
<path fill="none" stroke="#000000" d="M573.3763,-72C543.0638,-72 506.32,-72 475.753,-72"/>
<polygon fill="none" stroke="#000000" points="475.6419,-68.5001 465.6418,-72 475.6418,-75.5001 475.6419,-68.5001"/>
<text text-anchor="middle" x="529.1672" y="-75.8" font-family="Times,serif" font-size="14.00" fill="#000000">is_a</text>
</g>
<!-- has_index -->
<g id="node8" class="node">
<title>has_index</title>
<g id="a_node8"><a xlink:href="emmodoc.html#has_index" xlink:title="has_index" target="_top">
<ellipse fill="#ffffcc" stroke="#000000" cx="413.9746" cy="-18" rx="57.3905" ry="18"/>
<text text-anchor="middle" x="413.9746" y="-14.3" font-family="Times,serif" font-size="14.00" fill="#000000">has_index</text>
</a>
</g>
</g>
<!-- has_index&#45;&gt;has_sign -->
<g id="edge7" class="edge">
<title>has_index&#45;&gt;has_sign</title>
<path fill="none" stroke="#000000" d="M370.3119,-29.7955C345.274,-36.5678 313.2561,-45.2422 284.782,-53 278.6961,-54.6581 272.3109,-56.4019 265.9818,-58.133"/>
<polygon fill="none" stroke="#000000" points="264.8543,-54.8128 256.1331,-60.8286 266.7023,-61.5644 264.8543,-54.8128"/>
<text text-anchor="middle" x="298.782" y="-56.8" font-family="Times,serif" font-size="14.00" fill="#000000">is_a</text>
</g>
</g>
</svg>
