<?xml version="1.0" encoding="UTF-8" standalone="no"?>
<!DOCTYPE svg PUBLIC "-//W3C//DTD SVG 1.1//EN"
 "http://www.w3.org/Graphics/SVG/1.1/DTD/svg11.dtd">
<!-- Generated by graphviz version 2.40.1 (0)
 -->
<!-- Title: G Pages: 1 -->
<svg width="1327pt" height="305pt"
 viewBox="0.00 0.00 1327.47 305.00" xmlns="http://www.w3.org/2000/svg" xmlns:xlink="http://www.w3.org/1999/xlink">
<g id="graph0" class="graph" transform="scale(1 1) rotate(0) translate(4 301)">
<title>G</title>
<polygon fill="#ffffff" stroke="transparent" points="-4,4 -4,-301 1323.4694,-301 1323.4694,4 -4,4"/>
<!-- sign -->
<g id="node1" class="node">
<title>sign</title>
<g id="a_node1"><a xlink:href="emmodoc.html#sign" xlink:title="sign" target="_top">
<ellipse fill="#ffc880" stroke="#000000" cx="91.5" cy="-132" rx="30.5947" ry="18"/>
<text text-anchor="middle" x="91.5" y="-128.3" font-family="Times,serif" font-size="14.00" fill="#000000">sign</text>
</a>
</g>
</g>
<!-- sign&#45;&gt;sign -->
<g id="edge18" class="edge">
<title>sign&#45;&gt;sign</title>
<path fill="none" stroke="#6b8e23" d="M102.4864,-149.0373C104.7285,-158.8579 101.0664,-168 91.5,-168 85.521,-168 81.8483,-164.4289 80.4821,-159.3529"/>
<polygon fill="#6b8e23" stroke="#6b8e23" points="83.9829,-159.048 80.5136,-149.0373 76.9829,-159.0265 83.9829,-159.048"/>
<text text-anchor="middle" x="91.5" y="-171.8" font-family="Times,serif" font-size="14.00" fill="#000000">has_temporal_part only &#160;&#160;</text>
</g>
<!-- index -->
<g id="node2" class="node">
<title>index</title>
<g id="a_node2"><a xlink:href="emmodoc.html#index" xlink:title="index" target="_top">
<ellipse fill="#ffffcc" stroke="#000000" cx="256.2411" cy="-217" rx="36.2938" ry="18"/>
<text text-anchor="middle" x="256.2411" y="-213.3" font-family="Times,serif" font-size="14.00" fill="#000000">index</text>
</a>
</g>
</g>
<!-- index&#45;&gt;sign -->
<g id="edge1" class="edge">
<title>index&#45;&gt;sign</title>
<path fill="none" stroke="#000000" d="M226.1192,-206.5231C213.5547,-201.8688 198.9187,-196.0726 186.0473,-190 164.8082,-179.9796 160.0851,-176.2472 140.0473,-164 133.5336,-160.0188 126.6317,-155.5972 120.1394,-151.3429"/>
<polygon fill="none" stroke="#000000" points="121.8861,-148.3018 111.6152,-145.7022 118.0232,-154.1395 121.8861,-148.3018"/>
<text text-anchor="middle" x="154.0473" y="-183.8" font-family="Times,serif" font-size="14.00" fill="#000000">is_a</text>
</g>
<!-- icon -->
<g id="node3" class="node">
<title>icon</title>
<g id="a_node3"><a xlink:href="emmodoc.html#icon" xlink:title="icon" target="_top">
<ellipse fill="#ffffcc" stroke="#000000" cx="256.2411" cy="-163" rx="30.5947" ry="18"/>
<text text-anchor="middle" x="256.2411" y="-159.3" font-family="Times,serif" font-size="14.00" fill="#000000">icon</text>
</a>
</g>
</g>
<!-- icon&#45;&gt;sign -->
<g id="edge2" class="edge">
<title>icon&#45;&gt;sign</title>
<path fill="none" stroke="#000000" d="M226.7887,-157.4578C199.9652,-152.4103 160.1583,-144.9197 130.6623,-139.3693"/>
<polygon fill="none" stroke="#000000" points="131.1722,-135.9039 120.6974,-137.4942 129.8777,-142.7832 131.1722,-135.9039"/>
<text text-anchor="middle" x="154.0473" y="-148.8" font-family="Times,serif" font-size="14.00" fill="#000000">is_a</text>
</g>
<!-- model -->
<g id="node4" class="node">
<title>model</title>
<g id="a_node4"><a xlink:href="emmodoc.html#model" xlink:title="model" target="_top">
<ellipse fill="#ffc880" stroke="#000000" cx="441.7803" cy="-163" rx="38.9931" ry="18"/>
<text text-anchor="middle" x="441.7803" y="-159.3" font-family="Times,serif" font-size="14.00" fill="#000000">model</text>
</a>
</g>
</g>
<!-- model&#45;&gt;icon -->
<g id="edge3" class="edge">
<title>model&#45;&gt;icon</title>
<path fill="none" stroke="#000000" d="M402.4322,-163C371.4674,-163 328.4573,-163 297.1075,-163"/>
<polygon fill="none" stroke="#000000" points="296.9572,-159.5001 286.9571,-163 296.9571,-166.5001 296.9572,-159.5001"/>
<text text-anchor="middle" x="358.4348" y="-166.8" font-family="Times,serif" font-size="14.00" fill="#000000">is_a</text>
</g>
<!-- mathematical_model -->
<g id="node5" class="node">
<title>mathematical_model</title>
<g id="a_node5"><a xlink:href="emmodoc.html#mathematical_model" xlink:title="mathematical_model" target="_top">
<ellipse fill="#ffffcc" stroke="#000000" cx="665.0161" cy="-163" rx="107.781" ry="18"/>
<text text-anchor="middle" x="665.0161" y="-159.3" font-family="Times,serif" font-size="14.00" fill="#000000">mathematical_model</text>
</a>
</g>
</g>
<!-- mathematical_model&#45;&gt;model -->
<g id="edge4" class="edge">
<title>mathematical_model&#45;&gt;model</title>
<path fill="none" stroke="#000000" d="M556.9947,-163C533.882,-163 510.5634,-163 491.0086,-163"/>
<polygon fill="none" stroke="#000000" points="490.8531,-159.5001 480.853,-163 490.853,-166.5001 490.8531,-159.5001"/>
<text text-anchor="middle" x="525.1257" y="-166.8" font-family="Times,serif" font-size="14.00" fill="#000000">is_a</text>
</g>
<!-- physics_based_model -->
<g id="node6" class="node">
<title>physics_based_model</title>
<g id="a_node6"><a xlink:href="emmodoc.html#physics_based_model" xlink:title="physics_based_model" target="_top">
<ellipse fill="#ffffcc" stroke="#000000" cx="948.0467" cy="-198" rx="111.2805" ry="18"/>
<text text-anchor="middle" x="948.0467" y="-194.3" font-family="Times,serif" font-size="14.00" fill="#000000">physics_based_model</text>
</a>
</g>
</g>
<!-- physics_based_model&#45;&gt;mathematical_model -->
<g id="edge5" class="edge">
<title>physics_based_model&#45;&gt;mathematical_model</title>
<path fill="none" stroke="#000000" d="M859.6583,-187.0697C828.6307,-183.2328 793.6171,-178.903 761.9275,-174.9842"/>
<polygon fill="none" stroke="#000000" points="762.1187,-171.4813 751.7647,-173.7275 761.2595,-178.4284 762.1187,-171.4813"/>
<text text-anchor="middle" x="804.9066" y="-184.8" font-family="Times,serif" font-size="14.00" fill="#000000">is_a</text>
</g>
<!-- continuum_model -->
<g id="node7" class="node">
<title>continuum_model</title>
<g id="a_node7"><a xlink:href="emmodoc.html#continuum_model" xlink:title="continuum_model" target="_top">
<ellipse fill="#ffffcc" stroke="#000000" cx="1221.3281" cy="-279" rx="93.6835" ry="18"/>
<text text-anchor="middle" x="1221.3281" y="-275.3" font-family="Times,serif" font-size="14.00" fill="#000000">continuum_model</text>
</a>
</g>
</g>
<!-- continuum_model&#45;&gt;physics_based_model -->
<g id="edge6" class="edge">
<title>continuum_model&#45;&gt;physics_based_model</title>
<path fill="none" stroke="#000000" d="M1166.7376,-264.3003C1152.5342,-260.3885 1137.2676,-256.1066 1123.1869,-252 1084.9594,-240.8512 1042.2526,-227.6978 1008.5815,-217.1641"/>
<polygon fill="none" stroke="#000000" points="1009.4764,-213.7768 998.8873,-214.1257 1007.3828,-220.4564 1009.4764,-213.7768"/>
<text text-anchor="middle" x="1091.1869" y="-249.8" font-family="Times,serif" font-size="14.00" fill="#000000">is_a</text>
</g>
<!-- mesoscopic_model -->
<g id="node8" class="node">
<title>mesoscopic_model</title>
<g id="a_node8"><a xlink:href="emmodoc.html#mesoscopic_model" xlink:title="mesoscopic_model" target="_top">
<ellipse fill="#ffffcc" stroke="#000000" cx="1221.3281" cy="-225" rx="98.2828" ry="18"/>
<text text-anchor="middle" x="1221.3281" y="-221.3" font-family="Times,serif" font-size="14.00" fill="#000000">mesoscopic_model</text>
</a>
</g>
</g>
<!-- mesoscopic_model&#45;&gt;physics_based_model -->
<g id="edge7" class="edge">
<title>mesoscopic_model&#45;&gt;physics_based_model</title>
<path fill="none" stroke="#000000" d="M1134.8602,-216.457C1108.931,-213.8952 1080.2027,-211.0569 1053.2078,-208.3898"/>
<polygon fill="none" stroke="#000000" points="1053.2518,-204.8772 1042.9561,-207.377 1052.5635,-211.8433 1053.2518,-204.8772"/>
<text text-anchor="middle" x="1091.1869" y="-216.8" font-family="Times,serif" font-size="14.00" fill="#000000">is_a</text>
</g>
<!-- electronic_model -->
<g id="node9" class="node">
<title>electronic_model</title>
<g id="a_node9"><a xlink:href="emmodoc.html#electronic_model" xlink:title="electronic_model" target="_top">
<ellipse fill="#ffffcc" stroke="#000000" cx="1221.3281" cy="-171" rx="90.9839" ry="18"/>
<text text-anchor="middle" x="1221.3281" y="-167.3" font-family="Times,serif" font-size="14.00" fill="#000000">electronic_model</text>
</a>
</g>
</g>
<!-- electronic_model&#45;&gt;physics_based_model -->
<g id="edge8" class="edge">
<title>electronic_model&#45;&gt;physics_based_model</title>
<path fill="none" stroke="#000000" d="M1139.7049,-179.0643C1112.5515,-181.747 1081.9184,-184.7736 1053.2396,-187.607"/>
<polygon fill="none" stroke="#000000" points="1052.7934,-184.134 1043.186,-188.6003 1053.4817,-191.1001 1052.7934,-184.134"/>
<text text-anchor="middle" x="1091.1869" y="-187.8" font-family="Times,serif" font-size="14.00" fill="#000000">is_a</text>
</g>
<!-- atomistic_model -->
<g id="node10" class="node">
<title>atomistic_model</title>
<g id="a_node10"><a xlink:href="emmodoc.html#atomistic_model" xlink:title="atomistic_model" target="_top">
<ellipse fill="#ffffcc" stroke="#000000" cx="1221.3281" cy="-117" rx="87.1846" ry="18"/>
<text text-anchor="middle" x="1221.3281" y="-113.3" font-family="Times,serif" font-size="14.00" fill="#000000">atomistic_model</text>
</a>
</g>
</g>
<!-- atomistic_model&#45;&gt;physics_based_model -->
<g id="edge9" class="edge">
<title>atomistic_model&#45;&gt;physics_based_model</title>
<path fill="none" stroke="#000000" d="M1165.9428,-130.9547C1151.8909,-134.8451 1136.8952,-139.3032 1123.1869,-144 1102.2612,-151.1696 1097.5175,-154.2852 1077.1869,-163 1069.1404,-166.4491 1067.4739,-168.1775 1059.1869,-171 1048.429,-174.6641 1036.9262,-178.0393 1025.5493,-181.0718"/>
<polygon fill="none" stroke="#000000" points="1024.4087,-177.7516 1015.6057,-183.6471 1026.1638,-184.5281 1024.4087,-177.7516"/>
<text text-anchor="middle" x="1091.1869" y="-166.8" font-family="Times,serif" font-size="14.00" fill="#000000">is_a</text>
</g>
<!-- data_based_model -->
<g id="node11" class="node">
<title>data_based_model</title>
<g id="a_node11"><a xlink:href="emmodoc.html#data_based_model" xlink:title="data_based_model" target="_top">
<ellipse fill="#ffffcc" stroke="#000000" cx="948.0467" cy="-144" rx="96.6831" ry="18"/>
<text text-anchor="middle" x="948.0467" y="-140.3" font-family="Times,serif" font-size="14.00" fill="#000000">data_based_model</text>
</a>
</g>
</g>
<!-- data_based_model&#45;&gt;mathematical_model -->
<g id="edge10" class="edge">
<title>data_based_model&#45;&gt;mathematical_model</title>
<path fill="none" stroke="#000000" d="M854.962,-148.9911C833.8928,-150.2154 811.626,-151.5839 790.9066,-153 784.9511,-153.407 778.8384,-153.8406 772.6694,-154.2904"/>
<polygon fill="none" stroke="#000000" points="771.9664,-150.8328 762.2519,-155.0611 772.4828,-157.8137 771.9664,-150.8328"/>
<text text-anchor="middle" x="804.9066" y="-156.8" font-family="Times,serif" font-size="14.00" fill="#000000">is_a</text>
</g>
<!-- conventional -->
<g id="node12" class="node">
<title>conventional</title>
<g id="a_node12"><a xlink:href="emmodoc.html#conventional" xlink:title="conventional" target="_top">
<ellipse fill="#ffffcc" stroke="#000000" cx="256.2411" cy="-109" rx="70.3881" ry="18"/>
<text text-anchor="middle" x="256.2411" y="-105.3" font-family="Times,serif" font-size="14.00" fill="#000000">conventional</text>
</a>
</g>
</g>
<!-- conventional&#45;&gt;sign -->
<g id="edge11" class="edge">
<title>conventional&#45;&gt;sign</title>
<path fill="none" stroke="#000000" d="M186.8237,-112.0563C171.3508,-113.3812 155.079,-115.2797 140.0473,-118 136.1293,-118.709 132.0745,-119.6068 128.0546,-120.604"/>
<polygon fill="none" stroke="#000000" points="126.9844,-117.2672 118.2315,-123.2369 128.7968,-124.0285 126.9844,-117.2672"/>
<text text-anchor="middle" x="154.0473" y="-121.8" font-family="Times,serif" font-size="14.00" fill="#000000">is_a</text>
</g>
<!-- property -->
<g id="node13" class="node">
<title>property</title>
<g id="a_node13"><a xlink:href="emmodoc.html#property" xlink:title="property" target="_top">
<ellipse fill="#ffffcc" stroke="#000000" cx="441.7803" cy="-109" rx="51.1914" ry="18"/>
<text text-anchor="middle" x="441.7803" y="-105.3" font-family="Times,serif" font-size="14.00" fill="#000000">property</text>
</a>
</g>
</g>
<!-- property&#45;&gt;conventional -->
<g id="edge12" class="edge">
<title>property&#45;&gt;conventional</title>
<path fill="none" stroke="#000000" d="M390.0973,-109C373.6176,-109 354.9702,-109 336.9415,-109"/>
<polygon fill="none" stroke="#000000" points="336.7142,-105.5001 326.7141,-109 336.7141,-112.5001 336.7142,-105.5001"/>
<text text-anchor="middle" x="358.4348" y="-112.8" font-family="Times,serif" font-size="14.00" fill="#000000">is_a</text>
</g>
<!-- theory -->
<g id="node14" class="node">
<title>theory</title>
<g id="a_node14"><a xlink:href="emmodoc.html#theory" xlink:title="theory" target="_top">
<ellipse fill="#ffffcc" stroke="#000000" cx="441.7803" cy="-55" rx="40.8928" ry="18"/>
<text text-anchor="middle" x="441.7803" y="-51.3" font-family="Times,serif" font-size="14.00" fill="#000000">theory</text>
</a>
</g>
</g>
<!-- theory&#45;&gt;conventional -->
<g id="edge13" class="edge">
<title>theory&#45;&gt;conventional</title>
<path fill="none" stroke="#000000" d="M407.3166,-65.0304C380.7442,-72.7642 343.4388,-83.6216 312.5481,-92.6122"/>
<polygon fill="none" stroke="#000000" points="311.3893,-89.3041 302.7658,-95.4593 313.3455,-96.0253 311.3893,-89.3041"/>
<text text-anchor="middle" x="358.4348" y="-85.8" font-family="Times,serif" font-size="14.00" fill="#000000">is_a</text>
</g>
<!-- natural_law -->
<g id="node15" class="node">
<title>natural_law</title>
<g id="a_node15"><a xlink:href="emmodoc.html#natural_law" xlink:title="natural_law" target="_top">
<ellipse fill="#ffffcc" stroke="#000000" cx="665.0161" cy="-55" rx="65.7887" ry="18"/>
<text text-anchor="middle" x="665.0161" y="-51.3" font-family="Times,serif" font-size="14.00" fill="#000000">natural_law</text>
</a>
</g>
</g>
<!-- natural_law&#45;&gt;theory -->
<g id="edge14" class="edge">
<title>natural_law&#45;&gt;theory</title>
<path fill="none" stroke="#000000" d="M599.2454,-55C565.3895,-55 524.7221,-55 493.1971,-55"/>
<polygon fill="none" stroke="#000000" points="492.8796,-51.5001 482.8796,-55 492.8795,-58.5001 492.8796,-51.5001"/>
<text text-anchor="middle" x="525.1257" y="-58.8" font-family="Times,serif" font-size="14.00" fill="#000000">is_a</text>
</g>
<!-- physical_law -->
<g id="node16" class="node">
<title>physical_law</title>
<g id="a_node16"><a xlink:href="emmodoc.html#physical_law" xlink:title="physical_law" target="_top">
<ellipse fill="#ffffcc" stroke="#000000" cx="948.0467" cy="-72" rx="70.3881" ry="18"/>
<text text-anchor="middle" x="948.0467" y="-68.3" font-family="Times,serif" font-size="14.00" fill="#000000">physical_law</text>
</a>
</g>
</g>
<!-- physical_law&#45;&gt;natural_law -->
<g id="edge15" class="edge">
<title>physical_law&#45;&gt;natural_law</title>
<path fill="none" stroke="#000000" d="M879.5329,-67.8848C837.2759,-65.3466 783.0602,-62.0902 739.706,-59.4862"/>
<polygon fill="none" stroke="#000000" points="739.6921,-55.9791 729.5002,-58.8732 739.2723,-62.9665 739.6921,-55.9791"/>
<text text-anchor="middle" x="804.9066" y="-68.8" font-family="Times,serif" font-size="14.00" fill="#000000">is_a</text>
</g>
<!-- material_law -->
<g id="node17" class="node">
<title>material_law</title>
<g id="a_node17"><a xlink:href="emmodoc.html#material_law" xlink:title="material_law" target="_top">
<ellipse fill="#ffffcc" stroke="#000000" cx="948.0467" cy="-18" rx="70.6878" ry="18"/>
<text text-anchor="middle" x="948.0467" y="-14.3" font-family="Times,serif" font-size="14.00" fill="#000000">material_law</text>
</a>
</g>
</g>
<!-- material_law&#45;&gt;natural_law -->
<g id="edge16" class="edge">
<title>material_law&#45;&gt;natural_law</title>
<path fill="none" stroke="#000000" d="M884.8814,-26.2575C840.3505,-32.0789 780.7055,-39.8762 734.7743,-45.8807"/>
<polygon fill="none" stroke="#000000" points="734.0626,-42.4438 724.6007,-47.2106 734.9701,-49.3848 734.0626,-42.4438"/>
<text text-anchor="middle" x="804.9066" y="-41.8" font-family="Times,serif" font-size="14.00" fill="#000000">is_a</text>
</g>
<!-- interpretant -->
<g id="node18" class="node">
<title>interpretant</title>
<g id="a_node18"><a xlink:href="emmodoc.html#interpretant" xlink:title="interpretant" target="_top">
<ellipse fill="#ffffcc" stroke="#000000" cx="256.2411" cy="-55" rx="67.6881" ry="18"/>
<text text-anchor="middle" x="256.2411" y="-51.3" font-family="Times,serif" font-size="14.00" fill="#000000">interpretant</text>
</a>
</g>
</g>
<!-- interpretant&#45;&gt;sign -->
<g id="edge17" class="edge">
<title>interpretant&#45;&gt;sign</title>
<path fill="none" stroke="#000000" d="M208.1598,-67.7633C186.6552,-74.4174 161.3967,-83.5744 140.0473,-95 131.9887,-99.3127 123.8496,-104.9193 116.5989,-110.4584"/>
<polygon fill="none" stroke="#000000" points="114.2074,-107.8881 108.5534,-116.8482 118.5609,-113.3697 114.2074,-107.8881"/>
<text text-anchor="middle" x="154.0473" y="-98.8" font-family="Times,serif" font-size="14.00" fill="#000000">is_a</text>
</g>
</g>
</svg>
