<?xml version="1.0" encoding="UTF-8" standalone="no"?>
<!DOCTYPE svg PUBLIC "-//W3C//DTD SVG 1.1//EN"
 "http://www.w3.org/Graphics/SVG/1.1/DTD/svg11.dtd">
<!-- Generated by graphviz version 2.40.1 (0)
 -->
<!-- Title: G Pages: 1 -->
<svg width="693pt" height="98pt"
 viewBox="0.00 0.00 692.66 98.00" xmlns="http://www.w3.org/2000/svg" xmlns:xlink="http://www.w3.org/1999/xlink">
<g id="graph0" class="graph" transform="scale(1 1) rotate(0) translate(4 94)">
<title>G</title>
<polygon fill="#ffffff" stroke="transparent" points="-4,4 -4,-94 688.6563,-94 688.6563,4 -4,4"/>
<!-- String -->
<g id="node1" class="node">
<title>String</title>
<g id="a_node1"><a xlink:href="http://emmo.info/domains/emmo-graphical.owl#EMMO_50ea1ec5_f157_41b0_b46b_a9032f17ca10" xlink:title="String" target="_top">
<ellipse fill="#ffffcc" stroke="#000000" stroke-width="3" cx="40.2964" cy="-45" rx="40.0939" ry="18"/>
<text text-anchor="middle" x="40.2964" y="-41.3" font-family="Times,serif" font-size="14.00" fill="#000000">String</text>
</a>
</g>
</g>
<!-- MathString -->
<g id="node2" class="node">
<title>MathString</title>
<g id="a_node2"><a xlink:href="http://emmo.info/domains/emmo-math.owl#EMMO_2c03c212_742d_4699_9956_d182735009dc" xlink:title="MathString" target="_top">
<ellipse fill="#ffc880" stroke="#000000" cx="208.9371" cy="-18" rx="64.189" ry="18"/>
<text text-anchor="middle" x="208.9371" y="-14.3" font-family="Times,serif" font-size="14.00" fill="#000000">MathString</text>
</a>
</g>
</g>
<!-- MathString&#45;&gt;String -->
<g id="edge1" class="edge">
<title>MathString&#45;&gt;String</title>
<path fill="none" stroke="#000000" d="M152.7822,-26.9906C131.976,-30.3218 108.5848,-34.0668 88.5439,-37.2754"/>
<polygon fill="none" stroke="#000000" points="87.7216,-33.8624 78.4007,-38.8994 88.8283,-40.7744 87.7216,-33.8624"/>
<text text-anchor="middle" x="112.5928" y="-38.8" font-family="Times,serif" font-size="14.00" fill="#000000">is_a</text>
</g>
<!-- Equation -->
<g id="node3" class="node">
<title>Equation</title>
<g id="a_node3"><a xlink:href="http://emmo.info/domains/emmo-math.owl#EMMO_e56ee3eb_7609_4ae1_8bed_51974f0960a6" xlink:title="Equation" target="_top">
<ellipse fill="#ffffcc" stroke="#000000" cx="389.9268" cy="-45" rx="52.7911" ry="18"/>
<text text-anchor="middle" x="389.9268" y="-41.3" font-family="Times,serif" font-size="14.00" fill="#000000">Equation</text>
</a>
</g>
</g>
<!-- Equation&#45;&gt;String -->
<g id="edge5" class="edge">
<title>Equation&#45;&gt;String</title>
<path fill="none" stroke="#000000" d="M339.7983,-50.5189C332.9122,-51.1157 325.927,-51.637 319.2814,-52 221.3396,-57.3502 196.3932,-61.5049 98.5928,-54 95.118,-53.7333 91.5368,-53.3785 87.9389,-52.9637"/>
<polygon fill="none" stroke="#000000" points="88.1955,-49.4679 77.8298,-51.6592 87.2996,-56.4104 88.1955,-49.4679"/>
<text text-anchor="middle" x="208.9371" y="-61.8" font-family="Times,serif" font-size="14.00" fill="#000000">is_a</text>
</g>
<!-- Equation&#45;&gt;MathString -->
<g id="edge2" class="edge">
<title>Equation&#45;&gt;MathString</title>
<path fill="none" stroke="#000000" d="M341.4249,-37.7645C321.3574,-34.7708 297.7501,-31.2491 276.0646,-28.0141"/>
<polygon fill="none" stroke="#000000" points="276.3348,-24.5157 265.9278,-26.5019 275.3019,-31.4391 276.3348,-24.5157"/>
<text text-anchor="middle" x="305.2814" y="-36.8" font-family="Times,serif" font-size="14.00" fill="#000000">is_a</text>
</g>
<!-- PhysicsEquation -->
<g id="node4" class="node">
<title>PhysicsEquation</title>
<g id="a_node4"><a xlink:href="http://emmo.info/domains/emmo-models.owl#EMMO_27c5d8c6_8af7_4d63_beb1_ec37cd8b3fa3" xlink:title="PhysicsEquation" target="_top">
<ellipse fill="#ffffcc" stroke="#000000" cx="595.6142" cy="-72" rx="88.2844" ry="18"/>
<text text-anchor="middle" x="595.6142" y="-68.3" font-family="Times,serif" font-size="14.00" fill="#000000">PhysicsEquation</text>
</a>
</g>
</g>
<!-- PhysicsEquation&#45;&gt;Equation -->
<g id="edge3" class="edge">
<title>PhysicsEquation&#45;&gt;Equation</title>
<path fill="none" stroke="#000000" d="M521.0655,-62.2142C497.4366,-59.1125 471.6469,-55.7272 449.2386,-52.7857"/>
<polygon fill="none" stroke="#000000" points="449.5712,-49.2994 439.2007,-51.468 448.66,-56.2399 449.5712,-49.2994"/>
<text text-anchor="middle" x="474.5721" y="-60.8" font-family="Times,serif" font-size="14.00" fill="#000000">is_a</text>
</g>
<!-- MaterialRelation -->
<g id="node5" class="node">
<title>MaterialRelation</title>
<g id="a_node5"><a xlink:href="http://emmo.info/domains/emmo-models.owl#EMMO_e5438930_04e7_4d42_ade5_3700d4a52ab7" xlink:title="MaterialRelation" target="_top">
<ellipse fill="#ffffcc" stroke="#000000" cx="595.6142" cy="-18" rx="89.0842" ry="18"/>
<text text-anchor="middle" x="595.6142" y="-14.3" font-family="Times,serif" font-size="14.00" fill="#000000">MaterialRelation</text>
</a>
</g>
</g>
<!-- MaterialRelation&#45;&gt;Equation -->
<g id="edge4" class="edge">
<title>MaterialRelation&#45;&gt;Equation</title>
<path fill="none" stroke="#000000" d="M519.5255,-27.3704C500.2819,-29.7974 479.6605,-32.4477 460.5721,-35 456.6777,-35.5207 452.6639,-36.0659 448.6199,-36.6215"/>
<polygon fill="none" stroke="#000000" points="447.9816,-33.1765 438.5567,-38.0161 448.9426,-40.1102 447.9816,-33.1765"/>
<text text-anchor="middle" x="474.5721" y="-38.8" font-family="Times,serif" font-size="14.00" fill="#000000">is_a</text>
</g>
</g>
</svg>
