<?xml version="1.0" encoding="UTF-8" standalone="no"?>
<!DOCTYPE svg PUBLIC "-//W3C//DTD SVG 1.1//EN"
 "http://www.w3.org/Graphics/SVG/1.1/DTD/svg11.dtd">
<!-- Generated by graphviz version 2.40.1 (0)
 -->
<!-- Title: G Pages: 1 -->
<svg width="650pt" height="152pt"
 viewBox="0.00 0.00 649.76 152.00" xmlns="http://www.w3.org/2000/svg" xmlns:xlink="http://www.w3.org/1999/xlink">
<g id="graph0" class="graph" transform="scale(1 1) rotate(0) translate(4 148)">
<title>G</title>
<polygon fill="#ffffff" stroke="transparent" points="-4,4 -4,-148 645.7601,-148 645.7601,4 -4,4"/>
<!-- symbol -->
<g id="node1" class="node">
<title>symbol</title>
<g id="a_node1"><a xlink:href="emmodoc.html#symbol" xlink:title="symbol" target="_top">
<ellipse fill="#ffffcc" stroke="#000000" cx="44.1961" cy="-99" rx="44.393" ry="18"/>
<text text-anchor="middle" x="44.1961" y="-95.3" font-family="Times,serif" font-size="14.00" fill="#000000">symbol</text>
</a>
</g>
</g>
<!-- math_symbol -->
<g id="node2" class="node">
<title>math_symbol</title>
<g id="a_node2"><a xlink:href="emmodoc.html#math_symbol" xlink:title="math_symbol" target="_top">
<ellipse fill="#ffffcc" stroke="#000000" cx="225.1857" cy="-99" rx="72.5877" ry="18"/>
<text text-anchor="middle" x="225.1857" y="-95.3" font-family="Times,serif" font-size="14.00" fill="#000000">math_symbol</text>
</a>
</g>
</g>
<!-- math_symbol&#45;&gt;symbol -->
<g id="edge1" class="edge">
<title>math_symbol&#45;&gt;symbol</title>
<path fill="none" stroke="#000000" d="M152.3526,-99C134.4569,-99 115.6024,-99 98.7374,-99"/>
<polygon fill="none" stroke="#000000" points="98.52,-95.5001 88.52,-99 98.52,-102.5001 98.52,-95.5001"/>
<text text-anchor="middle" x="120.3922" y="-102.8" font-family="Times,serif" font-size="14.00" fill="#000000">is_a</text>
</g>
<!-- number -->
<g id="node3" class="node">
<title>number</title>
<g id="a_node3"><a xlink:href="emmodoc.html#number" xlink:title="number" target="_top">
<ellipse fill="#ffffcc" stroke="#000000" cx="410.075" cy="-126" rx="46.5926" ry="18"/>
<text text-anchor="middle" x="410.075" y="-122.3" font-family="Times,serif" font-size="14.00" fill="#000000">number</text>
</a>
</g>
</g>
<!-- number&#45;&gt;math_symbol -->
<g id="edge2" class="edge">
<title>number&#45;&gt;math_symbol</title>
<path fill="none" stroke="#000000" d="M366.2588,-119.6014C345.8873,-116.6265 321.1116,-113.0084 298.0418,-109.6394"/>
<polygon fill="none" stroke="#000000" points="298.3327,-106.1449 287.9319,-108.163 297.3212,-113.0714 298.3327,-106.1449"/>
<text text-anchor="middle" x="329.9792" y="-118.8" font-family="Times,serif" font-size="14.00" fill="#000000">is_a</text>
</g>
<!-- variable -->
<g id="node4" class="node">
<title>variable</title>
<g id="a_node4"><a xlink:href="emmodoc.html#variable" xlink:title="variable" target="_top">
<ellipse fill="#ffffcc" stroke="#000000" cx="410.075" cy="-72" rx="48.1917" ry="18"/>
<text text-anchor="middle" x="410.075" y="-68.3" font-family="Times,serif" font-size="14.00" fill="#000000">variable</text>
</a>
</g>
</g>
<!-- variable&#45;&gt;math_symbol -->
<g id="edge3" class="edge">
<title>variable&#45;&gt;math_symbol</title>
<path fill="none" stroke="#000000" d="M364.846,-78.6049C344.821,-81.5293 320.7556,-85.0436 298.2864,-88.3249"/>
<polygon fill="none" stroke="#000000" points="297.4845,-84.9048 288.0952,-89.8131 298.4961,-91.8313 297.4845,-84.9048"/>
<text text-anchor="middle" x="329.9792" y="-88.8" font-family="Times,serif" font-size="14.00" fill="#000000">is_a</text>
</g>
<!-- constant -->
<g id="node5" class="node">
<title>constant</title>
<g id="a_node5"><a xlink:href="emmodoc.html#constant" xlink:title="constant" target="_top">
<ellipse fill="#ffffcc" stroke="#000000" cx="581.9654" cy="-126" rx="51.1914" ry="18"/>
<text text-anchor="middle" x="581.9654" y="-122.3" font-family="Times,serif" font-size="14.00" fill="#000000">constant</text>
</a>
</g>
</g>
<!-- constant&#45;&gt;variable -->
<g id="edge4" class="edge">
<title>constant&#45;&gt;variable</title>
<path fill="none" stroke="#000000" d="M543.3898,-113.8813C517.7364,-105.8222 483.8945,-95.1907 456.7273,-86.656"/>
<polygon fill="none" stroke="#000000" points="457.6372,-83.2733 447.0479,-83.6152 455.5392,-89.9515 457.6372,-83.2733"/>
<text text-anchor="middle" x="490.1707" y="-103.8" font-family="Times,serif" font-size="14.00" fill="#000000">is_a</text>
</g>
<!-- parameter -->
<g id="node6" class="node">
<title>parameter</title>
<g id="a_node6"><a xlink:href="emmodoc.html#parameter" xlink:title="parameter" target="_top">
<ellipse fill="#ffffcc" stroke="#000000" cx="581.9654" cy="-72" rx="59.5901" ry="18"/>
<text text-anchor="middle" x="581.9654" y="-68.3" font-family="Times,serif" font-size="14.00" fill="#000000">parameter</text>
</a>
</g>
</g>
<!-- parameter&#45;&gt;variable -->
<g id="edge5" class="edge">
<title>parameter&#45;&gt;variable</title>
<path fill="none" stroke="#000000" d="M521.8465,-72C504.6092,-72 485.844,-72 468.6981,-72"/>
<polygon fill="none" stroke="#000000" points="468.2597,-68.5001 458.2597,-72 468.2596,-75.5001 468.2597,-68.5001"/>
<text text-anchor="middle" x="490.1707" y="-75.8" font-family="Times,serif" font-size="14.00" fill="#000000">is_a</text>
</g>
<!-- unknown -->
<g id="node7" class="node">
<title>unknown</title>
<g id="a_node7"><a xlink:href="emmodoc.html#unknown" xlink:title="unknown" target="_top">
<ellipse fill="#ffffcc" stroke="#000000" cx="581.9654" cy="-18" rx="53.0913" ry="18"/>
<text text-anchor="middle" x="581.9654" y="-14.3" font-family="Times,serif" font-size="14.00" fill="#000000">unknown</text>
</a>
</g>
</g>
<!-- unknown&#45;&gt;variable -->
<g id="edge6" class="edge">
<title>unknown&#45;&gt;variable</title>
<path fill="none" stroke="#000000" d="M542.5303,-30.3887C516.9302,-38.431 483.4517,-48.9484 456.558,-57.3972"/>
<polygon fill="none" stroke="#000000" points="455.4658,-54.0716 446.9745,-60.4079 457.5638,-60.7498 455.4658,-54.0716"/>
<text text-anchor="middle" x="490.1707" y="-52.8" font-family="Times,serif" font-size="14.00" fill="#000000">is_a</text>
</g>
</g>
</svg>
