<?xml version="1.0" encoding="UTF-8" standalone="no"?>
<!DOCTYPE svg PUBLIC "-//W3C//DTD SVG 1.1//EN"
 "http://www.w3.org/Graphics/SVG/1.1/DTD/svg11.dtd">
<!-- Generated by graphviz version 2.40.1 (0)
 -->
<!-- Title: G Pages: 1 -->
<svg width="488pt" height="152pt"
 viewBox="0.00 0.00 488.27 152.00" xmlns="http://www.w3.org/2000/svg" xmlns:xlink="http://www.w3.org/1999/xlink">
<g id="graph0" class="graph" transform="scale(1 1) rotate(0) translate(4 148)">
<title>G</title>
<polygon fill="#ffffff" stroke="transparent" points="-4,4 -4,-148 484.2687,-148 484.2687,4 -4,4"/>
<!-- connected -->
<g id="node1" class="node">
<title>connected</title>
<g id="a_node1"><a xlink:href="emmodoc.html#connected" xlink:title="connected" target="_top">
<ellipse fill="#ffffcc" stroke="#000000" cx="59.1448" cy="-72" rx="59.2899" ry="18"/>
<text text-anchor="middle" x="59.1448" y="-68.3" font-family="Times,serif" font-size="14.00" fill="#000000">connected</text>
</a>
</g>
</g>
<!-- encloses -->
<g id="node2" class="node">
<title>encloses</title>
<g id="a_node2"><a xlink:href="emmodoc.html#encloses" xlink:title="encloses" target="_top">
<ellipse fill="#ffffcc" stroke="#000000" cx="232.985" cy="-126" rx="50.8918" ry="18"/>
<text text-anchor="middle" x="232.985" y="-122.3" font-family="Times,serif" font-size="14.00" fill="#000000">encloses</text>
</a>
</g>
</g>
<!-- encloses&#45;&gt;connected -->
<g id="edge1" class="edge">
<title>encloses&#45;&gt;connected</title>
<path fill="none" stroke="#000000" d="M194.4042,-114.0156C169.6377,-106.3224 137.1939,-96.2444 110.2896,-87.8871"/>
<polygon fill="none" stroke="#000000" points="111.2408,-84.5177 100.6526,-84.8936 109.1642,-91.2026 111.2408,-84.5177"/>
<text text-anchor="middle" x="150.2895" y="-106.8" font-family="Times,serif" font-size="14.00" fill="#000000">is_a</text>
</g>
<!-- has_part -->
<g id="node3" class="node">
<title>has_part</title>
<g id="a_node3"><a xlink:href="emmodoc.html#has_part" xlink:title="has_part" target="_top">
<ellipse fill="#ffffcc" stroke="#000000" cx="413.9746" cy="-115" rx="51.1914" ry="18"/>
<text text-anchor="middle" x="413.9746" y="-111.3" font-family="Times,serif" font-size="14.00" fill="#000000">has_part</text>
</a>
</g>
</g>
<!-- has_part&#45;&gt;encloses -->
<g id="edge2" class="edge">
<title>has_part&#45;&gt;encloses</title>
<path fill="none" stroke="#000000" d="M363.0773,-118.0934C341.4074,-119.4104 315.9641,-120.9568 293.3533,-122.331"/>
<polygon fill="none" stroke="#000000" points="292.9568,-118.8485 283.1876,-122.9488 293.3815,-125.8357 292.9568,-118.8485"/>
<text text-anchor="middle" x="315.6805" y="-124.8" font-family="Times,serif" font-size="14.00" fill="#000000">is_a</text>
</g>
<!-- overlaps -->
<g id="node4" class="node">
<title>overlaps</title>
<g id="a_node4"><a xlink:href="emmodoc.html#overlaps" xlink:title="overlaps" target="_top">
<ellipse fill="#ffffcc" stroke="#000000" cx="232.985" cy="-72" rx="50.0912" ry="18"/>
<text text-anchor="middle" x="232.985" y="-68.3" font-family="Times,serif" font-size="14.00" fill="#000000">overlaps</text>
</a>
</g>
</g>
<!-- has_part&#45;&gt;overlaps -->
<g id="edge4" class="edge">
<title>has_part&#45;&gt;overlaps</title>
<path fill="none" stroke="#000000" d="M371.0826,-104.8096C345.2008,-98.6605 312.0566,-90.7861 284.7265,-84.2929"/>
<polygon fill="none" stroke="#000000" points="285.483,-80.8753 274.9448,-81.9689 283.8649,-87.6857 285.483,-80.8753"/>
<text text-anchor="middle" x="315.6805" y="-97.8" font-family="Times,serif" font-size="14.00" fill="#000000">is_a</text>
</g>
<!-- overlaps&#45;&gt;connected -->
<g id="edge3" class="edge">
<title>overlaps&#45;&gt;connected</title>
<path fill="none" stroke="#000000" d="M182.7032,-72C165.8599,-72 146.7698,-72 128.72,-72"/>
<polygon fill="none" stroke="#000000" points="128.5301,-68.5001 118.53,-72 128.53,-75.5001 128.5301,-68.5001"/>
<text text-anchor="middle" x="150.2895" y="-75.8" font-family="Times,serif" font-size="14.00" fill="#000000">is_a</text>
</g>
<!-- overcrosses -->
<g id="node5" class="node">
<title>overcrosses</title>
<g id="a_node5"><a xlink:href="emmodoc.html#overcrosses" xlink:title="overcrosses" target="_top">
<ellipse fill="#ffffcc" stroke="#000000" cx="413.9746" cy="-50" rx="66.0889" ry="18"/>
<text text-anchor="middle" x="413.9746" y="-46.3" font-family="Times,serif" font-size="14.00" fill="#000000">overcrosses</text>
</a>
</g>
</g>
<!-- overcrosses&#45;&gt;overlaps -->
<g id="edge5" class="edge">
<title>overcrosses&#45;&gt;overlaps</title>
<path fill="none" stroke="#000000" d="M348.1051,-47.4265C332.7974,-47.7015 316.6141,-48.7004 301.6805,-51 293.8806,-52.2011 285.7392,-54.0916 277.9019,-56.2573"/>
<polygon fill="none" stroke="#000000" points="276.7909,-52.9357 268.1857,-59.1164 278.767,-59.651 276.7909,-52.9357"/>
<text text-anchor="middle" x="315.6805" y="-54.8" font-family="Times,serif" font-size="14.00" fill="#000000">is_a</text>
</g>
<!-- contacts -->
<g id="node6" class="node">
<title>contacts</title>
<g id="a_node6"><a xlink:href="emmodoc.html#contacts" xlink:title="contacts" target="_top">
<ellipse fill="#ffffcc" stroke="#000000" cx="232.985" cy="-18" rx="50.8918" ry="18"/>
<text text-anchor="middle" x="232.985" y="-14.3" font-family="Times,serif" font-size="14.00" fill="#000000">contacts</text>
</a>
</g>
</g>
<!-- contacts&#45;&gt;connected -->
<g id="edge6" class="edge">
<title>contacts&#45;&gt;connected</title>
<path fill="none" stroke="#000000" d="M194.4042,-29.9844C169.6377,-37.6776 137.1939,-47.7556 110.2896,-56.1129"/>
<polygon fill="none" stroke="#000000" points="109.1642,-52.7974 100.6526,-59.1064 111.2408,-59.4823 109.1642,-52.7974"/>
<text text-anchor="middle" x="150.2895" y="-49.8" font-family="Times,serif" font-size="14.00" fill="#000000">is_a</text>
</g>
</g>
</svg>
