<?xml version="1.0" encoding="UTF-8" standalone="no"?>
<!DOCTYPE svg PUBLIC "-//W3C//DTD SVG 1.1//EN"
 "http://www.w3.org/Graphics/SVG/1.1/DTD/svg11.dtd">
<!-- Generated by graphviz version 2.40.1 (0)
 -->
<!-- Title: G Pages: 1 -->
<svg width="1282pt" height="282pt"
 viewBox="0.00 0.00 1281.81 282.00" xmlns="http://www.w3.org/2000/svg" xmlns:xlink="http://www.w3.org/1999/xlink">
<g id="graph0" class="graph" transform="scale(1 1) rotate(0) translate(4 278)">
<title>G</title>
<polygon fill="#ffffff" stroke="transparent" points="-4,4 -4,-278 1277.8097,-278 1277.8097,4 -4,4"/>
<!-- has_part -->
<g id="node1" class="node">
<title>has_part</title>
<g id="a_node1"><a xlink:href="emmodoc.html#has_part" xlink:title="has_part" target="_top">
<ellipse fill="#ffffcc" stroke="#000000" cx="51.3454" cy="-76" rx="51.1914" ry="18"/>
<text text-anchor="middle" x="51.3454" y="-72.3" font-family="Times,serif" font-size="14.00" fill="#000000">has_part</text>
</a>
</g>
</g>
<!-- has_proper_part -->
<g id="node2" class="node">
<title>has_proper_part</title>
<g id="a_node2"><a xlink:href="emmodoc.html#has_proper_part" xlink:title="has_proper_part" target="_top">
<ellipse fill="#ffffcc" stroke="#000000" cx="253.7832" cy="-110" rx="87.1846" ry="18"/>
<text text-anchor="middle" x="253.7832" y="-106.3" font-family="Times,serif" font-size="14.00" fill="#000000">has_proper_part</text>
</a>
</g>
</g>
<!-- has_proper_part&#45;&gt;has_part -->
<g id="edge1" class="edge">
<title>has_proper_part&#45;&gt;has_part</title>
<path fill="none" stroke="#000000" d="M186.0929,-98.6312C160.7483,-94.3745 132.2419,-89.5868 107.9977,-85.5149"/>
<polygon fill="none" stroke="#000000" points="108.3316,-82.022 97.89,-83.8173 107.1721,-88.9254 108.3316,-82.022"/>
<text text-anchor="middle" x="134.6909" y="-95.8" font-family="Times,serif" font-size="14.00" fill="#000000">is_a</text>
</g>
<!-- has_spatial_part -->
<g id="node3" class="node">
<title>has_spatial_part</title>
<g id="a_node3"><a xlink:href="emmodoc.html#has_spatial_part" xlink:title="has_spatial_part" target="_top">
<ellipse fill="#ffffcc" stroke="#000000" cx="524.4648" cy="-237" rx="87.1846" ry="18"/>
<text text-anchor="middle" x="524.4648" y="-233.3" font-family="Times,serif" font-size="14.00" fill="#000000">has_spatial_part</text>
</a>
</g>
</g>
<!-- has_spatial_part&#45;&gt;has_proper_part -->
<g id="edge2" class="edge">
<title>has_spatial_part&#45;&gt;has_proper_part</title>
<path fill="none" stroke="#000000" d="M455.4464,-225.8853C438.5273,-221.9548 420.7324,-216.767 404.8754,-210 359.057,-190.4469 312.1052,-156.8164 282.9566,-134.0086"/>
<polygon fill="none" stroke="#000000" points="284.8745,-131.0627 274.8633,-127.5947 280.5268,-136.5488 284.8745,-131.0627"/>
<text text-anchor="middle" x="372.8754" y="-202.8" font-family="Times,serif" font-size="14.00" fill="#000000">is_a</text>
</g>
<!-- has_non_essential_part -->
<g id="node4" class="node">
<title>has_non_essential_part</title>
<g id="a_node4"><a xlink:href="emmodoc.html#has_non_essential_part" xlink:title="has_non_essential_part" target="_top">
<ellipse fill="#ffffcc" stroke="#000000" cx="838.6926" cy="-256" rx="119.6788" ry="18"/>
<text text-anchor="middle" x="838.6926" y="-252.3" font-family="Times,serif" font-size="14.00" fill="#000000">has_non_essential_part</text>
</a>
</g>
</g>
<!-- has_non_essential_part&#45;&gt;has_spatial_part -->
<g id="edge3" class="edge">
<title>has_non_essential_part&#45;&gt;has_spatial_part</title>
<path fill="none" stroke="#000000" d="M727.4654,-249.2746C691.7927,-247.1176 652.6605,-244.7514 618.3548,-242.6771"/>
<polygon fill="none" stroke="#000000" points="618.5378,-239.1819 608.3447,-242.0719 618.1152,-246.1691 618.5378,-239.1819"/>
<text text-anchor="middle" x="676.0542" y="-249.8" font-family="Times,serif" font-size="14.00" fill="#000000">is_a</text>
</g>
<!-- has_essential_part -->
<g id="node5" class="node">
<title>has_essential_part</title>
<g id="a_node5"><a xlink:href="emmodoc.html#has_essential_part" xlink:title="has_essential_part" target="_top">
<ellipse fill="#ffffcc" stroke="#000000" cx="838.6926" cy="-202" rx="97.4827" ry="18"/>
<text text-anchor="middle" x="838.6926" y="-198.3" font-family="Times,serif" font-size="14.00" fill="#000000">has_essential_part</text>
</a>
</g>
</g>
<!-- has_essential_part&#45;&gt;has_spatial_part -->
<g id="edge4" class="edge">
<title>has_essential_part&#45;&gt;has_spatial_part</title>
<path fill="none" stroke="#000000" d="M754.8981,-211.3334C710.5293,-216.2754 656.1044,-222.3374 611.29,-227.329"/>
<polygon fill="none" stroke="#000000" points="610.8466,-223.8567 601.2955,-228.4423 611.6215,-230.8137 610.8466,-223.8567"/>
<text text-anchor="middle" x="676.0542" y="-224.8" font-family="Times,serif" font-size="14.00" fill="#000000">is_a</text>
</g>
<!-- has_spatial_direct_part -->
<g id="node6" class="node">
<title>has_spatial_direct_part</title>
<g id="a_node6"><a xlink:href="emmodoc.html#has_spatial_direct_part" xlink:title="has_spatial_direct_part" target="_top">
<ellipse fill="#ffffcc" stroke="#000000" cx="1153.5704" cy="-202" rx="120.4791" ry="18"/>
<text text-anchor="middle" x="1153.5704" y="-198.3" font-family="Times,serif" font-size="14.00" fill="#000000">has_spatial_direct_part</text>
</a>
</g>
</g>
<!-- has_spatial_direct_part&#45;&gt;has_essential_part -->
<g id="edge5" class="edge">
<title>has_spatial_direct_part&#45;&gt;has_essential_part</title>
<path fill="none" stroke="#000000" d="M1033.1808,-202C1004.7295,-202 974.5669,-202 946.703,-202"/>
<polygon fill="none" stroke="#000000" points="946.5488,-198.5001 936.5488,-202 946.5487,-205.5001 946.5488,-198.5001"/>
<text text-anchor="middle" x="1001.331" y="-205.8" font-family="Times,serif" font-size="14.00" fill="#000000">is_a</text>
</g>
<!-- has_member -->
<g id="node7" class="node">
<title>has_member</title>
<g id="a_node7"><a xlink:href="emmodoc.html#has_member" xlink:title="has_member" target="_top">
<ellipse fill="#ffffcc" stroke="#000000" cx="524.4648" cy="-183" rx="70.3881" ry="18"/>
<text text-anchor="middle" x="524.4648" y="-179.3" font-family="Times,serif" font-size="14.00" fill="#000000">has_member</text>
</a>
</g>
</g>
<!-- has_member&#45;&gt;has_proper_part -->
<g id="edge6" class="edge">
<title>has_member&#45;&gt;has_proper_part</title>
<path fill="none" stroke="#000000" d="M470.085,-171.6072C449.567,-167.077 426.0686,-161.6104 404.8754,-156 373.458,-147.6829 338.7444,-137.2067 310.5214,-128.3536"/>
<polygon fill="none" stroke="#000000" points="311.415,-124.9655 300.8253,-125.296 309.3098,-131.6415 311.415,-124.9655"/>
<text text-anchor="middle" x="372.8754" y="-154.8" font-family="Times,serif" font-size="14.00" fill="#000000">is_a</text>
</g>
<!-- has_temporal_part -->
<g id="node8" class="node">
<title>has_temporal_part</title>
<g id="a_node8"><a xlink:href="emmodoc.html#has_temporal_part" xlink:title="has_temporal_part" target="_top">
<ellipse fill="#ffffcc" stroke="#000000" cx="524.4648" cy="-129" rx="98.2828" ry="18"/>
<text text-anchor="middle" x="524.4648" y="-125.3" font-family="Times,serif" font-size="14.00" fill="#000000">has_temporal_part</text>
</a>
</g>
</g>
<!-- has_temporal_part&#45;&gt;has_proper_part -->
<g id="edge7" class="edge">
<title>has_temporal_part&#45;&gt;has_proper_part</title>
<path fill="none" stroke="#000000" d="M432.4467,-122.541C404.737,-120.5959 374.3189,-118.4608 346.5604,-116.5123"/>
<polygon fill="none" stroke="#000000" points="346.6843,-113.0125 336.4638,-115.8036 346.1941,-119.9953 346.6843,-113.0125"/>
<text text-anchor="middle" x="372.8754" y="-122.8" font-family="Times,serif" font-size="14.00" fill="#000000">is_a</text>
</g>
<!-- has_temporal_direct_part -->
<g id="node9" class="node">
<title>has_temporal_direct_part</title>
<g id="a_node9"><a xlink:href="emmodoc.html#has_temporal_direct_part" xlink:title="has_temporal_direct_part" target="_top">
<ellipse fill="#ffffcc" stroke="#000000" cx="838.6926" cy="-129" rx="130.777" ry="18"/>
<text text-anchor="middle" x="838.6926" y="-125.3" font-family="Times,serif" font-size="14.00" fill="#000000">has_temporal_direct_part</text>
</a>
</g>
</g>
<!-- has_temporal_direct_part&#45;&gt;has_temporal_part -->
<g id="edge8" class="edge">
<title>has_temporal_direct_part&#45;&gt;has_temporal_part</title>
<path fill="none" stroke="#000000" d="M707.7071,-129C682.8051,-129 657.002,-129 632.8956,-129"/>
<polygon fill="none" stroke="#000000" points="632.6758,-125.5001 622.6757,-129 632.6757,-132.5001 632.6758,-125.5001"/>
<text text-anchor="middle" x="676.0542" y="-132.8" font-family="Times,serif" font-size="14.00" fill="#000000">is_a</text>
</g>
<!-- has_direct_part -->
<g id="node10" class="node">
<title>has_direct_part</title>
<g id="a_node10"><a xlink:href="emmodoc.html#has_direct_part" xlink:title="has_direct_part" target="_top">
<ellipse fill="#ffffcc" stroke="#000000" cx="524.4648" cy="-75" rx="83.6854" ry="18"/>
<text text-anchor="middle" x="524.4648" y="-71.3" font-family="Times,serif" font-size="14.00" fill="#000000">has_direct_part</text>
</a>
</g>
</g>
<!-- has_direct_part&#45;&gt;has_proper_part -->
<g id="edge9" class="edge">
<title>has_direct_part&#45;&gt;has_proper_part</title>
<path fill="none" stroke="#000000" d="M452.6378,-84.2875C417.4197,-88.8413 374.781,-94.3546 338.0325,-99.1063"/>
<polygon fill="none" stroke="#000000" points="337.3034,-95.6713 327.8348,-100.4249 338.2011,-102.6136 337.3034,-95.6713"/>
<text text-anchor="middle" x="372.8754" y="-99.8" font-family="Times,serif" font-size="14.00" fill="#000000">is_a</text>
</g>
<!-- has_proper_participant -->
<g id="node11" class="node">
<title>has_proper_participant</title>
<g id="a_node11"><a xlink:href="emmodoc.html#has_proper_participant" xlink:title="has_proper_participant" target="_top">
<ellipse fill="#ffffcc" stroke="#000000" cx="524.4648" cy="-18" rx="119.6788" ry="18"/>
<text text-anchor="middle" x="524.4648" y="-14.3" font-family="Times,serif" font-size="14.00" fill="#000000">has_proper_participant</text>
</a>
</g>
</g>
<!-- has_proper_participant&#45;&gt;has_proper_part -->
<g id="edge10" class="edge">
<title>has_proper_participant&#45;&gt;has_proper_part</title>
<path fill="none" stroke="#000000" d="M457.5604,-32.9832C440.258,-37.3479 421.7534,-42.4519 404.8754,-48 384.9707,-54.543 337.6905,-74.1955 301.2775,-89.6401"/>
<polygon fill="none" stroke="#000000" points="299.6372,-86.5342 291.8034,-93.6673 302.3756,-92.9763 299.6372,-86.5342"/>
<text text-anchor="middle" x="372.8754" y="-68.8" font-family="Times,serif" font-size="14.00" fill="#000000">is_a</text>
</g>
<!-- has_participant -->
<g id="node12" class="node">
<title>has_participant</title>
<g id="a_node12"><a xlink:href="emmodoc.html#has_participant" xlink:title="has_participant" target="_top">
<ellipse fill="#ffffcc" stroke="#000000" cx="253.7832" cy="-45" rx="83.3857" ry="18"/>
<text text-anchor="middle" x="253.7832" y="-41.3" font-family="Times,serif" font-size="14.00" fill="#000000">has_participant</text>
</a>
</g>
</g>
<!-- has_proper_participant&#45;&gt;has_participant -->
<g id="edge12" class="edge">
<title>has_proper_participant&#45;&gt;has_participant</title>
<path fill="none" stroke="#000000" d="M411.0696,-12.2251C393.5412,-12.6023 375.6846,-13.7233 358.8754,-16 342.1783,-18.2615 324.3853,-22.4571 308.2778,-26.9681"/>
<polygon fill="none" stroke="#000000" points="307.1224,-23.6588 298.4912,-29.8031 309.0702,-30.3824 307.1224,-23.6588"/>
<text text-anchor="middle" x="372.8754" y="-19.8" font-family="Times,serif" font-size="14.00" fill="#000000">is_a</text>
</g>
<!-- has_participant&#45;&gt;has_part -->
<g id="edge11" class="edge">
<title>has_participant&#45;&gt;has_part</title>
<path fill="none" stroke="#000000" d="M181.849,-54.0477C162.0033,-56.729 140.4875,-59.8078 120.6909,-63 116.0239,-63.7525 111.188,-64.5737 106.3402,-65.4255"/>
<polygon fill="none" stroke="#000000" points="105.6475,-61.9938 96.423,-67.2053 106.884,-68.8838 105.6475,-61.9938"/>
<text text-anchor="middle" x="134.6909" y="-66.8" font-family="Times,serif" font-size="14.00" fill="#000000">is_a</text>
</g>
</g>
</svg>
