<?xml version="1.0" encoding="UTF-8" standalone="no"?>
<!DOCTYPE svg PUBLIC "-//W3C//DTD SVG 1.1//EN"
 "http://www.w3.org/Graphics/SVG/1.1/DTD/svg11.dtd">
<!-- Generated by graphviz version 2.40.1 (0)
 -->
<!-- Title: G Pages: 1 -->
<svg width="1130pt" height="277pt"
 viewBox="0.00 0.00 1129.83 277.00" xmlns="http://www.w3.org/2000/svg" xmlns:xlink="http://www.w3.org/1999/xlink">
<g id="graph0" class="graph" transform="scale(1 1) rotate(0) translate(4 273)">
<title>G</title>
<polygon fill="#ffffff" stroke="transparent" points="-4,4 -4,-273 1125.8305,-273 1125.8305,4 -4,4"/>
<!-- mathematical -->
<g id="node1" class="node">
<title>mathematical</title>
<g id="a_node1"><a xlink:href="emmodoc.html#mathematical" xlink:title="mathematical" target="_top">
<ellipse fill="#ffffcc" stroke="#000000" cx="74.7434" cy="-161" rx="74.9875" ry="18"/>
<text text-anchor="middle" x="74.7434" y="-157.3" font-family="Times,serif" font-size="14.00" fill="#000000">mathematical</text>
</a>
</g>
</g>
<!-- equation -->
<g id="node2" class="node">
<title>equation</title>
<g id="a_node2"><a xlink:href="emmodoc.html#equation" xlink:title="equation" target="_top">
<ellipse fill="#ffffcc" stroke="#000000" cx="321.3772" cy="-197" rx="51.1914" ry="18"/>
<text text-anchor="middle" x="321.3772" y="-193.3" font-family="Times,serif" font-size="14.00" fill="#000000">equation</text>
</a>
</g>
</g>
<!-- equation&#45;&gt;mathematical -->
<g id="edge1" class="edge">
<title>equation&#45;&gt;mathematical</title>
<path fill="none" stroke="#000000" d="M273.8237,-190.0588C238.466,-184.8978 189.5411,-177.7565 149.0415,-171.845"/>
<polygon fill="none" stroke="#000000" points="149.3405,-168.3516 138.9398,-170.3705 148.3294,-175.2782 149.3405,-168.3516"/>
<text text-anchor="middle" x="181.4867" y="-181.8" font-family="Times,serif" font-size="14.00" fill="#000000">is_a</text>
</g>
<!-- physics_equation -->
<g id="node3" class="node">
<title>physics_equation</title>
<g id="a_node3"><a xlink:href="emmodoc.html#physics_equation" xlink:title="physics_equation" target="_top">
<ellipse fill="#ffffcc" stroke="#000000" cx="604.4077" cy="-251" rx="90.9839" ry="18"/>
<text text-anchor="middle" x="604.4077" y="-247.3" font-family="Times,serif" font-size="14.00" fill="#000000">physics_equation</text>
</a>
</g>
</g>
<!-- physics_equation&#45;&gt;equation -->
<g id="edge2" class="edge">
<title>physics_equation&#45;&gt;equation</title>
<path fill="none" stroke="#000000" d="M538.7634,-238.4756C489.6229,-229.1 423.1535,-216.4181 376.6994,-207.555"/>
<polygon fill="none" stroke="#000000" points="377.2904,-204.1048 366.8117,-205.6685 375.9785,-210.9807 377.2904,-204.1048"/>
<text text-anchor="middle" x="461.2676" y="-228.8" font-family="Times,serif" font-size="14.00" fill="#000000">is_a</text>
</g>
<!-- material_relation -->
<g id="node4" class="node">
<title>material_relation</title>
<g id="a_node4"><a xlink:href="emmodoc.html#material_relation" xlink:title="material_relation" target="_top">
<ellipse fill="#ffffcc" stroke="#000000" cx="604.4077" cy="-197" rx="90.9839" ry="18"/>
<text text-anchor="middle" x="604.4077" y="-193.3" font-family="Times,serif" font-size="14.00" fill="#000000">material_relation</text>
</a>
</g>
</g>
<!-- material_relation&#45;&gt;equation -->
<g id="edge3" class="edge">
<title>material_relation&#45;&gt;equation</title>
<path fill="none" stroke="#000000" d="M513.2971,-197C470.9038,-197 421.5687,-197 383.5348,-197"/>
<polygon fill="none" stroke="#000000" points="383.1222,-193.5001 373.1221,-197 383.1221,-200.5001 383.1222,-193.5001"/>
<text text-anchor="middle" x="461.2676" y="-200.8" font-family="Times,serif" font-size="14.00" fill="#000000">is_a</text>
</g>
<!-- mathematical_model -->
<g id="node5" class="node">
<title>mathematical_model</title>
<g id="a_node5"><a xlink:href="emmodoc.html#mathematical_model" xlink:title="mathematical_model" target="_top">
<ellipse fill="#ffffcc" stroke="#000000" cx="321.3772" cy="-125" rx="107.781" ry="18"/>
<text text-anchor="middle" x="321.3772" y="-121.3" font-family="Times,serif" font-size="14.00" fill="#000000">mathematical_model</text>
</a>
</g>
</g>
<!-- mathematical_model&#45;&gt;mathematical -->
<g id="edge4" class="edge">
<title>mathematical_model&#45;&gt;mathematical</title>
<path fill="none" stroke="#000000" d="M239.9365,-136.8875C210.5667,-141.1745 177.6008,-145.9864 148.8881,-150.1774"/>
<polygon fill="none" stroke="#000000" points="148.3119,-146.7244 138.9223,-151.6321 149.323,-153.651 148.3119,-146.7244"/>
<text text-anchor="middle" x="181.4867" y="-151.8" font-family="Times,serif" font-size="14.00" fill="#000000">is_a</text>
</g>
<!-- physics_based_model -->
<g id="node6" class="node">
<title>physics_based_model</title>
<g id="a_node6"><a xlink:href="emmodoc.html#physics_based_model" xlink:title="physics_based_model" target="_top">
<ellipse fill="#ffffcc" stroke="#000000" cx="604.4077" cy="-125" rx="111.2805" ry="18"/>
<text text-anchor="middle" x="604.4077" y="-121.3" font-family="Times,serif" font-size="14.00" fill="#000000">physics_based_model</text>
</a>
</g>
</g>
<!-- physics_based_model&#45;&gt;physics_equation -->
<g id="edge11" class="edge">
<title>physics_based_model&#45;&gt;physics_equation</title>
<path fill="none" stroke="#6b8e23" d="M712.9461,-128.9415C807.7351,-136.2704 922.7673,-157.0238 871.5479,-215.5 825.1178,-268.5082 740.852,-271.4308 679.3425,-264.8541"/>
<polygon fill="#6b8e23" stroke="#6b8e23" points="679.6317,-261.3641 669.2919,-263.6744 678.8156,-268.3163 679.6317,-261.3641"/>
<text text-anchor="middle" x="820.5479" y="-204.3" font-family="Times,serif" font-size="14.00" fill="#000000">has_spatial_part some &#160;&#160;</text>
</g>
<!-- physics_based_model&#45;&gt;material_relation -->
<g id="edge12" class="edge">
<title>physics_based_model&#45;&gt;material_relation</title>
<path fill="none" stroke="#6b8e23" d="M604.4077,-143.1686C604.4077,-150.869 604.4077,-160.0257 604.4077,-168.5834"/>
<polygon fill="#6b8e23" stroke="#6b8e23" points="600.9078,-168.5867 604.4077,-178.5867 607.9078,-168.5868 600.9078,-168.5867"/>
<text text-anchor="middle" x="614.9077" y="-157.3" font-family="Times,serif" font-size="14.00" fill="#000000">has_spatial_part some &#160;&#160;</text>
</g>
<!-- physics_based_model&#45;&gt;mathematical_model -->
<g id="edge5" class="edge">
<title>physics_based_model&#45;&gt;mathematical_model</title>
<path fill="none" stroke="#000000" d="M492.9528,-125C475.4955,-125 457.3984,-125 439.7915,-125"/>
<polygon fill="none" stroke="#000000" points="439.4902,-121.5001 429.4901,-125 439.4901,-128.5001 439.4902,-121.5001"/>
<text text-anchor="middle" x="461.2676" y="-128.8" font-family="Times,serif" font-size="14.00" fill="#000000">is_a</text>
</g>
<!-- continuum_model -->
<g id="node7" class="node">
<title>continuum_model</title>
<g id="a_node7"><a xlink:href="emmodoc.html#continuum_model" xlink:title="continuum_model" target="_top">
<ellipse fill="#ffffcc" stroke="#000000" cx="1023.6892" cy="-180" rx="93.6835" ry="18"/>
<text text-anchor="middle" x="1023.6892" y="-176.3" font-family="Times,serif" font-size="14.00" fill="#000000">continuum_model</text>
</a>
</g>
</g>
<!-- continuum_model&#45;&gt;physics_based_model -->
<g id="edge6" class="edge">
<title>continuum_model&#45;&gt;physics_based_model</title>
<path fill="none" stroke="#000000" d="M942.615,-170.9584C884.3781,-164.2836 804.0411,-154.7077 733.5479,-145 720.6526,-143.2242 707.0509,-141.2398 693.707,-139.2294"/>
<polygon fill="none" stroke="#000000" points="693.9812,-135.731 683.569,-137.6901 692.9303,-142.6517 693.9812,-135.731"/>
<text text-anchor="middle" x="820.5479" y="-170.8" font-family="Times,serif" font-size="14.00" fill="#000000">is_a</text>
</g>
<!-- mesoscopic_model -->
<g id="node8" class="node">
<title>mesoscopic_model</title>
<g id="a_node8"><a xlink:href="emmodoc.html#mesoscopic_model" xlink:title="mesoscopic_model" target="_top">
<ellipse fill="#ffffcc" stroke="#000000" cx="1023.6892" cy="-126" rx="98.2828" ry="18"/>
<text text-anchor="middle" x="1023.6892" y="-122.3" font-family="Times,serif" font-size="14.00" fill="#000000">mesoscopic_model</text>
</a>
</g>
</g>
<!-- mesoscopic_model&#45;&gt;physics_based_model -->
<g id="edge7" class="edge">
<title>mesoscopic_model&#45;&gt;physics_based_model</title>
<path fill="none" stroke="#000000" d="M925.3863,-125.7655C865.7652,-125.6233 789.2191,-125.4408 725.8328,-125.2896"/>
<polygon fill="none" stroke="#000000" points="725.7856,-121.7896 715.7773,-125.2656 725.7688,-128.7896 725.7856,-121.7896"/>
<text text-anchor="middle" x="820.5479" y="-129.8" font-family="Times,serif" font-size="14.00" fill="#000000">is_a</text>
</g>
<!-- electronic_model -->
<g id="node9" class="node">
<title>electronic_model</title>
<g id="a_node9"><a xlink:href="emmodoc.html#electronic_model" xlink:title="electronic_model" target="_top">
<ellipse fill="#ffffcc" stroke="#000000" cx="1023.6892" cy="-72" rx="90.9839" ry="18"/>
<text text-anchor="middle" x="1023.6892" y="-68.3" font-family="Times,serif" font-size="14.00" fill="#000000">electronic_model</text>
</a>
</g>
</g>
<!-- electronic_model&#45;&gt;physics_based_model -->
<g id="edge8" class="edge">
<title>electronic_model&#45;&gt;physics_based_model</title>
<path fill="none" stroke="#000000" d="M944.8278,-81.1151C886.449,-87.9595 804.9932,-97.7124 733.5479,-107 722.0608,-108.4933 710.0061,-110.1088 698.0697,-111.738"/>
<polygon fill="none" stroke="#000000" points="697.5176,-108.2808 688.086,-113.1073 698.4688,-115.2159 697.5176,-108.2808"/>
<text text-anchor="middle" x="820.5479" y="-110.8" font-family="Times,serif" font-size="14.00" fill="#000000">is_a</text>
</g>
<!-- atomistic_model -->
<g id="node10" class="node">
<title>atomistic_model</title>
<g id="a_node10"><a xlink:href="emmodoc.html#atomistic_model" xlink:title="atomistic_model" target="_top">
<ellipse fill="#ffffcc" stroke="#000000" cx="1023.6892" cy="-18" rx="87.1846" ry="18"/>
<text text-anchor="middle" x="1023.6892" y="-14.3" font-family="Times,serif" font-size="14.00" fill="#000000">atomistic_model</text>
</a>
</g>
</g>
<!-- atomistic_model&#45;&gt;physics_based_model -->
<g id="edge9" class="edge">
<title>atomistic_model&#45;&gt;physics_based_model</title>
<path fill="none" stroke="#000000" d="M938.7732,-13.897C876.7944,-15.0133 793.4857,-25.4627 733.5479,-67 720.453,-76.0748 728.3123,-88.466 715.5479,-98 709.7512,-102.3297 703.353,-105.9738 696.6421,-109.0398"/>
<polygon fill="none" stroke="#000000" points="695.2408,-105.8316 687.324,-112.8726 697.9036,-112.3054 695.2408,-105.8316"/>
<text text-anchor="middle" x="820.5479" y="-70.8" font-family="Times,serif" font-size="14.00" fill="#000000">is_a</text>
</g>
<!-- data_based_model -->
<g id="node11" class="node">
<title>data_based_model</title>
<g id="a_node11"><a xlink:href="emmodoc.html#data_based_model" xlink:title="data_based_model" target="_top">
<ellipse fill="#ffffcc" stroke="#000000" cx="604.4077" cy="-71" rx="96.6831" ry="18"/>
<text text-anchor="middle" x="604.4077" y="-67.3" font-family="Times,serif" font-size="14.00" fill="#000000">data_based_model</text>
</a>
</g>
</g>
<!-- data_based_model&#45;&gt;mathematical_model -->
<g id="edge10" class="edge">
<title>data_based_model&#45;&gt;mathematical_model</title>
<path fill="none" stroke="#000000" d="M536.6149,-83.9343C496.342,-91.6181 445.0176,-101.4104 402.589,-109.5054"/>
<polygon fill="none" stroke="#000000" points="401.7333,-106.1055 392.5665,-111.4176 403.0453,-112.9814 401.7333,-106.1055"/>
<text text-anchor="middle" x="461.2676" y="-103.8" font-family="Times,serif" font-size="14.00" fill="#000000">is_a</text>
</g>
</g>
</svg>
