<?xml version="1.0" encoding="UTF-8" standalone="no"?>
<!DOCTYPE svg PUBLIC "-//W3C//DTD SVG 1.1//EN"
 "http://www.w3.org/Graphics/SVG/1.1/DTD/svg11.dtd">
<!-- Generated by graphviz version 2.40.1 (0)
 -->
<!-- Title: G Pages: 1 -->
<svg width="400pt" height="98pt"
 viewBox="0.00 0.00 399.57 98.00" xmlns="http://www.w3.org/2000/svg" xmlns:xlink="http://www.w3.org/1999/xlink">
<g id="graph0" class="graph" transform="scale(1 1) rotate(0) translate(4 94)">
<title>G</title>
<polygon fill="#ffffff" stroke="transparent" points="-4,4 -4,-94 395.5709,-94 395.5709,4 -4,4"/>
<!-- mereotopological -->
<g id="node1" class="node">
<title>mereotopological</title>
<g id="a_node1"><a xlink:href="emmodoc.html#mereotopological" xlink:title="mereotopological" target="_top">
<ellipse fill="#ffffcc" stroke="#000000" cx="90.9919" cy="-45" rx="90.9839" ry="18"/>
<text text-anchor="middle" x="90.9919" y="-41.3" font-family="Times,serif" font-size="14.00" fill="#000000">mereotopological</text>
</a>
</g>
</g>
<!-- connected -->
<g id="node2" class="node">
<title>connected</title>
<g id="a_node2"><a xlink:href="emmodoc.html#connected" xlink:title="connected" target="_top">
<ellipse fill="#ffffcc" stroke="#000000" cx="318.7774" cy="-72" rx="59.2899" ry="18"/>
<text text-anchor="middle" x="318.7774" y="-68.3" font-family="Times,serif" font-size="14.00" fill="#000000">connected</text>
</a>
</g>
</g>
<!-- connected&#45;&gt;mereotopological -->
<g id="edge1" class="edge">
<title>connected&#45;&gt;mereotopological</title>
<path fill="none" stroke="#000000" d="M263.6369,-65.4641C238.314,-62.4625 207.6551,-58.8284 179.242,-55.4605"/>
<polygon fill="none" stroke="#000000" points="179.6406,-51.9833 169.2981,-54.2818 178.8166,-58.9347 179.6406,-51.9833"/>
<text text-anchor="middle" x="213.9839" y="-63.8" font-family="Times,serif" font-size="14.00" fill="#000000">is_a</text>
</g>
<!-- disconnected -->
<g id="node3" class="node">
<title>disconnected</title>
<g id="a_node3"><a xlink:href="emmodoc.html#disconnected" xlink:title="disconnected" target="_top">
<ellipse fill="#ffffcc" stroke="#000000" cx="318.7774" cy="-18" rx="72.5877" ry="18"/>
<text text-anchor="middle" x="318.7774" y="-14.3" font-family="Times,serif" font-size="14.00" fill="#000000">disconnected</text>
</a>
</g>
</g>
<!-- disconnected&#45;&gt;mereotopological -->
<g id="edge2" class="edge">
<title>disconnected&#45;&gt;mereotopological</title>
<path fill="none" stroke="#000000" d="M252.8924,-25.8095C229.9113,-28.5335 203.7382,-31.6359 179.2357,-34.5402"/>
<polygon fill="none" stroke="#000000" points="178.7344,-31.0751 169.2159,-35.7279 179.5584,-38.0264 178.7344,-31.0751"/>
<text text-anchor="middle" x="213.9839" y="-34.8" font-family="Times,serif" font-size="14.00" fill="#000000">is_a</text>
</g>
</g>
</svg>
