<?xml version="1.0" encoding="UTF-8" standalone="no"?>
<!DOCTYPE svg PUBLIC "-//W3C//DTD SVG 1.1//EN"
 "http://www.w3.org/Graphics/SVG/1.1/DTD/svg11.dtd">
<!-- Generated by graphviz version 2.40.1 (0)
 -->
<!-- Title: G Pages: 1 -->
<svg width="980pt" height="203pt"
 viewBox="0.00 0.00 980.24 203.00" xmlns="http://www.w3.org/2000/svg" xmlns:xlink="http://www.w3.org/1999/xlink">
<g id="graph0" class="graph" transform="scale(1 1) rotate(0) translate(4 199)">
<title>G</title>
<polygon fill="#ffffff" stroke="transparent" points="-4,4 -4,-199 976.2364,-199 976.2364,4 -4,4"/>
<!-- participant -->
<g id="node1" class="node">
<title>participant</title>
<g id="a_node1"><a xlink:href="#participant" xlink:title="participant" target="_top">
<ellipse fill="#ffffcc" stroke="#000000" cx="62.3945" cy="-72" rx="62.2891" ry="18"/>
<text text-anchor="middle" x="62.3945" y="-68.3" font-family="Times,serif" font-size="14.00" fill="#000000">participant</text>
</a>
</g>
</g>
<!-- semiotic -->
<g id="node2" class="node">
<title>semiotic</title>
<g id="a_node2"><a xlink:href="#semiotic" xlink:title="semiotic" target="_top">
<ellipse fill="#ffffcc" stroke="#000000" cx="238.8345" cy="-72" rx="50.0912" ry="18"/>
<text text-anchor="middle" x="238.8345" y="-68.3" font-family="Times,serif" font-size="14.00" fill="#000000">semiotic</text>
</a>
</g>
</g>
<!-- semiotic&#45;&gt;participant -->
<g id="edge1" class="edge">
<title>semiotic&#45;&gt;participant</title>
<path fill="none" stroke="#000000" d="M188.7458,-72C172.0607,-72 153.1222,-72 135.079,-72"/>
<polygon fill="none" stroke="#000000" points="134.8761,-68.5001 124.8761,-72 134.8761,-75.5001 134.8761,-68.5001"/>
<text text-anchor="middle" x="156.7889" y="-75.8" font-family="Times,serif" font-size="14.00" fill="#000000">is_a</text>
</g>
<!-- object -->
<g id="node3" class="node">
<title>object</title>
<g id="a_node3"><a xlink:href="#object" xlink:title="object" target="_top">
<ellipse fill="#ffc880" stroke="#000000" cx="415.2745" cy="-177" rx="39.7935" ry="18"/>
<text text-anchor="middle" x="415.2745" y="-173.3" font-family="Times,serif" font-size="14.00" fill="#000000">object</text>
</a>
</g>
</g>
<!-- object&#45;&gt;semiotic -->
<g id="edge2" class="edge">
<title>object&#45;&gt;semiotic</title>
<path fill="none" stroke="#000000" d="M391.1112,-162.6204C360.788,-144.5749 308.5582,-113.4928 273.856,-92.8414"/>
<polygon fill="none" stroke="#000000" points="275.3842,-89.678 265.0009,-87.5717 271.8044,-95.6934 275.3842,-89.678"/>
<text text-anchor="middle" x="320.88" y="-130.8" font-family="Times,serif" font-size="14.00" fill="#000000">is_a</text>
</g>
<!-- sign -->
<g id="node4" class="node">
<title>sign</title>
<g id="a_node4"><a xlink:href="#sign" xlink:title="sign" target="_top">
<ellipse fill="#ffc880" stroke="#000000" cx="415.2745" cy="-72" rx="30.5947" ry="18"/>
<text text-anchor="middle" x="415.2745" y="-68.3" font-family="Times,serif" font-size="14.00" fill="#000000">sign</text>
</a>
</g>
</g>
<!-- object&#45;&gt;sign -->
<g id="edge7" class="edge">
<title>object&#45;&gt;sign</title>
<path fill="none" stroke="#00cd00" d="M415.2745,-158.92C415.2745,-142.8012 415.2745,-118.9426 415.2745,-100.2977"/>
<polygon fill="#00cd00" stroke="#00cd00" points="418.7746,-100.2896 415.2745,-90.2896 411.7746,-100.2896 418.7746,-100.2896"/>
<text text-anchor="middle" x="425.7745" y="-120.8" font-family="Times,serif" font-size="14.00" fill="#000000">hs&#45;s &#160;&#160;</text>
</g>
<!-- sign&#45;&gt;semiotic -->
<g id="edge3" class="edge">
<title>sign&#45;&gt;semiotic</title>
<path fill="none" stroke="#000000" d="M384.541,-72C361.0626,-72 327.9627,-72 299.2431,-72"/>
<polygon fill="none" stroke="#000000" points="298.8864,-68.5001 288.8863,-72 298.8863,-75.5001 298.8864,-68.5001"/>
<text text-anchor="middle" x="320.88" y="-75.8" font-family="Times,serif" font-size="14.00" fill="#000000">is_a</text>
</g>
<!-- sign&#45;&gt;sign -->
<g id="edge8" class="edge">
<title>sign&#45;&gt;sign</title>
<path fill="none" stroke="#6b8e23" d="M431.3461,-87.5414C435.87,-97.9087 430.5128,-108 415.2745,-108 405.2744,-108 399.5297,-103.654 398.0404,-97.7362"/>
<polygon fill="#6b8e23" stroke="#6b8e23" points="401.5473,-97.8736 399.2029,-87.5414 394.5924,-97.0805 401.5473,-97.8736"/>
<text text-anchor="middle" x="415.2745" y="-111.8" font-family="Times,serif" font-size="14.00" fill="#000000">has_temporal_part only &#160;&#160;</text>
</g>
<!-- interpreter -->
<g id="node5" class="node">
<title>interpreter</title>
<g id="a_node5"><a xlink:href="#interpreter" xlink:title="interpreter" target="_top">
<ellipse fill="#ffffcc" stroke="#000000" cx="415.2745" cy="-18" rx="62.2891" ry="18"/>
<text text-anchor="middle" x="415.2745" y="-14.3" font-family="Times,serif" font-size="14.00" fill="#000000">interpreter</text>
</a>
</g>
</g>
<!-- interpreter&#45;&gt;semiotic -->
<g id="edge4" class="edge">
<title>interpreter&#45;&gt;semiotic</title>
<path fill="none" stroke="#000000" d="M372.1124,-31.2099C346.3302,-39.1006 313.5295,-49.1394 286.92,-57.2833"/>
<polygon fill="none" stroke="#000000" points="285.5901,-54.03 277.0523,-60.3033 287.6388,-60.7235 285.5901,-54.03"/>
<text text-anchor="middle" x="320.88" y="-53.8" font-family="Times,serif" font-size="14.00" fill="#000000">is_a</text>
</g>
<!-- observer -->
<g id="node6" class="node">
<title>observer</title>
<g id="a_node6"><a xlink:href="#observer" xlink:title="observer" target="_top">
<ellipse fill="#ffffcc" stroke="#000000" cx="593.6644" cy="-18" rx="51.9908" ry="18"/>
<text text-anchor="middle" x="593.6644" y="-14.3" font-family="Times,serif" font-size="14.00" fill="#000000">observer</text>
</a>
</g>
</g>
<!-- observer&#45;&gt;interpreter -->
<g id="edge5" class="edge">
<title>observer&#45;&gt;interpreter</title>
<path fill="none" stroke="#000000" d="M541.5871,-18C524.8313,-18 505.9486,-18 487.9894,-18"/>
<polygon fill="none" stroke="#000000" points="487.837,-14.5001 477.837,-18 487.8369,-21.5001 487.837,-14.5001"/>
<text text-anchor="middle" x="509.669" y="-21.8" font-family="Times,serif" font-size="14.00" fill="#000000">is_a</text>
</g>
<!-- measurement_instrument -->
<g id="node7" class="node">
<title>measurement_instrument</title>
<g id="a_node7"><a xlink:href="#measurement_instrument" xlink:title="measurement_instrument" target="_top">
<ellipse fill="#ffffcc" stroke="#000000" cx="840.9481" cy="-18" rx="131.077" ry="18"/>
<text text-anchor="middle" x="840.9481" y="-14.3" font-family="Times,serif" font-size="14.00" fill="#000000">measurement_instrument</text>
</a>
</g>
</g>
<!-- measurement_instrument&#45;&gt;observer -->
<g id="edge6" class="edge">
<title>measurement_instrument&#45;&gt;observer</title>
<path fill="none" stroke="#000000" d="M709.342,-18C690.8917,-18 672.6789,-18 656.3561,-18"/>
<polygon fill="none" stroke="#000000" points="655.9192,-14.5001 645.9191,-18 655.9191,-21.5001 655.9192,-14.5001"/>
<text text-anchor="middle" x="677.6597" y="-21.8" font-family="Times,serif" font-size="14.00" fill="#000000">is_a</text>
</g>
</g>
</svg>
