<?xml version="1.0" encoding="UTF-8" standalone="no"?>
<!DOCTYPE svg PUBLIC "-//W3C//DTD SVG 1.1//EN"
 "http://www.w3.org/Graphics/SVG/1.1/DTD/svg11.dtd">
<!-- Generated by graphviz version 2.40.1 (0)
 -->
<!-- Title: G Pages: 1 -->
<svg width="839pt" height="152pt"
 viewBox="0.00 0.00 838.56 152.00" xmlns="http://www.w3.org/2000/svg" xmlns:xlink="http://www.w3.org/1999/xlink">
<g id="graph0" class="graph" transform="scale(1 1) rotate(0) translate(4 148)">
<title>G</title>
<polygon fill="#ffffff" stroke="transparent" points="-4,4 -4,-148 834.5582,-148 834.5582,4 -4,4"/>
<!-- process -->
<g id="node1" class="node">
<title>process</title>
<g id="a_node1"><a xlink:href="emmodoc.html#process" xlink:title="process" target="_top">
<ellipse fill="#ffffcc" stroke="#000000" cx="46.7958" cy="-99" rx="46.5926" ry="18"/>
<text text-anchor="middle" x="46.7958" y="-95.3" font-family="Times,serif" font-size="14.00" fill="#000000">process</text>
</a>
</g>
</g>
<!-- physical_phenomenon -->
<g id="node2" class="node">
<title>physical_phenomenon</title>
<g id="a_node2"><a xlink:href="emmodoc.html#physical_phenomenon" xlink:title="physical_phenomenon" target="_top">
<ellipse fill="#ffffcc" stroke="#000000" cx="271.3316" cy="-126" rx="113.9803" ry="18"/>
<text text-anchor="middle" x="271.3316" y="-122.3" font-family="Times,serif" font-size="14.00" fill="#000000">physical_phenomenon</text>
</a>
</g>
</g>
<!-- physical_phenomenon&#45;&gt;process -->
<g id="edge1" class="edge">
<title>physical_phenomenon&#45;&gt;process</title>
<path fill="none" stroke="#000000" d="M180.6515,-115.0959C153.9337,-111.8831 125.5207,-108.4665 101.7773,-105.6114"/>
<polygon fill="none" stroke="#000000" points="101.9104,-102.1023 91.564,-104.3833 101.0746,-109.0522 101.9104,-102.1023"/>
<text text-anchor="middle" x="125.5917" y="-113.8" font-family="Times,serif" font-size="14.00" fill="#000000">is_a</text>
</g>
<!-- semiosis -->
<g id="node3" class="node">
<title>semiosis</title>
<g id="a_node3"><a xlink:href="emmodoc.html#semiosis" xlink:title="semiosis" target="_top">
<ellipse fill="#ffffcc" stroke="#000000" cx="271.3316" cy="-72" rx="50.8918" ry="18"/>
<text text-anchor="middle" x="271.3316" y="-68.3" font-family="Times,serif" font-size="14.00" fill="#000000">semiosis</text>
</a>
</g>
</g>
<!-- semiosis&#45;&gt;process -->
<g id="edge2" class="edge">
<title>semiosis&#45;&gt;process</title>
<path fill="none" stroke="#000000" d="M221.5506,-75.5218C189.9668,-78.0409 148.2842,-81.89 111.5917,-87 107.385,-87.5858 103.0357,-88.2541 98.6736,-88.9687"/>
<polygon fill="none" stroke="#000000" points="97.8003,-85.5671 88.5334,-90.7027 98.9803,-92.4669 97.8003,-85.5671"/>
<text text-anchor="middle" x="125.5917" y="-90.8" font-family="Times,serif" font-size="14.00" fill="#000000">is_a</text>
</g>
<!-- observation -->
<g id="node4" class="node">
<title>observation</title>
<g id="a_node4"><a xlink:href="emmodoc.html#observation" xlink:title="observation" target="_top">
<ellipse fill="#ffffcc" stroke="#000000" cx="533.0715" cy="-72" rx="65.7887" ry="18"/>
<text text-anchor="middle" x="533.0715" y="-68.3" font-family="Times,serif" font-size="14.00" fill="#000000">observation</text>
</a>
</g>
</g>
<!-- observation&#45;&gt;semiosis -->
<g id="edge3" class="edge">
<title>observation&#45;&gt;semiosis</title>
<path fill="none" stroke="#000000" d="M467.3613,-72C425.9001,-72 372.7243,-72 332.2194,-72"/>
<polygon fill="none" stroke="#000000" points="332.2094,-68.5001 322.2094,-72 332.2094,-75.5001 332.2094,-68.5001"/>
<text text-anchor="middle" x="417.0715" y="-75.8" font-family="Times,serif" font-size="14.00" fill="#000000">is_a</text>
</g>
<!-- experiment -->
<g id="node5" class="node">
<title>experiment</title>
<g id="a_node5"><a xlink:href="emmodoc.html#experiment" xlink:title="experiment" target="_top">
<ellipse fill="#ffffcc" stroke="#000000" cx="755.8149" cy="-126" rx="63.8893" ry="18"/>
<text text-anchor="middle" x="755.8149" y="-122.3" font-family="Times,serif" font-size="14.00" fill="#000000">experiment</text>
</a>
</g>
</g>
<!-- experiment&#45;&gt;physical_phenomenon -->
<g id="edge7" class="edge">
<title>experiment&#45;&gt;physical_phenomenon</title>
<path fill="none" stroke="#6b8e23" d="M691.979,-126C616.8604,-126 490.3817,-126 395.6863,-126"/>
<polygon fill="#6b8e23" stroke="#6b8e23" points="395.4657,-122.5001 385.4656,-126 395.4656,-129.5001 395.4657,-122.5001"/>
<text text-anchor="middle" x="533.0715" y="-129.8" font-family="Times,serif" font-size="14.00" fill="#000000">has_participant some &#160;&#160;</text>
</g>
<!-- experiment&#45;&gt;observation -->
<g id="edge4" class="edge">
<title>experiment&#45;&gt;observation</title>
<path fill="none" stroke="#000000" d="M707.2081,-114.2162C673.3932,-106.0184 628.1164,-95.0419 592.2068,-86.3362"/>
<polygon fill="none" stroke="#000000" points="592.8872,-82.8999 582.3441,-83.9452 591.2379,-89.7028 592.8872,-82.8999"/>
<text text-anchor="middle" x="649.0715" y="-105.8" font-family="Times,serif" font-size="14.00" fill="#000000">is_a</text>
</g>
<!-- theorization -->
<g id="node6" class="node">
<title>theorization</title>
<g id="a_node6"><a xlink:href="emmodoc.html#theorization" xlink:title="theorization" target="_top">
<ellipse fill="#ffffcc" stroke="#000000" cx="755.8149" cy="-72" rx="66.8882" ry="18"/>
<text text-anchor="middle" x="755.8149" y="-68.3" font-family="Times,serif" font-size="14.00" fill="#000000">theorization</text>
</a>
</g>
</g>
<!-- theorization&#45;&gt;observation -->
<g id="edge5" class="edge">
<title>theorization&#45;&gt;observation</title>
<path fill="none" stroke="#000000" d="M688.6825,-72C663.5776,-72 634.8917,-72 609.0447,-72"/>
<polygon fill="none" stroke="#000000" points="608.9167,-68.5001 598.9167,-72 608.9167,-75.5001 608.9167,-68.5001"/>
<text text-anchor="middle" x="649.0715" y="-75.8" font-family="Times,serif" font-size="14.00" fill="#000000">is_a</text>
</g>
<!-- measurement -->
<g id="node7" class="node">
<title>measurement</title>
<g id="a_node7"><a xlink:href="emmodoc.html#measurement" xlink:title="measurement" target="_top">
<ellipse fill="#ffffcc" stroke="#000000" cx="755.8149" cy="-18" rx="74.9875" ry="18"/>
<text text-anchor="middle" x="755.8149" y="-14.3" font-family="Times,serif" font-size="14.00" fill="#000000">measurement</text>
</a>
</g>
</g>
<!-- measurement&#45;&gt;observation -->
<g id="edge6" class="edge">
<title>measurement&#45;&gt;observation</title>
<path fill="none" stroke="#000000" d="M703.0278,-30.7972C669.7741,-38.859 626.779,-49.2823 592.3541,-57.628"/>
<polygon fill="none" stroke="#000000" points="591.3216,-54.2769 582.4277,-60.0345 592.9709,-61.0798 591.3216,-54.2769"/>
<text text-anchor="middle" x="649.0715" y="-49.8" font-family="Times,serif" font-size="14.00" fill="#000000">is_a</text>
</g>
</g>
</svg>
