<?xml version="1.0" encoding="UTF-8" standalone="no"?>
<!DOCTYPE svg PUBLIC "-//W3C//DTD SVG 1.1//EN"
 "http://www.w3.org/Graphics/SVG/1.1/DTD/svg11.dtd">
<!-- Generated by graphviz version 2.40.1 (0)
 -->
<!-- Title: G Pages: 1 -->
<svg width="1018pt" height="515pt"
 viewBox="0.00 0.00 1018.44 515.00" xmlns="http://www.w3.org/2000/svg" xmlns:xlink="http://www.w3.org/1999/xlink">
<g id="graph0" class="graph" transform="scale(1 1) rotate(0) translate(4 511)">
<title>G</title>
<polygon fill="#ffffff" stroke="transparent" points="-4,4 -4,-511 1014.4394,-511 1014.4394,4 -4,4"/>
<!-- state -->
<g id="node1" class="node">
<title>state</title>
<g id="a_node1"><a xlink:href="emmodoc.html#state" xlink:title="state" target="_top">
<ellipse fill="#ffffcc" stroke="#000000" cx="34.4469" cy="-180" rx="34.394" ry="18"/>
<text text-anchor="middle" x="34.4469" y="-176.3" font-family="Times,serif" font-size="14.00" fill="#000000">state</text>
</a>
</g>
</g>
<!-- elementary -->
<g id="node2" class="node">
<title>elementary</title>
<g id="a_node2"><a xlink:href="emmodoc.html#elementary" xlink:title="elementary" target="_top">
<ellipse fill="#ffffcc" stroke="#000000" cx="406.1753" cy="-279" rx="63.8893" ry="18"/>
<text text-anchor="middle" x="406.1753" y="-275.3" font-family="Times,serif" font-size="14.00" fill="#000000">elementary</text>
</a>
</g>
</g>
<!-- elementary&#45;&gt;state -->
<g id="edge1" class="edge">
<title>elementary&#45;&gt;state</title>
<path fill="none" stroke="#000000" d="M355.4155,-267.9659C292.0591,-253.8087 180.619,-227.6373 86.8939,-199 81.9837,-197.4997 76.8579,-195.806 71.8165,-194.0632"/>
<polygon fill="none" stroke="#000000" points="72.899,-190.7336 62.3042,-190.6895 70.559,-197.3309 72.899,-190.7336"/>
<text text-anchor="middle" x="197.8881" y="-248.8" font-family="Times,serif" font-size="14.00" fill="#000000">is_a</text>
</g>
<!-- subatomic -->
<g id="node10" class="node">
<title>subatomic</title>
<g id="a_node10"><a xlink:href="emmodoc.html#subatomic" xlink:title="subatomic" target="_top">
<ellipse fill="#ffffcc" stroke="#000000" cx="197.8881" cy="-341" rx="59.2899" ry="18"/>
<text text-anchor="middle" x="197.8881" y="-337.3" font-family="Times,serif" font-size="14.00" fill="#000000">subatomic</text>
</a>
</g>
</g>
<!-- elementary&#45;&gt;subatomic -->
<g id="edge10" class="edge">
<title>elementary&#45;&gt;subatomic</title>
<path fill="none" stroke="#000000" d="M362.2575,-292.0728C329.5597,-301.8059 284.7939,-315.1311 250.2361,-325.4178"/>
<polygon fill="none" stroke="#000000" points="248.9079,-322.1613 240.3221,-328.3689 250.905,-328.8704 248.9079,-322.1613"/>
<text text-anchor="middle" x="294.8824" y="-318.8" font-family="Times,serif" font-size="14.00" fill="#000000">is_a</text>
</g>
<!-- massive -->
<g id="node3" class="node">
<title>massive</title>
<g id="a_node3"><a xlink:href="emmodoc.html#massive" xlink:title="massive" target="_top">
<ellipse fill="#ffffcc" stroke="#000000" cx="678.1603" cy="-225" rx="48.1917" ry="18"/>
<text text-anchor="middle" x="678.1603" y="-221.3" font-family="Times,serif" font-size="14.00" fill="#000000">massive</text>
</a>
</g>
</g>
<!-- massive&#45;&gt;elementary -->
<g id="edge2" class="edge">
<title>massive&#45;&gt;elementary</title>
<path fill="none" stroke="#000000" d="M632.1395,-219.6377C596.454,-216.8805 546.0678,-216.0706 503.4683,-227 480.3514,-232.9309 456.6873,-245.4084 438.4859,-256.6541"/>
<polygon fill="none" stroke="#000000" points="436.5751,-253.7214 430.0158,-262.0417 440.332,-259.6279 436.5751,-253.7214"/>
<text text-anchor="middle" x="536.9683" y="-230.8" font-family="Times,serif" font-size="14.00" fill="#000000">is_a</text>
</g>
<!-- electron -->
<g id="node4" class="node">
<title>electron</title>
<g id="a_node4"><a xlink:href="emmodoc.html#electron" xlink:title="electron" target="_top">
<ellipse fill="#ffffcc" stroke="#000000" cx="937.6459" cy="-203" rx="49.2915" ry="18"/>
<text text-anchor="middle" x="937.6459" y="-199.3" font-family="Times,serif" font-size="14.00" fill="#000000">electron</text>
</a>
</g>
</g>
<!-- electron&#45;&gt;massive -->
<g id="edge3" class="edge">
<title>electron&#45;&gt;massive</title>
<path fill="none" stroke="#000000" d="M889.4468,-207.0865C845.8437,-210.7833 781.5767,-216.232 735.3809,-220.1487"/>
<polygon fill="none" stroke="#000000" points="734.8949,-216.6772 725.2264,-221.0096 735.4864,-223.6522 734.8949,-216.6772"/>
<text text-anchor="middle" x="816.3524" y="-218.8" font-family="Times,serif" font-size="14.00" fill="#000000">is_a</text>
</g>
<!-- quark -->
<g id="node5" class="node">
<title>quark</title>
<g id="a_node5"><a xlink:href="emmodoc.html#quark" xlink:title="quark" target="_top">
<ellipse fill="#ffffcc" stroke="#000000" cx="937.6459" cy="-257" rx="38.1938" ry="18"/>
<text text-anchor="middle" x="937.6459" y="-253.3" font-family="Times,serif" font-size="14.00" fill="#000000">quark</text>
</a>
</g>
</g>
<!-- quark&#45;&gt;massive -->
<g id="edge4" class="edge">
<title>quark&#45;&gt;massive</title>
<path fill="none" stroke="#000000" d="M900.4679,-252.4152C856.9412,-247.0474 784.412,-238.1031 734.0873,-231.897"/>
<polygon fill="none" stroke="#000000" points="734.3722,-228.4057 724.019,-230.6553 733.5154,-235.353 734.3722,-228.4057"/>
<text text-anchor="middle" x="816.3524" y="-248.8" font-family="Times,serif" font-size="14.00" fill="#000000">is_a</text>
</g>
<!-- massless -->
<g id="node6" class="node">
<title>massless</title>
<g id="a_node6"><a xlink:href="emmodoc.html#massless" xlink:title="massless" target="_top">
<ellipse fill="#ffffcc" stroke="#000000" cx="678.1603" cy="-326" rx="52.7911" ry="18"/>
<text text-anchor="middle" x="678.1603" y="-322.3" font-family="Times,serif" font-size="14.00" fill="#000000">massless</text>
</a>
</g>
</g>
<!-- massless&#45;&gt;elementary -->
<g id="edge5" class="edge">
<title>massless&#45;&gt;elementary</title>
<path fill="none" stroke="#000000" d="M627.8804,-320.3848C592.8623,-316.1587 545.1495,-309.7715 503.4683,-302 490.4154,-299.5663 476.4755,-296.5332 463.3444,-293.4764"/>
<polygon fill="none" stroke="#000000" points="464.026,-290.0411 453.4887,-291.1436 462.4137,-296.8529 464.026,-290.0411"/>
<text text-anchor="middle" x="536.9683" y="-315.8" font-family="Times,serif" font-size="14.00" fill="#000000">is_a</text>
</g>
<!-- photon -->
<g id="node7" class="node">
<title>photon</title>
<g id="a_node7"><a xlink:href="emmodoc.html#photon" xlink:title="photon" target="_top">
<ellipse fill="#ffffcc" stroke="#000000" cx="937.6459" cy="-425" rx="42.7926" ry="18"/>
<text text-anchor="middle" x="937.6459" y="-421.3" font-family="Times,serif" font-size="14.00" fill="#000000">photon</text>
</a>
</g>
</g>
<!-- photon&#45;&gt;massless -->
<g id="edge6" class="edge">
<title>photon&#45;&gt;massless</title>
<path fill="none" stroke="#000000" d="M895.8748,-429.6385C862.6319,-431.0248 816.7215,-427.4999 785.8524,-403 768.6563,-389.3519 783.6851,-372.2085 767.8524,-357 758.7582,-348.2644 747.0845,-341.9813 735.1866,-337.465"/>
<polygon fill="none" stroke="#000000" points="736.2362,-334.1251 725.6417,-334.2088 733.976,-340.7501 736.2362,-334.1251"/>
<text text-anchor="middle" x="816.3524" y="-430.8" font-family="Times,serif" font-size="14.00" fill="#000000">is_a</text>
</g>
<!-- gluon -->
<g id="node8" class="node">
<title>gluon</title>
<g id="a_node8"><a xlink:href="emmodoc.html#gluon" xlink:title="gluon" target="_top">
<ellipse fill="#ffffcc" stroke="#000000" cx="937.6459" cy="-311" rx="36.2938" ry="18"/>
<text text-anchor="middle" x="937.6459" y="-307.3" font-family="Times,serif" font-size="14.00" fill="#000000">gluon</text>
</a>
</g>
</g>
<!-- gluon&#45;&gt;massless -->
<g id="edge7" class="edge">
<title>gluon&#45;&gt;massless</title>
<path fill="none" stroke="#000000" d="M901.1006,-309.9867C870.325,-309.4338 825.1602,-309.3256 785.8524,-312 769.8048,-313.0918 752.493,-315.0107 736.5419,-317.0842"/>
<polygon fill="none" stroke="#000000" points="735.7282,-313.662 726.2831,-318.462 736.66,-320.5997 735.7282,-313.662"/>
<text text-anchor="middle" x="816.3524" y="-315.8" font-family="Times,serif" font-size="14.00" fill="#000000">is_a</text>
</g>
<!-- graviton -->
<g id="node9" class="node">
<title>graviton</title>
<g id="a_node9"><a xlink:href="emmodoc.html#graviton" xlink:title="graviton" target="_top">
<ellipse fill="#ffffcc" stroke="#000000" cx="937.6459" cy="-488" rx="50.0912" ry="18"/>
<text text-anchor="middle" x="937.6459" y="-484.3" font-family="Times,serif" font-size="14.00" fill="#000000">graviton</text>
</a>
</g>
</g>
<!-- graviton&#45;&gt;massless -->
<g id="edge8" class="edge">
<title>graviton&#45;&gt;massless</title>
<path fill="none" stroke="#000000" d="M887.3851,-487.0871C853.9836,-483.7247 811.672,-473.704 785.8524,-446 758.3377,-416.4773 794.426,-387.3724 767.8524,-357 759.5489,-347.5096 748.1931,-340.923 736.3524,-336.3522"/>
<polygon fill="none" stroke="#000000" points="737.3958,-333.0103 726.8014,-333.1017 735.1405,-339.637 737.3958,-333.0103"/>
<text text-anchor="middle" x="816.3524" y="-481.8" font-family="Times,serif" font-size="14.00" fill="#000000">is_a</text>
</g>
<!-- subatomic&#45;&gt;state -->
<g id="edge9" class="edge">
<title>subatomic&#45;&gt;state</title>
<path fill="none" stroke="#000000" d="M171.7461,-324.7648C147.9552,-309.208 112.7115,-284.1388 86.8939,-257 72.2627,-241.62 58.8489,-221.7721 49.2497,-206.0795"/>
<polygon fill="none" stroke="#000000" points="52.1902,-204.1768 44.0583,-197.3853 46.1801,-207.7656 52.1902,-204.1768"/>
<text text-anchor="middle" x="100.8939" y="-285.8" font-family="Times,serif" font-size="14.00" fill="#000000">is_a</text>
</g>
<!-- electron_cloud -->
<g id="node11" class="node">
<title>electron_cloud</title>
<g id="a_node11"><a xlink:href="emmodoc.html#electron_cloud" xlink:title="electron_cloud" target="_top">
<ellipse fill="#ffffcc" stroke="#000000" cx="406.1753" cy="-341" rx="79.0865" ry="18"/>
<text text-anchor="middle" x="406.1753" y="-337.3" font-family="Times,serif" font-size="14.00" fill="#000000">electron_cloud</text>
</a>
</g>
</g>
<!-- electron_cloud&#45;&gt;electron -->
<g id="edge27" class="edge">
<title>electron_cloud&#45;&gt;electron</title>
<path fill="none" stroke="#6b8e23" d="M460.7194,-354.2688C469.7286,-358.2435 478.4153,-363.3784 485.4683,-370 499.9771,-383.6214 487.405,-399.2517 503.4683,-411 539.375,-437.2613 839.4562,-447.7921 846.8524,-441 881.5136,-409.1697 836.3594,-267.4529 864.8524,-230 869.73,-223.5886 876.2976,-218.6992 883.5003,-214.9706"/>
<polygon fill="#6b8e23" stroke="#6b8e23" points="885.1408,-218.0727 892.884,-210.8414 882.3213,-211.6656 885.1408,-218.0727"/>
<text text-anchor="middle" x="678.1603" y="-445.8" font-family="Times,serif" font-size="14.00" fill="#000000">hsdp&#45;s &#160;&#160;</text>
</g>
<!-- electron_cloud&#45;&gt;subatomic -->
<g id="edge11" class="edge">
<title>electron_cloud&#45;&gt;subatomic</title>
<path fill="none" stroke="#000000" d="M326.8367,-341C307.2491,-341 286.4186,-341 267.3414,-341"/>
<polygon fill="none" stroke="#000000" points="267.2428,-337.5001 257.2428,-341 267.2428,-344.5001 267.2428,-337.5001"/>
<text text-anchor="middle" x="294.8824" y="-344.8" font-family="Times,serif" font-size="14.00" fill="#000000">is_a</text>
</g>
<!-- nucleon -->
<g id="node12" class="node">
<title>nucleon</title>
<g id="a_node12"><a xlink:href="emmodoc.html#nucleon" xlink:title="nucleon" target="_top">
<ellipse fill="#ffffcc" stroke="#000000" cx="406.1753" cy="-397" rx="47.3916" ry="18"/>
<text text-anchor="middle" x="406.1753" y="-393.3" font-family="Times,serif" font-size="14.00" fill="#000000">nucleon</text>
</a>
</g>
</g>
<!-- nucleon&#45;&gt;subatomic -->
<g id="edge12" class="edge">
<title>nucleon&#45;&gt;subatomic</title>
<path fill="none" stroke="#000000" d="M366.9981,-386.4668C334.5756,-377.7497 288.1657,-365.272 252.1637,-355.5925"/>
<polygon fill="none" stroke="#000000" points="252.8713,-352.1585 242.3055,-352.942 251.0538,-358.9185 252.8713,-352.1585"/>
<text text-anchor="middle" x="294.8824" y="-373.8" font-family="Times,serif" font-size="14.00" fill="#000000">is_a</text>
</g>
<!-- proton -->
<g id="node13" class="node">
<title>proton</title>
<g id="a_node13"><a xlink:href="emmodoc.html#proton" xlink:title="proton" target="_top">
<ellipse fill="#ffffcc" stroke="#000000" cx="678.1603" cy="-384" rx="41.6928" ry="18"/>
<text text-anchor="middle" x="678.1603" y="-380.3" font-family="Times,serif" font-size="14.00" fill="#000000">proton</text>
</a>
</g>
</g>
<!-- proton&#45;&gt;quark -->
<g id="edge28" class="edge">
<title>proton&#45;&gt;quark</title>
<path fill="none" stroke="#6b8e23" d="M720.098,-384.6656C763.9179,-384.4481 828.7687,-381.2533 846.8524,-365 874.2803,-340.3482 840.6148,-311.7946 864.8524,-284 871.9014,-275.9164 881.6011,-270.2495 891.6226,-266.2778"/>
<polygon fill="#6b8e23" stroke="#6b8e23" points="892.9352,-269.5277 901.2534,-262.9659 890.6587,-262.9082 892.9352,-269.5277"/>
<text text-anchor="middle" x="816.3524" y="-384.8" font-family="Times,serif" font-size="14.00" fill="#000000">hsdp&#45;s &#160;&#160;</text>
</g>
<!-- proton&#45;&gt;nucleon -->
<g id="edge13" class="edge">
<title>proton&#45;&gt;nucleon</title>
<path fill="none" stroke="#000000" d="M636.5556,-385.9886C590.2382,-388.2024 515.0963,-391.7939 463.2922,-394.27"/>
<polygon fill="none" stroke="#000000" points="463.0794,-390.7761 453.2579,-394.7496 463.4137,-397.7681 463.0794,-390.7761"/>
<text text-anchor="middle" x="536.9683" y="-395.8" font-family="Times,serif" font-size="14.00" fill="#000000">is_a</text>
</g>
<!-- neutron -->
<g id="node14" class="node">
<title>neutron</title>
<g id="a_node14"><a xlink:href="emmodoc.html#neutron" xlink:title="neutron" target="_top">
<ellipse fill="#ffffcc" stroke="#000000" cx="678.1603" cy="-489" rx="47.3916" ry="18"/>
<text text-anchor="middle" x="678.1603" y="-485.3" font-family="Times,serif" font-size="14.00" fill="#000000">neutron</text>
</a>
</g>
</g>
<!-- neutron&#45;&gt;quark -->
<g id="edge29" class="edge">
<title>neutron&#45;&gt;quark</title>
<path fill="none" stroke="#6b8e23" d="M722.9033,-482.7856C739.3323,-478.2673 756.6374,-470.4664 767.8524,-457 799.8355,-418.5962 753.0935,-383.7443 785.8524,-346 804.4649,-324.5549 825.8476,-346.1082 846.8524,-327 862.1777,-313.0584 849.9035,-298.3445 864.8524,-284 872.5912,-276.5741 882.5518,-271.156 892.6054,-267.2149"/>
<polygon fill="#6b8e23" stroke="#6b8e23" points="893.9112,-270.4664 902.2034,-263.8717 891.6086,-263.8559 893.9112,-270.4664"/>
<text text-anchor="middle" x="816.3524" y="-349.8" font-family="Times,serif" font-size="14.00" fill="#000000">hsdp&#45;s &#160;&#160;</text>
</g>
<!-- neutron&#45;&gt;nucleon -->
<g id="edge14" class="edge">
<title>neutron&#45;&gt;nucleon</title>
<path fill="none" stroke="#000000" d="M630.9489,-486.8625C594.6234,-483.7081 543.9568,-475.9601 503.4683,-457 494.0374,-452.5837 494.0308,-447.9269 485.4683,-442 472.3559,-432.9237 457.2831,-424.0216 443.8238,-416.5624"/>
<polygon fill="none" stroke="#000000" points="445.2625,-413.3604 434.8076,-411.6444 441.9105,-419.5057 445.2625,-413.3604"/>
<text text-anchor="middle" x="536.9683" y="-480.8" font-family="Times,serif" font-size="14.00" fill="#000000">is_a</text>
</g>
<!-- nucleus -->
<g id="node15" class="node">
<title>nucleus</title>
<g id="a_node15"><a xlink:href="emmodoc.html#nucleus" xlink:title="nucleus" target="_top">
<ellipse fill="#ffffcc" stroke="#000000" cx="406.1753" cy="-469" rx="46.5926" ry="18"/>
<text text-anchor="middle" x="406.1753" y="-465.3" font-family="Times,serif" font-size="14.00" fill="#000000">nucleus</text>
</a>
</g>
</g>
<!-- nucleus&#45;&gt;subatomic -->
<g id="edge15" class="edge">
<title>nucleus&#45;&gt;subatomic</title>
<path fill="none" stroke="#000000" d="M379.1671,-454.1615C363.7321,-445.5598 344.083,-434.4036 326.8824,-424 294.0654,-404.151 257.3469,-380.3663 231.503,-363.3563"/>
<polygon fill="none" stroke="#000000" points="233.1138,-360.2259 222.8394,-357.6397 229.2585,-366.0686 233.1138,-360.2259"/>
<text text-anchor="middle" x="294.8824" y="-413.8" font-family="Times,serif" font-size="14.00" fill="#000000">is_a</text>
</g>
<!-- nucleus&#45;&gt;nucleon -->
<g id="edge30" class="edge">
<title>nucleus&#45;&gt;nucleon</title>
<path fill="none" stroke="#6b8e23" d="M406.1753,-450.5867C406.1753,-442.9407 406.1753,-433.8916 406.1753,-425.4274"/>
<polygon fill="#6b8e23" stroke="#6b8e23" points="409.6754,-425.1686 406.1753,-415.1686 402.6754,-425.1687 409.6754,-425.1686"/>
<text text-anchor="middle" x="416.6753" y="-429.3" font-family="Times,serif" font-size="14.00" fill="#000000">hsdp&#45;s &#160;&#160;</text>
</g>
<!-- nucleus&#45;&gt;proton -->
<g id="edge31" class="edge">
<title>nucleus&#45;&gt;proton</title>
<path fill="none" stroke="#6b8e23" d="M440.1169,-456.4453C455.8319,-449.1146 473.6055,-438.4267 485.4683,-424 501.536,-404.4595 482.9453,-384.7921 503.4683,-370 542.893,-341.5843 601.1271,-354.0776 639.3513,-367.493"/>
<polygon fill="#6b8e23" stroke="#6b8e23" points="638.4982,-370.9087 649.0916,-371.083 640.9191,-364.3406 638.4982,-370.9087"/>
<text text-anchor="middle" x="536.9683" y="-373.8" font-family="Times,serif" font-size="14.00" fill="#000000">hsdp&#45;m &#160;&#160;</text>
</g>
<!-- mesoscopic -->
<g id="node16" class="node">
<title>mesoscopic</title>
<g id="a_node16"><a xlink:href="emmodoc.html#mesoscopic" xlink:title="mesoscopic" target="_top">
<ellipse fill="#ffffcc" stroke="#000000" cx="197.8881" cy="-126" rx="64.9885" ry="18"/>
<text text-anchor="middle" x="197.8881" y="-122.3" font-family="Times,serif" font-size="14.00" fill="#000000">mesoscopic</text>
</a>
</g>
</g>
<!-- mesoscopic&#45;&gt;state -->
<g id="edge16" class="edge">
<title>mesoscopic&#45;&gt;state</title>
<path fill="none" stroke="#000000" d="M153.9948,-139.3742C133.5358,-145.7274 108.9022,-153.5472 86.8939,-161 82.21,-162.5861 77.3081,-164.2954 72.4613,-166.0156"/>
<polygon fill="none" stroke="#000000" points="70.9083,-162.8543 62.678,-169.5261 73.2725,-169.443 70.9083,-162.8543"/>
<text text-anchor="middle" x="100.8939" y="-164.8" font-family="Times,serif" font-size="14.00" fill="#000000">is_a</text>
</g>
<!-- molecule -->
<g id="node17" class="node">
<title>molecule</title>
<g id="a_node17"><a xlink:href="emmodoc.html#molecule" xlink:title="molecule" target="_top">
<ellipse fill="#ffffcc" stroke="#000000" cx="406.1753" cy="-126" rx="52.7911" ry="18"/>
<text text-anchor="middle" x="406.1753" y="-122.3" font-family="Times,serif" font-size="14.00" fill="#000000">molecule</text>
</a>
</g>
</g>
<!-- molecule&#45;&gt;electron_cloud -->
<g id="edge33" class="edge">
<title>molecule&#45;&gt;electron_cloud</title>
<path fill="none" stroke="#6b8e23" d="M452.3476,-134.8262C464.1842,-138.8296 476.1803,-144.6248 485.4683,-153 538.1525,-200.507 589.1106,-243.8063 546.4683,-300.5 533.5105,-317.7276 513.6822,-327.9789 492.9773,-333.9877"/>
<polygon fill="#6b8e23" stroke="#6b8e23" points="491.9078,-330.6489 483.0979,-336.5342 493.6551,-337.4274 491.9078,-330.6489"/>
<text text-anchor="middle" x="536.9683" y="-289.3" font-family="Times,serif" font-size="14.00" fill="#000000">hsdp&#45;e &#160;&#160;</text>
</g>
<!-- molecule&#45;&gt;mesoscopic -->
<g id="edge17" class="edge">
<title>molecule&#45;&gt;mesoscopic</title>
<path fill="none" stroke="#000000" d="M353.3464,-126C328.9803,-126 299.6178,-126 273.004,-126"/>
<polygon fill="none" stroke="#000000" points="272.9548,-122.5001 262.9548,-126 272.9547,-129.5001 272.9548,-122.5001"/>
<text text-anchor="middle" x="294.8824" y="-129.8" font-family="Times,serif" font-size="14.00" fill="#000000">is_a</text>
</g>
<!-- e&#45;bonded_atom -->
<g id="node23" class="node">
<title>e&#45;bonded_atom</title>
<g id="a_node23"><a xlink:href="emmodoc.html#e-bonded_atom" xlink:title="e&#45;bonded_atom" target="_top">
<ellipse fill="#ffffcc" stroke="#000000" cx="678.1603" cy="-95" rx="81.4863" ry="18"/>
<text text-anchor="middle" x="678.1603" y="-91.3" font-family="Times,serif" font-size="14.00" fill="#000000">e&#45;bonded_atom</text>
</a>
</g>
</g>
<!-- molecule&#45;&gt;e&#45;bonded_atom -->
<g id="edge32" class="edge">
<title>molecule&#45;&gt;e&#45;bonded_atom</title>
<path fill="none" stroke="#6b8e23" d="M446.925,-137.6247C459.557,-141.8202 473.3383,-147.0189 485.4683,-153 494.0917,-157.2521 494.266,-162.2138 503.4683,-165 531.9684,-173.6291 545.6781,-181.4973 570.4683,-165 587.7162,-153.522 573.0765,-135.8683 588.4683,-122 593.5008,-117.4656 599.2704,-113.6919 605.404,-110.5515"/>
<polygon fill="#6b8e23" stroke="#6b8e23" points="606.9384,-113.6989 614.6073,-106.3887 604.0535,-107.321 606.9384,-113.6989"/>
<text text-anchor="middle" x="536.9683" y="-177.8" font-family="Times,serif" font-size="14.00" fill="#000000">hsdp&#45;m &#160;&#160;</text>
</g>
<!-- atomic -->
<g id="node18" class="node">
<title>atomic</title>
<g id="a_node18"><a xlink:href="emmodoc.html#atomic" xlink:title="atomic" target="_top">
<ellipse fill="#ffffcc" stroke="#000000" cx="197.8881" cy="-180" rx="42.4939" ry="18"/>
<text text-anchor="middle" x="197.8881" y="-176.3" font-family="Times,serif" font-size="14.00" fill="#000000">atomic</text>
</a>
</g>
</g>
<!-- atomic&#45;&gt;state -->
<g id="edge18" class="edge">
<title>atomic&#45;&gt;state</title>
<path fill="none" stroke="#000000" d="M155.3725,-180C131.9734,-180 102.9543,-180 79.2091,-180"/>
<polygon fill="none" stroke="#000000" points="79.0493,-176.5001 69.0493,-180 79.0492,-183.5001 79.0493,-176.5001"/>
<text text-anchor="middle" x="100.8939" y="-183.8" font-family="Times,serif" font-size="14.00" fill="#000000">is_a</text>
</g>
<!-- atom -->
<g id="node19" class="node">
<title>atom</title>
<g id="a_node19"><a xlink:href="emmodoc.html#atom" xlink:title="atom" target="_top">
<ellipse fill="#ffffcc" stroke="#000000" cx="406.1753" cy="-180" rx="34.394" ry="18"/>
<text text-anchor="middle" x="406.1753" y="-176.3" font-family="Times,serif" font-size="14.00" fill="#000000">atom</text>
</a>
</g>
</g>
<!-- atom&#45;&gt;electron_cloud -->
<g id="edge34" class="edge">
<title>atom&#45;&gt;electron_cloud</title>
<path fill="none" stroke="#6b8e23" d="M439.2598,-185.0849C472.803,-192.194 523.0075,-208.6548 546.4683,-245.5 570.3046,-282.9349 517.525,-309.3789 470.035,-324.8061"/>
<polygon fill="#6b8e23" stroke="#6b8e23" points="468.8249,-321.5172 460.3218,-327.8377 470.9105,-328.1993 468.8249,-321.5172"/>
<text text-anchor="middle" x="536.9683" y="-249.3" font-family="Times,serif" font-size="14.00" fill="#000000">hsdp&#45;e &#160;&#160;</text>
</g>
<!-- atom&#45;&gt;nucleus -->
<g id="edge35" class="edge">
<title>atom&#45;&gt;nucleus</title>
<path fill="none" stroke="#6b8e23" d="M436.4943,-188.6546C470.2324,-200.0958 523.0728,-223.8439 546.4683,-265.5 560.1423,-289.8468 585.6412,-311.6753 485.4683,-424 475.2821,-435.4219 461.4794,-444.6351 448.245,-451.6787"/>
<polygon fill="#6b8e23" stroke="#6b8e23" points="446.5904,-448.593 439.225,-456.2089 449.7321,-454.8484 446.5904,-448.593"/>
<text text-anchor="middle" x="536.9683" y="-269.3" font-family="Times,serif" font-size="14.00" fill="#000000">hsdp&#45;e &#160;&#160;</text>
</g>
<!-- atom&#45;&gt;atomic -->
<g id="edge19" class="edge">
<title>atom&#45;&gt;atomic</title>
<path fill="none" stroke="#000000" d="M371.3127,-180C338.3913,-180 288.5654,-180 250.7553,-180"/>
<polygon fill="none" stroke="#000000" points="250.4336,-176.5001 240.4336,-180 250.4336,-183.5001 250.4336,-176.5001"/>
<text text-anchor="middle" x="294.8824" y="-183.8" font-family="Times,serif" font-size="14.00" fill="#000000">is_a</text>
</g>
<!-- standalone_atom -->
<g id="node20" class="node">
<title>standalone_atom</title>
<g id="a_node20"><a xlink:href="emmodoc.html#standalone_atom" xlink:title="standalone_atom" target="_top">
<ellipse fill="#ffffcc" stroke="#000000" cx="678.1603" cy="-149" rx="89.8845" ry="18"/>
<text text-anchor="middle" x="678.1603" y="-145.3" font-family="Times,serif" font-size="14.00" fill="#000000">standalone_atom</text>
</a>
</g>
</g>
<!-- standalone_atom&#45;&gt;atom -->
<g id="edge20" class="edge">
<title>standalone_atom&#45;&gt;atom</title>
<path fill="none" stroke="#000000" d="M591.1301,-144.4965C563.0154,-144.3736 531.7969,-145.6487 503.4683,-150 483.1255,-153.1247 461.1605,-159.6132 443.2574,-165.7591"/>
<polygon fill="none" stroke="#000000" points="442.0268,-162.4818 433.7652,-169.1147 444.36,-169.0815 442.0268,-162.4818"/>
<text text-anchor="middle" x="536.9683" y="-153.8" font-family="Times,serif" font-size="14.00" fill="#000000">is_a</text>
</g>
<!-- neutral_atom -->
<g id="node21" class="node">
<title>neutral_atom</title>
<g id="a_node21"><a xlink:href="emmodoc.html#neutral_atom" xlink:title="neutral_atom" target="_top">
<ellipse fill="#ffffcc" stroke="#000000" cx="937.6459" cy="-95" rx="72.5877" ry="18"/>
<text text-anchor="middle" x="937.6459" y="-91.3" font-family="Times,serif" font-size="14.00" fill="#000000">neutral_atom</text>
</a>
</g>
</g>
<!-- neutral_atom&#45;&gt;standalone_atom -->
<g id="edge21" class="edge">
<title>neutral_atom&#45;&gt;standalone_atom</title>
<path fill="none" stroke="#000000" d="M881.6609,-106.6507C843.3972,-114.6135 792.3172,-125.2435 750.906,-133.8613"/>
<polygon fill="none" stroke="#000000" points="749.9496,-130.4853 740.8724,-135.9494 751.3758,-137.3385 749.9496,-130.4853"/>
<text text-anchor="middle" x="816.3524" y="-128.8" font-family="Times,serif" font-size="14.00" fill="#000000">is_a</text>
</g>
<!-- ion_atom -->
<g id="node22" class="node">
<title>ion_atom</title>
<g id="a_node22"><a xlink:href="emmodoc.html#ion_atom" xlink:title="ion_atom" target="_top">
<ellipse fill="#ffffcc" stroke="#000000" cx="937.6459" cy="-149" rx="53.0913" ry="18"/>
<text text-anchor="middle" x="937.6459" y="-145.3" font-family="Times,serif" font-size="14.00" fill="#000000">ion_atom</text>
</a>
</g>
</g>
<!-- ion_atom&#45;&gt;standalone_atom -->
<g id="edge22" class="edge">
<title>ion_atom&#45;&gt;standalone_atom</title>
<path fill="none" stroke="#000000" d="M884.195,-149C853.6146,-149 814.2641,-149 778.161,-149"/>
<polygon fill="none" stroke="#000000" points="778.0743,-145.5001 768.0742,-149 778.0742,-152.5001 778.0743,-145.5001"/>
<text text-anchor="middle" x="816.3524" y="-152.8" font-family="Times,serif" font-size="14.00" fill="#000000">is_a</text>
</g>
<!-- e&#45;bonded_atom&#45;&gt;atom -->
<g id="edge23" class="edge">
<title>e&#45;bonded_atom&#45;&gt;atom</title>
<path fill="none" stroke="#000000" d="M596.5312,-95.2838C565.2926,-98.7561 530.6672,-106.9943 503.4683,-125 491.1324,-133.1664 497.1207,-143.8849 485.4683,-153 474.8938,-161.2719 461.634,-167.0891 449.001,-171.1462"/>
<polygon fill="none" stroke="#000000" points="447.6915,-167.882 439.0672,-174.0359 449.6468,-174.6034 447.6915,-167.882"/>
<text text-anchor="middle" x="536.9683" y="-128.8" font-family="Times,serif" font-size="14.00" fill="#000000">is_a</text>
</g>
<!-- continuum -->
<g id="node24" class="node">
<title>continuum</title>
<g id="a_node24"><a xlink:href="emmodoc.html#continuum" xlink:title="continuum" target="_top">
<ellipse fill="#ffffcc" stroke="#000000" cx="197.8881" cy="-72" rx="60.3893" ry="18"/>
<text text-anchor="middle" x="197.8881" y="-68.3" font-family="Times,serif" font-size="14.00" fill="#000000">continuum</text>
</a>
</g>
</g>
<!-- continuum&#45;&gt;state -->
<g id="edge24" class="edge">
<title>continuum&#45;&gt;state</title>
<path fill="none" stroke="#000000" d="M159.7371,-86.1393C150.7455,-89.9358 141.3276,-94.3045 132.8939,-99 104.6364,-114.7326 76.5623,-138.8957 57.669,-156.7392"/>
<polygon fill="none" stroke="#000000" points="54.9444,-154.5033 50.1602,-163.9565 59.7953,-159.5501 54.9444,-154.5033"/>
<text text-anchor="middle" x="100.8939" y="-133.8" font-family="Times,serif" font-size="14.00" fill="#000000">is_a</text>
</g>
<!-- fluid -->
<g id="node25" class="node">
<title>fluid</title>
<g id="a_node25"><a xlink:href="emmodoc.html#fluid" xlink:title="fluid" target="_top">
<ellipse fill="#ffffcc" stroke="#000000" cx="406.1753" cy="-18" rx="31.6951" ry="18"/>
<text text-anchor="middle" x="406.1753" y="-14.3" font-family="Times,serif" font-size="14.00" fill="#000000">fluid</text>
</a>
</g>
</g>
<!-- fluid&#45;&gt;continuum -->
<g id="edge25" class="edge">
<title>fluid&#45;&gt;continuum</title>
<path fill="none" stroke="#000000" d="M377.2139,-25.5085C345.3721,-33.7637 293.4527,-47.2242 253.653,-57.5425"/>
<polygon fill="none" stroke="#000000" points="252.6167,-54.1954 243.8152,-60.0931 254.3735,-60.9714 252.6167,-54.1954"/>
<text text-anchor="middle" x="294.8824" y="-52.8" font-family="Times,serif" font-size="14.00" fill="#000000">is_a</text>
</g>
<!-- solid -->
<g id="node26" class="node">
<title>solid</title>
<g id="a_node26"><a xlink:href="emmodoc.html#solid" xlink:title="solid" target="_top">
<ellipse fill="#ffffcc" stroke="#000000" cx="406.1753" cy="-72" rx="32.4942" ry="18"/>
<text text-anchor="middle" x="406.1753" y="-68.3" font-family="Times,serif" font-size="14.00" fill="#000000">solid</text>
</a>
</g>
</g>
<!-- solid&#45;&gt;continuum -->
<g id="edge26" class="edge">
<title>solid&#45;&gt;continuum</title>
<path fill="none" stroke="#000000" d="M373.6304,-72C345.722,-72 304.5177,-72 269.0203,-72"/>
<polygon fill="none" stroke="#000000" points="268.6934,-68.5001 258.6933,-72 268.6933,-75.5001 268.6934,-68.5001"/>
<text text-anchor="middle" x="294.8824" y="-75.8" font-family="Times,serif" font-size="14.00" fill="#000000">is_a</text>
</g>
</g>
</svg>
