<?xml version="1.0" encoding="UTF-8" standalone="no"?>
<!DOCTYPE svg PUBLIC "-//W3C//DTD SVG 1.1//EN"
 "http://www.w3.org/Graphics/SVG/1.1/DTD/svg11.dtd">
<!-- Generated by graphviz version 2.40.1 (0)
 -->
<!-- Title: G Pages: 1 -->
<svg width="279pt" height="152pt"
 viewBox="0.00 0.00 278.68 152.00" xmlns="http://www.w3.org/2000/svg" xmlns:xlink="http://www.w3.org/1999/xlink">
<g id="graph0" class="graph" transform="scale(1 1) rotate(0) translate(4 148)">
<title>G</title>
<polygon fill="#ffffff" stroke="transparent" points="-4,4 -4,-148 274.6817,-148 274.6817,4 -4,4"/>
<!-- symbolic -->
<g id="node1" class="node">
<title>symbolic</title>
<g id="a_node1"><a xlink:href="emmodoc.html#symbolic" xlink:title="symbolic" target="_top">
<ellipse fill="#ffffcc" stroke="#000000" cx="51.9954" cy="-72" rx="51.9908" ry="18"/>
<text text-anchor="middle" x="51.9954" y="-68.3" font-family="Times,serif" font-size="14.00" fill="#000000">symbolic</text>
</a>
</g>
</g>
<!-- property -->
<g id="node2" class="node">
<title>property</title>
<g id="a_node2"><a xlink:href="emmodoc.html#property" xlink:title="property" target="_top">
<ellipse fill="#ffffcc" stroke="#000000" cx="219.3362" cy="-126" rx="51.1914" ry="18"/>
<text text-anchor="middle" x="219.3362" y="-122.3" font-family="Times,serif" font-size="14.00" fill="#000000">property</text>
</a>
</g>
</g>
<!-- property&#45;&gt;symbolic -->
<g id="edge1" class="edge">
<title>property&#45;&gt;symbolic</title>
<path fill="none" stroke="#000000" d="M181.364,-113.7466C157.1655,-105.9378 125.6107,-95.7553 99.7235,-87.4016"/>
<polygon fill="none" stroke="#000000" points="100.6983,-84.0385 90.1066,-84.2983 98.5485,-90.7002 100.6983,-84.0385"/>
<text text-anchor="middle" x="135.9908" y="-105.8" font-family="Times,serif" font-size="14.00" fill="#000000">is_a</text>
</g>
<!-- symbol -->
<g id="node3" class="node">
<title>symbol</title>
<g id="a_node3"><a xlink:href="emmodoc.html#symbol" xlink:title="symbol" target="_top">
<ellipse fill="#ffffcc" stroke="#000000" cx="219.3362" cy="-72" rx="44.393" ry="18"/>
<text text-anchor="middle" x="219.3362" y="-68.3" font-family="Times,serif" font-size="14.00" fill="#000000">symbol</text>
</a>
</g>
</g>
<!-- symbol&#45;&gt;symbolic -->
<g id="edge2" class="edge">
<title>symbol&#45;&gt;symbolic</title>
<path fill="none" stroke="#000000" d="M174.9313,-72C156.2939,-72 134.2951,-72 114.0962,-72"/>
<polygon fill="none" stroke="#000000" points="114.0374,-68.5001 104.0374,-72 114.0374,-75.5001 114.0374,-68.5001"/>
<text text-anchor="middle" x="135.9908" y="-75.8" font-family="Times,serif" font-size="14.00" fill="#000000">is_a</text>
</g>
<!-- formula -->
<g id="node4" class="node">
<title>formula</title>
<g id="a_node4"><a xlink:href="emmodoc.html#formula" xlink:title="formula" target="_top">
<ellipse fill="#ffffcc" stroke="#000000" cx="219.3362" cy="-18" rx="46.5926" ry="18"/>
<text text-anchor="middle" x="219.3362" y="-14.3" font-family="Times,serif" font-size="14.00" fill="#000000">formula</text>
</a>
</g>
</g>
<!-- formula&#45;&gt;symbolic -->
<g id="edge3" class="edge">
<title>formula&#45;&gt;symbolic</title>
<path fill="none" stroke="#000000" d="M183.4374,-29.5844C158.9753,-37.4781 126.3205,-48.0157 99.6791,-56.6127"/>
<polygon fill="none" stroke="#000000" points="98.6042,-53.2818 90.1623,-59.6838 100.7539,-59.9435 98.6042,-53.2818"/>
<text text-anchor="middle" x="135.9908" y="-51.8" font-family="Times,serif" font-size="14.00" fill="#000000">is_a</text>
</g>
</g>
</svg>
